<?xml  version="1.0" encoding="UTF-8"?>
<!DOCTYPE svg PUBLIC "-//W3C//DTD SVG 1.0//EN" "http://www.w3.org/TR/2001/REC-SVG-20010904/DTD/svg10.dtd" >
<svg xmlns="http://www.w3.org/2000/svg" >
<metadata>
<version>1.0</version>
<id><![CDATA[Rockwell W01 Condensed]]></id>
<vendor>Monotype Imaging Inc.</vendor>
<credits>
<name>Fonts.com WebFonts</name>
<URL>http://webfonts.fonts.com</URL>
<role>Home of the Web fonts</role>
</credits>
<license>
<URL>http://webfonts.fonts.com/Legal</URL>
</license>
<copyright><![CDATA[Digitized data copyright (C) 1992 - 1996 The Monotype Corporation. All rights reserved. Rockwell¨ is a trademark of The Monotype Corporation which may be registered in certain jurisdictions.]]></copyright>
<trademark><![CDATA[Rockwell¨ is a trademark of The Monotype Corporation which may be registered in certain jurisdictions.]]></trademark>
<licensee>
<name></name>
</licensee>
</metadata>
<defs >
<font horiz-adv-x="817" id="9fb03fe8-9256-46ae-8b43-b91a0744ec93">
<font-face font-family="" panose-1="2 6 6 3 5 4 5 2 1 4" ascent="1906" descent="-481" units-per-em="2048" alphabetic="0">
</font-face>
<missing-glyph horiz-adv-x="0" />

<glyph unicode="&#xA;" />
<glyph unicode="&#xD;" horiz-adv-x="0" />
<glyph unicode=" " horiz-adv-x="682" />
<glyph unicode="!" horiz-adv-x="342" d="M119 399L68 1034V1507H274V1034L225 399H119ZM68 0V248H274V0H68Z"  />
<glyph unicode="&quot;" horiz-adv-x="727" d="M78 1507H276V1257L213 924H141L78 1257V1507ZM451 1507H649V1257L586 924H514L451 1257V1507Z"  />
<glyph unicode="#" horiz-adv-x="1368" d="M84 1016H403L485 1413H633L551 1016H948L1030 1413H1178L1096 1016H1280V872H1065L993 524H1280V381H963L881 -16H733L815 381H418L336 -16H188L270 381H84V524H301L373 872H84V1016ZM520 872L449 524H846L918 872H520Z"  />
<glyph unicode="$" horiz-adv-x="918" d="M391 193V662Q230 814 147 936T63 1176Q63 1311 151 1403T391 1507V1604H508V1499Q804 1444 823 1118H631Q621 1276 508 1311V868Q681 719 767 601T854 344Q854 203 761 106T508 -6V-172H391V-6Q78 37 63 379H262Q279 227 391 193ZM391 971V1317Q270 1295 270 1178Q270 1127 293 1088T391 971ZM508 551V188Q643 219 643 338Q643 439 508 551Z"  />
<glyph unicode="%" horiz-adv-x="1153" d="M412 1106Q412 886 365 788T221 690Q127 690 80 786T33 1106Q33 1522 221 1522Q318 1522 365 1422T412 1106ZM176 1221V993Q176 880 186 846T221 811Q250 811 259 858T268 997V1214Q268 1323 257 1362T221 1401Q196 1401 186 1363T176 1221ZM131 0L885 1507H1010L256 0H131ZM1120 403Q1120 183 1073 86T930 -12Q835 -12 788 84T741 403Q741 819 930 819Q1027 819 1073 719T1120 403ZM885 518V291Q885 178 895 144T930 109Q959 109 968 156T977 295V512Q977 606 968 652T930 698Q905 698 895 660T885 518Z"  />
<glyph unicode="&amp;" horiz-adv-x="961" d="M903 903V721H831Q813 458 725 281L762 182H903V0H621L592 74Q511 -12 414 -12Q269 -12 165 134T61 489Q61 734 276 920Q193 1111 193 1245Q193 1372 266 1452T457 1532Q565 1532 637 1462T709 1284Q709 1183 652 1078T496 889L631 518H635Q676 657 676 903H903ZM424 1077Q528 1178 528 1268Q528 1306 506 1332T449 1358Q417 1358 396 1334T375 1274Q375 1200 424 1077ZM528 248L346 733Q258 664 258 545Q258 438 315 309T442 180Q498 180 528 248Z"  />
<glyph unicode="&apos;" horiz-adv-x="391" d="M96 1507H295V1257L231 924H160L96 1257V1507Z"  />
<glyph unicode="(" horiz-adv-x="469" d="M426 -248V-356Q254 -261 177 -48T100 588Q100 1004 173 1215T426 1532V1419Q352 1371 324 1176T295 586Q295 171 323 -13T426 -248Z"  />
<glyph unicode=")" horiz-adv-x="469" d="M43 -248Q117 -198 145 -14T174 586Q174 981 146 1176T43 1419V1532Q218 1432 293 1223T369 588Q369 165 292 -48T43 -356V-248Z"  />
<glyph unicode="*" horiz-adv-x="788" d="M51 1194L104 1364L184 1339Q243 1257 375 1200Q363 1358 303 1430V1507H481V1430Q451 1395 430 1330T408 1200Q553 1265 602 1339L678 1364L737 1194L662 1169Q620 1188 573 1188Q478 1188 416 1169Q449 1127 514 1082T618 1028L662 969L516 862L469 924Q469 1024 391 1153Q323 1032 319 924L274 862L129 963L174 1028Q283 1062 367 1169Q291 1188 240 1188Q183 1188 129 1169L51 1194Z"  />
<glyph unicode="+" horiz-adv-x="1366" d="M604 590H135V748H604V1217H762V748H1231V590H762V121H604V590Z"  />
<glyph unicode="&#x2c;" horiz-adv-x="342" d="M68 0V248H274V0Q274 -142 217 -230T49 -338V-236Q150 -204 150 0H68Z"  />
<glyph unicode="-" horiz-adv-x="532" d="M55 436V614H477V436H55Z"  />
<glyph unicode="." horiz-adv-x="342" d="M68 0V248H274V0H68Z"  />
<glyph unicode="/" horiz-adv-x="1044" d="M823 1507H952L221 0H92L823 1507Z"  />
<glyph unicode="0" horiz-adv-x="748" d="M674 756Q674 326 600 151T373 -25Q222 -25 147 149T72 756Q72 1138 142 1335T373 1532Q524 1532 599 1354T674 756ZM274 461Q274 297 297 218T373 139Q427 139 449 214T471 461V1053Q471 1225 447 1296T373 1368Q274 1368 274 1067V461Z"  />
<glyph unicode="1" horiz-adv-x="748" d="M193 0V174H283V1255Q240 1222 193 1212V1395Q318 1443 385 1532H471V174H555V0H193Z"  />
<glyph unicode="2" horiz-adv-x="748" d="M659 459V0H51V121Q51 213 71 302T132 476T234 640L342 782Q415 877 436 951T457 1155Q457 1368 346 1368Q229 1368 229 1167Q229 1153 242 1026H66Q51 1093 51 1163Q51 1340 129 1436T350 1532Q498 1532 578 1431T659 1145Q659 1021 623 915T530 741L397 584Q348 526 312 458T254 318T229 184H485V459H659Z"  />
<glyph unicode="3" horiz-adv-x="748" d="M254 1090H84Q84 1327 144 1429T350 1532Q490 1532 567 1426T645 1128Q645 857 469 809V805Q668 750 668 440Q668 218 590 97T367 -25Q219 -25 149 93T78 475H260Q260 278 281 209T369 139Q419 139 442 185T465 449Q465 608 427 666T295 725V889Q365 889 397 904T443 969T457 1130Q457 1265 435 1316T348 1368Q305 1368 280 1327T254 1090Z"  />
<glyph unicode="4" horiz-adv-x="748" d="M315 0V174H406V438H102Q86 534 35 592L410 1532H582V592H678V438H582V174H655V0H315ZM406 592V1167H401L188 592H406Z"  />
<glyph unicode="5" horiz-adv-x="748" d="M63 438H246Q246 278 267 209T352 139Q407 139 429 195T451 416Q451 647 431 722T350 797Q249 797 244 633Q153 698 92 709L117 1507H610V1184H438V1323H266L254 881Q330 961 414 961Q530 961 591 841T653 489Q653 233 575 104T352 -25Q216 -25 140 96T63 438Z"  />
<glyph unicode="6" horiz-adv-x="748" d="M657 1098H481Q481 1368 387 1368Q331 1368 308 1292T285 1044V834Q355 905 451 905Q563 905 623 799T684 483Q684 260 608 118T385 -25Q226 -25 154 120T82 723Q82 1080 112 1230T217 1456T395 1532Q512 1532 584 1428T657 1098ZM285 713V381Q285 253 308 196T383 139Q438 139 459 210T481 481Q481 632 460 696T377 760Q328 760 285 713Z"  />
<glyph unicode="7" horiz-adv-x="748" d="M174 0V174H258Q258 938 481 1323H219V1110H45V1507H659V1372Q567 1225 521 1012T464 602T451 174H541V0H174Z"  />
<glyph unicode="8" horiz-adv-x="748" d="M494 813Q676 719 676 438Q676 -25 373 -25Q225 -25 149 91T72 430Q72 725 252 813Q94 884 94 1159Q94 1336 167 1434T373 1532Q504 1532 577 1434T651 1159Q651 884 494 813ZM373 1368Q319 1368 299 1312T279 1122Q279 889 373 889Q423 889 445 945T467 1122Q467 1251 448 1309T373 1368ZM373 725Q313 725 294 660T274 434Q274 286 291 213T373 139Q434 139 453 210T473 426Q473 602 453 663T373 725Z"  />
<glyph unicode="9" horiz-adv-x="748" d="M90 410H266Q266 139 360 139Q417 139 440 215T463 463V674Q393 602 297 602Q184 602 124 708T63 1024Q63 1167 97 1286T198 1468T362 1532Q521 1532 593 1387T666 784Q666 428 636 277T531 51T352 -25Q236 -25 163 79T90 410ZM463 795V1126Q463 1254 440 1311T365 1368Q309 1368 288 1297T266 1026Q266 869 289 809T371 748Q420 748 463 795Z"  />
<glyph unicode=":" horiz-adv-x="342" d="M68 803V1051H274V803H68ZM68 0V248H274V0H68Z"  />
<glyph unicode=";" horiz-adv-x="342" d="M68 803V1051H274V803H68ZM68 0V248H274V0Q274 -142 217 -230T49 -338V-236Q150 -204 150 0H68Z"  />
<glyph unicode="&lt;" horiz-adv-x="1366" d="M348 668L1231 307V137L135 596V739L1231 1200V1028L348 668Z"  />
<glyph unicode="=" horiz-adv-x="1366" d="M135 985H1231V827H135V985ZM135 512H1231V354H135V512Z"  />
<glyph unicode="&gt;" horiz-adv-x="1366" d="M1018 668L135 1028V1198L1231 739V596L135 137V307L1018 668Z"  />
<glyph unicode="?" horiz-adv-x="705" d="M258 844H268Q289 840 311 840Q381 840 407 899T434 1098Q434 1240 417 1299T348 1358Q295 1358 279 1306T262 1141V1044H72V1141Q72 1323 145 1427T350 1532Q487 1532 560 1423T633 1104Q633 731 422 692L389 416H297L258 844ZM240 0V248H446V0H240Z"  />
<glyph unicode="@" horiz-adv-x="2079" d="M1264 1051H1419L1294 307Q1287 263 1287 236Q1287 168 1341 168Q1443 168 1551 306T1659 668Q1659 934 1497 1095T1085 1257Q803 1257 611 1051T418 502Q418 174 606 -12T1077 -199Q1226 -199 1369 -145T1597 0H1776Q1671 -157 1477 -244T1075 -332Q730 -332 507 -99T283 514Q283 899 509 1147T1083 1395Q1404 1395 1600 1200T1796 686Q1796 486 1718 330T1512 87T1280 0Q1148 0 1128 137Q1010 0 881 0Q758 0 672 114T586 426Q586 700 704 887T991 1075Q1075 1075 1130 1035T1239 905L1264 1051ZM1024 936Q902 936 828 777T754 412Q754 285 796 214T915 143Q1039 143 1109 328T1180 711Q1180 820 1140 878T1024 936Z"  />
<glyph unicode="A" horiz-adv-x="938" d="M379 524L342 182H438V0H35V182H129L295 1325H190V1507H748V1325H643L809 182H903V0H500V182H596L559 524H379ZM393 707H545L481 1378H457L393 707Z"  />
<glyph unicode="B" horiz-adv-x="874" d="M162 182V1325H47V1507H383Q570 1507 677 1403T784 1118Q784 984 724 899T555 801V797Q679 773 749 672T819 424Q819 226 705 113T381 0H47V182H162ZM375 1325V879Q440 880 479 892T543 951T569 1098Q569 1221 532 1273T375 1325ZM375 696V182Q493 182 545 242T598 434Q598 551 565 609T488 681T375 696Z"  />
<glyph unicode="C" horiz-adv-x="831" d="M561 537L748 485Q746 248 662 112T432 -25Q252 -25 165 163T78 737Q78 1532 385 1532Q493 1532 549 1434H553V1507H735V1018H553Q553 1171 518 1252T418 1333Q370 1333 349 1294T319 1140T311 764Q311 406 335 290T436 174Q501 174 531 258T561 537Z"  />
<glyph unicode="D" horiz-adv-x="897" d="M74 0V182H184V1325H74V1507H346Q606 1507 722 1322T838 748Q838 367 720 184T352 0H74ZM397 1325V182Q513 184 558 303T604 723Q604 958 585 1087T522 1270T397 1325Z"  />
<glyph unicode="E" horiz-adv-x="811" d="M47 0V182H158V1325H47V1507H741V1067H559V1325H371V868H524V686H371V182H559V463H741V0H47Z"  />
<glyph unicode="F" horiz-adv-x="768" d="M47 0V182H156V1325H47V1507H743V1067H561V1325H369V868H526V686H369V182H494V0H47Z"  />
<glyph unicode="G" horiz-adv-x="831" d="M434 545V727H758V590Q758 298 669 137T418 -25Q339 -25 272 19T158 156T95 382T78 743Q78 1153 151 1342T381 1532Q469 1532 543 1450V1507H725V1018H543Q543 1333 422 1333Q376 1333 354 1292T321 1132T311 770Q311 505 320 383T352 218T424 174Q495 174 516 267T537 545H434Z"  />
<glyph unicode="H" horiz-adv-x="961" d="M375 711V182H446V0H47V182H162V1325H47V1507H446V1325H375V893H586V1325H514V1507H913V1325H799V182H913V0H514V182H586V711H375Z"  />
<glyph unicode="I" horiz-adv-x="532" d="M45 0V182H160V1325H45V1507H489V1325H373V182H489V0H45Z"  />
<glyph unicode="J" horiz-adv-x="532" d="M57 1325V1507H483V1325H375V-61Q375 -356 125 -356Q81 -356 23 -342V-166Q59 -174 80 -174Q131 -174 146 -144T162 -35V1325H57Z"  />
<glyph unicode="K" horiz-adv-x="918" d="M47 0V182H154V1325H47V1507H453V1325H367V182H453V0H47ZM506 0V182H602L385 778L594 1325H502V1507H881V1325H784L588 817L819 182H918V0H506Z"  />
<glyph unicode="L" horiz-adv-x="768" d="M49 0V182H158V1325H49V1507H485V1325H371V182H555V655H737V0H49Z"  />
<glyph unicode="M" horiz-adv-x="1217" d="M45 0V182H158V1325H45V1507H494L551 1189Q563 1122 574 1008L600 727H606L637 974Q655 1120 672 1220L719 1507H1169V1325H1057V182H1171V0H729V182H842V946L858 1352H838L770 836L627 0H563L424 774L348 1352H328L340 948V182H453V0H45Z"  />
<glyph unicode="N" horiz-adv-x="981" d="M53 0V182H156V1325H53V1507H387L560 960L662 520H668L645 975V1325H543V1507H930V1325H827V0H659L474 578Q444 672 411 806L328 1145H322L338 686V182H440V0H53Z"  />
<glyph unicode="O" horiz-adv-x="854" d="M776 745Q776 -25 428 -25Q249 -25 164 166T78 745Q78 1005 119 1180T239 1444T428 1532Q594 1532 685 1335T776 745ZM311 737Q311 410 335 292T428 174Q494 174 518 292T543 735Q543 1090 520 1211T428 1333Q355 1333 333 1200T311 737Z"  />
<glyph unicode="P" horiz-adv-x="854" d="M172 182V1325H49V1507H422Q617 1507 727 1383T838 1040Q838 824 734 702T385 580V182H510V0H49V182H172ZM385 1325V762Q457 762 503 777T582 854T614 1042Q614 1206 557 1265T385 1325Z"  />
<glyph unicode="Q" horiz-adv-x="854" d="M238 -143L176 -55Q253 0 289 23Q78 133 78 743Q78 1135 168 1333T424 1532Q589 1532 682 1339T776 762Q776 94 514 -8Q651 -86 727 -86Q746 -86 762 -84L717 -262Q644 -262 601 -244T489 -181Q387 -113 330 -113Q281 -113 238 -143ZM311 737Q311 410 335 292T428 174Q494 174 518 292T543 735Q543 1085 521 1209T426 1333Q354 1333 333 1199T311 737Z"  />
<glyph unicode="R" horiz-adv-x="918" d="M373 684V182H485V0H33V182H160V1325H33V1507H410Q601 1507 712 1395T823 1098Q823 859 643 743L807 182H897V0H643L457 690Q424 684 373 684ZM373 1325V866Q494 866 547 921T600 1098Q600 1226 547 1275T373 1325Z"  />
<glyph unicode="S" horiz-adv-x="788" d="M96 0V518H279V379Q279 258 304 209T391 160Q439 160 468 200T498 307Q498 364 478 431T429 543T283 735Q162 887 122 979T82 1196Q82 1344 148 1438T319 1532Q406 1532 471 1462V1507H653V1057H471V1171Q471 1265 447 1306T371 1348Q283 1348 283 1237Q283 1173 309 1106T400 958L494 842Q707 578 707 338Q707 181 631 78T440 -25Q347 -25 279 47V0H96Z"  />
<glyph unicode="T" horiz-adv-x="874" d="M831 1507V956H672V1348H545V182H664V0H213V182H332V1348H205V956H45V1507H831Z"  />
<glyph unicode="U" horiz-adv-x="938" d="M35 1325V1507H442V1325H362V358Q362 249 390 205T485 160Q554 160 581 205T608 358V1325H530V1507H903V1325H791V367Q791 162 699 69T471 -25Q322 -25 236 65T150 297V1325H35Z"  />
<glyph unicode="V" horiz-adv-x="918" d="M379 -12L127 1325H23V1507H440V1325H338Q460 726 469 401H473Q481 694 600 1325H498V1507H895V1325H786L543 -12H379Z"  />
<glyph unicode="W" horiz-adv-x="1280" d="M342 -12L111 1325H23V1507H408V1325H319Q405 879 442 420Q489 884 563 1325H473V1507H829V1325H741Q835 847 872 420Q896 828 987 1325H899V1507H1255V1325H1171L950 -12H780Q667 567 637 858Q621 643 514 -12H342Z"  />
<glyph unicode="X" horiz-adv-x="938" d="M33 0V182H109L356 750L100 1325H33V1507H410V1325H330L477 983L598 1325H520V1507H885V1325H795L575 756L827 182H905V0H520V182H600L451 518L303 182H391V0H33Z"  />
<glyph unicode="Y" horiz-adv-x="897" d="M246 0V182H352V666L109 1325H12V1507H420V1325H322L461 920H465L594 1325H498V1507H885V1325H788L565 684V182H672V0H246Z"  />
<glyph unicode="Z" horiz-adv-x="705" d="M51 0V172L434 1325H248V1008H66V1507H653V1325L268 182H473V502H655V0H51Z"  />
<glyph unicode="[" horiz-adv-x="512" d="M154 -334V1507H467V1380H342V-207H467V-334H154Z"  />
<glyph unicode="\" horiz-adv-x="1044" d="M221 1507L952 0H823L92 1507H221Z"  />
<glyph unicode="]" horiz-adv-x="512" d="M358 1507V-334H45V-207H170V1380H45V1507H358Z"  />
<glyph unicode="^" horiz-adv-x="961" d="M227 707H53L406 1507H553L907 707H733L479 1305L227 707Z"  />
<glyph unicode="_" horiz-adv-x="1024" d="M1036 -256H-12V-154H1036V-256Z"  />
<glyph unicode="`" horiz-adv-x="682" d="M483 1174H344L121 1481H324L483 1174Z"  />
<glyph unicode="a" horiz-adv-x="768" d="M737 174V0H467V90H463Q400 -12 293 -12Q194 -12 131 77T68 311Q68 471 138 557T317 643Q406 643 467 569V750Q467 854 442 882T371 911Q278 911 268 776L94 825Q114 944 190 1009T377 1075Q497 1075 576 998T655 784V174H737ZM467 207V438Q425 487 373 487Q266 487 266 317Q266 152 373 152Q424 152 467 207Z"  />
<glyph unicode="b" horiz-adv-x="788" d="M41 0V174H131V1333H41V1507H319V981H324Q391 1075 485 1075Q612 1075 665 945T719 508Q719 254 659 121T481 -12Q384 -12 324 106H319V0H41ZM319 692V416Q319 286 341 224T422 162Q475 162 497 226T520 418V596Q520 770 498 840T422 911Q319 911 319 692Z"  />
<glyph unicode="c" horiz-adv-x="705" d="M475 383L643 311Q638 150 564 63T371 -25Q210 -25 140 100T70 524Q70 808 128 935T313 1063Q412 1063 465 965H469V1051H643V670H469Q469 797 446 848T367 899Q307 899 288 833T268 604V444Q268 277 291 214T371 150Q429 150 452 199T475 383Z"  />
<glyph unicode="d" horiz-adv-x="768" d="M727 0H449V106H444Q414 48 379 18T287 -12Q172 -12 111 123T49 508Q49 815 102 945T283 1075Q377 1075 444 981H449V1333H328V1507H637V174H727V0ZM449 500V666Q449 794 426 852T346 911Q287 911 268 842T248 596V358Q248 162 346 162Q409 162 429 226T449 500Z"  />
<glyph unicode="e" horiz-adv-x="705" d="M463 317L629 256Q595 121 523 48T358 -25Q208 -25 138 104T68 516Q68 799 138 937T356 1075Q478 1075 555 962T633 633V473H266V428Q266 287 288 219T362 150Q449 150 463 317ZM266 623H444V715Q444 911 354 911Q303 911 285 853T266 668V623Z"  />
<glyph unicode="f" horiz-adv-x="512" d="M57 0V174H156V877H57V1051H156V1214Q156 1360 223 1446T414 1532Q585 1532 643 1346L471 1290L465 1307Q444 1368 401 1368Q364 1368 354 1333T344 1214V1051H477V877H344V174H487V0H57Z"  />
<glyph unicode="g" horiz-adv-x="768" d="M741 1051V877H653V49Q653 -145 560 -250T297 -356Q169 -356 66 -291L156 -160Q227 -201 289 -201Q463 -201 463 8V111H459Q421 52 387 26T301 0Q66 0 66 535Q66 822 122 942T297 1063Q382 1063 463 973V1051H741ZM465 412V522Q465 748 446 823T362 899Q300 899 282 816T264 541Q264 328 286 251T362 174Q465 174 465 412Z"  />
<glyph unicode="h" horiz-adv-x="768" d="M41 0V174H119V1333H41V1507H307V1006Q386 1075 457 1075Q649 1075 649 774V174H727V0H461V793Q461 901 399 901Q360 901 307 850V174H385V0H41Z"  />
<glyph unicode="i" horiz-adv-x="449" d="M227 1532Q278 1532 313 1497T348 1411Q348 1361 313 1326T227 1290Q177 1290 142 1325T106 1411Q106 1462 141 1497T227 1532ZM139 174V877H63V1051H328V174H387V0H63V174H139Z"  />
<glyph unicode="j" horiz-adv-x="406" d="M84 1411Q84 1462 119 1497T205 1532Q255 1532 290 1497T326 1411Q326 1361 291 1326T205 1290Q154 1290 119 1325T84 1411ZM305 1051V-51Q305 -202 241 -279T-16 -356V-182Q39 -182 63 -173T102 -132T117 -41V877H41V1051H305Z"  />
<glyph unicode="k" horiz-adv-x="748" d="M41 0V174H123V1333H41V1507H311V555H315L469 883H381V1051H723V877H639L494 580L653 174H731V0H528L315 545H311V174H399V0H41Z"  />
<glyph unicode="l" horiz-adv-x="406" d="M115 174V1333H41V1507H303V174H365V0H41V174H115Z"  />
<glyph unicode="m" horiz-adv-x="1130" d="M45 0V174H123V877H41V1051H311V958H315Q380 1063 477 1063Q573 1063 629 958Q700 1063 805 1063Q1004 1063 1004 778V174H1081V0H815V770Q815 837 803 863T754 889Q715 889 686 858T657 817V174H735V0H469V770Q469 835 455 862T406 889Q356 889 311 817V174H389V0H45Z"  />
<glyph unicode="n" horiz-adv-x="788" d="M51 0V174H129V877H47V1051H317V967H322Q387 1063 481 1063Q564 1063 611 995T659 803V174H737V0H471V774Q471 838 459 863T412 889Q374 889 346 855T317 813V174H395V0H51Z"  />
<glyph unicode="o" horiz-adv-x="705" d="M352 -25Q206 -25 138 110T70 526Q70 811 139 943T352 1075Q637 1075 637 524Q637 -25 352 -25ZM352 901Q302 901 285 828T268 528Q268 363 276 283T301 177T352 150Q409 150 423 236T438 526Q438 751 421 826T352 901Z"  />
<glyph unicode="p" horiz-adv-x="768" d="M29 1051H307V944H311Q371 1063 467 1063Q591 1063 649 926T707 496Q707 243 656 109T473 -25Q378 -25 311 70H307V-182H410V-356H29V-182H119V877H29V1051ZM307 551V385Q307 254 331 197T410 139Q471 139 489 206T508 408V555Q508 738 489 813T410 889Q350 889 329 805T307 551Z"  />
<glyph unicode="q" horiz-adv-x="788" d="M760 1051V877H670V-182H760V-356H379V-182H481V70H477Q410 -25 315 -25Q189 -25 136 105T82 543Q82 783 141 923T319 1063Q417 1063 477 944H481V1051H760ZM481 385V551Q481 752 459 820T379 889Q323 889 302 827T281 627V485Q281 277 302 208T379 139Q481 139 481 385Z"  />
<glyph unicode="r" horiz-adv-x="575" d="M43 0V174H137V877H43V1051H326V846H330Q381 977 430 1020T573 1063V864Q326 864 326 582V174H432V0H43Z"  />
<glyph unicode="s" horiz-adv-x="641" d="M66 0V362H240Q245 152 328 152Q391 152 391 244Q391 323 359 362T242 467Q142 545 100 618T57 788Q57 905 111 984T246 1063Q328 1063 379 973H383V1051H557V707H383Q383 822 366 861T307 901Q246 901 246 815Q246 751 272 711T377 614Q489 534 534 458T580 264Q580 144 523 66T381 -12Q301 -12 244 78H240V0H66Z"  />
<glyph unicode="t" horiz-adv-x="512" d="M311 877V260Q311 156 395 156Q426 156 471 174V10Q408 -12 322 -12Q218 -12 171 52T123 260V877H31V1051H123V1223Q219 1284 311 1360V1051H436V877H311Z"  />
<glyph unicode="u" horiz-adv-x="788" d="M659 1051V174H743V0H471V84H467Q401 -12 307 -12Q129 -12 129 248V877H43V1051H317V276Q317 213 329 188T377 162Q414 162 442 196T471 238V877H379V1051H659Z"  />
<glyph unicode="v" horiz-adv-x="831" d="M330 -12L106 885H23V1051H371V885H293L416 307H420L541 885H461V1051H807V885H727L504 -12H330Z"  />
<glyph unicode="w" horiz-adv-x="1174" d="M287 -12L102 885H23V1051H352V885H281L381 317L502 1051H676L817 317L903 885H823V1051H1151V885H1071L891 -12H719L582 723L453 -12H287Z"  />
<glyph unicode="x" horiz-adv-x="682" d="M43 0V174H117L242 528L117 877H43V1051H248L338 762H342L432 1051H618V877H543L426 553L561 174H643V0H432L332 324H328L223 0H43Z"  />
<glyph unicode="y" horiz-adv-x="831" d="M127 -356V-190H293L346 18L104 885H23V1051H375V885H293L428 315H432L563 885H477V1051H807V885H735L430 -356H127Z"  />
<glyph unicode="z" horiz-adv-x="705" d="M53 0V205L457 877H242V698H82V1051H645V848L242 174H492V367H651V0H53Z"  />
<glyph unicode="{" horiz-adv-x="684" d="M84 512V664Q204 664 228 752T252 971V1180Q252 1532 563 1532V1386Q459 1379 433 1330T406 1092V948Q406 785 373 703T258 588Q340 555 373 473T406 227V84Q406 -105 432 -154T563 -211V-356Q252 -356 252 -4V205Q252 328 236 395T186 487T84 512Z"  />
<glyph unicode="|" horiz-adv-x="1079" d="M473 1507H606V-195H473V1507Z"  />
<glyph unicode="}" horiz-adv-x="684" d="M600 664V512Q480 512 456 424T432 205V-4Q432 -356 121 -356V-211Q225 -203 252 -154T279 84V227Q279 390 311 472T426 588Q344 621 312 703T279 948V1092Q279 1280 252 1329T121 1386V1532Q432 1532 432 1180V971Q432 847 448 781T498 689T600 664Z"  />
<glyph unicode="~" horiz-adv-x="1343" d="M160 557V762Q267 883 436 883Q506 883 569 864T731 803Q864 745 924 745Q1057 745 1186 885V674Q1062 559 905 559Q807 559 651 629Q500 696 420 696Q346 696 289 663T160 557Z"  />
<glyph unicode="&#xA0;" horiz-adv-x="682" />
<glyph unicode="&#xA1;" horiz-adv-x="342" d="M274 1051V803H68V1051H274ZM223 651L274 16V-457H68V16L117 651H223Z"  />
<glyph unicode="&#xA2;" horiz-adv-x="705" d="M317 -184V-18Q186 -2 128 129T70 541Q70 812 130 937T317 1063V1229H422V1022Q462 990 479 936H483V1051H643V670H469Q469 790 447 844T367 899Q310 899 289 835T268 616V487Q268 293 286 222T371 150Q429 150 451 206T475 383L643 311Q631 28 422 -18V-184H317Z"  />
<glyph unicode="&#xA3;" horiz-adv-x="811" d="M662 831L664 657H471Q481 541 481 512Q481 372 444 264Q531 190 596 190Q684 190 684 336Q684 361 678 393H776Q778 375 778 334Q778 -25 600 -25Q495 -25 385 111Q349 42 312 9T221 -25Q151 -25 104 37T57 195Q57 284 99 340T207 397Q263 397 326 350Q332 383 332 401Q332 484 291 657H80L78 831H248Q190 1144 190 1214Q190 1351 265 1441T453 1532Q520 1532 574 1506T665 1427T717 1307T731 1126H547V1204Q547 1281 522 1324T455 1368Q419 1368 399 1336T379 1247Q379 1127 442 831H662ZM301 207Q242 274 205 274Q141 274 141 188Q141 151 160 128T209 104Q266 104 301 207Z"  />
<glyph unicode="&#xA4;" horiz-adv-x="1366" d="M182 1090L289 1196L418 1065Q538 1151 680 1151Q826 1151 946 1065L1077 1196L1182 1090L1053 958Q1137 836 1137 690Q1137 548 1053 432L1182 303L1077 199L946 328Q822 240 678 240Q534 240 418 328L289 199L182 303L313 432Q227 567 227 702Q227 839 313 958L182 1090ZM989 694Q989 821 899 912T682 1004Q555 1004 465 913T375 694Q375 567 465 477T682 387Q809 387 899 477T989 694ZM182 303H184V301H182V303Z"  />
<glyph unicode="&#xA5;" horiz-adv-x="897" d="M352 319H12V436H352V549H12V666H352L109 1325H12V1507H420V1325H322L461 907H465L594 1325H498V1507H885V1325H788L565 666H885V549H565V436H885V319H565V182H672V0H246V182H352V319Z"  />
<glyph unicode="&#xA6;" horiz-adv-x="1079" d="M473 1507H606V782H473V1507ZM473 530H606V-195H473V530Z"  />
<glyph unicode="&#xA7;" horiz-adv-x="705" d="M123 -2H264Q264 -143 290 -178T352 -213Q388 -213 409 -185T430 -106Q430 -51 408 -2T343 87L242 180Q70 337 70 586Q70 850 244 969Q127 1113 127 1270Q127 1388 190 1460T356 1532Q460 1532 519 1460T578 1180H438Q438 1310 414 1349T346 1389Q312 1389 292 1363T272 1292Q272 1214 302 1166T428 1028Q544 920 589 820T635 573Q635 439 593 357T459 213Q575 67 575 -82Q575 -208 513 -282T344 -356Q244 -356 184 -285T123 -2ZM367 305Q471 389 471 565Q471 765 334 877Q233 790 233 608Q233 399 367 305Z"  />
<glyph unicode="&#xA8;" horiz-adv-x="682" d="M123 1307Q123 1345 151 1373T217 1401Q255 1401 283 1373T311 1307Q311 1268 283 1240T217 1212Q179 1212 151 1240T123 1307ZM371 1307Q371 1345 399 1373T465 1401Q503 1401 531 1373T559 1307Q559 1268 531 1240T465 1212Q427 1212 399 1240T371 1307Z"  />
<glyph unicode="&#xA9;" horiz-adv-x="1511" d="M0 731Q0 934 101 1108T377 1384T756 1485Q1068 1485 1288 1264T1509 731Q1509 528 1409 353T1133 76T756 -25Q444 -25 222 197T0 731ZM125 729Q125 468 309 284T756 100Q1016 100 1200 284T1384 729Q1384 989 1200 1174T756 1360Q496 1360 311 1175T125 729ZM997 608L1120 571Q1089 441 992 369T758 297Q577 297 469 414T360 727Q360 924 469 1038T766 1153Q894 1153 982 1093T1106 918L987 889Q925 1042 760 1042Q641 1042 570 956T498 725Q498 582 566 499T750 416Q840 416 907 466T997 608Z"  />
<glyph unicode="&#xAA;" horiz-adv-x="492" d="M477 997V860H293V887Q235 860 223 856T188 852Q123 852 80 911T37 1063Q37 1160 82 1218T205 1276Q245 1276 293 1241V1321Q293 1367 283 1383T240 1399Q178 1399 178 1321L49 1352Q87 1532 242 1532Q331 1532 378 1479T426 1325V997H477ZM287 1006V1133Q256 1147 236 1147Q178 1147 178 1067Q178 987 238 987Q264 987 287 1006Z"  />
<glyph unicode="&#xAB;" horiz-adv-x="748" d="M526 0L352 522L526 1051H682L508 522L682 0H526ZM240 0L66 522L240 1051H395L221 522L395 0H240Z"  />
<glyph unicode="&#xAC;" horiz-adv-x="1366" d="M135 993H1231V348H1073V836H135V993Z"  />
<glyph unicode="&#xAD;" horiz-adv-x="532" d="M55 436V614H477V436H55Z"  />
<glyph unicode="&#xAE;" horiz-adv-x="1511" d="M0 731Q0 934 101 1108T377 1384T756 1485Q1068 1485 1288 1264T1509 731Q1509 528 1409 353T1133 76T756 -25Q444 -25 222 197T0 731ZM125 729Q125 468 309 284T756 100Q1016 100 1200 284T1384 729Q1384 989 1200 1174T756 1360Q496 1360 311 1175T125 729ZM426 313V1124H772Q901 1124 977 1063T1053 905Q1053 816 989 751T819 678V674Q856 665 900 618T1001 482L1106 313H946Q801 575 756 616T633 657H555V313H426ZM555 770H748Q827 770 869 802T911 893Q911 1014 750 1014H555V770Z"  />
<glyph unicode="&#xAF;" horiz-adv-x="1024" d="M1035 1661H-13V1763H1035V1661Z"  />
<glyph unicode="&#xB0;" horiz-adv-x="819" d="M131 1255Q131 1370 213 1451T410 1532Q524 1532 605 1451T686 1255Q686 1140 606 1059T410 977Q295 977 213 1059T131 1255ZM254 1255Q254 1185 296 1142T410 1098Q479 1098 521 1141T563 1255Q563 1326 522 1366T410 1407Q338 1407 296 1366T254 1255Z"  />
<glyph unicode="&#xB1;" horiz-adv-x="1366" d="M604 784H135V942H604V1386H762V942H1231V784H762V340H604V784ZM135 158H1231V0H135V158Z"  />
<glyph unicode="&#xB2;" horiz-adv-x="449" d="M403 983V713H23V766Q23 834 41 899T83 1003T207 1155Q262 1216 262 1317Q262 1411 211 1411Q152 1411 152 1325Q152 1311 162 1235H35Q23 1280 23 1325Q23 1423 72 1477T211 1532Q304 1532 355 1476T406 1315Q406 1174 313 1081L240 1008Q206 974 184 929T154 844H279V983H403Z"  />
<glyph unicode="&#xB3;" horiz-adv-x="449" d="M166 1268H41Q41 1366 55 1418T108 1501T211 1532Q296 1532 345 1472T395 1307Q395 1188 328 1143Q410 1090 410 950Q410 832 360 766T221 700Q171 700 134 720T73 779T43 862T37 991H166Q167 884 177 853T219 821Q248 821 257 844T266 926Q266 1030 251 1054T166 1081V1202Q231 1204 243 1219T256 1309Q256 1411 211 1411Q180 1411 173 1388T166 1268Z"  />
<glyph unicode="&#xB4;" horiz-adv-x="682" d="M199 1174L358 1481H561L338 1174H199Z"  />
<glyph unicode="&#xB5;" horiz-adv-x="1139" d="M303 -356V1051H492V279Q492 174 555 174Q589 174 617 207T645 250V1051H834V0H649V84H645Q631 38 604 14T547 -10Q517 -10 492 8V-356H303Z"  />
<glyph unicode="&#xB6;" horiz-adv-x="1102" d="M498 698Q314 707 214 814T113 1087Q113 1281 241 1394T608 1507H1036V1356H934V-356H782V1356H649V-356H498V698Z"  />
<glyph unicode="&#xB7;" horiz-adv-x="342" d="M68 629V877H274V629H68Z"  />
<glyph unicode="&#xB8;" horiz-adv-x="682" d="M215 -311L225 -203Q255 -209 268 -209Q350 -209 350 -141Q350 -82 281 -82Q266 -82 246 -88L268 -29Q300 -20 326 -20Q392 -20 430 -56T469 -156Q469 -231 420 -275T287 -319Q251 -319 215 -311Z"  />
<glyph unicode="&#xB9;" horiz-adv-x="449" d="M106 713V840H160V1346Q131 1333 106 1331V1458Q187 1483 227 1532H295V840H344V713H106Z"  />
<glyph unicode="&#xBA;" horiz-adv-x="449" d="M225 846Q37 846 37 1188Q37 1532 223 1532Q412 1532 412 1190Q412 846 225 846ZM223 1395Q196 1395 186 1358T176 1188Q176 1055 184 1019T223 983Q253 983 262 1021T272 1190Q272 1323 263 1359T223 1395Z"  />
<glyph unicode="&#xBB;" horiz-adv-x="748" d="M221 1051L395 524L221 0H66L240 524L66 1051H221ZM508 1051L682 524L508 0H352L526 524L352 1051H508Z"  />
<glyph unicode="&#xBC;" horiz-adv-x="1153" d="M106 713V840H160V1346Q131 1333 106 1331V1458Q187 1483 227 1532H295V840H344V713H106ZM131 0L885 1507H1010L256 0H131ZM827 1V128H881V224H705Q697 282 657 320L889 818H1008V341H1065V224H1008V128H1053V1H827ZM881 341V554H877L786 341H881Z"  />
<glyph unicode="&#xBD;" horiz-adv-x="1153" d="M106 713V840H160V1346Q131 1333 106 1331V1458Q187 1483 227 1532H295V840H344V713H106ZM131 0L885 1507H1010L256 0H131ZM1105 271V1H725V54Q725 122 743 187T785 291T909 443Q964 504 964 605Q964 699 913 699Q854 699 854 613Q854 599 864 523H737Q725 568 725 613Q725 711 774 765T913 820Q1006 820 1057 764T1108 603Q1108 462 1015 369L942 296Q908 262 886 217T856 132H981V271H1105Z"  />
<glyph unicode="&#xBE;" horiz-adv-x="1153" d="M166 1268H41Q41 1366 55 1418T108 1501T211 1532Q296 1532 345 1472T395 1307Q395 1188 328 1143Q410 1090 410 950Q410 832 360 766T221 700Q171 700 134 720T73 779T43 862T37 991H166Q167 884 177 853T219 821Q248 821 257 844T266 926Q266 1030 251 1054T166 1081V1202Q231 1204 243 1219T256 1309Q256 1411 211 1411Q180 1411 173 1388T166 1268ZM131 0L885 1507H1010L256 0H131ZM827 1V128H881V224H705Q697 282 657 320L889 818H1008V341H1065V224H1008V128H1053V1H827ZM881 341V554H877L786 341H881Z"  />
<glyph unicode="&#xBF;" horiz-adv-x="705" d="M465 1051V803H258V1051H465ZM446 207H436Q416 211 393 211Q324 211 297 152T270 -47Q270 -195 288 -251T356 -307Q410 -307 426 -255T442 -90V6H633V-90Q633 -272 560 -376T354 -481Q218 -481 145 -372T72 -53Q72 319 283 358L315 635H408L446 207Z"  />
<glyph unicode="&#xC0;" horiz-adv-x="938" d="M379 524L342 182H438V0H35V182H129L295 1325H190V1507H748V1325H643L809 182H903V0H500V182H596L559 524H379ZM393 707H545L481 1378H457L393 707ZM612 1597H473L250 1904H453L612 1597Z"  />
<glyph unicode="&#xC1;" horiz-adv-x="938" d="M379 524L342 182H438V0H35V182H129L295 1325H190V1507H748V1325H643L809 182H903V0H500V182H596L559 524H379ZM393 707H545L481 1378H457L393 707ZM328 1597L487 1904H690L467 1597H328Z"  />
<glyph unicode="&#xC2;" horiz-adv-x="938" d="M379 524L342 182H438V0H35V182H129L295 1325H190V1507H748V1325H643L809 182H903V0H500V182H596L559 524H379ZM393 707H545L481 1378H457L393 707ZM244 1599L365 1906H575L696 1599H553L471 1756L387 1599H244Z"  />
<glyph unicode="&#xC3;" horiz-adv-x="938" d="M379 524L342 182H438V0H35V182H129L295 1325H190V1507H748V1325H643L809 182H903V0H500V182H596L559 524H379ZM393 707H545L481 1378H457L393 707ZM332 1606H223Q223 1868 371 1868Q431 1868 498 1811Q538 1778 559 1778Q606 1778 608 1868H717Q717 1779 701 1727T647 1641T559 1606Q510 1606 436 1661Q391 1694 373 1694Q349 1694 341 1672T332 1606Z"  />
<glyph unicode="&#xC4;" horiz-adv-x="938" d="M379 524L342 182H438V0H35V182H129L295 1325H190V1507H748V1325H643L809 182H903V0H500V182H596L559 524H379ZM393 707H545L481 1378H457L393 707ZM252 1731Q252 1769 280 1797T346 1825Q384 1825 412 1797T440 1731Q440 1692 412 1664T346 1636Q308 1636 280 1664T252 1731ZM500 1731Q500 1769 528 1797T594 1825Q632 1825 660 1797T688 1731Q688 1692 660 1664T594 1636Q556 1636 528 1664T500 1731Z"  />
<glyph unicode="&#xC5;" horiz-adv-x="938" d="M379 524L342 182H438V0H35V182H129L295 1325H190V1507H748V1325H643L809 182H903V0H500V182H596L559 524H379ZM393 707H545L481 1378H457L393 707ZM297 1733Q297 1804 348 1854T471 1905Q543 1905 593 1855T643 1733Q643 1661 593 1610T471 1559Q399 1559 348 1610T297 1733ZM567 1733Q567 1772 538 1800T469 1829Q429 1829 401 1801T373 1733Q373 1693 401 1664T469 1634Q509 1634 538 1663T567 1733Z"  />
<glyph unicode="&#xC6;" horiz-adv-x="1237" d="M29 0V182H133L352 1325H244V1507H1176V1067H993V1325H805V868H961V686H805V182H993V465H1176V0H494V182H592V686H430L332 182H430V0H29ZM463 868H592V1360H545L463 868Z"  />
<glyph unicode="&#xC7;" horiz-adv-x="831" d="M561 537L748 485Q748 237 660 106T449 -25V-29Q543 -60 543 -160Q543 -235 494 -279T360 -324Q325 -324 289 -315L299 -207Q329 -213 342 -213Q424 -213 424 -145Q424 -86 354 -86Q340 -86 319 -92L342 -33Q354 -28 375 -25V-20Q222 13 150 196T78 737Q78 1532 385 1532Q493 1532 549 1434H553V1507H735V1018H553Q553 1171 518 1252T418 1333Q370 1333 349 1294T319 1140T311 764Q311 406 335 290T436 174Q501 174 531 258T561 537Z"  />
<glyph unicode="&#xC8;" horiz-adv-x="811" d="M47 0V182H158V1325H47V1507H741V1067H559V1325H371V868H524V686H371V182H559V463H741V0H47ZM548 1597H409L186 1904H389L548 1597Z"  />
<glyph unicode="&#xC9;" horiz-adv-x="811" d="M47 0V182H158V1325H47V1507H741V1067H559V1325H371V868H524V686H371V182H559V463H741V0H47ZM264 1597L423 1904H626L403 1597H264Z"  />
<glyph unicode="&#xCA;" horiz-adv-x="811" d="M47 0V182H158V1325H47V1507H741V1067H559V1325H371V868H524V686H371V182H559V463H741V0H47ZM180 1599L301 1906H511L632 1599H489L407 1756L323 1599H180Z"  />
<glyph unicode="&#xCB;" horiz-adv-x="811" d="M47 0V182H158V1325H47V1507H741V1067H559V1325H371V868H524V686H371V182H559V463H741V0H47ZM188 1731Q188 1769 216 1797T282 1825Q320 1825 348 1797T376 1731Q376 1692 348 1664T282 1636Q244 1636 216 1664T188 1731ZM436 1731Q436 1769 464 1797T530 1825Q568 1825 596 1797T624 1731Q624 1692 596 1664T530 1636Q492 1636 464 1664T436 1731Z"  />
<glyph unicode="&#xCC;" horiz-adv-x="532" d="M45 0V182H160V1325H45V1507H489V1325H373V182H489V0H45ZM410 1597H271L48 1904H251L410 1597Z"  />
<glyph unicode="&#xCD;" horiz-adv-x="532" d="M45 0V182H160V1325H45V1507H489V1325H373V182H489V0H45ZM126 1597L285 1904H488L265 1597H126Z"  />
<glyph unicode="&#xCE;" horiz-adv-x="532" d="M45 0V182H160V1325H45V1507H489V1325H373V182H489V0H45ZM42 1599L163 1906H373L494 1599H351L269 1756L185 1599H42Z"  />
<glyph unicode="&#xCF;" horiz-adv-x="532" d="M45 0V182H160V1325H45V1507H489V1325H373V182H489V0H45ZM50 1731Q50 1769 78 1797T144 1825Q182 1825 210 1797T238 1731Q238 1692 210 1664T144 1636Q106 1636 78 1664T50 1731ZM298 1731Q298 1769 326 1797T392 1825Q430 1825 458 1797T486 1731Q486 1692 458 1664T392 1636Q354 1636 326 1664T298 1731Z"  />
<glyph unicode="&#xD0;" horiz-adv-x="897" d="M74 0V182H184V664H74V846H184V1325H74V1507H346Q606 1507 722 1322T838 748Q838 367 720 184T352 0H74ZM397 1325V846H516V664H397V182Q513 184 558 303T604 723Q604 958 585 1087T522 1270T397 1325Z"  />
<glyph unicode="&#xD1;" horiz-adv-x="981" d="M53 0V182H156V1325H53V1507H387L560 960L662 520H668L645 975V1325H543V1507H930V1325H827V0H659L474 578Q444 672 411 806L328 1145H322L338 686V182H440V0H53ZM353 1606H244Q244 1868 392 1868Q452 1868 519 1811Q559 1778 580 1778Q627 1778 629 1868H738Q738 1779 722 1727T668 1641T580 1606Q531 1606 457 1661Q412 1694 394 1694Q370 1694 362 1672T353 1606Z"  />
<glyph unicode="&#xD2;" horiz-adv-x="854" d="M776 745Q776 -25 428 -25Q249 -25 164 166T78 745Q78 1005 119 1180T239 1444T428 1532Q594 1532 685 1335T776 745ZM311 737Q311 410 335 292T428 174Q494 174 518 292T543 735Q543 1090 520 1211T428 1333Q355 1333 333 1200T311 737ZM569 1597H430L207 1904H410L569 1597Z"  />
<glyph unicode="&#xD3;" horiz-adv-x="854" d="M776 745Q776 -25 428 -25Q249 -25 164 166T78 745Q78 1005 119 1180T239 1444T428 1532Q594 1532 685 1335T776 745ZM311 737Q311 410 335 292T428 174Q494 174 518 292T543 735Q543 1090 520 1211T428 1333Q355 1333 333 1200T311 737ZM285 1597L444 1904H647L424 1597H285Z"  />
<glyph unicode="&#xD4;" horiz-adv-x="854" d="M776 745Q776 -25 428 -25Q249 -25 164 166T78 745Q78 1005 119 1180T239 1444T428 1532Q594 1532 685 1335T776 745ZM311 737Q311 410 335 292T428 174Q494 174 518 292T543 735Q543 1090 520 1211T428 1333Q355 1333 333 1200T311 737ZM201 1599L322 1906H532L653 1599H510L428 1756L344 1599H201Z"  />
<glyph unicode="&#xD5;" horiz-adv-x="854" d="M776 745Q776 -25 428 -25Q249 -25 164 166T78 745Q78 1005 119 1180T239 1444T428 1532Q594 1532 685 1335T776 745ZM311 737Q311 410 335 292T428 174Q494 174 518 292T543 735Q543 1090 520 1211T428 1333Q355 1333 333 1200T311 737ZM289 1606H180Q180 1868 328 1868Q388 1868 455 1811Q495 1778 516 1778Q563 1778 565 1868H674Q674 1779 658 1727T604 1641T516 1606Q467 1606 393 1661Q348 1694 330 1694Q306 1694 298 1672T289 1606Z"  />
<glyph unicode="&#xD6;" horiz-adv-x="854" d="M776 745Q776 -25 428 -25Q249 -25 164 166T78 745Q78 1005 119 1180T239 1444T428 1532Q594 1532 685 1335T776 745ZM311 737Q311 410 335 292T428 174Q494 174 518 292T543 735Q543 1090 520 1211T428 1333Q355 1333 333 1200T311 737ZM209 1731Q209 1769 237 1797T303 1825Q341 1825 369 1797T397 1731Q397 1692 369 1664T303 1636Q265 1636 237 1664T209 1731ZM457 1731Q457 1769 485 1797T551 1825Q589 1825 617 1797T645 1731Q645 1692 617 1664T551 1636Q513 1636 485 1664T457 1731Z"  />
<glyph unicode="&#xD7;" horiz-adv-x="1368" d="M793 668L1190 270L1077 158L682 553L289 160L178 270L573 666L178 1061L291 1174L684 780L1079 1176L1190 1065L793 668Z"  />
<glyph unicode="&#xD8;" horiz-adv-x="854" d="M707 1278Q776 1104 776 745Q776 -25 428 -25Q293 -25 213 82L168 -25L72 53L141 223Q78 396 78 745Q78 1005 119 1180T239 1444T428 1532Q557 1532 635 1421L680 1530L782 1462L707 1278ZM315 637L528 1161Q528 1192 505 1262T428 1333Q355 1333 333 1200T311 737V637H315ZM539 883L326 358Q326 332 338 283T362 213T390 183T428 174Q494 174 518 292T543 735V883H539Z"  />
<glyph unicode="&#xD9;" horiz-adv-x="938" d="M35 1325V1507H442V1325H362V358Q362 249 390 205T485 160Q554 160 581 205T608 358V1325H530V1507H903V1325H791V367Q791 162 699 69T471 -25Q322 -25 236 65T150 297V1325H35ZM612 1597H473L250 1904H453L612 1597Z"  />
<glyph unicode="&#xDA;" horiz-adv-x="938" d="M35 1325V1507H442V1325H362V358Q362 249 390 205T485 160Q554 160 581 205T608 358V1325H530V1507H903V1325H791V367Q791 162 699 69T471 -25Q322 -25 236 65T150 297V1325H35ZM328 1597L487 1904H690L467 1597H328Z"  />
<glyph unicode="&#xDB;" horiz-adv-x="938" d="M35 1325V1507H442V1325H362V358Q362 249 390 205T485 160Q554 160 581 205T608 358V1325H530V1507H903V1325H791V367Q791 162 699 69T471 -25Q322 -25 236 65T150 297V1325H35ZM244 1599L365 1906H575L696 1599H553L471 1756L387 1599H244Z"  />
<glyph unicode="&#xDC;" horiz-adv-x="938" d="M35 1325V1507H442V1325H362V358Q362 249 390 205T485 160Q554 160 581 205T608 358V1325H530V1507H903V1325H791V367Q791 162 699 69T471 -25Q322 -25 236 65T150 297V1325H35ZM252 1731Q252 1769 280 1797T346 1825Q384 1825 412 1797T440 1731Q440 1692 412 1664T346 1636Q308 1636 280 1664T252 1731ZM500 1731Q500 1769 528 1797T594 1825Q632 1825 660 1797T688 1731Q688 1692 660 1664T594 1636Q556 1636 528 1664T500 1731Z"  />
<glyph unicode="&#xDD;" horiz-adv-x="897" d="M246 0V182H352V666L109 1325H12V1507H420V1325H322L461 920H465L594 1325H498V1507H885V1325H788L565 684V182H672V0H246ZM307 1597L466 1904H669L446 1597H307Z"  />
<glyph unicode="&#xDE;" horiz-adv-x="854" d="M385 1325V1217H422Q618 1217 728 1093T838 750Q838 533 733 411T385 289V182H510V0H49V182H172V1325H49V1507H508V1325H385ZM385 1034V471Q524 471 569 539T614 752Q614 908 559 971T385 1034Z"  />
<glyph unicode="&#xDF;" horiz-adv-x="788" d="M45 0V174H133V1169Q133 1532 401 1532Q527 1532 603 1447T680 1198Q680 976 532 924V920Q636 892 679 783T723 457Q723 214 653 101T475 -12Q454 -12 436 -8V162Q478 162 495 179T518 255T524 459Q524 689 500 764T387 840V981Q446 988 471 1028T496 1167Q496 1278 477 1323T403 1368Q322 1368 322 1223V174H377V0H45Z"  />
<glyph unicode="&#xE0;" horiz-adv-x="768" d="M737 174V0H467V90H463Q400 -12 293 -12Q194 -12 131 77T68 311Q68 471 138 557T317 643Q406 643 467 569V750Q467 854 442 882T371 911Q278 911 268 776L94 825Q114 944 190 1009T377 1075Q497 1075 576 998T655 784V174H737ZM467 207V438Q425 487 373 487Q266 487 266 317Q266 152 373 152Q424 152 467 207ZM526 1174H387L164 1481H367L526 1174Z"  />
<glyph unicode="&#xE1;" horiz-adv-x="768" d="M737 174V0H467V90H463Q400 -12 293 -12Q194 -12 131 77T68 311Q68 471 138 557T317 643Q406 643 467 569V750Q467 854 442 882T371 911Q278 911 268 776L94 825Q114 944 190 1009T377 1075Q497 1075 576 998T655 784V174H737ZM467 207V438Q425 487 373 487Q266 487 266 317Q266 152 373 152Q424 152 467 207ZM242 1174L401 1481H604L381 1174H242Z"  />
<glyph unicode="&#xE2;" horiz-adv-x="768" d="M737 174V0H467V90H463Q400 -12 293 -12Q194 -12 131 77T68 311Q68 471 138 557T317 643Q406 643 467 569V750Q467 854 442 882T371 911Q278 911 268 776L94 825Q114 944 190 1009T377 1075Q497 1075 576 998T655 784V174H737ZM467 207V438Q425 487 373 487Q266 487 266 317Q266 152 373 152Q424 152 467 207ZM158 1176L279 1483H489L610 1176H467L385 1333L301 1176H158Z"  />
<glyph unicode="&#xE3;" horiz-adv-x="768" d="M737 174V0H467V90H463Q400 -12 293 -12Q194 -12 131 77T68 311Q68 471 138 557T317 643Q406 643 467 569V750Q467 854 442 882T371 911Q278 911 268 776L94 825Q114 944 190 1009T377 1075Q497 1075 576 998T655 784V174H737ZM467 207V438Q425 487 373 487Q266 487 266 317Q266 152 373 152Q424 152 467 207ZM246 1182H137Q137 1444 285 1444Q345 1444 412 1387Q452 1354 473 1354Q520 1354 522 1444H631Q631 1355 615 1303T561 1217T473 1182Q424 1182 350 1237Q305 1270 287 1270Q263 1270 255 1248T246 1182Z"  />
<glyph unicode="&#xE4;" horiz-adv-x="768" d="M737 174V0H467V90H463Q400 -12 293 -12Q194 -12 131 77T68 311Q68 471 138 557T317 643Q406 643 467 569V750Q467 854 442 882T371 911Q278 911 268 776L94 825Q114 944 190 1009T377 1075Q497 1075 576 998T655 784V174H737ZM467 207V438Q425 487 373 487Q266 487 266 317Q266 152 373 152Q424 152 467 207ZM166 1307Q166 1345 194 1373T260 1401Q298 1401 326 1373T354 1307Q354 1268 326 1240T260 1212Q222 1212 194 1240T166 1307ZM414 1307Q414 1345 442 1373T508 1401Q546 1401 574 1373T602 1307Q602 1268 574 1240T508 1212Q470 1212 442 1240T414 1307Z"  />
<glyph unicode="&#xE5;" horiz-adv-x="768" d="M737 174V0H467V90H463Q400 -12 293 -12Q194 -12 131 77T68 311Q68 471 138 557T317 643Q406 643 467 569V750Q467 854 442 882T371 911Q278 911 268 776L94 825Q114 944 190 1009T377 1075Q497 1075 576 998T655 784V174H737ZM467 207V438Q425 487 373 487Q266 487 266 317Q266 152 373 152Q424 152 467 207ZM211 1309Q211 1380 262 1430T385 1481Q457 1481 507 1431T557 1309Q557 1237 507 1186T385 1135Q313 1135 262 1186T211 1309ZM481 1309Q481 1348 452 1376T383 1405Q343 1405 315 1377T287 1309Q287 1269 315 1240T383 1210Q423 1210 452 1239T481 1309Z"  />
<glyph unicode="&#xE6;" horiz-adv-x="1067" d="M440 565V786Q440 911 358 911Q314 911 293 879T262 776L82 829Q93 948 166 1011T358 1075Q474 1075 555 1008Q625 1075 715 1075Q844 1075 920 955T997 631V471H629Q629 298 651 224T727 150Q815 150 821 317L995 258Q959 121 886 48T717 -25Q579 -25 496 123Q390 -25 287 -25Q188 -25 127 67T66 311Q66 460 130 551T297 643Q391 643 436 565H440ZM629 621H807V709Q807 813 787 862T717 911Q629 911 629 735V621ZM440 197V440Q405 485 362 485Q264 485 264 305Q264 139 358 139Q391 139 415 164T440 197Z"  />
<glyph unicode="&#xE7;" horiz-adv-x="705" d="M475 383L643 311Q643 161 567 68T381 -25V-29Q481 -53 481 -160Q481 -235 432 -279T299 -324Q263 -324 227 -315L238 -207Q267 -213 281 -213Q362 -213 362 -145Q362 -86 293 -86Q279 -86 258 -92L281 -33Q311 -25 324 -25V-20Q193 -9 132 118T70 524Q70 808 128 935T313 1063Q412 1063 465 965H469V1051H643V670H469Q469 797 446 848T367 899Q307 899 288 833T268 604V444Q268 277 291 214T371 150Q429 150 452 199T475 383Z"  />
<glyph unicode="&#xE8;" horiz-adv-x="705" d="M463 317L629 256Q595 121 523 48T358 -25Q208 -25 138 104T68 516Q68 799 138 937T356 1075Q478 1075 555 962T633 633V473H266V428Q266 287 288 219T362 150Q449 150 463 317ZM266 623H444V715Q444 911 354 911Q303 911 285 853T266 668V623ZM495 1174H356L133 1481H336L495 1174Z"  />
<glyph unicode="&#xE9;" horiz-adv-x="705" d="M463 317L629 256Q595 121 523 48T358 -25Q208 -25 138 104T68 516Q68 799 138 937T356 1075Q478 1075 555 962T633 633V473H266V428Q266 287 288 219T362 150Q449 150 463 317ZM266 623H444V715Q444 911 354 911Q303 911 285 853T266 668V623ZM211 1174L370 1481H573L350 1174H211Z"  />
<glyph unicode="&#xEA;" horiz-adv-x="705" d="M463 317L629 256Q595 121 523 48T358 -25Q208 -25 138 104T68 516Q68 799 138 937T356 1075Q478 1075 555 962T633 633V473H266V428Q266 287 288 219T362 150Q449 150 463 317ZM266 623H444V715Q444 911 354 911Q303 911 285 853T266 668V623ZM127 1176L248 1483H458L579 1176H436L354 1333L270 1176H127Z"  />
<glyph unicode="&#xEB;" horiz-adv-x="705" d="M463 317L629 256Q595 121 523 48T358 -25Q208 -25 138 104T68 516Q68 799 138 937T356 1075Q478 1075 555 962T633 633V473H266V428Q266 287 288 219T362 150Q449 150 463 317ZM266 623H444V715Q444 911 354 911Q303 911 285 853T266 668V623ZM135 1307Q135 1345 163 1373T229 1401Q267 1401 295 1373T323 1307Q323 1268 295 1240T229 1212Q191 1212 163 1240T135 1307ZM383 1307Q383 1345 411 1373T477 1401Q515 1401 543 1373T571 1307Q571 1268 543 1240T477 1212Q439 1212 411 1240T383 1307Z"  />
<glyph unicode="&#xEC;" horiz-adv-x="449" d="M63 0V174H139V877H63V1051H328V174H387V0H63ZM367 1174H228L5 1481H208L367 1174Z"  />
<glyph unicode="&#xED;" horiz-adv-x="449" d="M63 0V174H139V877H63V1051H328V174H387V0H63ZM83 1174L242 1481H445L222 1174H83Z"  />
<glyph unicode="&#xEE;" horiz-adv-x="449" d="M63 0V174H139V877H63V1051H328V174H387V0H63ZM-1 1176L120 1483H330L451 1176H308L226 1333L142 1176H-1Z"  />
<glyph unicode="&#xEF;" horiz-adv-x="449" d="M63 0V174H139V877H63V1051H328V174H387V0H63ZM7 1307Q7 1345 35 1373T101 1401Q139 1401 167 1373T195 1307Q195 1268 167 1240T101 1212Q63 1212 35 1240T7 1307ZM255 1307Q255 1345 283 1373T349 1401Q387 1401 415 1373T443 1307Q443 1268 415 1240T349 1212Q311 1212 283 1240T255 1307Z"  />
<glyph unicode="&#xF0;" horiz-adv-x="711" d="M137 1231L289 1337Q231 1413 182 1448L291 1532Q348 1497 416 1425L567 1532L618 1468L467 1362Q637 1141 637 627Q637 270 567 123T348 -25Q70 -25 70 512Q70 1075 309 1075Q372 1075 422 1038L424 1042Q388 1189 334 1270L188 1167L137 1231ZM352 901Q301 901 285 821T268 489Q268 278 286 214T352 150Q409 150 423 236T438 526Q438 751 421 826T352 901Z"  />
<glyph unicode="&#xF1;" horiz-adv-x="788" d="M51 0V174H129V877H47V1051H317V967H322Q387 1063 481 1063Q564 1063 611 995T659 803V174H737V0H471V774Q471 838 459 863T412 889Q374 889 346 855T317 813V174H395V0H51ZM256 1182H147Q147 1444 295 1444Q355 1444 422 1387Q462 1354 483 1354Q530 1354 532 1444H641Q641 1355 625 1303T571 1217T483 1182Q434 1182 360 1237Q315 1270 297 1270Q273 1270 265 1248T256 1182Z"  />
<glyph unicode="&#xF2;" horiz-adv-x="705" d="M352 -25Q206 -25 138 110T70 526Q70 811 139 943T352 1075Q637 1075 637 524Q637 -25 352 -25ZM352 901Q302 901 285 828T268 528Q268 363 276 283T301 177T352 150Q409 150 423 236T438 526Q438 751 421 826T352 901ZM495 1174H356L133 1481H336L495 1174Z"  />
<glyph unicode="&#xF3;" horiz-adv-x="705" d="M352 -25Q206 -25 138 110T70 526Q70 811 139 943T352 1075Q637 1075 637 524Q637 -25 352 -25ZM352 901Q302 901 285 828T268 528Q268 363 276 283T301 177T352 150Q409 150 423 236T438 526Q438 751 421 826T352 901ZM211 1174L370 1481H573L350 1174H211Z"  />
<glyph unicode="&#xF4;" horiz-adv-x="705" d="M352 -25Q206 -25 138 110T70 526Q70 811 139 943T352 1075Q637 1075 637 524Q637 -25 352 -25ZM352 901Q302 901 285 828T268 528Q268 363 276 283T301 177T352 150Q409 150 423 236T438 526Q438 751 421 826T352 901ZM127 1176L248 1483H458L579 1176H436L354 1333L270 1176H127Z"  />
<glyph unicode="&#xF5;" horiz-adv-x="705" d="M352 -25Q206 -25 138 110T70 526Q70 811 139 943T352 1075Q637 1075 637 524Q637 -25 352 -25ZM352 901Q302 901 285 828T268 528Q268 363 276 283T301 177T352 150Q409 150 423 236T438 526Q438 751 421 826T352 901ZM215 1182H106Q106 1444 254 1444Q314 1444 381 1387Q421 1354 442 1354Q489 1354 491 1444H600Q600 1355 584 1303T530 1217T442 1182Q393 1182 319 1237Q274 1270 256 1270Q232 1270 224 1248T215 1182Z"  />
<glyph unicode="&#xF6;" horiz-adv-x="705" d="M352 -25Q206 -25 138 110T70 526Q70 811 139 943T352 1075Q637 1075 637 524Q637 -25 352 -25ZM352 901Q302 901 285 828T268 528Q268 363 276 283T301 177T352 150Q409 150 423 236T438 526Q438 751 421 826T352 901ZM135 1307Q135 1345 163 1373T229 1401Q267 1401 295 1373T323 1307Q323 1268 295 1240T229 1212Q191 1212 163 1240T135 1307ZM383 1307Q383 1345 411 1373T477 1401Q515 1401 543 1373T571 1307Q571 1268 543 1240T477 1212Q439 1212 411 1240T383 1307Z"  />
<glyph unicode="&#xF7;" horiz-adv-x="1368" d="M584 1083Q584 1125 612 1153T682 1182Q723 1182 751 1154T780 1083Q780 1042 752 1014T682 985Q641 985 613 1013T584 1083ZM135 748H1229V590H135V748ZM584 254Q584 295 612 323T682 352Q723 352 751 324T780 254Q780 213 752 185T682 156Q641 156 613 184T584 254Z"  />
<glyph unicode="&#xF8;" horiz-adv-x="705" d="M125 137Q70 266 70 526Q70 811 139 943T352 1075Q454 1075 526 1001L545 1051H637L582 907Q637 771 637 524Q637 -25 352 -25Q290 -25 254 -9T182 53L162 0H70L125 137ZM272 430L424 807Q424 843 404 872T352 901Q302 901 285 830T268 528V430H272ZM434 633L279 244Q279 208 300 179T352 150Q409 150 423 236T438 526V633H434Z"  />
<glyph unicode="&#xF9;" horiz-adv-x="788" d="M659 1051V174H743V0H471V84H467Q401 -12 307 -12Q129 -12 129 248V877H43V1051H317V276Q317 213 329 188T377 162Q414 162 442 196T471 238V877H379V1051H659ZM536 1174H397L174 1481H377L536 1174Z"  />
<glyph unicode="&#xFA;" horiz-adv-x="788" d="M659 1051V174H743V0H471V84H467Q401 -12 307 -12Q129 -12 129 248V877H43V1051H317V276Q317 213 329 188T377 162Q414 162 442 196T471 238V877H379V1051H659ZM252 1174L411 1481H614L391 1174H252Z"  />
<glyph unicode="&#xFB;" horiz-adv-x="788" d="M659 1051V174H743V0H471V84H467Q401 -12 307 -12Q129 -12 129 248V877H43V1051H317V276Q317 213 329 188T377 162Q414 162 442 196T471 238V877H379V1051H659ZM168 1176L289 1483H499L620 1176H477L395 1333L311 1176H168Z"  />
<glyph unicode="&#xFC;" horiz-adv-x="788" d="M659 1051V174H743V0H471V84H467Q401 -12 307 -12Q129 -12 129 248V877H43V1051H317V276Q317 213 329 188T377 162Q414 162 442 196T471 238V877H379V1051H659ZM176 1307Q176 1345 204 1373T270 1401Q308 1401 336 1373T364 1307Q364 1268 336 1240T270 1212Q232 1212 204 1240T176 1307ZM424 1307Q424 1345 452 1373T518 1401Q556 1401 584 1373T612 1307Q612 1268 584 1240T518 1212Q480 1212 452 1240T424 1307Z"  />
<glyph unicode="&#xFD;" horiz-adv-x="831" d="M127 -356V-190H293L346 18L104 885H23V1051H375V885H293L428 315H432L563 885H477V1051H807V885H735L430 -356H127ZM274 1174L433 1481H636L413 1174H274Z"  />
<glyph unicode="&#xFE;" horiz-adv-x="752" d="M29 -356V-182H119V1333H29V1507H307V946L311 944Q371 1063 467 1063Q591 1063 649 926T707 496Q707 243 656 109T473 -25Q378 -25 311 70H307V-182H410V-356H29ZM307 551V385Q307 254 331 197T410 139Q471 139 489 206T508 408V555Q508 738 489 813T410 889Q350 889 329 805T307 551Z"  />
<glyph unicode="&#xFF;" horiz-adv-x="831" d="M127 -356V-190H293L346 18L104 885H23V1051H375V885H293L428 315H432L563 885H477V1051H807V885H735L430 -356H127ZM199 1307Q199 1345 227 1373T293 1401Q331 1401 359 1373T387 1307Q387 1268 359 1240T293 1212Q255 1212 227 1240T199 1307ZM447 1307Q447 1345 475 1373T541 1401Q579 1401 607 1373T635 1307Q635 1268 607 1240T541 1212Q503 1212 475 1240T447 1307Z"  />
<glyph unicode="&#x131;" horiz-adv-x="449" d="M63 0V174H139V877H63V1051H328V174H387V0H63Z"  />
<glyph unicode="&#x152;" horiz-adv-x="1174" d="M1085 0H547Q293 0 177 182T61 752Q61 1140 176 1323T541 1507H1085V1067H903V1325H717V868H872V686H717V182H903V465H1085V0ZM504 1325Q384 1330 340 1205T295 754Q295 442 338 312T504 182V1325Z"  />
<glyph unicode="&#x153;" horiz-adv-x="1067" d="M823 322L991 258Q956 121 886 48T721 -25Q620 -25 545 59Q462 -25 356 -25Q210 -25 139 112T68 539Q68 802 136 938T360 1075Q463 1075 545 991Q622 1075 725 1075Q849 1075 923 960T997 631V471H629Q629 280 652 215T731 150Q814 150 823 322ZM629 621H807V709Q807 813 787 862T717 911Q629 911 629 735V621ZM356 150Q417 150 433 238T449 530Q449 768 433 834T358 901Q300 901 283 827T266 530Q266 300 284 225T356 150Z"  />
<glyph unicode="&#x160;" horiz-adv-x="788" d="M96 0V518H279V379Q279 258 304 209T391 160Q439 160 468 200T498 307Q498 364 478 431T429 543T283 735Q162 887 122 979T82 1196Q82 1344 148 1438T319 1532Q406 1532 471 1462V1507H653V1057H471V1171Q471 1265 447 1306T371 1348Q283 1348 283 1237Q283 1173 309 1106T400 958L494 842Q707 578 707 338Q707 181 631 78T440 -25Q347 -25 279 47V0H96ZM620 1906L499 1599H289L168 1906H311L393 1748L477 1906H620Z"  />
<glyph unicode="&#x161;" horiz-adv-x="641" d="M66 0V362H240Q245 152 328 152Q391 152 391 244Q391 323 359 362T242 467Q142 545 100 618T57 788Q57 905 111 984T246 1063Q328 1063 379 973H383V1051H557V707H383Q383 822 366 861T307 901Q246 901 246 815Q246 751 272 711T377 614Q489 534 534 458T580 264Q580 144 523 66T381 -12Q301 -12 244 78H240V0H66ZM547 1483L426 1176H216L95 1483H238L320 1325L404 1483H547Z"  />
<glyph unicode="&#x178;" horiz-adv-x="897" d="M246 0V182H352V666L109 1325H12V1507H420V1325H322L461 920H465L594 1325H498V1507H885V1325H788L565 684V182H672V0H246ZM231 1731Q231 1769 259 1797T325 1825Q363 1825 391 1797T419 1731Q419 1692 391 1664T325 1636Q287 1636 259 1664T231 1731ZM479 1731Q479 1769 507 1797T573 1825Q611 1825 639 1797T667 1731Q667 1692 639 1664T573 1636Q535 1636 507 1664T479 1731Z"  />
<glyph unicode="&#x17D;" horiz-adv-x="705" d="M51 0V172L434 1325H248V1008H66V1507H653V1325L268 182H473V502H655V0H51ZM579 1906L458 1599H248L127 1906H270L352 1748L436 1906H579Z"  />
<glyph unicode="&#x17E;" horiz-adv-x="705" d="M53 0V205L457 877H242V698H82V1051H645V848L242 174H492V367H651V0H53ZM579 1483L458 1176H248L127 1483H270L352 1325L436 1483H579Z"  />
<glyph unicode="&#x192;" horiz-adv-x="1139" d="M49 -332L84 -176Q186 -197 238 -197Q293 -197 320 -168T365 -47L541 961H342L365 1100H565Q600 1294 614 1345T662 1442T748 1510T870 1532Q988 1532 1090 1491L1055 1339Q949 1364 899 1364Q835 1364 809 1330T750 1100H954L930 961H725L535 -96Q510 -236 451 -296T276 -356Q179 -356 49 -332Z"  />
<glyph unicode="&#x2C6;" horiz-adv-x="682" d="M115 1176L236 1483H446L567 1176H424L342 1333L258 1176H115Z"  />
<glyph unicode="&#x2C7;" horiz-adv-x="682" d="M567 1483L446 1176H236L115 1483H258L340 1325L424 1483H567Z"  />
<glyph unicode="&#x2DA;" horiz-adv-x="682" d="M168 1309Q168 1380 219 1430T342 1481Q414 1481 464 1431T514 1309Q514 1237 464 1186T342 1135Q270 1135 219 1186T168 1309ZM438 1309Q438 1348 409 1376T340 1405Q300 1405 272 1377T244 1309Q244 1269 272 1240T340 1210Q380 1210 409 1239T438 1309Z"  />
<glyph unicode="&#x2DC;" horiz-adv-x="682" d="M203 1182H94Q94 1444 242 1444Q302 1444 369 1387Q409 1354 430 1354Q477 1354 479 1444H588Q588 1355 572 1303T518 1217T430 1182Q381 1182 307 1237Q262 1270 244 1270Q220 1270 212 1248T203 1182Z"  />
<glyph unicode="&#x2013;" horiz-adv-x="1024" d="M1042 584V453H-18V584H1042Z"  />
<glyph unicode="&#x2014;" horiz-adv-x="2048" d="M2066 584V453H-18V584H2066Z"  />
<glyph unicode="&#x2018;" horiz-adv-x="342" d="M274 1169V922H68V1169Q68 1311 125 1400T293 1507V1405Q193 1374 193 1169H274Z"  />
<glyph unicode="&#x2019;" horiz-adv-x="342" d="M68 1260V1507H274V1260Q274 1118 217 1029T49 922V1024Q150 1055 150 1260H68Z"  />
<glyph unicode="&#x201A;" horiz-adv-x="342" d="M68 0V248H274V0Q274 -142 217 -230T49 -338V-236Q150 -204 150 0H68Z"  />
<glyph unicode="&#x201C;" horiz-adv-x="682" d="M604 1169V922H397V1169Q397 1311 454 1400T623 1507V1405Q522 1374 522 1169H604ZM266 1169V922H59V1169Q59 1311 116 1400T285 1507V1405Q184 1374 184 1169H266Z"  />
<glyph unicode="&#x201D;" horiz-adv-x="682" d="M416 1260V1507H623V1260Q623 1118 566 1029T397 922V1024Q498 1055 498 1260H416ZM78 1260V1507H285V1260Q285 1118 228 1029T59 922V1024Q160 1055 160 1260H78Z"  />
<glyph unicode="&#x201E;" horiz-adv-x="682" d="M416 0V248H623V0Q623 -142 566 -230T397 -338V-236Q498 -204 498 0H416ZM78 0V248H285V0Q285 -142 228 -230T59 -338V-236Q160 -204 160 0H78Z"  />
<glyph unicode="&#x2020;" horiz-adv-x="705" d="M315 -326L254 432V635Q311 746 315 928Q218 920 156 874H53V1051H156Q226 1006 315 1004Q315 1067 312 1102T301 1175T280 1248L254 1313V1507H453V1313Q391 1186 391 1004Q481 1006 551 1051H653V874H551Q489 920 391 928Q396 876 401 835T414 758T432 693L453 635V432L391 -326H315Z"  />
<glyph unicode="&#x2021;" horiz-adv-x="705" d="M451 1507V1300Q399 1228 389 1051Q471 1059 520 1102H633V922H520Q470 971 389 971Q395 689 481 584Q396 505 389 211Q470 211 520 260H633V80H520Q468 123 389 131Q399 -46 451 -119V-326H252V-119Q307 -47 313 131Q233 123 184 80H70V260H184Q235 211 313 211Q313 392 287 469T223 584Q272 640 292 730T313 971Q235 971 184 922H70V1102H184Q234 1059 313 1051Q307 1225 252 1300V1507H451Z"  />
<glyph unicode="&#x2022;" horiz-adv-x="717" d="M109 678Q109 782 182 855T360 928Q464 928 537 855T610 678Q610 573 538 500T360 426Q257 426 183 500T109 678Z"  />
<glyph unicode="&#x2026;" horiz-adv-x="2048" d="M922 0V248H1128V0H922ZM238 0V248H444V0H238ZM1606 0V248H1812V0H1606Z"  />
<glyph unicode="&#x2030;" horiz-adv-x="1599" d="M414 1116Q414 896 367 798T223 700Q129 700 82 796T35 1116Q35 1532 223 1532Q320 1532 367 1432T414 1116ZM178 1231V1004Q178 890 188 856T223 821Q252 821 261 869T270 1008V1225Q270 1333 259 1372T223 1411Q198 1411 188 1373T178 1231ZM147 0L901 1507H1026L272 0H147ZM1563 403Q1563 183 1516 86T1372 -12Q1278 -12 1231 84T1184 403Q1184 819 1372 819Q1469 819 1516 719T1563 403ZM1327 518V291Q1327 178 1337 144T1372 109Q1401 109 1410 156T1419 295V512Q1419 606 1410 652T1372 698Q1347 698 1337 660T1327 518ZM1122 403Q1122 183 1075 86T932 -12Q837 -12 790 84T743 403Q743 819 932 819Q1029 819 1075 719T1122 403ZM887 518V291Q887 178 897 144T932 109Q961 109 970 156T979 295V512Q979 606 970 652T932 698Q907 698 897 660T887 518Z"  />
<glyph unicode="&#x2039;" horiz-adv-x="469" d="M244 0L70 522L244 1051H401L225 522L401 0H244Z"  />
<glyph unicode="&#x203A;" horiz-adv-x="469" d="M225 1051L399 524L225 0H68L244 524L68 1051H225Z"  />
<glyph unicode="&#x20AC;" horiz-adv-x="831" d="M774 403Q768 373 760 330T737 238T700 143T646 58T569 -3T465 -27Q396 -27 343 -2T251 64T185 161T142 276T118 398T111 514H20V657H106Q104 689 105 719T106 772H20V915H106Q116 1066 149 1169T226 1337T322 1428T420 1456Q471 1456 511 1431T569 1362H573V1440H750V1016H571Q572 1087 564 1132T540 1204T503 1239T457 1249Q430 1249 412 1232T380 1186T360 1122T348 1049T343 977T340 915H598V772H336V657H598V514H342Q341 492 342 459T347 389T359 315T381 249T415 201T463 182Q518 182 543 246T586 434L774 403H774Z"  />
<glyph unicode="&#x2122;" horiz-adv-x="2048" d="M1266 948L1411 1507H1647V690H1501V1341H1497L1329 690H1198L1030 1341H1026V690H881V1507H1116L1262 948H1266ZM217 1507H811V1378H586V690H440V1378H217V1507Z"  />
<glyph unicode="&#x2215;" horiz-adv-x="276" d="M-301 0L453 1507H578L-176 0H-301Z"  />
<glyph unicode="&#x2219;" horiz-adv-x="342" d="M68 629V877H274V629H68Z"  />
<glyph unicode="&#xF003;" horiz-adv-x="449" d="M191 716V843H245V939H69Q61 997 21 1035L253 1533H372V1056H429V939H372V843H417V716H191ZM245 1056V1269H241L150 1056H245Z"  />

</font>
</defs>
</svg>
