<?xml  version="1.0" encoding="UTF-8"?>
<!DOCTYPE svg PUBLIC "-//W3C//DTD SVG 1.0//EN" "http://www.w3.org/TR/2001/REC-SVG-20010904/DTD/svg10.dtd" >
<svg xmlns="http://www.w3.org/2000/svg" >
<metadata>
<version>1.0</version>
<id><![CDATA[Rockwell W01 Extra Bold]]></id>
<vendor>Monotype Imaging Inc.</vendor>
<credits>
<name>Fonts.com WebFonts</name>
<URL>http://webfonts.fonts.com</URL>
<role>Home of the Web fonts</role>
</credits>
<license>
<URL>http://webfonts.fonts.com/Legal</URL>
</license>
<copyright><![CDATA[Copyright 1990, 2002 Adobe Systems Incorporated. All Rights Reserved. Copyright 1990, 2002 The Monotype Corporation. All rights reserved.]]></copyright>
<trademark><![CDATA["Rockwell" is a registered trademark of The Monotype Corporation in the United States and/or other countries.]]></trademark>
<licensee>
<name></name>
</licensee>
</metadata>
<defs >
<font horiz-adv-x="671" id="f0aba0f2-7ae4-47f0-94aa-6d62a938e55f">
<font-face font-family="" panose-1="2 6 10 7 5 4 5 2 1 4" ascent="738" descent="-262" units-per-em="1000" alphabetic="0">
</font-face>
<missing-glyph horiz-adv-x="0" />

<glyph unicode="&#xA;" />
<glyph unicode="&#xD;" horiz-adv-x="0" />
<glyph unicode=" " horiz-adv-x="333" />
<glyph unicode="!" horiz-adv-x="396" d="M80 484V679H315V488L280 273H115L80 484ZM76 178H319V0H76V178Z"  />
<glyph unicode="&quot;" horiz-adv-x="500" d="M222 679V561L191 416H55L24 561V679H222ZM476 679V561L445 416H309L278 561V679H476Z"  />
<glyph unicode="#" horiz-adv-x="668" d="M388 286L410 392H280L258 286H388ZM194 -20H59L95 151H32V286H123L145 392H32V527H173L209 698H344L308 527H438L474 698H609L573 527H636V392H545L523 286H636V151H495L459 -20H324L360 151H230L194 -20Z"  />
<glyph unicode="$" horiz-adv-x="625" d="M280 583Q175 578 175 517Q175 491 198 475T280 443V583ZM345 83Q394 85 421 103T448 158Q448 218 345 245V83ZM280 263Q158 295 100 347T41 478Q41 520 57 555T104 617T179 660T280 679V726H345V679Q402 676 447 661T524 621T571 560T584 481H431Q429 523 410 545T345 577V423Q417 403 465 379T542 327T584 265T596 192Q596 157 582 122T538 58T460 11T345 -9V-83H280V-6Q215 -2 167 15T88 60T42 123T29 199H190Q188 161 210 131T280 89V263Z"  />
<glyph unicode="%" horiz-adv-x="969" d="M202 0L660 679H767L309 0H202ZM203 412Q213 412 220 416T231 431T237 460T239 506Q239 561 233 580T203 600Q183 600 175 580T166 506Q166 478 168 460T174 432T185 417T203 412ZM203 319Q163 319 130 332T74 371T37 430T24 506Q24 547 37 581T73 640T130 679T203 693Q242 693 275 679T331 641T368 582T381 506Q381 465 368 431T332 371T275 333T203 319ZM767 79Q777 79 784 83T795 98T801 127T803 173Q803 228 797 247T767 267Q747 267 739 247T730 173Q730 145 732 127T738 99T749 84T767 79ZM767 -14Q727 -14 694 -1T638 38T601 97T588 173Q588 214 601 248T637 307T694 346T767 360Q806 360 839 346T895 308T932 249T945 173Q945 132 932 98T896 38T839 0T767 -14Z"  />
<glyph unicode="&amp;" horiz-adv-x="875" d="M309 308Q280 295 264 271T247 216Q247 173 274 144T342 114Q366 114 386 123T431 153L309 308ZM838 0H551L510 52Q465 20 408 3T285 -14Q165 -14 100 40T34 191Q34 231 49 267T91 333T158 385T245 421Q230 450 223 475T216 528Q216 573 233 604T285 655T367 684T478 693Q507 693 527 692T556 690V549H544Q480 549 480 502Q480 489 488 474T517 433L587 345Q612 380 631 415T667 494H838V331H763Q751 299 734 274T688 221L734 163H838V0Z"  />
<glyph unicode="&apos;" horiz-adv-x="278" d="M238 679V561L207 416H71L40 561V679H238Z"  />
<glyph unicode="(" horiz-adv-x="458" d="M423 -218Q321 -194 249 -146T132 -35T66 98T45 238Q45 316 69 389T141 522T259 627T423 693V569Q388 554 364 526T326 455T306 359T300 238Q300 173 304 120T322 25T360 -46T423 -94V-218Z"  />
<glyph unicode=")" horiz-adv-x="458" d="M35 -94Q74 -76 98 -47T135 25T153 120T158 238Q158 371 132 455T35 569V693Q128 672 198 628T316 523T388 389T413 238Q413 169 393 99T327 -34T209 -145T35 -218V-94Z"  />
<glyph unicode="*" horiz-adv-x="625" d="M143 308Q159 314 178 324T215 346T249 371T278 398Q250 403 235 404T205 406Q182 406 158 403T117 394L34 422L79 566L162 540Q175 524 187 512T214 488T247 465T291 440Q276 528 234 592V679H392V592Q369 559 355 521T335 440Q362 455 382 468T417 492T442 515T461 540L545 566L591 422L509 394Q483 401 464 404T424 407Q377 407 350 398Q387 360 418 340T485 308L535 239L412 149L361 218Q362 251 349 294T314 372Q292 330 282 294T269 218L216 149L93 239L143 308Z"  />
<glyph unicode="+" horiz-adv-x="668" d="M255 418V619H413V418H614V260H413V59H255V260H54V418H255Z"  />
<glyph unicode="&#x2c;" horiz-adv-x="396" d="M76 -101Q130 -101 149 -80T168 0H76V178H319V-39Q319 -117 267 -158T122 -199Q106 -199 94 -199T76 -197V-101Z"  />
<glyph unicode="-" horiz-adv-x="448" d="M50 342H398V131H50V342Z"  />
<glyph unicode="." horiz-adv-x="396" d="M76 178H319V0H76V178Z"  />
<glyph unicode="/" horiz-adv-x="281" d="M281 679L139 0H0L142 679H281Z"  />
<glyph unicode="0" horiz-adv-x="688" d="M344 135Q386 135 400 185T414 342Q414 455 398 502T344 549Q302 549 287 497T273 342Q273 291 276 252T287 187T308 148T344 135ZM51 342Q51 420 72 485T133 596T226 667T344 693Q404 693 457 670T550 602T613 492T636 342Q636 252 611 186T545 76T451 12T344 -9Q285 -9 232 14T138 82T75 192T51 342Z"  />
<glyph unicode="1" horiz-adv-x="688" d="M152 155H249V467Q236 464 221 463T191 461T166 460T152 461V611Q225 609 280 633T363 693H465V155H558V0H152V155Z"  />
<glyph unicode="2" horiz-adv-x="688" d="M604 0H64V16Q64 44 68 76T83 142T115 210T169 278Q188 297 214 318T268 359T319 398T356 429Q379 452 386 470T394 504Q394 534 375 551T324 569Q286 569 269 546T248 477L74 482Q75 543 97 583T156 648T239 683T335 693Q396 693 446 679T532 638T587 575T607 494Q607 461 597 432T554 370Q523 339 485 317T410 275T339 238T285 199Q274 188 265 175T253 155H468L470 213H610L604 0Z"  />
<glyph unicode="3" horiz-adv-x="688" d="M221 241Q227 135 322 135Q361 135 383 155T405 212Q405 294 294 299V409Q345 419 366 437T388 490Q388 522 368 540T316 559Q246 559 240 482L57 492Q64 592 134 642T336 693Q398 693 447 680T531 642T584 582T603 501Q603 451 576 415T498 362V360Q560 346 593 305T627 201Q627 153 607 114T548 48T455 6T332 -9Q256 -9 202 8T113 57T62 132T45 228L221 241Z"  />
<glyph unicode="4" horiz-adv-x="688" d="M356 533L173 344H356V533ZM274 138H356V223H70L32 365L349 693H559V344H629V223H559V138H629V0H274V138Z"  />
<glyph unicode="5" horiz-adv-x="688" d="M217 194Q240 135 307 135Q352 135 377 158T402 226Q402 268 378 291T312 314Q257 314 219 274L72 326L92 679H592V501H478L462 542H220L213 409Q248 430 285 440T369 451Q426 451 473 435T553 390T605 319T624 228Q624 182 607 139T554 63T464 11T334 -9Q214 -9 136 41T40 183L217 194Z"  />
<glyph unicode="6" horiz-adv-x="688" d="M271 281Q271 128 361 128Q431 128 431 215Q431 263 410 286T356 309Q315 309 271 281ZM459 509Q436 564 377 564Q328 564 302 524T275 409V407V403Q303 423 340 434T415 446Q462 446 502 430T571 384T617 314T634 227Q634 176 614 133T559 58T474 9T366 -9Q306 -9 251 11T153 75T85 185T59 344Q59 512 141 602T375 693Q480 693 545 650T629 524L459 509Z"  />
<glyph unicode="7" horiz-adv-x="688" d="M129 155H217Q233 204 257 257T310 361T371 458T439 542H197V448H62V679H606V549Q568 492 538 434T486 324T451 227T433 155H522V0H129V155Z"  />
<glyph unicode="8" horiz-adv-x="688" d="M253 205Q253 167 278 144T345 120Q387 120 411 143T435 208Q435 248 411 271T346 295Q304 295 279 270T253 205ZM264 488Q264 454 285 435T345 415Q382 415 402 434T423 489Q423 523 402 543T346 564Q310 564 287 543T264 488ZM171 358Q120 377 94 413T67 499Q67 544 86 579T140 640T226 679T340 693Q404 693 456 680T544 642T600 582T620 504Q620 402 516 358Q584 329 612 292T640 195Q640 161 628 125T582 59T491 10T341 -9Q263 -9 207 6T116 49T65 114T48 194Q48 246 76 286T171 358Z"  />
<glyph unicode="9" horiz-adv-x="688" d="M417 403Q417 556 327 556Q257 556 257 469Q257 421 278 398T332 375Q373 375 417 403ZM229 175Q252 120 311 120Q360 120 386 160T413 275V277V281Q385 261 348 250T273 238Q226 238 186 254T116 300T71 369T54 457Q54 508 74 551T129 626T214 675T322 693Q382 693 437 673T535 609T603 499T629 340Q629 172 547 82T313 -9Q208 -9 143 34T59 160L229 175Z"  />
<glyph unicode=":" horiz-adv-x="396" d="M76 178H319V0H76V178ZM76 474H319V296H76V474Z"  />
<glyph unicode=";" horiz-adv-x="396" d="M76 474H319V296H76V474ZM76 -101Q130 -101 149 -80T168 0H76V178H319V-39Q319 -117 267 -158T122 -199Q106 -199 94 -199T76 -197V-101Z"  />
<glyph unicode="&lt;" horiz-adv-x="667" d="M614 642V471L271 338L614 205V34L53 266V410L614 642Z"  />
<glyph unicode="=" horiz-adv-x="667" d="M614 298V140H53V298H614ZM614 538V380H53V538H614Z"  />
<glyph unicode="&gt;" horiz-adv-x="667" d="M614 266L53 34V205L396 338L53 471V642L614 410V266Z"  />
<glyph unicode="?" horiz-adv-x="635" d="M178 178H421V0H178V178ZM224 412H230Q240 410 249 409T283 408Q331 408 358 431T385 497Q385 533 362 556T302 579Q264 579 244 558T223 499H26Q28 543 47 578T103 640Q140 666 193 679T316 693Q384 693 438 680T531 641T589 579T610 498Q610 454 592 419T541 358T466 320T374 309L364 265H236L224 412Z"  />
<glyph unicode="@" horiz-adv-x="740" d="M245 183Q245 133 262 105T312 77Q340 77 367 104Q381 118 392 145T411 207T423 278T427 348Q427 392 411 415T363 439Q335 439 313 417T276 359T253 277T245 183ZM504 120Q501 101 504 92T521 82Q534 82 558 94T607 135T650 210T668 323Q668 387 649 438T595 526T509 581T396 601Q324 601 265 575T162 502T96 390T72 245Q72 168 95 105T159 -2T259 -71T389 -96Q460 -96 521 -75T642 -5H752Q724 -42 684 -73T597 -128T498 -165T391 -178Q305 -178 231 -146T103 -57T19 77T-12 245Q-12 290 -3 340T26 439T78 532T155 610T260 664T396 684Q487 684 554 654T665 573T730 457T752 323Q752 239 723 178T653 78T566 19T489 0Q430 0 413 58Q381 26 355 13T296 0Q261 0 232 15T181 58T149 124T137 210Q137 265 152 321T194 422T260 495T346 523Q382 523 408 507T461 451L470 506H565L504 120Z"  />
<glyph unicode="A" horiz-adv-x="760" d="M401 319L344 507H342L280 319H401ZM11 163H62L190 516H135V679H624V516H569L699 163H749V0H394V149H453L427 234H253L224 149H280V0H11V163Z"  />
<glyph unicode="B" horiz-adv-x="854" d="M428 406Q478 406 498 421T519 468Q519 498 500 514T431 530H366V406H428ZM425 149Q481 149 505 164T529 215Q529 246 509 264T437 283H366V149H425ZM44 163H103V516H44V679H526Q602 679 652 664T733 625T776 568T789 503Q789 451 757 414T665 364V362Q733 345 773 299T814 191Q814 156 801 122T753 61T660 17T511 0H44V163Z"  />
<glyph unicode="C" horiz-adv-x="802" d="M760 237Q748 186 725 141T662 62T566 9T431 -11Q317 -11 243 23T126 110T66 224T49 340Q49 416 74 481T143 593T249 666T383 693Q440 693 490 678T576 634V679H739V431H570Q555 480 525 505T454 530Q429 530 409 520T374 488T352 430T344 341Q344 241 371 195T458 148Q557 148 584 300L760 237Z"  />
<glyph unicode="D" horiz-adv-x="875" d="M394 163Q466 163 497 207T528 339Q528 436 497 476T394 516H355V163H394ZM39 163H92V517H39V679H364Q410 679 448 677T520 670T582 656T641 632Q684 610 716 578T770 506T802 424T813 336Q813 291 803 248T772 166T724 98T660 49Q624 31 591 21T522 7T449 1T364 0H39V163Z"  />
<glyph unicode="E" horiz-adv-x="750" d="M45 163H98V516H45V679H693V462H515V516H361V412H495V274H361V163H515V217H693V0H45V163Z"  />
<glyph unicode="F" horiz-adv-x="708" d="M26 163H98V516H24V679H693V455H515V516H361V410H477V272H361V163H439V0H26V163Z"  />
<glyph unicode="G" horiz-adv-x="844" d="M489 363H793V312Q793 232 767 172T694 71T586 10T451 -11Q365 -11 302 7T195 54T122 120T77 197T55 273T49 340Q49 417 76 481T150 593T264 666T408 693Q468 693 519 677T605 632V679H768V442H605Q580 488 548 509T468 530Q430 530 406 517T369 479T350 417T344 331Q344 234 373 191T467 148Q511 148 535 170T559 234H489V363Z"  />
<glyph unicode="H" horiz-adv-x="875" d="M44 163H96V516H44V679H402V516H359V412H516V516H473V679H831V516H779V163H831V0H473V163H516V274H359V163H402V0H44V163Z"  />
<glyph unicode="I" horiz-adv-x="458" d="M35 163H98V516H35V679H424V516H361V163H424V0H35V163Z"  />
<glyph unicode="J" horiz-adv-x="448" d="M20 -43Q36 -47 49 -47Q64 -47 73 -43T88 -26T95 5T97 55V516H35V679H418V516H360V60Q360 17 358 -16T348 -74T330 -120T300 -159Q265 -194 224 -206T122 -218Q106 -218 94 -218T71 -216T48 -214T20 -210V-43Z"  />
<glyph unicode="K" horiz-adv-x="854" d="M485 163H517L368 356L541 516H485V679H820V516H767L629 388L802 163H836V0H485V163ZM45 163H97V516H45V679H414V516H360V163H414V0H45V163Z"  />
<glyph unicode="L" horiz-adv-x="698" d="M35 163H96V516H35V679H423V516H359V163H519V272H682V0H35V163Z"  />
<glyph unicode="M" horiz-adv-x="1104" d="M43 163H96V516H43V679H452L552 417L655 679H1061V516H1008V163H1061V0H709V163H762V540H760L558 0H456L256 540H254V163H307V0H43V163Z"  />
<glyph unicode="N" horiz-adv-x="854" d="M33 163H93V516H33V679H355L602 324H604V516H547V679H821V516H762V-11H538L253 402H251V163H312V0H33V163Z"  />
<glyph unicode="O" horiz-adv-x="865" d="M344 341Q344 245 361 197T432 148Q486 148 503 196T520 341Q520 437 503 485T432 534Q378 534 361 486T344 341ZM49 341Q49 401 71 463T141 577T260 660T432 693Q531 693 603 661T723 577T792 464T815 341Q815 281 793 219T723 105T604 22T432 -11Q333 -11 261 21T141 105T72 218T49 341Z"  />
<glyph unicode="P" horiz-adv-x="823" d="M445 405Q525 405 525 467Q525 498 506 514T437 530H373V405H445ZM44 163H110V516H44V679H502Q583 679 639 662T731 615T783 547T800 465Q800 434 789 398T748 330T666 277T530 256H373V163H441V0H44V163Z"  />
<glyph unicode="Q" horiz-adv-x="865" d="M344 341Q344 245 361 197T432 148Q486 148 503 196T520 341Q520 437 503 485T432 534Q378 534 361 486T344 341ZM444 -13Q479 -19 506 -27T562 -41T625 -51T707 -51L651 -208Q614 -215 577 -203T501 -173T421 -139T333 -123Q300 -123 281 -128T241 -148L169 -54Q200 -27 238 -15T331 -1V1Q270 10 218 42T129 120T70 224T49 341Q49 400 71 462T141 576T260 660T432 693Q530 693 602 661T721 578T792 465T815 341Q815 281 792 219T723 105T607 22T444 -11V-13Z"  />
<glyph unicode="R" horiz-adv-x="854" d="M436 401Q477 401 498 418T519 465Q519 494 499 512T438 530H362V401H436ZM44 163H99V516H44V679H421Q493 679 544 676T632 664T695 642T742 606Q772 576 783 542T794 476Q794 424 767 381T695 318L789 163H838V0H593L445 277H362V163H413V0H44V163Z"  />
<glyph unicode="S" horiz-adv-x="625" d="M45 218H198Q214 171 239 150T302 129Q327 129 341 141T356 173Q356 183 353 191T339 209Q322 225 294 238T232 266T164 299T102 345Q70 377 55 411T40 487Q40 532 55 569T99 632T166 673T253 688Q342 688 404 637V679H557V486H404L401 495Q371 566 306 566Q283 566 270 555T256 524Q256 506 268 494Q280 482 310 469T378 437T455 397T525 344Q545 324 564 286T584 197Q584 153 567 116T520 50T450 7T361 -9Q319 -9 276 5T198 45V0H45V218Z"  />
<glyph unicode="T" horiz-adv-x="750" d="M713 393H585V516H507V163H567V0H184V163H244V516H166V393H38V679H713V393Z"  />
<glyph unicode="U" horiz-adv-x="729" d="M28 679H376V516H343V266Q343 246 344 226T353 188T374 159T414 148Q451 148 465 174T479 271V516H445V679H700V516H647V252Q647 125 578 57T367 -11Q298 -11 245 4T155 53T99 140T80 270V516H28V679Z"  />
<glyph unicode="V" horiz-adv-x="750" d="M59 516H8V679H373V516H316L416 227H418L523 516H467V679H741V516H691L487 -6H275L59 516Z"  />
<glyph unicode="W" horiz-adv-x="1104" d="M55 516H8V679H360V516H310L389 224H391L492 516H441V679H737V516H687L788 224H790L870 516H821V679H1095V516H1049L855 -6H645L554 256H552L461 -6H246L55 516Z"  />
<glyph unicode="X" horiz-adv-x="1000" d="M26 163H102L325 336L102 516H30V679H482V536H415L529 437L629 536H571V679H948V516H847L663 363L906 163H974V0H517V143H588L463 256L348 143H420V0H26V163Z"  />
<glyph unicode="Y" horiz-adv-x="729" d="M181 163H235V271L64 516H18V679H373V516H333L404 378L491 516H450V679H711V516H668L498 271V163H552V0H181V163Z"  />
<glyph unicode="Z" horiz-adv-x="729" d="M29 156L364 530H194V446H38V679H697V541L346 149H543V242H699V0H29V156Z"  />
<glyph unicode="[" horiz-adv-x="500" d="M77 679H459V491H318V-20H457V-208H77V679Z"  />
<glyph unicode="\" horiz-adv-x="281" d="M281 0H142L0 679H139L281 0Z"  />
<glyph unicode="]" horiz-adv-x="500" d="M423 -208H41V-20H182V491H43V679H423V-208Z"  />
<glyph unicode="^" horiz-adv-x="660" d="M397 693L597 296H424L329 536L235 296H62L261 693H397Z"  />
<glyph unicode="_" horiz-adv-x="500" d="M-6 -125V-75H506V-125H-6Z"  />
<glyph unicode="`" horiz-adv-x="333" d="M155 544L-47 719H179L272 544H155Z"  />
<glyph unicode="a" horiz-adv-x="750" d="M415 207Q380 225 346 225Q314 225 295 208T275 161Q275 143 281 130T296 109T318 97T341 93Q361 93 381 100T415 121V207ZM39 360Q54 395 78 419T140 459T228 481T348 488Q431 488 490 479T588 448T643 394T661 311V149H723V0H415V42Q404 33 392 24T361 7T315 -4T246 -9Q191 -9 153 4T90 38T54 85T43 139Q43 173 59 201T106 249T177 280T269 291Q312 291 350 285T415 266V309Q415 340 393 363T323 386Q263 386 231 340L39 360Z"  />
<glyph unicode="b" horiz-adv-x="792" d="M332 236Q332 186 354 159T416 131Q497 131 497 238Q497 288 475 315T414 342Q376 342 354 314T332 236ZM26 149H88V530H26V679H334V443Q396 482 487 482Q543 482 590 466T672 419T726 343T746 241Q746 188 727 142T675 63T596 10T497 -9Q436 -9 399 5T334 43V0H26V149Z"  />
<glyph unicode="c" horiz-adv-x="688" d="M654 154Q630 73 555 30T364 -14Q291 -14 232 3T131 53T67 131T44 233Q44 286 65 331T125 410T214 463T326 482Q359 482 384 476T429 463T462 447T481 434V474H631V272H481Q451 355 387 355Q345 355 319 321T293 232Q293 178 318 146T387 113Q420 113 441 134T471 195L654 154Z"  />
<glyph unicode="d" horiz-adv-x="802" d="M461 236Q461 286 439 314T379 342Q340 342 318 315T296 238Q296 131 377 131Q417 131 439 158T461 236ZM459 0V43Q440 25 399 8T296 -9Q243 -9 198 10T119 62T66 142T47 241Q47 298 66 343T120 418T202 465T306 482Q397 482 459 443V530H399V679H705V149H767V0H459Z"  />
<glyph unicode="e" horiz-adv-x="698" d="M423 274Q426 328 405 353T352 379Q319 379 301 349T284 274H423ZM643 125Q613 58 543 22T370 -14Q282 -14 220 6T119 61T62 141T44 234Q44 291 66 337T128 417T224 469T348 488Q405 488 459 474T557 427T626 341T654 212H281Q282 156 304 127T368 97Q392 97 410 110T440 149L643 125Z"  />
<glyph unicode="f" horiz-adv-x="458" d="M34 149H94V325H34V474H94Q92 538 111 580T168 648T260 683T381 693Q390 693 403 693T430 692T459 692T485 692V560Q475 561 459 562T426 563Q399 563 382 559T356 544T343 516T340 474H430V325H340V149H420V0H34V149Z"  />
<glyph unicode="g" horiz-adv-x="792" d="M291 234Q291 187 314 160T376 132Q415 132 437 159T460 234Q460 283 437 312T375 342Q337 342 314 313T291 234ZM150 -57Q176 -68 217 -74T301 -81Q338 -81 368 -75T420 -55T451 -15T459 49Q421 29 381 20T297 11Q240 11 193 27T113 74T61 146T42 239Q42 292 61 336T116 413T199 464T305 482Q336 482 361 477T405 464T437 447T459 431V474H764V325H705V38Q705 -31 685 -79T623 -159T516 -204T362 -218Q323 -218 284 -215T208 -207T139 -195T83 -178L150 -57Z"  />
<glyph unicode="h" horiz-adv-x="792" d="M22 149H84V530H22V679H330V416Q378 448 428 465T527 482Q565 482 597 471T653 435T690 372T704 279V149H760V0H458V253Q458 285 444 303T399 322Q382 322 366 317T330 302V149H396V0H22V149Z"  />
<glyph unicode="i" horiz-adv-x="406" d="M198 693Q256 693 293 670T331 609Q331 574 297 549T198 524Q137 524 101 546T64 609Q64 626 74 641T102 668T144 686T198 693ZM35 149H84V325H35V474H330V149H371V0H35V149Z"  />
<glyph unicode="j" horiz-adv-x="406" d="M198 693Q257 693 294 670T331 609Q331 570 294 547T198 524Q135 524 100 546T64 609Q64 627 74 642T103 669T145 687T198 693ZM-2 -69Q31 -69 49 -66T77 -51T89 -17T92 42V325H43V474H338V60Q338 -12 328 -62T289 -145T211 -191T85 -206Q57 -206 37 -205T-2 -202V-69Z"  />
<glyph unicode="k" horiz-adv-x="740" d="M24 149H85V530H24V679H331V206L485 357H399V474H702V345H646L557 258L664 149H702V0H526L331 205V0H24V149Z"  />
<glyph unicode="l" horiz-adv-x="406" d="M33 149H83V530H33V679H329V149H373V0H33V149Z"  />
<glyph unicode="m" horiz-adv-x="1198" d="M34 149H94V325H34V474H340V404Q353 416 372 429T416 454T474 474T545 482Q667 482 708 390Q764 437 818 459T930 482Q967 482 999 471T1055 436T1092 375T1106 283V149H1169V0H860V261Q860 293 845 307T805 322Q785 322 764 314T723 292V149H791V0H477V261Q477 293 464 307T422 322Q381 322 340 292V149H408V0H34V149Z"  />
<glyph unicode="n" horiz-adv-x="802" d="M33 149H95V325H33V474H341V408Q355 419 374 432T417 456T470 474T535 482Q576 482 610 471T668 436T705 375T718 284V149H774V0H472V248Q472 283 458 302T412 322Q396 322 377 316T341 298V149H410V0H33V149Z"  />
<glyph unicode="o" horiz-adv-x="750" d="M292 236Q292 183 313 155T373 126Q414 126 436 155T458 240Q458 291 437 319T377 348Q336 348 314 319T292 236ZM43 237Q43 298 70 345T144 424T250 472T375 488Q432 488 491 474T598 430T676 352T707 237Q707 176 680 129T606 51T500 3T375 -14Q310 -14 250 2T144 49T71 128T43 237Z"  />
<glyph unicode="p" horiz-adv-x="802" d="M339 236Q339 186 360 159T420 131Q437 131 452 136T480 155T499 189T507 241Q507 341 423 341Q382 341 361 314T339 236ZM339 474V431Q345 435 357 444T390 461T438 475T499 482Q554 482 601 464T683 412T736 334T756 234Q756 178 737 134T683 57T600 8T492 -9Q444 -9 406 1T339 30V-69H401V-218H36V-69H93V325H36V474H339Z"  />
<glyph unicode="q" horiz-adv-x="802" d="M463 236Q463 286 442 313T379 341Q295 341 295 241Q295 210 302 189T322 155T349 137T382 131Q421 131 442 158T463 236ZM766 325H709V-69H766V-218H401V-69H463V30Q446 19 410 5T310 -9Q251 -9 203 8T119 57T65 133T46 234Q46 288 65 333T119 412T200 463T303 482Q367 482 406 464T463 431V474H766V325Z"  />
<glyph unicode="r" horiz-adv-x="542" d="M32 149H96V325H32V474H326V355H328Q351 423 405 455T541 482V277Q431 282 385 249T342 149H414V0H32V149Z"  />
<glyph unicode="s" horiz-adv-x="615" d="M59 145H201Q234 112 260 100T321 87Q350 87 368 94T386 114Q386 125 375 132T348 145T314 153T279 161Q256 166 228 173T171 191T116 215T74 247Q61 261 53 281T44 330Q44 402 95 442T240 483Q268 483 293 479T337 467T369 453T387 439V474H537V336H398Q368 363 338 374T272 386Q243 386 231 378T219 355Q219 337 256 330T361 310Q410 300 459 283T538 236Q558 216 564 196T571 151Q571 102 550 71T498 22T430 -2T361 -9Q328 -9 304 -5T263 6T233 19T211 31V-6H59V145Z"  />
<glyph unicode="t" horiz-adv-x="458" d="M414 28Q401 19 383 11T343 -2T298 -11T253 -14Q156 -14 112 33T68 168V325H6V474H68V546L314 663V474H414V325H314V226Q314 188 323 173T357 158Q370 158 386 162T414 173V28Z"  />
<glyph unicode="u" horiz-adv-x="792" d="M23 474H326V227Q326 188 338 170T381 151Q421 151 456 173V325H392V474H702V149H759V0H456V60Q411 28 359 10T257 -9Q221 -9 189 2T133 39T94 102T80 194V325H23V474Z"  />
<glyph unicode="v" horiz-adv-x="677" d="M65 325H18V474H352V325H299L378 145L461 325H414V474H659V325H613L440 -6H243L65 325Z"  />
<glyph unicode="w" horiz-adv-x="1021" d="M72 325H21V474H341V325H293L349 167L466 474H648L754 167L815 325H769V474H1000V325H954L815 -6H621L513 237L411 -6H217L72 325Z"  />
<glyph unicode="x" horiz-adv-x="677" d="M40 149H99L169 225L86 325H29V474H269L356 346L445 474H630V325H564L503 256L593 149H648V0H413L321 129L226 0H40V149Z"  />
<glyph unicode="y" horiz-adv-x="656" d="M125 -69H205L229 -25L47 325H10V474H333V325H281L364 139L439 325H393V474H638V325H591L332 -218H125V-69Z"  />
<glyph unicode="z" horiz-adv-x="656" d="M40 125L306 362H145V307H44V474H616V357L346 112H509V169H611V0H40V125Z"  />
<glyph unicode="{" horiz-adv-x="389" d="M12 307Q63 307 85 332T107 412V496Q107 551 117 588T151 649T211 683T298 693H377V533H359Q336 533 322 528T299 510T288 477T284 425V398Q284 329 264 290T196 239V237Q244 225 264 186T284 77V50Q284 19 287 -1T299 -34T321 -52T359 -58H377V-218H298Q247 -218 211 -208T152 -175T118 -114T107 -21V63Q107 117 85 142T12 168V307Z"  />
<glyph unicode="|" horiz-adv-x="639" d="M400 679V-153H240V679H400Z"  />
<glyph unicode="}" horiz-adv-x="389" d="M377 168Q326 168 304 143T282 63V-21Q282 -76 272 -113T238 -174T178 -208T91 -218H12V-58H30Q52 -58 67 -53T90 -35T101 -2T105 50V77Q105 146 125 185T193 236V238Q145 250 125 289T105 398V425Q105 456 102 476T90 509T67 527T30 533H12V693H91Q142 693 178 683T237 650T271 589T282 496V412Q282 358 304 333T377 307V168Z"  />
<glyph unicode="~" horiz-adv-x="656" d="M608 328Q581 306 560 292T520 269T484 257T447 253Q411 253 379 265T317 292T260 319T204 331Q165 331 128 312T48 253V415Q93 454 131 471T213 488Q249 488 282 476T345 449T403 422T457 410Q493 410 528 428T608 487V328Z"  />
<glyph unicode="&#xA0;" horiz-adv-x="333" />
<glyph unicode="&#xA1;" horiz-adv-x="396" d="M316 -10V-205H81V-14L116 201H281L316 -10ZM320 296H77V474H320V296Z"  />
<glyph unicode="&#xA2;" horiz-adv-x="688" d="M320 -12Q256 -7 205 12T118 64T63 139T44 235Q44 296 69 342T133 419T222 466T320 482V557H393V476Q410 473 421 470T443 464T461 456T481 444V474H631V272H481Q478 286 470 300T449 327T421 347T386 355Q344 355 319 321T293 232Q293 179 319 146T387 113Q421 113 442 134T471 195L654 155Q631 79 562 33T393 -14V-92H320V-12Z"  />
<glyph unicode="&#xA3;" horiz-adv-x="625" d="M241 131Q202 176 157 176Q133 176 117 160T100 120Q100 93 118 76T165 58Q232 58 241 131ZM626 185Q618 91 572 41T447 -9Q366 -9 311 53Q251 -9 177 -9Q147 -9 122 0T79 27T51 68T41 120Q41 172 75 204T167 236Q184 236 197 233T227 222Q219 245 204 270T174 312H49V402H124Q101 448 101 499Q101 590 171 641T365 693Q482 693 544 648T606 518L446 497Q442 532 425 551T380 570Q354 570 338 554T322 512Q322 498 332 469T360 402H511V312H387Q390 301 392 289T394 257Q394 227 391 210T380 171Q411 152 445 152Q473 152 488 166T511 215L626 185Z"  />
<glyph unicode="&#xA4;" horiz-adv-x="668" d="M331 432Q311 432 294 425T265 405T245 375T237 338Q237 299 264 272T331 244Q350 244 367 251T397 271T417 301T425 338Q425 357 418 374T398 404T368 424T331 432ZM158 620L227 551Q246 561 275 568T331 575Q357 575 386 568T440 549L511 620L615 516L543 444Q554 423 561 397T568 338Q568 306 561 282T544 234L615 163L511 59L442 128Q416 115 387 108T331 101Q273 101 225 126L158 59L54 163L120 229Q107 256 101 282T94 338Q94 368 101 397T121 449L54 516L158 620Z"  />
<glyph unicode="&#xA5;" horiz-adv-x="729" d="M31 227V292H219L174 358H31V423H129L64 516H18V679H373V516H332L404 378L491 516H450V679H711V516H669L604 423H697V358H558L512 292H697V227H498V163H552V0H181V163H235V227H31Z"  />
<glyph unicode="&#xA6;" horiz-adv-x="639" d="M400 679V317H240V679H400ZM400 208V-153H240V208H400Z"  />
<glyph unicode="&#xA7;" horiz-adv-x="677" d="M236 334Q206 314 206 284Q206 253 230 229Q243 216 268 205T323 184T386 162T445 137Q459 145 466 159T474 187Q474 207 468 222T454 245Q436 263 410 274T355 294T295 311T236 334ZM240 -42Q242 -84 270 -104T347 -124Q392 -124 413 -110T435 -64Q435 -56 431 -46T420 -29Q409 -18 387 -8T335 12T272 35T206 60T144 91T93 129Q44 178 44 248Q44 295 66 330T135 395Q75 449 75 520Q75 560 92 592T142 646T221 681T326 693Q386 693 435 681T520 645T576 588T599 514H436Q423 560 398 579T328 599Q290 599 268 583T245 540Q245 532 248 522T257 507Q274 490 314 477T401 448T495 412T575 359Q607 327 619 294T632 224Q632 176 611 144T542 84Q579 56 595 28T612 -37Q612 -79 594 -112T541 -169T457 -205T346 -218Q294 -218 245 -209T157 -179T97 -125T76 -42H240Z"  />
<glyph unicode="&#xA8;" horiz-adv-x="333" d="M326 739Q364 739 390 713T416 649Q416 611 390 585T326 558Q288 558 262 584T235 649Q235 687 261 713T326 739ZM8 739Q46 739 72 713T98 649Q98 611 72 585T8 558Q-30 558 -56 584T-83 649Q-83 687 -57 713T8 739Z"  />
<glyph unicode="&#xA9;" horiz-adv-x="802" d="M100 358Q100 296 123 241T188 146T284 82T401 58Q463 58 518 81T614 145T678 241T702 358Q702 421 679 475T614 571T518 635T401 659Q339 659 284 636T188 571T124 476T100 358ZM28 358Q28 435 57 503T137 621T256 701T401 731Q478 731 546 702T664 622T744 503T774 358Q774 281 745 214T665 96T546 16T401 -14Q324 -14 256 15T138 95T58 213T28 358ZM588 289Q545 148 403 148Q358 148 321 163T256 206T215 273T200 359Q200 404 215 442T258 509T322 552T404 568Q474 568 522 532T584 433L488 418Q470 496 399 496Q357 496 333 459T309 359Q309 283 333 252T400 220Q468 220 488 313L588 289Z"  />
<glyph unicode="&#xAA;" horiz-adv-x="479" d="M259 505Q246 510 238 511T221 513Q181 513 181 484Q181 472 192 463T217 453Q225 453 232 455T259 465V505ZM13 602Q33 653 81 673T219 693Q275 693 314 687T379 667T415 630T427 570V493H466V387H259V402Q243 396 231 392T208 386T185 383T158 382Q95 382 58 407T21 478Q21 523 62 549T174 576Q197 576 214 574T259 565Q259 594 247 606T205 619Q164 619 150 590L13 602Z"  />
<glyph unicode="&#xAB;" horiz-adv-x="771" d="M269 236L382 0H155L44 236L155 474H382L269 236ZM632 236L745 0H518L407 236L518 474H745L632 236Z"  />
<glyph unicode="&#xAC;" horiz-adv-x="668" d="M614 542V147H456V384H53V542H614Z"  />
<glyph unicode="&#xAD;" horiz-adv-x="448" d="M50 342H398V131H50V342Z"  />
<glyph unicode="&#xAE;" horiz-adv-x="802" d="M100 358Q100 296 123 241T188 146T284 82T401 58Q463 58 518 81T614 145T678 241T702 358Q702 421 679 475T614 571T518 635T401 659Q339 659 284 636T188 571T124 476T100 358ZM28 358Q28 435 57 503T137 621T256 701T401 731Q478 731 546 702T664 622T744 503T774 358Q774 281 745 214T665 96T546 16T401 -14Q324 -14 256 15T138 95T58 213T28 358ZM391 386Q430 386 449 400T469 441Q469 495 386 495H313V386H391ZM478 160L445 224Q418 277 395 300T340 323H313V160H232V557H432Q493 557 523 524T554 446Q554 400 526 371T447 335V333Q460 328 468 323T486 309T505 283T531 240L578 160H478Z"  />
<glyph unicode="&#xAF;" horiz-adv-x="333" d="M417 686V580H-83V686H417Z"  />
<glyph unicode="&#xB0;" horiz-adv-x="400" d="M199 593Q161 593 136 567T110 503Q110 465 135 439T199 413Q237 413 263 439T290 503Q290 541 264 567T199 593ZM200 693Q239 693 274 678T334 638T375 577T390 503Q390 464 375 429T335 369T274 328T200 313Q161 313 126 328T66 368T25 429T10 503Q10 542 25 577T65 637T126 678T200 693Z"  />
<glyph unicode="&#xB1;" horiz-adv-x="668" d="M614 158V0H54V158H614ZM255 534V716H413V534H614V376H413V194H255V376H54V534H255Z"  />
<glyph unicode="&#xB2;" horiz-adv-x="406" d="M227 588Q227 599 218 605T191 612Q177 612 170 607T160 595T156 579T154 565L38 568Q38 596 46 619T74 658T124 684T198 693Q273 693 318 663T364 582Q364 562 357 547T336 517Q327 508 315 500T288 484T260 470T233 458Q214 450 203 445T184 436T174 429T167 421H272L273 450H367L363 323H32V346Q32 383 45 412T85 468Q102 485 120 497T155 521T187 542T213 563Q227 577 227 588Z"  />
<glyph unicode="&#xB3;" horiz-adv-x="406" d="M232 440Q232 475 167 476V549Q223 552 223 581Q223 593 213 600T186 607Q163 607 156 597T147 569L27 573Q31 635 71 664T196 693Q273 693 317 665T361 588Q361 566 352 550T321 519Q350 502 362 483T375 435Q375 381 327 350T196 319Q111 319 67 352T20 457L136 465Q138 433 149 421T189 409Q232 409 232 440Z"  />
<glyph unicode="&#xB4;" horiz-adv-x="333" d="M154 719H380L178 544H61L154 719Z"  />
<glyph unicode="&#xB5;" horiz-adv-x="667" d="M59 474H259V240Q259 210 265 192T281 163T302 150T325 146Q345 146 369 156T408 193V474H608V0H413V60H410Q391 18 363 2T305 -14Q276 -14 259 0V-218H59V474Z"  />
<glyph unicode="&#xB6;" horiz-adv-x="850" d="M787 538H722V-218H577V538H496V-218H351V277H285Q225 277 183 294T115 341T76 409T63 489Q63 527 75 563T113 629T182 675T287 693H787V538Z"  />
<glyph unicode="&#xB7;" horiz-adv-x="396" d="M76 456H319V278H76V456Z"  />
<glyph unicode="&#xB8;" horiz-adv-x="333" d="M62 -132Q67 -134 72 -134T85 -134Q135 -134 135 -104Q135 -82 112 -82Q110 -82 107 -82T98 -83L108 -36Q143 -7 191 -7Q237 -7 267 -34T298 -103Q298 -150 260 -175T153 -200Q129 -200 103 -198T55 -191L62 -132Z"  />
<glyph unicode="&#xB9;" horiz-adv-x="406" d="M78 421H135V558Q120 555 105 555T78 558V652Q134 651 161 662T206 693H274V421H329V323H78V421Z"  />
<glyph unicode="&#xBA;" horiz-adv-x="479" d="M192 535Q192 479 238 479Q287 479 287 539Q287 593 241 593Q192 593 192 535ZM21 537Q21 571 37 599T81 649T149 681T235 693Q284 693 325 682T396 650T441 600T458 537Q458 502 442 473T398 423T329 391T241 379Q191 379 151 390T81 422T37 472T21 537Z"  />
<glyph unicode="&#xBB;" horiz-adv-x="771" d="M502 238L389 474H616L727 238L616 0H389L502 238ZM139 238L26 474H253L364 238L253 0H26L139 238Z"  />
<glyph unicode="&#xBC;" horiz-adv-x="969" d="M105 421H162V558Q147 555 132 555T105 558V652Q161 651 188 662T233 693H301V421H356V323H105V421ZM740 264L660 194H740V264ZM214 0L672 679H779L321 0H214ZM692 89H740V114H573L547 199L740 370H871V194H913V114H871V89H913V0H692V89Z"  />
<glyph unicode="&#xBD;" horiz-adv-x="969" d="M105 421H162V558Q147 555 132 555T105 558V652Q161 651 188 662T233 693H301V421H356V323H105V421ZM202 0L660 679H767L309 0H202ZM763 265Q763 276 754 282T727 289Q713 289 706 284T696 272T692 256T690 242L574 245Q574 273 582 296T610 335T660 361T734 370Q809 370 854 340T900 259Q900 239 893 224T872 194Q863 185 851 177T824 161T796 147T769 135Q750 127 739 122T720 113T710 106T703 98H808L809 127H903L899 0H568V23Q568 60 581 89T621 145Q638 162 656 174T691 198T723 219T749 240Q763 254 763 265Z"  />
<glyph unicode="&#xBE;" horiz-adv-x="969" d="M163 465Q165 433 176 421T216 409Q259 409 259 440Q259 475 194 476V549Q250 552 250 581Q250 593 240 600T213 607Q193 607 185 598T174 567L54 573Q58 635 98 664T223 693Q300 693 344 665T388 588Q388 566 379 550T348 519Q377 502 389 483T402 435Q402 381 354 350T223 319Q138 319 94 352T47 457L163 465ZM740 264L660 194H740V264ZM214 0L672 679H779L321 0H214ZM692 89H740V114H573L547 199L740 370H871V194H913V114H871V89H913V0H692V89Z"  />
<glyph unicode="&#xBF;" horiz-adv-x="635" d="M457 296H214V474H457V296ZM411 62H405Q395 64 386 65T352 66Q304 66 277 43T250 -23Q250 -59 273 -82T333 -105Q371 -105 391 -84T412 -25H609Q607 -113 532 -165Q495 -191 442 -205T319 -219Q251 -219 197 -206T104 -167T46 -105T25 -24Q25 20 43 55T94 116T169 153T261 165L271 209H399L411 62Z"  />
<glyph unicode="&#xC0;" horiz-adv-x="760" d="M401 319L344 507H342L280 319H401ZM11 163H62L190 516H135V679H624V516H569L699 163H749V0H394V149H453L427 234H253L224 149H280V0H11V163ZM369 745L167 920H393L486 745H369Z"  />
<glyph unicode="&#xC1;" horiz-adv-x="760" d="M401 319L344 507H342L280 319H401ZM11 163H62L190 516H135V679H624V516H569L699 163H749V0H394V149H453L427 234H253L224 149H280V0H11V163ZM368 920H594L392 745H275L368 920Z"  />
<glyph unicode="&#xC2;" horiz-adv-x="760" d="M401 319L344 507H342L280 319H401ZM11 163H62L190 516H135V679H624V516H569L699 163H749V0H394V149H453L427 234H253L224 149H280V0H11V163ZM264 921H498L599 744H460L381 812L301 744H162L264 921Z"  />
<glyph unicode="&#xC3;" horiz-adv-x="760" d="M401 319L344 507H342L280 319H401ZM11 163H62L190 516H135V679H624V516H569L699 163H749V0H394V149H453L427 234H253L224 149H280V0H11V163ZM165 745Q173 826 207 871T299 917Q323 917 343 911T382 896T415 881T446 874Q478 874 488 918H596Q593 837 557 791T460 744Q435 744 415 751T379 766T348 781T318 788Q282 788 274 745H165Z"  />
<glyph unicode="&#xC4;" horiz-adv-x="760" d="M401 319L344 507H342L280 319H401ZM11 163H62L190 516H135V679H624V516H569L699 163H749V0H394V149H453L427 234H253L224 149H280V0H11V163ZM540 940Q578 940 604 914T630 850Q630 812 604 786T540 759Q502 759 476 785T449 850Q449 888 475 914T540 940ZM222 940Q260 940 286 914T312 850Q312 812 286 786T222 759Q184 759 158 785T131 850Q131 888 157 914T222 940Z"  />
<glyph unicode="&#xC5;" horiz-adv-x="760" d="M401 319L344 507H342L280 319H401ZM11 163H62L190 516H135V679H624V516H569L699 163H749V0H394V149H453L427 234H253L224 149H280V0H11V163ZM380 961Q404 961 425 952T463 926T488 889T498 843Q498 819 489 798T463 760T426 735T380 725Q356 725 335 734T297 760T272 797T262 843Q262 867 271 888T297 926T334 951T380 961ZM380 893Q359 893 345 879T330 843Q330 822 344 808T380 793Q401 793 415 807T430 843Q430 864 416 878T380 893Z"  />
<glyph unicode="&#xC6;" horiz-adv-x="1094" d="M438 539H385L316 404H438V539ZM-13 163H27L216 516H161V679H1040V463H862V516H705V412H840V274H705V163H862V218H1040V0H389V163H442V274H254L199 163H262V0H-13V163Z"  />
<glyph unicode="&#xC7;" horiz-adv-x="802" d="M297 -132Q302 -134 307 -134T320 -134Q370 -134 370 -104Q370 -82 347 -82Q345 -82 342 -82T333 -83L343 -36Q356 -25 371 -19T403 -13V-11Q332 -8 279 10T186 55T121 118T78 191T56 267T49 340Q49 416 74 481T143 593T249 666T383 693Q440 693 490 678T576 634V679H739V431H570Q555 480 525 505T454 530Q429 530 409 520T374 488T352 430T344 341Q344 241 371 195T458 148Q557 148 584 300L760 237Q748 188 726 144T667 67T577 13T449 -11V-13Q487 -18 510 -43T533 -103Q533 -150 495 -175T388 -200Q364 -200 338 -198T290 -191L297 -132Z"  />
<glyph unicode="&#xC8;" horiz-adv-x="750" d="M45 163H98V516H45V679H693V462H515V516H361V412H495V274H361V163H515V217H693V0H45V163ZM364 745L162 920H388L481 745H364Z"  />
<glyph unicode="&#xC9;" horiz-adv-x="750" d="M45 163H98V516H45V679H693V462H515V516H361V412H495V274H361V163H515V217H693V0H45V163ZM363 920H589L387 745H270L363 920Z"  />
<glyph unicode="&#xCA;" horiz-adv-x="750" d="M45 163H98V516H45V679H693V462H515V516H361V412H495V274H361V163H515V217H693V0H45V163ZM259 921H493L594 744H455L376 812L296 744H157L259 921Z"  />
<glyph unicode="&#xCB;" horiz-adv-x="750" d="M45 163H98V516H45V679H693V462H515V516H361V412H495V274H361V163H515V217H693V0H45V163ZM535 940Q573 940 599 914T625 850Q625 812 599 786T535 759Q497 759 471 785T444 850Q444 888 470 914T535 940ZM217 940Q255 940 281 914T307 850Q307 812 281 786T217 759Q179 759 153 785T126 850Q126 888 152 914T217 940Z"  />
<glyph unicode="&#xCC;" horiz-adv-x="458" d="M35 163H98V516H35V679H424V516H361V163H424V0H35V163ZM218 745L16 920H242L335 745H218Z"  />
<glyph unicode="&#xCD;" horiz-adv-x="458" d="M35 163H98V516H35V679H424V516H361V163H424V0H35V163ZM217 920H443L241 745H124L217 920Z"  />
<glyph unicode="&#xCE;" horiz-adv-x="458" d="M35 163H98V516H35V679H424V516H361V163H424V0H35V163ZM113 921H347L448 744H309L230 812L150 744H11L113 921Z"  />
<glyph unicode="&#xCF;" horiz-adv-x="458" d="M35 163H98V516H35V679H424V516H361V163H424V0H35V163ZM389 940Q427 940 453 914T479 850Q479 812 453 786T389 759Q351 759 325 785T298 850Q298 888 324 914T389 940ZM71 940Q109 940 135 914T161 850Q161 812 135 786T71 759Q33 759 7 785T-20 850Q-20 888 6 914T71 940Z"  />
<glyph unicode="&#xD0;" horiz-adv-x="875" d="M399 163Q471 163 502 205T533 336Q533 433 498 474T382 516H360V411H463V273H360V163H399ZM44 163H97V273H44V411H97V516H44V679H433Q527 679 599 652T720 579T793 469T818 334Q818 274 799 214T737 107T625 30T456 0H44V163Z"  />
<glyph unicode="&#xD1;" horiz-adv-x="854" d="M33 163H93V516H33V679H355L602 324H604V516H547V679H821V516H762V-11H538L253 402H251V163H312V0H33V163ZM212 745Q220 826 254 871T346 917Q370 917 390 911T429 896T462 881T493 874Q525 874 535 918H643Q640 837 604 791T507 744Q482 744 462 751T426 766T395 781T365 788Q329 788 321 745H212Z"  />
<glyph unicode="&#xD2;" horiz-adv-x="865" d="M344 341Q344 245 361 197T432 148Q486 148 503 196T520 341Q520 437 503 485T432 534Q378 534 361 486T344 341ZM49 341Q49 401 71 463T141 577T260 660T432 693Q531 693 603 661T723 577T792 464T815 341Q815 281 793 219T723 105T604 22T432 -11Q333 -11 261 21T141 105T72 218T49 341ZM421 745L219 920H445L538 745H421Z"  />
<glyph unicode="&#xD3;" horiz-adv-x="865" d="M344 341Q344 245 361 197T432 148Q486 148 503 196T520 341Q520 437 503 485T432 534Q378 534 361 486T344 341ZM49 341Q49 401 71 463T141 577T260 660T432 693Q531 693 603 661T723 577T792 464T815 341Q815 281 793 219T723 105T604 22T432 -11Q333 -11 261 21T141 105T72 218T49 341ZM420 920H646L444 745H327L420 920Z"  />
<glyph unicode="&#xD4;" horiz-adv-x="865" d="M344 341Q344 245 361 197T432 148Q486 148 503 196T520 341Q520 437 503 485T432 534Q378 534 361 486T344 341ZM49 341Q49 401 71 463T141 577T260 660T432 693Q531 693 603 661T723 577T792 464T815 341Q815 281 793 219T723 105T604 22T432 -11Q333 -11 261 21T141 105T72 218T49 341ZM316 921H550L651 744H512L433 812L353 744H214L316 921Z"  />
<glyph unicode="&#xD5;" horiz-adv-x="865" d="M344 341Q344 245 361 197T432 148Q486 148 503 196T520 341Q520 437 503 485T432 534Q378 534 361 486T344 341ZM49 341Q49 401 71 463T141 577T260 660T432 693Q531 693 603 661T723 577T792 464T815 341Q815 281 793 219T723 105T604 22T432 -11Q333 -11 261 21T141 105T72 218T49 341ZM217 745Q225 826 259 871T351 917Q375 917 395 911T434 896T467 881T498 874Q530 874 540 918H648Q645 837 609 791T512 744Q487 744 467 751T431 766T400 781T370 788Q334 788 326 745H217Z"  />
<glyph unicode="&#xD6;" horiz-adv-x="865" d="M344 341Q344 245 361 197T432 148Q486 148 503 196T520 341Q520 437 503 485T432 534Q378 534 361 486T344 341ZM49 341Q49 401 71 463T141 577T260 660T432 693Q531 693 603 661T723 577T792 464T815 341Q815 281 793 219T723 105T604 22T432 -11Q333 -11 261 21T141 105T72 218T49 341ZM592 940Q630 940 656 914T682 850Q682 812 656 786T592 759Q554 759 528 785T501 850Q501 888 527 914T592 940ZM274 940Q312 940 338 914T364 850Q364 812 338 786T274 759Q236 759 210 785T183 850Q183 888 209 914T274 940Z"  />
<glyph unicode="&#xD7;" horiz-adv-x="667" d="M172 610L333 449L494 610L606 498L445 337L606 176L494 64L333 225L172 64L60 176L221 337L60 498L172 610Z"  />
<glyph unicode="&#xD8;" horiz-adv-x="865" d="M432 534Q381 534 363 487T344 341Q344 336 344 327T345 311L499 494Q489 511 474 522T432 534ZM432 -11Q320 -11 229 36L190 -14L120 42L156 88Q105 134 77 197T49 335Q49 408 75 473T150 587T271 664T432 693Q459 693 486 690T540 680T589 666T629 648L667 693L737 639L702 597Q752 552 784 489T816 335Q816 261 788 198T710 89T589 16T432 -11ZM432 148Q484 148 502 195T521 341Q521 347 521 361T520 381L363 194Q383 148 432 148Z"  />
<glyph unicode="&#xD9;" horiz-adv-x="729" d="M28 679H376V516H343V266Q343 246 344 226T353 188T374 159T414 148Q451 148 465 174T479 271V516H445V679H700V516H647V252Q647 125 578 57T367 -11Q298 -11 245 4T155 53T99 140T80 270V516H28V679ZM353 745L151 920H377L470 745H353Z"  />
<glyph unicode="&#xDA;" horiz-adv-x="729" d="M28 679H376V516H343V266Q343 246 344 226T353 188T374 159T414 148Q451 148 465 174T479 271V516H445V679H700V516H647V252Q647 125 578 57T367 -11Q298 -11 245 4T155 53T99 140T80 270V516H28V679ZM352 920H578L376 745H259L352 920Z"  />
<glyph unicode="&#xDB;" horiz-adv-x="729" d="M28 679H376V516H343V266Q343 246 344 226T353 188T374 159T414 148Q451 148 465 174T479 271V516H445V679H700V516H647V252Q647 125 578 57T367 -11Q298 -11 245 4T155 53T99 140T80 270V516H28V679ZM248 921H482L583 744H444L365 812L285 744H146L248 921Z"  />
<glyph unicode="&#xDC;" horiz-adv-x="729" d="M28 679H376V516H343V266Q343 246 344 226T353 188T374 159T414 148Q451 148 465 174T479 271V516H445V679H700V516H647V252Q647 125 578 57T367 -11Q298 -11 245 4T155 53T99 140T80 270V516H28V679ZM524 940Q562 940 588 914T614 850Q614 812 588 786T524 759Q486 759 460 785T433 850Q433 888 459 914T524 940ZM206 940Q244 940 270 914T296 850Q296 812 270 786T206 759Q168 759 142 785T115 850Q115 888 141 914T206 940Z"  />
<glyph unicode="&#xDD;" horiz-adv-x="729" d="M181 163H235V271L64 516H18V679H373V516H333L404 378L491 516H450V679H711V516H668L498 271V163H552V0H181V163ZM352 920H578L376 745H259L352 920Z"  />
<glyph unicode="&#xDE;" horiz-adv-x="823" d="M445 278Q525 278 525 340Q525 371 506 386T437 401H373V278H445ZM373 550H502Q583 550 639 533T731 486T783 418T800 336Q800 305 789 269T748 202T666 150T530 129H373V90H441V0H44V90H110V589H44V679H439V589H373V550Z"  />
<glyph unicode="&#xDF;" horiz-adv-x="792" d="M27 149H87V449Q87 693 420 693Q490 693 547 682T644 649T707 594T729 516Q729 468 700 432T620 382V380Q686 356 719 311T753 203Q753 167 742 130T705 61T638 11T536 -9Q475 -9 420 11V124Q430 121 440 121Q504 121 504 210Q504 267 483 291T407 319V430Q442 430 462 449T483 500Q483 532 462 552T408 572Q364 572 349 540T333 457V149H368V0H27V149Z"  />
<glyph unicode="&#xE0;" horiz-adv-x="750" d="M415 207Q380 225 346 225Q314 225 295 208T275 161Q275 143 281 130T296 109T318 97T341 93Q361 93 381 100T415 121V207ZM39 360Q54 395 78 419T140 459T228 481T348 488Q431 488 490 479T588 448T643 394T661 311V149H723V0H415V42Q404 33 392 24T361 7T315 -4T246 -9Q191 -9 153 4T90 38T54 85T43 139Q43 173 59 201T106 249T177 280T269 291Q312 291 350 285T415 266V309Q415 340 393 363T323 386Q263 386 231 340L39 360ZM364 544L162 719H388L481 544H364Z"  />
<glyph unicode="&#xE1;" horiz-adv-x="750" d="M415 207Q380 225 346 225Q314 225 295 208T275 161Q275 143 281 130T296 109T318 97T341 93Q361 93 381 100T415 121V207ZM39 360Q54 395 78 419T140 459T228 481T348 488Q431 488 490 479T588 448T643 394T661 311V149H723V0H415V42Q404 33 392 24T361 7T315 -4T246 -9Q191 -9 153 4T90 38T54 85T43 139Q43 173 59 201T106 249T177 280T269 291Q312 291 350 285T415 266V309Q415 340 393 363T323 386Q263 386 231 340L39 360ZM363 719H589L387 544H270L363 719Z"  />
<glyph unicode="&#xE2;" horiz-adv-x="750" d="M415 207Q380 225 346 225Q314 225 295 208T275 161Q275 143 281 130T296 109T318 97T341 93Q361 93 381 100T415 121V207ZM39 360Q54 395 78 419T140 459T228 481T348 488Q431 488 490 479T588 448T643 394T661 311V149H723V0H415V42Q404 33 392 24T361 7T315 -4T246 -9Q191 -9 153 4T90 38T54 85T43 139Q43 173 59 201T106 249T177 280T269 291Q312 291 350 285T415 266V309Q415 340 393 363T323 386Q263 386 231 340L39 360ZM259 720H493L594 543H455L376 611L296 543H157L259 720Z"  />
<glyph unicode="&#xE3;" horiz-adv-x="750" d="M415 207Q380 225 346 225Q314 225 295 208T275 161Q275 143 281 130T296 109T318 97T341 93Q361 93 381 100T415 121V207ZM39 360Q54 395 78 419T140 459T228 481T348 488Q431 488 490 479T588 448T643 394T661 311V149H723V0H415V42Q404 33 392 24T361 7T315 -4T246 -9Q191 -9 153 4T90 38T54 85T43 139Q43 173 59 201T106 249T177 280T269 291Q312 291 350 285T415 266V309Q415 340 393 363T323 386Q263 386 231 340L39 360ZM160 544Q168 625 202 670T294 716Q318 716 338 710T377 695T410 680T441 673Q473 673 483 717H591Q588 636 552 590T455 543Q430 543 410 550T374 565T343 580T313 587Q277 587 269 544H160Z"  />
<glyph unicode="&#xE4;" horiz-adv-x="750" d="M415 207Q380 225 346 225Q314 225 295 208T275 161Q275 143 281 130T296 109T318 97T341 93Q361 93 381 100T415 121V207ZM39 360Q54 395 78 419T140 459T228 481T348 488Q431 488 490 479T588 448T643 394T661 311V149H723V0H415V42Q404 33 392 24T361 7T315 -4T246 -9Q191 -9 153 4T90 38T54 85T43 139Q43 173 59 201T106 249T177 280T269 291Q312 291 350 285T415 266V309Q415 340 393 363T323 386Q263 386 231 340L39 360ZM535 739Q573 739 599 713T625 649Q625 611 599 585T535 558Q497 558 471 584T444 649Q444 687 470 713T535 739ZM217 739Q255 739 281 713T307 649Q307 611 281 585T217 558Q179 558 153 584T126 649Q126 687 152 713T217 739Z"  />
<glyph unicode="&#xE5;" horiz-adv-x="750" d="M415 207Q380 225 346 225Q314 225 295 208T275 161Q275 143 281 130T296 109T318 97T341 93Q361 93 381 100T415 121V207ZM39 360Q54 395 78 419T140 459T228 481T348 488Q431 488 490 479T588 448T643 394T661 311V149H723V0H415V42Q404 33 392 24T361 7T315 -4T246 -9Q191 -9 153 4T90 38T54 85T43 139Q43 173 59 201T106 249T177 280T269 291Q312 291 350 285T415 266V309Q415 340 393 363T323 386Q263 386 231 340L39 360ZM375 760Q399 760 420 751T458 725T483 688T493 642Q493 618 484 597T458 559T421 534T375 524Q351 524 330 533T292 559T267 596T257 642Q257 666 266 687T292 725T329 750T375 760ZM375 692Q354 692 340 678T325 642Q325 621 339 607T375 592Q396 592 410 606T425 642Q425 663 411 677T375 692Z"  />
<glyph unicode="&#xE6;" horiz-adv-x="1073" d="M801 272Q803 320 786 349T730 379Q693 379 677 352T661 272H801ZM415 188Q385 207 344 207Q313 207 294 190T274 144Q274 115 293 97T342 79Q381 79 415 105V188ZM1022 126Q993 58 922 22T746 -14Q658 -14 593 6T484 75Q436 29 379 8T251 -14Q204 -14 166 -4T100 26T57 72T42 133Q42 166 58 194T105 242T176 273T267 285Q306 285 346 279T415 261Q415 294 412 318T399 357T371 379T321 386Q286 386 266 375T232 341L41 359Q64 421 137 454T351 488Q419 488 475 477T568 443Q597 461 642 474T731 488Q806 488 863 467T958 408T1015 321T1033 212H661Q665 97 748 97Q772 97 788 109T817 151L1022 126Z"  />
<glyph unicode="&#xE7;" horiz-adv-x="688" d="M238 -132Q243 -134 248 -134T261 -134Q311 -134 311 -104Q311 -82 288 -82Q286 -82 283 -82T274 -83L284 -36Q306 -17 332 -13V-11Q266 -8 213 10T122 61T64 136T44 233Q44 286 65 331T125 410T214 463T326 482Q359 482 384 476T429 463T462 447T481 434V474H631V272H481Q451 355 387 355Q345 355 319 321T293 232Q293 178 318 146T387 113Q420 113 441 134T471 195L654 154Q632 80 567 37T401 -11V-13Q433 -21 453 -45T474 -103Q474 -150 436 -175T329 -200Q305 -200 279 -198T231 -191L238 -132Z"  />
<glyph unicode="&#xE8;" horiz-adv-x="698" d="M423 274Q426 328 405 353T352 379Q319 379 301 349T284 274H423ZM643 125Q613 58 543 22T370 -14Q282 -14 220 6T119 61T62 141T44 234Q44 291 66 337T128 417T224 469T348 488Q405 488 459 474T557 427T626 341T654 212H281Q282 156 304 127T368 97Q392 97 410 110T440 149L643 125ZM338 544L136 719H362L455 544H338Z"  />
<glyph unicode="&#xE9;" horiz-adv-x="698" d="M423 274Q426 328 405 353T352 379Q319 379 301 349T284 274H423ZM643 125Q613 58 543 22T370 -14Q282 -14 220 6T119 61T62 141T44 234Q44 291 66 337T128 417T224 469T348 488Q405 488 459 474T557 427T626 341T654 212H281Q282 156 304 127T368 97Q392 97 410 110T440 149L643 125ZM337 719H563L361 544H244L337 719Z"  />
<glyph unicode="&#xEA;" horiz-adv-x="698" d="M423 274Q426 328 405 353T352 379Q319 379 301 349T284 274H423ZM643 125Q613 58 543 22T370 -14Q282 -14 220 6T119 61T62 141T44 234Q44 291 66 337T128 417T224 469T348 488Q405 488 459 474T557 427T626 341T654 212H281Q282 156 304 127T368 97Q392 97 410 110T440 149L643 125ZM233 720H467L568 543H429L350 611L270 543H131L233 720Z"  />
<glyph unicode="&#xEB;" horiz-adv-x="698" d="M423 274Q426 328 405 353T352 379Q319 379 301 349T284 274H423ZM643 125Q613 58 543 22T370 -14Q282 -14 220 6T119 61T62 141T44 234Q44 291 66 337T128 417T224 469T348 488Q405 488 459 474T557 427T626 341T654 212H281Q282 156 304 127T368 97Q392 97 410 110T440 149L643 125ZM509 739Q547 739 573 713T599 649Q599 611 573 585T509 558Q471 558 445 584T418 649Q418 687 444 713T509 739ZM191 739Q229 739 255 713T281 649Q281 611 255 585T191 558Q153 558 127 584T100 649Q100 687 126 713T191 739Z"  />
<glyph unicode="&#xEC;" horiz-adv-x="406" d="M35 149H84V325H35V474H330V149H371V0H35V149ZM192 544L-10 719H216L309 544H192Z"  />
<glyph unicode="&#xED;" horiz-adv-x="406" d="M35 149H84V325H35V474H330V149H371V0H35V149ZM191 719H417L215 544H98L191 719Z"  />
<glyph unicode="&#xEE;" horiz-adv-x="406" d="M35 149H84V325H35V474H330V149H371V0H35V149ZM87 720H321L422 543H283L204 611L124 543H-15L87 720Z"  />
<glyph unicode="&#xEF;" horiz-adv-x="406" d="M35 149H84V325H35V474H330V149H371V0H35V149ZM363 739Q401 739 427 713T453 649Q453 611 427 585T363 558Q325 558 299 584T272 649Q272 687 298 713T363 739ZM45 739Q83 739 109 713T135 649Q135 611 109 585T45 558Q7 558 -19 584T-46 649Q-46 687 -20 713T45 739Z"  />
<glyph unicode="&#xF0;" horiz-adv-x="758" d="M296 236Q296 183 317 155T377 126Q418 126 440 155T462 240Q462 291 441 319T381 348Q340 348 318 319T296 236ZM315 599Q290 613 266 624T218 647L355 693Q395 688 426 677T483 654L600 693L668 655L545 615Q577 594 607 562T660 490T697 404T711 306Q711 152 628 69T379 -14Q305 -14 244 4T139 56T71 137T47 242Q47 297 69 342T127 419T213 470T316 488Q391 488 430 460L432 462Q425 492 406 517T368 557L235 513L167 551L315 599Z"  />
<glyph unicode="&#xF1;" horiz-adv-x="802" d="M33 149H95V325H33V474H341V408Q355 419 374 432T417 456T470 474T535 482Q576 482 610 471T668 436T705 375T718 284V149H774V0H472V248Q472 283 458 302T412 322Q396 322 377 316T341 298V149H410V0H33V149ZM186 544Q194 625 228 670T320 716Q344 716 364 710T403 695T436 680T467 673Q499 673 509 717H617Q614 636 578 590T481 543Q456 543 436 550T400 565T369 580T339 587Q303 587 295 544H186Z"  />
<glyph unicode="&#xF2;" horiz-adv-x="750" d="M292 236Q292 183 313 155T373 126Q414 126 436 155T458 240Q458 291 437 319T377 348Q336 348 314 319T292 236ZM43 237Q43 298 70 345T144 424T250 472T375 488Q432 488 491 474T598 430T676 352T707 237Q707 176 680 129T606 51T500 3T375 -14Q310 -14 250 2T144 49T71 128T43 237ZM364 544L162 719H388L481 544H364Z"  />
<glyph unicode="&#xF3;" horiz-adv-x="750" d="M292 236Q292 183 313 155T373 126Q414 126 436 155T458 240Q458 291 437 319T377 348Q336 348 314 319T292 236ZM43 237Q43 298 70 345T144 424T250 472T375 488Q432 488 491 474T598 430T676 352T707 237Q707 176 680 129T606 51T500 3T375 -14Q310 -14 250 2T144 49T71 128T43 237ZM363 719H589L387 544H270L363 719Z"  />
<glyph unicode="&#xF4;" horiz-adv-x="750" d="M292 236Q292 183 313 155T373 126Q414 126 436 155T458 240Q458 291 437 319T377 348Q336 348 314 319T292 236ZM43 237Q43 298 70 345T144 424T250 472T375 488Q432 488 491 474T598 430T676 352T707 237Q707 176 680 129T606 51T500 3T375 -14Q310 -14 250 2T144 49T71 128T43 237ZM259 720H493L594 543H455L376 611L296 543H157L259 720Z"  />
<glyph unicode="&#xF5;" horiz-adv-x="750" d="M292 236Q292 183 313 155T373 126Q414 126 436 155T458 240Q458 291 437 319T377 348Q336 348 314 319T292 236ZM43 237Q43 298 70 345T144 424T250 472T375 488Q432 488 491 474T598 430T676 352T707 237Q707 176 680 129T606 51T500 3T375 -14Q310 -14 250 2T144 49T71 128T43 237ZM160 544Q168 625 202 670T294 716Q318 716 338 710T377 695T410 680T441 673Q473 673 483 717H591Q588 636 552 590T455 543Q430 543 410 550T374 565T343 580T313 587Q277 587 269 544H160Z"  />
<glyph unicode="&#xF6;" horiz-adv-x="750" d="M292 236Q292 183 313 155T373 126Q414 126 436 155T458 240Q458 291 437 319T377 348Q336 348 314 319T292 236ZM43 237Q43 298 70 345T144 424T250 472T375 488Q432 488 491 474T598 430T676 352T707 237Q707 176 680 129T606 51T500 3T375 -14Q310 -14 250 2T144 49T71 128T43 237ZM535 739Q573 739 599 713T625 649Q625 611 599 585T535 558Q497 558 471 584T444 649Q444 687 470 713T535 739ZM217 739Q255 739 281 713T307 649Q307 611 281 585T217 558Q179 558 153 584T126 649Q126 687 152 713T217 739Z"  />
<glyph unicode="&#xF7;" horiz-adv-x="668" d="M614 418V260H53V418H614ZM334 635Q372 635 398 609T424 545Q424 507 398 481T334 454Q296 454 270 480T243 545Q243 583 269 609T334 635ZM334 224Q372 224 398 198T424 134Q424 96 398 70T334 43Q296 43 270 69T243 134Q243 172 269 198T334 224Z"  />
<glyph unicode="&#xF8;" horiz-adv-x="750" d="M326 140Q347 126 373 126Q413 126 435 156T458 240Q458 248 458 255T456 270L326 140ZM425 333Q414 341 403 344T377 348Q336 348 314 320T292 235Q292 227 292 220T294 202L425 333ZM602 510L657 471L608 422Q622 411 629 405T644 391Q673 359 690 320T707 236Q707 181 683 135T616 56T512 5T378 -14Q328 -14 287 -7T203 17L150 -36L95 3L142 50Q43 123 43 238Q43 293 67 339T134 418T238 469T370 488Q418 488 461 481T548 456L602 510Z"  />
<glyph unicode="&#xF9;" horiz-adv-x="792" d="M23 474H326V227Q326 188 338 170T381 151Q421 151 456 173V325H392V474H702V149H759V0H456V60Q411 28 359 10T257 -9Q221 -9 189 2T133 39T94 102T80 194V325H23V474ZM385 544L183 719H409L502 544H385Z"  />
<glyph unicode="&#xFA;" horiz-adv-x="792" d="M23 474H326V227Q326 188 338 170T381 151Q421 151 456 173V325H392V474H702V149H759V0H456V60Q411 28 359 10T257 -9Q221 -9 189 2T133 39T94 102T80 194V325H23V474ZM384 719H610L408 544H291L384 719Z"  />
<glyph unicode="&#xFB;" horiz-adv-x="792" d="M23 474H326V227Q326 188 338 170T381 151Q421 151 456 173V325H392V474H702V149H759V0H456V60Q411 28 359 10T257 -9Q221 -9 189 2T133 39T94 102T80 194V325H23V474ZM280 720H514L615 543H476L397 611L317 543H178L280 720Z"  />
<glyph unicode="&#xFC;" horiz-adv-x="792" d="M23 474H326V227Q326 188 338 170T381 151Q421 151 456 173V325H392V474H702V149H759V0H456V60Q411 28 359 10T257 -9Q221 -9 189 2T133 39T94 102T80 194V325H23V474ZM556 739Q594 739 620 713T646 649Q646 611 620 585T556 558Q518 558 492 584T465 649Q465 687 491 713T556 739ZM238 739Q276 739 302 713T328 649Q328 611 302 585T238 558Q200 558 174 584T147 649Q147 687 173 713T238 739Z"  />
<glyph unicode="&#xFD;" horiz-adv-x="656" d="M125 -69H205L229 -25L47 325H10V474H333V325H281L364 139L439 325H393V474H638V325H591L332 -218H125V-69ZM316 719H542L340 544H223L316 719Z"  />
<glyph unicode="&#xFE;" horiz-adv-x="802" d="M339 236Q339 186 360 159T420 131Q437 131 452 136T480 155T499 189T507 241Q507 341 423 341Q382 341 361 314T339 236ZM339 679V441Q416 482 499 482Q554 482 601 464T683 412T736 334T756 234Q756 179 737 135T684 58T600 9T492 -9Q447 -9 409 1T339 30V-69H401V-218H36V-69H93V530H36V679H339Z"  />
<glyph unicode="&#xFF;" horiz-adv-x="656" d="M125 -69H205L229 -25L47 325H10V474H333V325H281L364 139L439 325H393V474H638V325H591L332 -218H125V-69ZM488 739Q526 739 552 713T578 649Q578 611 552 585T488 558Q450 558 424 584T397 649Q397 687 423 713T488 739ZM170 739Q208 739 234 713T260 649Q260 611 234 585T170 558Q132 558 106 584T79 649Q79 687 105 713T170 739Z"  />
<glyph unicode="&#x131;" horiz-adv-x="406" d="M35 149H84V325H35V474H330V149H371V0H35V149Z"  />
<glyph unicode="&#x152;" horiz-adv-x="1156" d="M459 516Q390 516 352 474T314 333Q314 257 348 210T454 163H501V516H459ZM1099 0H425Q314 0 242 32T128 115T68 225T51 340Q51 403 70 463T133 572T250 649T432 679H1099V462H921V516H764V412H899V274H764V163H921V218H1099V0Z"  />
<glyph unicode="&#x153;" horiz-adv-x="1115" d="M290 236Q290 184 312 155T375 126Q415 126 436 155T458 239Q458 289 436 318T376 348Q336 348 313 318T290 236ZM844 272Q844 322 826 350T774 379Q742 379 724 352T704 272H844ZM1064 123Q1051 96 1029 71T973 27T894 -3T790 -14Q662 -14 580 31Q545 9 490 -2T365 -14Q268 -14 205 12T106 78T55 161T41 240Q41 296 64 342T131 420T235 470T370 488Q437 488 491 475T580 435Q612 461 665 474T775 488Q844 488 899 469T993 415T1053 328T1075 212H704Q700 159 723 128T789 97Q833 97 863 149L1064 123Z"  />
<glyph unicode="&#x160;" horiz-adv-x="625" d="M45 218H198Q214 171 239 150T302 129Q327 129 341 141T356 173Q356 183 353 191T339 209Q322 225 294 238T232 266T164 299T102 345Q70 377 55 411T40 487Q40 532 55 569T99 632T166 673T253 688Q342 688 404 637V679H557V486H404L401 495Q371 566 306 566Q283 566 270 555T256 524Q256 506 268 494Q280 482 310 469T378 437T455 397T525 344Q545 324 564 286T584 197Q584 153 567 116T520 50T450 7T361 -9Q319 -9 276 5T198 45V0H45V218ZM429 744H195L94 921H233L312 853L392 921H531L429 744Z"  />
<glyph unicode="&#x161;" horiz-adv-x="615" d="M59 145H201Q234 112 260 100T321 87Q350 87 368 94T386 114Q386 125 375 132T348 145T314 153T279 161Q256 166 228 173T171 191T116 215T74 247Q61 261 53 281T44 330Q44 402 95 442T240 483Q268 483 293 479T337 467T369 453T387 439V474H537V336H398Q368 363 338 374T272 386Q243 386 231 378T219 355Q219 337 256 330T361 310Q410 300 459 283T538 236Q558 216 564 196T571 151Q571 102 550 71T498 22T430 -2T361 -9Q328 -9 304 -5T263 6T233 19T211 31V-6H59V145ZM424 543H190L89 720H228L307 652L387 720H526L424 543Z"  />
<glyph unicode="&#x178;" horiz-adv-x="729" d="M181 163H235V271L64 516H18V679H373V516H333L404 378L491 516H450V679H711V516H668L498 271V163H552V0H181V163ZM524 940Q562 940 588 914T614 850Q614 812 588 786T524 759Q486 759 460 785T433 850Q433 888 459 914T524 940ZM206 940Q244 940 270 914T296 850Q296 812 270 786T206 759Q168 759 142 785T115 850Q115 888 141 914T206 940Z"  />
<glyph unicode="&#x17D;" horiz-adv-x="729" d="M29 156L364 530H194V446H38V679H697V541L346 149H543V242H699V0H29V156ZM481 744H247L146 921H285L364 853L444 921H583L481 744Z"  />
<glyph unicode="&#x17E;" horiz-adv-x="656" d="M40 125L306 362H145V307H44V474H616V357L346 112H509V169H611V0H40V125ZM445 543H211L110 720H249L328 652L408 720H547L445 543Z"  />
<glyph unicode="&#x192;" horiz-adv-x="552" d="M446 313H381L301 -31Q281 -120 240 -169T126 -218H7L35 -83Q51 -82 62 -79T82 -66T96 -42T108 -4L183 313H121L155 468H218L232 537Q246 607 290 650T401 693H547L519 561Q470 564 450 551T423 501L416 468H479L446 313Z"  />
<glyph unicode="&#x2C6;" horiz-adv-x="333" d="M50 720H284L385 543H246L167 611L87 543H-52L50 720Z"  />
<glyph unicode="&#x2C7;" horiz-adv-x="333" d="M283 543H49L-52 720H87L166 652L246 720H385L283 543Z"  />
<glyph unicode="&#x2DA;" horiz-adv-x="333" d="M166 760Q190 760 211 751T249 725T274 688T284 642Q284 618 275 597T249 559T212 534T166 524Q142 524 121 533T83 559T58 596T48 642Q48 666 57 687T83 725T120 750T166 760ZM166 692Q145 692 131 678T116 642Q116 621 130 607T166 592Q187 592 201 606T216 642Q216 663 202 677T166 692Z"  />
<glyph unicode="&#x2DC;" horiz-adv-x="333" d="M-49 544Q-41 625 -7 670T85 716Q109 716 129 710T168 695T201 680T232 673Q264 673 274 717H382Q379 636 343 590T246 543Q221 543 201 550T165 565T134 580T104 587Q68 587 60 544H-49Z"  />
<glyph unicode="&#x2013;" horiz-adv-x="500" d="M506 404V214H-6V404H506Z"  />
<glyph unicode="&#x2014;" horiz-adv-x="1000" d="M1006 404V214H-6V404H1006Z"  />
<glyph unicode="&#x2018;" horiz-adv-x="396" d="M320 582Q266 582 247 561T228 481H320V303H77V520Q77 598 129 639T274 680Q290 680 302 680T320 678V582Z"  />
<glyph unicode="&#x2019;" horiz-adv-x="396" d="M76 400Q130 400 149 421T168 501H76V679H319V462Q319 384 267 343T122 302Q106 302 94 302T76 304V400Z"  />
<glyph unicode="&#x201A;" horiz-adv-x="396" d="M76 -101Q130 -101 149 -80T168 0H76V178H319V-39Q319 -117 267 -158T122 -199Q106 -199 94 -199T76 -197V-101Z"  />
<glyph unicode="&#x201C;" horiz-adv-x="719" d="M316 582Q262 582 243 561T224 481H316V303H73V520Q73 598 125 639T270 680Q286 680 298 680T316 678V582ZM646 582Q592 582 573 561T554 481H646V303H403V520Q403 598 455 639T600 680Q616 680 628 680T646 678V582Z"  />
<glyph unicode="&#x201D;" horiz-adv-x="719" d="M73 400Q127 400 146 421T165 501H73V679H316V462Q316 384 264 343T119 302Q103 302 91 302T73 304V400ZM403 400Q457 400 476 421T495 501H403V679H646V462Q646 384 594 343T449 302Q433 302 421 302T403 304V400Z"  />
<glyph unicode="&#x201E;" horiz-adv-x="719" d="M73 -101Q127 -101 146 -80T165 0H73V178H316V-39Q316 -117 264 -158T119 -199Q103 -199 91 -199T73 -197V-101ZM403 -101Q457 -101 476 -80T495 0H403V178H646V-39Q646 -117 594 -158T449 -199Q433 -199 421 -199T403 -197V-101Z"  />
<glyph unicode="&#x2020;" horiz-adv-x="677" d="M227 132V244Q250 264 264 297T281 373Q199 364 138 320H30V487H138Q168 466 201 454T281 437Q279 476 265 506T227 553V679H451V553Q426 536 412 506T397 437Q442 442 475 454T539 487H648V320H539Q478 364 397 373Q399 331 413 298T451 244V132L397 -208H281L227 132Z"  />
<glyph unicode="&#x2021;" horiz-adv-x="646" d="M246 297Q254 310 257 326T262 371Q189 362 145 319H37V487H145Q186 443 262 436Q258 478 246 504T209 550V679H436V550Q412 530 400 504T384 436Q460 443 501 487H608V319H501Q457 362 384 371Q385 342 388 326T400 297L441 236L400 174Q392 161 389 145T384 100Q457 109 501 152H608V-16H501Q460 28 384 35Q387 -7 399 -33T436 -79V-208H209V-79Q234 -59 246 -33T262 35Q186 28 145 -16H37V152H145Q189 109 262 100Q261 129 258 145T246 174L205 236L246 297Z"  />
<glyph unicode="&#x2022;" horiz-adv-x="500" d="M250 514Q283 514 312 501T364 466T399 415T412 352Q412 319 399 290T364 238T313 203T250 190Q217 190 188 203T136 238T101 289T88 352Q88 385 101 414T136 466T187 501T250 514Z"  />
<glyph unicode="&#x2026;" horiz-adv-x="1000" d="M378 178H621V0H378V178ZM712 178H955V0H712V178ZM44 178H287V0H44V178Z"  />
<glyph unicode="&#x2030;" horiz-adv-x="1292" d="M164 0L622 679H729L271 0H164ZM203 412Q213 412 220 416T231 431T237 460T239 506Q239 561 233 580T203 600Q183 600 175 580T166 506Q166 478 168 460T174 432T185 417T203 412ZM203 319Q163 319 130 332T74 371T37 430T24 506Q24 547 37 581T73 640T130 679T203 693Q242 693 275 679T331 641T368 582T381 506Q381 465 368 431T332 371T275 333T203 319ZM685 79Q695 79 702 83T713 98T719 127T721 173Q721 228 715 247T685 267Q665 267 657 247T648 173Q648 145 650 127T656 99T667 84T685 79ZM685 -14Q645 -14 612 -1T556 38T519 97T506 173Q506 214 519 248T555 307T612 346T685 360Q724 360 757 346T813 308T850 249T863 173Q863 132 850 98T814 38T757 0T685 -14ZM1090 79Q1100 79 1107 83T1118 98T1124 127T1126 173Q1126 228 1120 247T1090 267Q1070 267 1062 247T1053 173Q1053 145 1055 127T1061 99T1072 84T1090 79ZM1090 -14Q1050 -14 1017 -1T961 38T924 97T911 173Q911 214 924 248T960 307T1017 346T1090 360Q1129 360 1162 346T1218 308T1255 249T1268 173Q1268 132 1255 98T1219 38T1162 0T1090 -14Z"  />
<glyph unicode="&#x2039;" horiz-adv-x="406" d="M259 236L372 0H145L34 236L145 474H372L259 236Z"  />
<glyph unicode="&#x203A;" horiz-adv-x="406" d="M147 238L34 474H261L372 238L261 0H34L147 238Z"  />
<glyph unicode="&#x20AC;" horiz-adv-x="688" d="M645 199Q634 153 613 115T559 50T480 7T370 -9Q296 -9 244 12T156 67T101 144T70 233H12V311H60Q59 319 59 326T59 340Q59 348 59 356T60 373H12V451H71Q83 505 106 550T163 626T238 675T329 693Q377 693 418 682T491 644V679H628V464H486Q471 502 447 525T389 548Q360 548 335 524T295 451H419V373H283Q282 365 282 357T282 341Q282 333 282 326T283 311H419V233H295Q309 185 334 160T392 135Q435 135 460 166T497 245L645 199Z"  />
<glyph unicode="&#x2122;" horiz-adv-x="948" d="M620 679L675 461H677L734 679H906V281H796V562H794L721 281H631L559 562H557V281H447V679H620ZM402 679V584H264V281H149V584H11V679H402Z"  />


</font>
</defs>
</svg>
