<?xml  version="1.0" encoding="UTF-8"?>
<!DOCTYPE svg PUBLIC "-//W3C//DTD SVG 1.0//EN" "http://www.w3.org/TR/2001/REC-SVG-20010904/DTD/svg10.dtd" >
<svg xmlns="http://www.w3.org/2000/svg" >
<metadata>
<version>1.0</version>
<id><![CDATA[Rockwell W01 Italic]]></id>
<vendor>Monotype Imaging Inc.</vendor>
<credits>
<name>Fonts.com WebFonts</name>
<URL>http://webfonts.fonts.com</URL>
<role>Home of the Web fonts</role>
</credits>
<license>
<URL>http://webfonts.fonts.com/Legal</URL>
</license>
<copyright><![CDATA[Digitized data copyright Agfa Monotype Corporation 2001. All rights reserved. Rockwell¨ is a trademark of The Monotype Corporation which may be registered in certain jurisdictions.]]></copyright>
<trademark><![CDATA[Rockwell¨ is a trademark of The Monotype Corporation which may be registered in certain jurisdictions.]]></trademark>
<licensee>
<name></name>
</licensee>
</metadata>
<defs >
<font horiz-adv-x="1103" id="34153597-0d00-4984-ac4e-e9cdc8e6cc0c">
<font-face font-family="" panose-1="2 6 6 3 3 4 5 9 1 3" ascent="2178" descent="-677" units-per-em="2048" alphabetic="0">
</font-face>
<missing-glyph horiz-adv-x="2048" d="M256 0V1536H1792V0H256ZM384 128H1664V1408H384V128Z"  />

<glyph unicode="&#xA;" />
<glyph unicode="&#xD;" horiz-adv-x="512" />
<glyph unicode=" " horiz-adv-x="512" />
<glyph unicode="!" horiz-adv-x="575" d="M309 370H209L300 958L401 1391H594L501 990L309 370ZM105 235H346L290 0H49L105 235Z"  />
<glyph unicode="&quot;" horiz-adv-x="854" d="M646 831L677 1127Q689 1247 703 1299T751 1383T834 1415Q912 1415 912 1344Q912 1303 829 1126L690 831H646ZM276 831L307 1127Q319 1247 333 1299T381 1383T463 1415Q542 1415 542 1344Q542 1303 458 1126L320 831H276Z"  />
<glyph unicode="#" horiz-adv-x="1366" d="M596 1021H992L1073 1412H1220L1139 1021H1324V874H1108L1035 521H1324V374H1004L923 -17H776L857 374H461L380 -17H233L314 374H129V521H345L418 874H129V1021H449L530 1412H677L596 1021ZM565 874L492 521H888L961 874H565Z"  />
<glyph unicode="$" horiz-adv-x="981" d="M308 0Q197 29 123 119T49 314Q49 351 57 412H232Q224 368 224 342Q224 203 343 147L460 645Q245 788 245 996Q245 1137 339 1255T633 1381L641 1415H779L767 1367Q879 1339 939 1263T999 1093Q999 1041 980 971H820Q835 1023 835 1077Q835 1194 734 1228L623 751Q631 745 642 738Q880 591 880 382Q880 218 762 101T443 -17L405 -176H267L308 0ZM505 836L599 1235Q502 1224 456 1161T410 1023Q410 916 505 836ZM579 563L477 129Q583 142 644 212T705 367Q705 481 579 563Z"  />
<glyph unicode="%" horiz-adv-x="2048" d="M294 957Q294 1058 339 1174T472 1352T669 1415Q797 1415 861 1339T926 1129Q926 952 828 815T556 677Q426 677 360 754T294 957ZM445 953Q445 872 482 832T570 792Q660 792 721 906T782 1155Q782 1214 751 1257T657 1300Q570 1300 508 1186T445 953ZM290 0L1718 1391H1851L423 0H290ZM1227 258Q1227 441 1330 577T1604 713Q1730 713 1794 638T1858 429Q1858 257 1762 118T1489 -21Q1359 -21 1293 56T1227 258ZM1378 254Q1378 171 1415 132T1503 92Q1593 92 1653 206T1714 455Q1714 515 1684 557T1590 600Q1490 600 1434 474T1378 254Z"  />
<glyph unicode="&amp;" horiz-adv-x="1280" d="M1043 715H1304L1267 557H1149Q1057 352 936 233L971 163H1169L1130 0H862L806 110Q643 -22 448 -22Q254 -22 150 93T45 374Q45 693 440 875Q382 1017 382 1105Q382 1231 472 1322T701 1413Q832 1413 910 1343T988 1162Q988 946 662 799L862 387Q966 511 1043 715ZM599 939Q811 1030 811 1158Q811 1213 779 1241T700 1269Q648 1269 603 1229T558 1104Q558 1038 599 939ZM511 726Q246 602 246 396Q246 290 316 217T493 143Q620 143 737 253L511 726Z"  />
<glyph unicode="&apos;" horiz-adv-x="449" d="M259 831L290 1127Q302 1247 316 1299T364 1383T446 1415Q525 1415 525 1344Q525 1303 441 1126L303 831H259Z"  />
<glyph unicode="(" horiz-adv-x="768" d="M919 1413L889 1282Q565 1159 438 842T311 221Q311 -84 517 -304L485 -443Q326 -342 230 -140T134 317Q134 693 323 992T919 1413Z"  />
<glyph unicode=")" horiz-adv-x="768" d="M-147 -443L-116 -312Q209 -189 335 128T462 748Q462 1054 256 1274L288 1413Q444 1314 541 1112T639 653Q639 277 449 -23T-147 -443Z"  />
<glyph unicode="*" horiz-adv-x="1067" d="M837 1374L800 1209Q714 1101 686 981Q829 1000 925 1068L1100 1083L1115 898L943 880Q846 918 727 918Q716 918 700 917Q768 781 848 723L917 564L749 492L677 652Q680 678 680 699Q680 805 638 898Q540 811 500 691L367 576L245 713L374 828Q471 846 591 941Q476 1004 355 1011L207 1100L299 1261L451 1173Q510 1070 631 993Q641 1037 641 1106Q641 1174 624 1248L660 1413L837 1374Z"  />
<glyph unicode="+" horiz-adv-x="1366" d="M181 776H651V1245H807V776H1277V619H807V149H651V619H181V776Z"  />
<glyph unicode="&#x2c;" horiz-adv-x="575" d="M109 235H350L302 30Q268 -114 194 -191T-23 -278L-3 -192Q145 -173 183 0H53L109 235Z"  />
<glyph unicode="-" horiz-adv-x="788" d="M118 573H695L653 396H76L118 573Z"  />
<glyph unicode="." horiz-adv-x="575" d="M108 235H349L293 0H52L108 235Z"  />
<glyph unicode="/" horiz-adv-x="897" d="M932 1415H1111L69 -22H-110L932 1415Z"  />
<glyph unicode="0" horiz-adv-x="1087" d="M110 401Q110 663 206 913T431 1289T728 1415Q893 1415 981 1294T1069 974Q1069 815 1024 635T889 291T686 53T459 -21Q312 -21 211 92T110 401ZM288 366Q288 253 334 190T463 126Q644 126 769 452T895 1028Q895 1269 716 1269Q527 1269 408 929T288 366Z"  />
<glyph unicode="1" horiz-adv-x="1087" d="M387 163L637 1228H477L515 1391H856L568 163H714L676 0H189L227 163H387Z"  />
<glyph unicode="2" horiz-adv-x="1087" d="M744 479H910L797 0H29Q48 128 114 257T284 488T559 719Q716 837 779 921T843 1107Q843 1179 797 1224T682 1269Q569 1269 488 1153T378 875H204Q250 1130 375 1272T692 1415Q832 1415 928 1331T1024 1097Q1024 1000 983 912T875 759T674 598Q488 465 394 368T253 163H670L744 479Z"  />
<glyph unicode="3" horiz-adv-x="1087" d="M99 459H274Q267 402 267 377Q267 275 321 202T490 128Q626 128 700 224T774 431Q774 539 699 596T520 653Q496 653 460 650L496 802Q684 802 785 876T886 1089Q886 1179 833 1224T699 1270Q517 1270 443 1018H274Q309 1192 421 1303T707 1415Q864 1415 965 1325T1066 1088Q1066 958 987 855T760 718Q962 634 962 424Q962 240 835 110T491 -21Q299 -21 195 91T90 367Q90 413 99 459Z"  />
<glyph unicode="4" horiz-adv-x="1087" d="M586 382H112Q107 469 55 544L854 1402H1007L799 518H1007L976 382H767L716 163H848L809 0H368L406 163H535L586 382ZM618 518L755 1102L212 518H618Z"  />
<glyph unicode="5" horiz-adv-x="1087" d="M113 443H288Q276 388 276 341Q276 239 327 183T464 127Q602 127 693 268T784 552Q784 635 734 691T598 748Q479 748 383 639Q334 693 265 730L431 1391H1114L1031 1038H865L908 1222H540L445 841Q536 901 636 901Q777 901 873 799T969 530Q969 324 832 152T464 -21Q284 -21 193 87T101 336Q101 383 113 443Z"  />
<glyph unicode="6" horiz-adv-x="1087" d="M1094 995H939Q948 1049 948 1090Q948 1164 906 1217T777 1270Q531 1270 415 784Q503 870 623 870Q774 870 870 761T966 486Q966 364 910 237T746 45T521 -21Q358 -21 262 98T165 397Q165 617 252 888T470 1287T774 1415Q914 1415 1008 1330T1103 1090Q1103 1040 1094 995ZM363 560Q345 466 345 376Q345 262 392 195T532 127Q651 127 723 241T796 490Q796 581 741 649T590 718Q452 718 363 560Z"  />
<glyph unicode="7" horiz-adv-x="1087" d="M524 163H667L629 0H153L191 163H329Q426 487 606 782T912 1222H413L371 1041H205L287 1391H1151L1115 1241Q930 1023 761 712T524 163Z"  />
<glyph unicode="8" horiz-adv-x="1087" d="M402 754Q283 843 283 996Q283 1157 392 1286T702 1415Q862 1415 957 1325T1053 1081Q1053 939 982 841T790 704Q935 621 935 434Q935 249 804 114T466 -21Q311 -21 202 69T93 331Q93 481 175 592T402 754ZM452 989Q452 901 498 849T632 797Q744 797 813 887T883 1082Q883 1170 833 1219T699 1269Q586 1269 519 1184T452 989ZM280 329Q280 231 333 179T475 126Q598 126 674 226T751 450Q751 542 695 595T545 649Q421 649 351 549T280 329Z"  />
<glyph unicode="9" horiz-adv-x="1087" d="M111 401H272Q263 361 263 319Q263 124 429 124Q666 124 794 608Q695 525 581 525Q430 525 337 636T244 911Q244 1111 369 1263T682 1415Q850 1415 946 1299T1042 989Q1042 770 951 490T726 95T434 -21Q308 -21 205 59T102 302Q102 349 111 401ZM849 841Q867 925 867 1012Q867 1148 812 1208T670 1268Q549 1268 480 1156T410 910Q410 798 468 737T611 675Q763 675 849 841Z"  />
<glyph unicode=":" horiz-adv-x="575" d="M277 968H519L463 732H222L277 968ZM106 235H347L291 0H50L106 235Z"  />
<glyph unicode=";" horiz-adv-x="575" d="M278 968H519L463 732H222L278 968ZM106 235H347L299 30Q265 -114 191 -191T-26 -278L-6 -192Q142 -173 180 0H50L106 235Z"  />
<glyph unicode="&lt;" horiz-adv-x="1366" d="M1277 167L181 626V768L1277 1228V1058L395 697L1277 337V167Z"  />
<glyph unicode="=" horiz-adv-x="1366" d="M181 1011H1277V854H181V1011ZM181 540H1277V384H181V540Z"  />
<glyph unicode="&gt;" horiz-adv-x="1366" d="M181 1228L1277 768V626L181 167V337L1063 697L181 1058V1228Z"  />
<glyph unicode="?" horiz-adv-x="938" d="M426 367H330L413 796Q472 782 522 782Q653 782 732 875T811 1086Q811 1159 768 1210T637 1261Q459 1261 396 1060H243Q287 1247 401 1330T663 1413Q822 1413 907 1323T993 1089Q993 899 866 770T570 640Q551 640 516 643L426 367ZM231 235H473L417 0H176L231 235Z"  />
<glyph unicode="@" horiz-adv-x="2068" d="M1206 138Q1061 -28 899 -28Q752 -28 645 96T537 420Q537 568 610 721T805 967T1056 1059Q1246 1059 1358 875L1392 1030H1571L1427 359Q1397 219 1397 203Q1397 175 1419 157T1465 138Q1518 138 1615 205T1783 406T1853 691Q1853 968 1647 1145T1138 1322Q768 1322 536 1072T304 462Q304 90 534 -109T1165 -308Q1400 -308 1584 -229T1869 -6H2050Q1971 -172 1744 -314T1167 -456Q679 -456 418 -209T156 444Q156 721 287 973T640 1347T1147 1468Q1531 1468 1766 1240T2001 688Q2001 410 1813 191T1398 -29Q1212 -29 1206 138ZM722 403Q722 278 785 199T935 120Q1072 120 1186 271T1301 624Q1301 755 1236 832T1069 910Q917 910 820 744T722 403Z"  />
<glyph unicode="A" horiz-adv-x="1323" d="M917 487H429L257 163H408L370 0H-125L-87 163H41L641 1228H487L525 1391H1204L1166 1228H1022L1146 163H1275L1237 0H745L784 163H948L917 487ZM902 650L850 1228H816L517 650H902Z"  />
<glyph unicode="B" horiz-adv-x="1153" d="M132 163L382 1228H248L287 1391H631Q827 1391 923 1368T1082 1264T1145 1067Q1145 933 1065 841T834 714Q930 678 986 594T1042 405Q1042 304 990 213T860 75T688 15T405 0H-22L16 163H132ZM485 806H571Q720 806 789 824T904 903T951 1049Q951 1118 918 1162T835 1217T664 1228H584L485 806ZM334 163H445Q584 163 635 169T733 205T812 294T844 430Q844 514 805 567T709 633T518 645H445L334 163Z"  />
<glyph unicode="C" horiz-adv-x="1473" d="M1230 413L1363 293Q1110 -22 725 -22Q546 -22 411 50T200 264T123 576Q123 776 229 967T537 1286T1007 1413Q1264 1413 1408 1272L1436 1391H1600L1511 1008H1347Q1294 1244 991 1244Q807 1244 656 1145T420 881T334 550Q334 377 449 261T741 145Q1002 145 1230 413Z"  />
<glyph unicode="D" horiz-adv-x="1450" d="M130 163L380 1228H239L277 1391H609Q825 1391 940 1375T1168 1287T1346 1090T1411 818Q1411 612 1327 441T1119 171T830 36T332 0H-26L12 163H130ZM332 163H418Q690 163 840 215T1094 449T1199 828Q1199 968 1128 1069T951 1199T657 1228H582L332 163Z"  />
<glyph unicode="E" horiz-adv-x="1174" d="M127 163L376 1228H244L282 1391H1285L1187 972H1022L1082 1228H578L478 801H911L875 638H440L329 163H846L911 429H1074L974 0H-38L0 163H127Z"  />
<glyph unicode="F" horiz-adv-x="1067" d="M112 163L362 1228H226L264 1391H1262L1164 972H999L1059 1228H564L464 803H888L850 640H426L315 163H464L426 0H-51L-13 163H112Z"  />
<glyph unicode="G" horiz-adv-x="1599" d="M981 507L1019 670H1536Q1459 322 1246 150T751 -22Q470 -22 301 150T131 573Q131 743 229 943T541 1278T1040 1413Q1326 1413 1474 1256L1506 1391H1666L1578 1016H1418Q1326 1248 1025 1248Q741 1248 542 1046T343 563Q343 362 461 257T765 151Q941 151 1080 248T1280 507H981Z"  />
<glyph unicode="H" horiz-adv-x="1386" d="M125 163L374 1228H239L277 1391H742L703 1228H576L479 812H1058L1155 1228H1020L1058 1391H1493L1455 1228H1357L1107 163H1240L1202 0H742L780 163H905L1020 649H441L327 163H458L419 0H-34L4 163H125Z"  />
<glyph unicode="I" horiz-adv-x="598" d="M128 163L378 1228H262L300 1391H722L684 1228H579L330 163H456L418 0H-20L18 163H128Z"  />
<glyph unicode="J" horiz-adv-x="598" d="M-267 -437L-223 -250Q-70 -250 1 -166T130 163L379 1228H260L298 1391H727L689 1228H581L338 189Q250 -186 112 -313T-267 -437Z"  />
<glyph unicode="K" horiz-adv-x="1217" d="M124 163L374 1228H243L281 1391H747L709 1228H576L326 163H450L412 0H-34L4 163H124ZM471 724L1049 1228H900L938 1391H1414L1375 1228H1283L697 714L1035 163H1155L1116 0H648L686 163H815L471 724Z"  />
<glyph unicode="L" horiz-adv-x="1004" d="M125 163L375 1228H229L267 1391H762L723 1228H577L327 163H786L883 575H1048L913 0H-51L-13 163H125Z"  />
<glyph unicode="M" horiz-adv-x="1706" d="M124 163L374 1228H247L285 1391H702L831 427L1412 1391H1841L1803 1228H1678L1428 163H1567L1529 0H1095L1133 163H1263L1507 1228L756 -7H715L545 1228L291 163H414L374 0H-32L6 163H124Z"  />
<glyph unicode="N" horiz-adv-x="1430" d="M128 163L377 1228H223L262 1391H665L1026 286L1247 1228H1105L1143 1391H1584L1546 1228H1412L1121 -12H922L534 1190L293 163H428L389 0H-46L-8 163H128Z"  />
<glyph unicode="O" horiz-adv-x="1599" d="M133 540Q133 726 221 926T507 1270T972 1413Q1250 1413 1405 1257T1560 850Q1560 655 1463 454T1174 115T717 -22Q421 -22 277 146T133 540ZM345 531Q345 385 440 268T726 150Q910 150 1050 259T1267 539T1345 864Q1345 1019 1243 1131T963 1244Q788 1244 638 1132T416 853T345 531Z"  />
<glyph unicode="P" horiz-adv-x="1110" d="M129 163L379 1228H245L283 1391H658Q795 1391 867 1380T1015 1320T1133 1189T1177 1004Q1177 855 1099 735T891 573T540 531H417L331 163H490L455 0H-37L1 163H129ZM455 693H564Q713 693 790 715T922 816T977 1009Q977 1093 936 1146T837 1214T663 1228H581L455 693Z"  />
<glyph unicode="Q" horiz-adv-x="1599" d="M852 -12Q883 -23 965 -54Q1089 -102 1171 -102Q1211 -102 1258 -95L1136 -262Q1100 -265 1081 -265Q981 -265 811 -169Q712 -112 651 -90T518 -68Q414 -68 343 -121L298 -52Q353 6 447 26Q133 180 133 549Q133 745 232 946T520 1280T972 1413Q1261 1413 1410 1252T1560 850Q1560 562 1367 302T852 -12ZM345 531Q345 385 440 268T726 150Q996 150 1170 382T1345 864Q1345 1019 1243 1131T962 1244Q787 1244 637 1132T416 852T345 531Z"  />
<glyph unicode="R" horiz-adv-x="1194" d="M125 163L375 1228H241L279 1391H687Q860 1391 923 1384T1055 1337T1162 1227T1201 1060Q1201 905 1104 800T830 669L950 163H1101L1062 0H795L647 658H443L327 163H458L420 0H-29L9 163H125ZM481 821H588Q757 821 829 837T948 910T995 1051Q995 1123 959 1166T870 1219T668 1228H577L481 821Z"  />
<glyph unicode="S" horiz-adv-x="1067" d="M0 0L89 382H258L229 257Q335 137 491 137Q599 137 672 199T745 352Q745 431 696 489T504 644Q353 747 294 835T234 1041Q234 1208 350 1310T649 1413Q829 1413 943 1296L964 1391H1132L1044 1014H876L901 1120Q862 1181 791 1219T643 1257Q546 1257 481 1204T416 1063Q416 998 458 942T622 803Q748 719 804 669T896 546T931 382Q931 199 802 89T469 -22Q305 -22 186 74L169 0H0Z"  />
<glyph unicode="T" horiz-adv-x="1194" d="M415 163L665 1228H369L289 876H120L241 1391H1369L1248 876H1083L1165 1228H867L617 163H747L709 0H253L289 163H415Z"  />
<glyph unicode="U" horiz-adv-x="1300" d="M274 1391H722L683 1228H562L395 515Q361 371 361 326Q361 238 427 188T588 138Q696 138 761 181T862 302T934 532L1097 1228H975L1013 1391H1454L1416 1228H1299L1132 515Q1082 303 1024 199T851 36T576 -22Q366 -22 264 70T162 304Q162 382 199 538L360 1228H236L274 1391Z"  />
<glyph unicode="V" horiz-adv-x="1386" d="M374 -14L314 1228H158L196 1391H667L629 1228H507L553 310L1190 1228H1016L1054 1391H1554L1515 1228H1395L536 -14H374Z"  />
<glyph unicode="W" horiz-adv-x="2028" d="M328 -14L302 1228H151L189 1391H664L625 1228H493L513 345L1031 1228H874L912 1391H1467L1429 1228H1299L1318 345L1833 1228H1696L1734 1391H2161L2122 1228H2026L1308 -14H1136L1111 1032L505 -14H328Z"  />
<glyph unicode="X" horiz-adv-x="1300" d="M588 718L404 1228H266L304 1391H731L693 1228H588L719 857L1073 1228H931L969 1391H1405L1367 1228H1274L778 704L980 163H1098L1059 0H624L663 163H795L648 564L269 163H403L365 0H-69L-31 163H62L588 718Z"  />
<glyph unicode="Y" horiz-adv-x="1174" d="M488 626L279 1228H134L172 1391H631L592 1228H462L624 769L1049 1228H881L920 1391H1400L1362 1228H1246L690 626L581 163H722L684 0H207L246 163H379L488 626Z"  />
<glyph unicode="Z" horiz-adv-x="1153" d="M-18 0L21 163L926 1228H465L405 972H239L337 1391H1215L1177 1228L269 163H790L856 443H1021L917 0H-18Z"  />
<glyph unicode="[" horiz-adv-x="641" d="M395 -273L361 -409H-63L361 1391H785L753 1255H507L149 -273H395Z"  />
<glyph unicode="\" horiz-adv-x="897" d="M377 1415L755 -22H602L224 1415H377Z"  />
<glyph unicode="]" horiz-adv-x="641" d="M-120 -273H126L484 1255H238L272 1391H696L272 -409H-152L-120 -273Z"  />
<glyph unicode="^" horiz-adv-x="874" d="M240 590H55L408 1391H553L908 590H727L480 1187L240 590Z"  />
<glyph unicode="_" horiz-adv-x="1024" d="M-52 -154H996V-256H-52V-154Z"  />
<glyph unicode="`" horiz-adv-x="682" d="M670 1125H530L150 1411H507L670 1125Z"  />
<glyph unicode="a" horiz-adv-x="1087" d="M846 163H967L932 0H637L668 135Q529 -16 355 -16Q242 -16 153 61T63 266Q63 412 181 507T473 603Q608 603 743 532L768 640Q781 696 781 720Q781 783 731 816T609 850Q467 850 371 712L219 781Q278 872 392 933T641 995Q793 995 877 929T961 758Q961 693 939 593L846 163ZM714 400L671 420Q571 464 487 464Q377 464 310 408T243 272Q243 205 289 167T412 128Q530 128 678 255L714 400Z"  />
<glyph unicode="b" horiz-adv-x="1260" d="M121 163L371 1228H235L274 1391H590L464 852Q608 995 795 995Q963 995 1072 882T1182 581Q1182 330 1029 157T644 -16Q432 -16 302 163L264 0H-27L11 163H121ZM370 403Q370 281 439 212T618 142Q780 142 889 272T999 570Q999 696 928 763T747 831Q584 831 477 694T370 403Z"  />
<glyph unicode="c" horiz-adv-x="1024" d="M767 293L900 196Q732 -28 474 -28Q291 -28 177 88T62 373Q62 610 221 802T598 995Q766 995 866 886L886 968H1046L977 677H817Q801 758 740 801T601 844Q461 844 359 709T257 394Q257 273 320 199T500 124Q649 124 767 293Z"  />
<glyph unicode="d" horiz-adv-x="1237" d="M974 163H1109L1070 0H755L783 119Q645 -16 459 -16Q280 -16 174 105T68 416Q68 645 228 820T603 995Q810 995 948 822L1044 1228H893L931 1391H1262L974 163ZM255 419Q255 296 324 221T507 145Q659 145 769 275T880 579Q880 705 804 769T622 834Q472 834 364 705T255 419Z"  />
<glyph unicode="e" horiz-adv-x="1130" d="M1044 440H284Q277 411 277 385Q277 265 346 198T519 131Q664 131 765 269L954 188Q897 93 777 33T521 -28Q312 -28 196 93T80 403Q80 554 156 689T361 909T641 995Q825 995 941 875T1058 560Q1058 497 1044 440ZM873 576Q876 607 876 626Q876 706 813 771T644 837Q537 837 451 767T320 576H873Z"  />
<glyph unicode="f" horiz-adv-x="575" d="M302 163H441L403 0H-25L13 163H121L271 805H128L167 967H310L326 1036Q374 1242 453 1328T653 1415Q750 1415 848 1353L775 1228Q718 1265 671 1265Q610 1265 575 1219T501 1013L490 967H617L579 805H452L302 163Z"  />
<glyph unicode="g" horiz-adv-x="1237" d="M992 968H1308L1269 805H1135L973 112Q924 -97 866 -207T692 -387T397 -456Q118 -456 -30 -293L67 -158Q212 -310 407 -310Q564 -310 652 -213T792 112Q646 -28 469 -28Q295 -28 185 92T74 403Q74 623 234 803T614 983Q829 983 954 805L992 968ZM261 410Q261 289 330 212T514 134Q681 134 786 276T891 576Q891 673 822 747T634 822Q476 822 369 697T261 410Z"  />
<glyph unicode="h" horiz-adv-x="1130" d="M875 163H1019L981 0H655L782 537Q815 681 815 712Q815 812 711 812Q613 812 420 682L298 163H442L404 0H-37L1 163H117L367 1228H239L277 1391H586L460 854Q644 983 777 983Q885 983 942 914T1000 759Q1000 694 959 520L875 163Z"  />
<glyph unicode="i" horiz-adv-x="575" d="M376 1301Q376 1348 409 1381T488 1415Q536 1415 568 1381T600 1301Q600 1254 568 1221T488 1187Q443 1187 410 1220T376 1301ZM139 163L290 805H157L195 968H509L320 163H461L423 0H-6L32 163H139Z"  />
<glyph unicode="j" horiz-adv-x="575" d="M370 1301Q370 1348 402 1381T482 1415Q529 1415 561 1382T594 1301Q594 1254 561 1221T482 1187Q435 1187 403 1221T370 1301ZM200 968H514L319 134Q257 -130 219 -223T101 -371T-98 -425Q-148 -425 -192 -413L-157 -264L-139 -266Q-122 -267 -114 -267Q-51 -267 0 -226T72 -119T143 155L295 805H162L200 968Z"  />
<glyph unicode="k" horiz-adv-x="1067" d="M127 163L377 1228H237L276 1391H594L388 516L812 823H659L693 968H1177L1143 823H1046L594 493L812 163H968L930 0H712L388 493L308 163H456L417 0H-26L12 163H127Z"  />
<glyph unicode="l" horiz-adv-x="575" d="M132 163L382 1228H252L290 1391H601L313 163H445L406 0H-17L21 163H132Z"  />
<glyph unicode="m" horiz-adv-x="1729" d="M198 968H505L477 850Q666 983 808 983Q884 983 941 938T1019 822Q1221 983 1378 983Q1490 983 1547 913T1605 760Q1605 696 1573 561L1480 163H1623L1585 0H1261L1397 583Q1418 671 1418 709Q1418 812 1317 812Q1209 812 1019 679L899 163H1045L1007 0H680L819 594Q840 681 840 709Q840 754 810 782T740 811Q634 811 437 679L316 163H461L422 0H-16L22 163H135L285 805H160L198 968Z"  />
<glyph unicode="n" horiz-adv-x="1130" d="M187 968H495L469 855Q650 983 784 983Q891 983 948 913T1006 763Q1006 696 979 581L881 163H1024L985 0H662L801 593Q823 688 823 712Q823 756 794 784T723 813Q612 813 429 685L306 163H451L413 0H-28L10 163H125L276 805H149L187 968Z"  />
<glyph unicode="o" horiz-adv-x="1153" d="M70 390Q70 539 140 676T349 904T663 995Q865 995 974 877T1083 579Q1083 437 1014 288T800 56T495 -28Q309 -28 190 82T70 390ZM272 408Q272 146 515 146Q685 146 788 276T891 578Q891 688 821 754T634 821Q470 821 371 695T272 408Z"  />
<glyph unicode="p" horiz-adv-x="1237" d="M182 -274H334L295 -437H-153L-115 -274H1L254 805H115L153 968H473L445 845Q593 983 771 983Q936 983 1047 862T1159 548Q1159 317 1004 145T624 -28Q409 -28 279 140L182 -274ZM345 391Q345 268 416 199T598 130Q762 130 867 257T972 553Q972 679 901 748T717 818Q555 818 450 680T345 391Z"  />
<glyph unicode="q" horiz-adv-x="1237" d="M879 -274H1003L965 -437H536L574 -274H698L789 113Q648 -28 460 -28Q289 -28 176 91T63 404Q63 633 228 808T604 983Q815 983 951 805L989 968H1294L1256 805H1132L879 -274ZM257 399Q257 277 325 204T506 131Q665 131 774 269T883 575Q883 681 810 750T625 820Q476 820 367 698T257 399Z"  />
<glyph unicode="r" horiz-adv-x="811" d="M307 163H467L428 0H-41L-3 163H124L273 805H123L163 968H477L413 694Q504 846 607 914T851 983H894L852 805Q825 808 806 808Q679 808 586 750T438 591T347 337L307 163Z"  />
<glyph unicode="s" horiz-adv-x="874" d="M20 270H184Q184 202 244 165T401 128Q490 128 538 164T587 252Q587 301 545 337T397 415Q290 457 235 490T144 581T108 704Q108 816 201 899T457 983Q609 983 707 899L727 968H888L825 699H663Q661 773 596 804T454 835Q374 835 329 803T283 723Q283 684 310 659T413 604Q629 521 698 446T767 265Q767 139 670 62T383 -16Q207 -16 134 63L120 0H-44L20 270Z"  />
<glyph unicode="t" horiz-adv-x="598" d="M472 968H609L571 805H434L327 349Q298 225 298 195Q298 127 370 127Q420 127 521 183L482 17Q390 -28 303 -28Q221 -28 170 25T119 174Q119 239 173 462L253 805H143L181 968H291L337 1160L558 1332L472 968Z"  />
<glyph unicode="u" horiz-adv-x="1130" d="M859 163H981L943 0H639L666 112Q487 -16 348 -16Q244 -16 183 52T122 198Q122 257 155 396L250 805H130L169 968H470L346 443Q309 284 309 247Q309 204 338 177T412 150Q518 150 708 291L828 805H684L722 968H1047L859 163Z"  />
<glyph unicode="v" horiz-adv-x="981" d="M246 -16L195 805H83L121 968H500L462 805H367L401 226L792 805H664L702 968H1091L1052 805H967L409 -16H246Z"  />
<glyph unicode="w" horiz-adv-x="1516" d="M226 -16L196 805H82L120 968H477L439 805H351L373 235L738 805H615L653 968H1077L1038 805H934L955 235L1323 805H1207L1245 968H1606L1568 805H1488L968 -16H810L787 623L381 -16H226Z"  />
<glyph unicode="x" horiz-adv-x="1044" d="M436 505L267 811H167L205 968H569L530 823H436L556 608L803 823H680L718 968H1117L1079 811H998L623 484L803 157H889L851 0H487L525 145H634L506 378L243 145H376L337 0H-74L-36 157H50L436 505Z"  />
<glyph unicode="y" horiz-adv-x="1044" d="M81 -274L273 6L228 805H117L156 968H536L498 805H397L431 237L824 805H691L729 968H1125L1087 805H996L146 -437H-141L-103 -274H81Z"  />
<glyph unicode="z" horiz-adv-x="854" d="M-53 0L-15 163L650 825H320L272 623H117L197 968H900L862 802L197 147H561L610 355H764L680 0H-53Z"  />
<glyph unicode="{" horiz-adv-x="682" d="M100 556Q172 558 220 592T287 691T307 924Q307 1139 331 1223T423 1349T623 1391H679V1242H648Q548 1242 512 1209T476 1049Q476 827 466 738T411 586T267 478Q372 438 424 349T476 55Q476 -133 481 -183T519 -259T648 -285H679V-434H623Q525 -434 469 -415T372 -344T319 -214T307 33Q307 201 288 266T220 365T100 401V556Z"  />
<glyph unicode="|" horiz-adv-x="1079" d="M507 1415H664V-456H507V1415Z"  />
<glyph unicode="}" horiz-adv-x="682" d="M666 401Q594 399 546 365T479 266T459 33Q459 -182 435 -266T343 -392T143 -434H87V-286H118Q218 -286 254 -253T290 -93Q290 130 300 219T355 370T499 478Q394 518 342 608T290 901Q290 1089 284 1139T246 1216T118 1242H87V1391H143Q241 1391 297 1372T394 1301T447 1171T459 924Q459 756 478 691T546 592T666 556V401Z"  />
<glyph unicode="~" horiz-adv-x="1194" d="M1191 668Q1036 540 898 540Q835 540 777 558T586 638Q459 698 393 698Q258 698 95 558V727Q252 855 400 855Q493 855 693 761Q829 698 897 698Q1026 698 1191 837V668Z"  />
<glyph unicode="&#xA0;" horiz-adv-x="512" />
<glyph unicode="&#xA1;" horiz-adv-x="575" d="M467 732H226L281 968H523L467 732ZM262 598H363L272 9L170 -423H-23L71 -23L262 598Z"  />
<glyph unicode="&#xA2;" horiz-adv-x="1024" d="M744 970Q813 944 866 886L886 970H1046L977 677H819Q797 785 692 827L434 131Q467 124 500 124Q652 124 767 293L901 196Q734 -28 475 -28Q426 -28 379 -19L221 -443H135L301 0Q189 49 126 148T62 370Q62 607 219 801T599 995Q633 995 668 990L819 1398H901L744 970ZM361 163L614 843Q602 844 596 844Q464 844 361 711T257 389Q257 232 361 163Z"  />
<glyph unicode="&#xA3;" horiz-adv-x="938" d="M343 760Q319 900 319 985Q319 1184 432 1299T717 1415Q844 1415 928 1347T1013 1158Q1013 1103 992 1033H812Q837 1102 837 1150Q837 1202 800 1236T707 1271Q629 1271 567 1205T504 1002Q504 952 516 867Q528 777 530 760H803L770 611H540Q538 488 523 406T458 222Q535 162 605 162Q712 162 770 331H891Q805 -21 581 -21Q468 -21 374 87Q291 -21 187 -21Q118 -21 72 29T25 153Q25 230 74 287T201 344Q278 344 353 292Q372 384 372 471Q372 525 365 611H119L154 760H343ZM306 163Q245 234 195 234Q162 234 139 212T115 152Q115 120 135 99T185 78Q250 78 306 163Z"  />
<glyph unicode="&#xA4;" horiz-adv-x="1366" d="M229 1091L333 1198L465 1067Q579 1153 727 1153Q870 1153 993 1067L1124 1198L1228 1091L1098 961Q1184 836 1184 693Q1184 551 1098 434L1228 305L1124 200L993 329Q868 241 724 241Q582 241 465 329L335 200L229 305L360 434Q274 566 274 704Q274 841 360 961L229 1091ZM729 1004Q603 1004 513 914T422 697Q422 570 512 480T729 390Q856 390 946 480T1037 697Q1037 829 946 916T729 1004Z"  />
<glyph unicode="&#xA5;" horiz-adv-x="1174" d="M842 769H1194L1168 652H735L711 626L670 453H1122L1096 336H643L602 163H743L704 0H228L266 163H400L441 336H37L63 453H468L509 626L500 652H109L135 769H459L300 1228H155L193 1391H651L613 1228H483L644 769L1070 1228H902L940 1391H1421L1383 1228H1267L842 769Z"  />
<glyph unicode="&#xA6;" horiz-adv-x="1079" d="M507 1415H664V637H507V1415ZM507 322H664V-456H507V322Z"  />
<glyph unicode="&#xA7;" horiz-adv-x="918" d="M-27 -120L128 -67Q128 -164 191 -225T371 -287Q469 -287 524 -242T579 -129Q579 -72 529 -14T329 154Q143 288 86 360T28 528Q28 721 297 856Q188 958 188 1094Q188 1238 296 1326T562 1415Q735 1415 840 1330T946 1104Q946 1092 944 1071L793 1020Q794 1046 794 1052Q794 1139 735 1202T568 1265Q461 1265 409 1214T357 1104Q357 1041 405 990T595 850Q777 736 838 662T900 483Q900 375 823 285T613 141Q749 13 749 -126Q749 -270 635 -354T367 -438Q205 -438 91 -349T-27 -120ZM516 227Q743 313 743 450Q743 493 709 539T564 657Q430 744 395 772Q306 739 254 680T202 550Q202 499 234 454T397 316Q470 264 516 227Z"  />
<glyph unicode="&#xA8;" horiz-adv-x="682" d="M617 1254Q617 1301 650 1334T729 1367Q777 1367 809 1334T841 1255Q841 1209 809 1176T729 1142Q683 1142 650 1175T617 1254ZM201 1255Q201 1299 232 1333T313 1367Q360 1367 392 1334T425 1255Q425 1208 392 1175T313 1142Q265 1142 233 1175T201 1255Z"  />
<glyph unicode="&#xA9;" horiz-adv-x="1516" d="M809 1413Q999 1413 1177 1317T1459 1040T1563 658Q1563 346 1343 125T809 -97Q496 -97 275 124T54 658Q54 861 157 1039T437 1315T809 1413ZM809 1287Q651 1287 502 1207T266 976T179 658Q179 398 363 214T809 29Q1070 29 1254 213T1438 658Q1438 919 1253 1103T809 1287ZM1051 535L1174 499Q1146 373 1046 300T812 226Q615 226 515 350T414 656Q414 853 521 967T818 1081Q959 1081 1044 1014T1159 845L1040 816Q979 970 815 970Q689 970 620 881T550 653Q550 506 619 425T803 343Q888 343 959 393T1051 535Z"  />
<glyph unicode="&#xAA;" horiz-adv-x="705" d="M692 902H778L758 816H564L585 902Q495 806 380 806Q304 806 248 854T191 975Q191 1062 267 1120T457 1178Q545 1178 633 1135L649 1199Q658 1233 658 1248Q658 1326 545 1326Q453 1326 391 1243L293 1284Q388 1413 564 1413Q664 1413 719 1374T774 1268Q774 1237 758 1172L692 902ZM613 1056Q532 1094 466 1094Q395 1094 352 1060T308 979Q308 936 339 914T416 892Q496 892 591 969L613 1056Z"  />
<glyph unicode="&#xAB;" horiz-adv-x="938" d="M39 520L392 968H596L218 486L371 0H204L39 520ZM461 520L815 968H1018L640 486L794 0H626L461 520Z"  />
<glyph unicode="&#xAC;" horiz-adv-x="1366" d="M181 1011H1277V384H1120V854H181V1011Z"  />
<glyph unicode="&#xAD;" horiz-adv-x="788" d="M118 573H695L653 396H76L118 573Z"  />
<glyph unicode="&#xAE;" horiz-adv-x="1516" d="M809 1413Q999 1413 1177 1317T1459 1040T1563 658Q1563 346 1343 125T809 -97Q496 -97 275 124T54 658Q54 861 157 1039T437 1315T809 1413ZM809 1287Q651 1287 502 1207T266 976T179 658Q179 398 363 214T809 29Q1070 29 1254 213T1438 658Q1438 919 1253 1103T809 1287ZM478 241V1052H757Q878 1052 944 1036T1057 963T1104 832Q1104 747 1043 680T872 603Q947 582 1061 399L1160 241H1000L928 369Q846 513 803 549T686 585H609V241H478ZM609 697H768Q965 697 965 821Q965 887 918 914T758 942H609V697Z"  />
<glyph unicode="&#xAF;" horiz-adv-x="1024" d="M207 1647H1255V1545H207V1647Z"  />
<glyph unicode="&#xB0;" horiz-adv-x="811" d="M541 1415Q683 1415 785 1314T887 1069Q887 927 786 825T541 723Q398 723 297 825T195 1069Q195 1213 296 1314T541 1415ZM541 1285Q454 1285 390 1224T326 1070Q326 981 389 918T541 855Q630 855 693 918T756 1070Q756 1162 692 1223T541 1285Z"  />
<glyph unicode="&#xB1;" horiz-adv-x="1366" d="M181 945H651V1415H807V945H1277V788H807V319H651V788H181V945ZM181 137H1277V-20H181V137Z"  />
<glyph unicode="&#xB2;" horiz-adv-x="662" d="M553 938H675L605 680H128Q145 787 216 871T450 1060Q554 1128 581 1171T609 1252Q609 1289 584 1308T527 1328Q470 1328 423 1273T358 1126H231Q286 1415 519 1415Q608 1415 662 1368T717 1248Q717 1173 673 1117T512 985Q303 849 292 777H509L553 938Z"  />
<glyph unicode="&#xB3;" horiz-adv-x="662" d="M166 928H293Q289 894 289 880Q289 759 408 759Q485 759 524 806T564 906Q564 1013 421 1013Q408 1013 376 1011L401 1102Q630 1102 630 1242Q630 1328 532 1328Q430 1328 390 1200H267Q288 1297 358 1356T536 1415Q631 1415 695 1367T760 1239Q760 1171 713 1117T592 1050Q637 1040 669 998T701 905Q701 807 622 739T409 670Q295 670 228 727T160 874Q160 897 166 928Z"  />
<glyph unicode="&#xB4;" horiz-adv-x="682" d="M337 1125L502 1411H859L477 1125H337Z"  />
<glyph unicode="&#xB5;" horiz-adv-x="1130" d="M255 968H435L342 563Q296 363 296 298Q296 224 348 176T489 127Q580 127 671 189T816 490L925 968H1103L877 0H715L735 84Q603 -25 466 -25Q324 -25 232 100L98 -434H-80L255 968Z"  />
<glyph unicode="&#xB6;" horiz-adv-x="1110" d="M446 -434V563Q261 571 152 683T42 973Q42 1151 157 1271T515 1391H1148V1218H1004V-434H834V1218H611V-434H446Z"  />
<glyph unicode="&#xB7;" horiz-adv-x="682" d="M599 695Q599 741 632 774T711 808Q758 808 790 775T823 696Q823 650 790 617T711 583Q664 583 632 616T599 695Z"  />
<glyph unicode="&#xB8;" horiz-adv-x="682" d="M270 18L220 -97Q287 -104 325 -143T363 -238Q363 -332 274 -387T43 -443Q-26 -443 -112 -429L-79 -342Q-37 -347 3 -347Q90 -347 136 -322T183 -254Q183 -223 158 -205T99 -187H74L168 18H270Z"  />
<glyph unicode="&#xB9;" horiz-adv-x="662" d="M334 777L477 1307H383L409 1403H634L464 777H551L525 680H213L239 777H334Z"  />
<glyph unicode="&#xBA;" horiz-adv-x="748" d="M192 1050Q192 1197 303 1305T577 1413Q714 1413 782 1340T850 1168Q850 1009 742 904T468 799Q348 799 270 865T192 1050ZM323 1050Q323 903 481 903Q590 903 658 981T726 1162Q726 1227 681 1267T559 1308Q457 1308 390 1235T323 1050Z"  />
<glyph unicode="&#xBB;" horiz-adv-x="938" d="M901 448L547 0H344L722 482L568 968H736L901 448ZM479 448L125 0H-78L300 482L146 968H313L479 448Z"  />
<glyph unicode="&#xBC;" horiz-adv-x="2048" d="M310 777L454 1307H360L386 1403H611L441 777H528L502 680H190L216 777H310ZM118 0L1546 1391H1679L250 0H118ZM1327 195H1049Q1049 245 1015 284L1493 728H1603L1482 277H1603L1582 195H1458L1431 96H1509L1482 0H1198L1225 96H1301L1327 195ZM1350 277L1420 537L1140 277H1350Z"  />
<glyph unicode="&#xBD;" horiz-adv-x="2048" d="M315 777L459 1307H365L391 1403H616L446 777H533L507 680H195L221 777H315ZM111 0L1539 1391H1672L243 0H111ZM1429 257H1552L1482 0H1005Q1022 107 1093 191T1327 380Q1430 448 1458 490T1486 571Q1486 609 1461 628T1404 647Q1339 647 1294 584T1234 446H1108Q1163 735 1396 735Q1485 735 1539 688T1594 568Q1594 492 1550 437T1389 305Q1180 169 1169 96H1386L1429 257Z"  />
<glyph unicode="&#xBE;" horiz-adv-x="2048" d="M217 928H344Q340 894 340 880Q340 759 459 759Q536 759 575 806T615 906Q615 1013 472 1013Q459 1013 427 1011L452 1102Q681 1102 681 1242Q681 1328 583 1328Q481 1328 441 1200H318Q339 1297 409 1356T587 1415Q682 1415 746 1367T811 1239Q811 1171 764 1117T643 1050Q688 1040 720 998T752 905Q752 807 673 739T460 670Q346 670 279 727T211 874Q211 897 217 928ZM213 0L1641 1391H1773L345 0H213ZM1410 195H1132Q1131 245 1097 284L1575 728H1686L1564 277H1686L1664 195H1541L1514 96H1592L1564 0H1281L1307 96H1383L1410 195ZM1432 277L1503 537L1223 277H1432Z"  />
<glyph unicode="&#xBF;" horiz-adv-x="938" d="M747 744H506L562 980H803L747 744ZM553 612H649L566 184Q507 198 457 198Q317 198 242 100T167 -106Q167 -180 211 -230T342 -281Q519 -281 583 -81H736Q692 -268 578 -350T316 -433Q157 -433 72 -343T-14 -110Q-14 80 113 209T409 339Q427 339 463 337L553 612Z"  />
<glyph unicode="&#xC0;" horiz-adv-x="1323" d="M917 487H429L257 163H408L370 0H-125L-87 163H41L641 1228H487L525 1391H1204L1166 1228H1022L1146 163H1275L1237 0H745L784 163H948L917 487ZM902 650L850 1228H816L517 650H902ZM1044 1516H904L524 1802H881L1044 1516Z"  />
<glyph unicode="&#xC1;" horiz-adv-x="1323" d="M917 487H429L257 163H408L370 0H-125L-87 163H41L641 1228H487L525 1391H1204L1166 1228H1022L1146 163H1275L1237 0H745L784 163H948L917 487ZM902 650L850 1228H816L517 650H902ZM773 1516L938 1802H1295L913 1516H773Z"  />
<glyph unicode="&#xC2;" horiz-adv-x="1323" d="M917 487H429L257 163H408L370 0H-125L-87 163H41L641 1228H487L525 1391H1204L1166 1228H1022L1146 163H1275L1237 0H745L784 163H948L917 487ZM902 650L850 1228H816L517 650H902ZM568 1483L813 1789H1075L1172 1483H1035L913 1642L706 1483H568Z"  />
<glyph unicode="&#xC3;" horiz-adv-x="1323" d="M917 487H429L257 163H408L370 0H-125L-87 163H41L641 1228H487L525 1391H1204L1166 1228H1022L1146 163H1275L1237 0H745L784 163H948L917 487ZM902 650L850 1228H816L517 650H902ZM1131 1765H1244Q1245 1740 1245 1723Q1245 1614 1197 1547T1067 1480Q998 1480 850 1573Q800 1605 771 1605Q703 1605 699 1495H583Q583 1638 639 1702T774 1766Q832 1766 949 1696Q1040 1641 1066 1641Q1128 1641 1131 1765Z"  />
<glyph unicode="&#xC4;" horiz-adv-x="1323" d="M917 487H429L257 163H408L370 0H-125L-87 163H41L641 1228H487L525 1391H1204L1166 1228H1022L1146 163H1275L1237 0H745L784 163H948L917 487ZM902 650L850 1228H816L517 650H902ZM983 1611Q983 1658 1016 1691T1095 1724Q1143 1724 1175 1691T1207 1612Q1207 1566 1175 1533T1095 1499Q1049 1499 1016 1532T983 1611ZM567 1612Q567 1656 598 1690T679 1724Q726 1724 758 1691T791 1612Q791 1565 758 1532T679 1499Q631 1499 599 1532T567 1612Z"  />
<glyph unicode="&#xC5;" horiz-adv-x="1323" d="M803 1391Q671 1452 671 1592Q671 1682 735 1747T890 1812Q982 1812 1046 1748T1110 1593Q1110 1453 978 1391H1204L1166 1228H1022L1146 163H1275L1237 0H745L784 163H948L917 487H429L257 163H408L370 0H-125L-87 163H41L641 1228H487L525 1391H803ZM770 1592Q770 1543 805 1508T891 1472Q940 1472 975 1507T1011 1593Q1011 1642 976 1677T891 1713Q841 1713 806 1678T770 1592ZM902 650L850 1228H816L517 650H902Z"  />
<glyph unicode="&#xC6;" horiz-adv-x="1985" d="M1012 633H659L311 163H455L417 0H-82L-44 163H100L884 1228H703L741 1391H2058L1960 972H1795L1852 1228H1354L1252 795H1696L1658 633H1214L1104 163H1622L1684 426H1852L1750 0H703L741 163H902L1012 633ZM1050 795L1152 1228H1098L777 795H1050Z"  />
<glyph unicode="&#xC7;" horiz-adv-x="1473" d="M715 -22L681 -97Q749 -104 786 -143T824 -238Q824 -331 735 -387T505 -443Q436 -443 350 -429L383 -342Q425 -347 465 -347Q553 -347 599 -321T645 -254Q645 -225 621 -206T561 -187H536L616 -14Q383 19 253 184T123 576Q123 903 375 1158T1007 1413Q1264 1413 1408 1272L1436 1391H1600L1511 1008H1347Q1294 1244 991 1244Q807 1244 656 1145T420 881T334 550Q334 377 449 261T741 145Q1002 145 1230 413L1363 293Q1106 -27 715 -22Z"  />
<glyph unicode="&#xC8;" horiz-adv-x="1174" d="M127 163L376 1228H244L282 1391H1285L1187 972H1022L1082 1228H578L478 801H911L875 638H440L329 163H846L911 429H1074L974 0H-38L0 163H127ZM1054 1516H914L534 1802H891L1054 1516Z"  />
<glyph unicode="&#xC9;" horiz-adv-x="1174" d="M127 163L376 1228H244L282 1391H1285L1187 972H1022L1082 1228H578L478 801H911L875 638H440L329 163H846L911 429H1074L974 0H-38L0 163H127ZM701 1516L866 1802H1223L841 1516H701Z"  />
<glyph unicode="&#xCA;" horiz-adv-x="1174" d="M127 163L376 1228H244L282 1391H1285L1187 972H1022L1082 1228H578L478 801H911L875 638H440L329 163H846L911 429H1074L974 0H-38L0 163H127ZM494 1483L739 1789H1001L1098 1483H961L839 1642L632 1483H494Z"  />
<glyph unicode="&#xCB;" horiz-adv-x="1174" d="M127 163L376 1228H244L282 1391H1285L1187 972H1022L1082 1228H578L478 801H911L875 638H440L329 163H846L911 429H1074L974 0H-38L0 163H127ZM933 1611Q933 1658 966 1691T1045 1724Q1093 1724 1125 1691T1157 1612Q1157 1566 1125 1533T1045 1499Q999 1499 966 1532T933 1611ZM517 1612Q517 1656 548 1690T629 1724Q676 1724 708 1691T741 1612Q741 1565 708 1532T629 1499Q581 1499 549 1532T517 1612Z"  />
<glyph unicode="&#xCC;" horiz-adv-x="598" d="M128 163L378 1228H262L300 1391H722L684 1228H579L330 163H456L418 0H-20L18 163H128ZM694 1516H554L174 1802H531L694 1516Z"  />
<glyph unicode="&#xCD;" horiz-adv-x="598" d="M128 163L378 1228H262L300 1391H722L684 1228H579L330 163H456L418 0H-20L18 163H128ZM425 1516L590 1802H947L565 1516H425Z"  />
<glyph unicode="&#xCE;" horiz-adv-x="598" d="M128 163L378 1228H262L300 1391H722L684 1228H579L330 163H456L418 0H-20L18 163H128ZM206 1483L451 1789H713L810 1483H673L551 1642L344 1483H206Z"  />
<glyph unicode="&#xCF;" horiz-adv-x="598" d="M128 163L378 1228H262L300 1391H722L684 1228H579L330 163H456L418 0H-20L18 163H128ZM645 1611Q645 1658 678 1691T757 1724Q805 1724 837 1691T869 1612Q869 1566 837 1533T757 1499Q711 1499 678 1532T645 1611ZM229 1612Q229 1656 260 1690T341 1724Q388 1724 420 1691T453 1612Q453 1565 420 1532T341 1499Q293 1499 261 1532T229 1612Z"  />
<glyph unicode="&#xD0;" horiz-adv-x="1450" d="M239 629H57L88 762H271L380 1228H239L277 1391H609Q825 1391 940 1375T1168 1287T1346 1090T1411 818Q1411 612 1327 441T1119 171T830 36T332 0H-26L12 163H130L239 629ZM441 629L332 163H418Q690 163 840 215T1094 449T1199 828Q1199 968 1128 1069T951 1199T657 1228H582L473 762H784L754 629H441Z"  />
<glyph unicode="&#xD1;" horiz-adv-x="1430" d="M128 163L377 1228H223L262 1391H665L1026 286L1247 1228H1105L1143 1391H1584L1546 1228H1412L1121 -12H922L534 1190L293 163H428L389 0H-46L-8 163H128ZM1172 1765H1285Q1286 1740 1286 1723Q1286 1614 1238 1547T1108 1480Q1039 1480 891 1573Q841 1605 812 1605Q744 1605 740 1495H624Q624 1638 680 1702T815 1766Q873 1766 990 1696Q1081 1641 1107 1641Q1169 1641 1172 1765Z"  />
<glyph unicode="&#xD2;" horiz-adv-x="1599" d="M133 540Q133 726 221 926T507 1270T972 1413Q1250 1413 1405 1257T1560 850Q1560 655 1463 454T1174 115T717 -22Q421 -22 277 146T133 540ZM345 531Q345 385 440 268T726 150Q910 150 1050 259T1267 539T1345 864Q1345 1019 1243 1131T963 1244Q788 1244 638 1132T416 853T345 531ZM1194 1516H1054L674 1802H1031L1194 1516Z"  />
<glyph unicode="&#xD3;" horiz-adv-x="1599" d="M133 540Q133 726 221 926T507 1270T972 1413Q1250 1413 1405 1257T1560 850Q1560 655 1463 454T1174 115T717 -22Q421 -22 277 146T133 540ZM345 531Q345 385 440 268T726 150Q910 150 1050 259T1267 539T1345 864Q1345 1019 1243 1131T963 1244Q788 1244 638 1132T416 853T345 531ZM877 1516L1042 1802H1399L1017 1516H877Z"  />
<glyph unicode="&#xD4;" horiz-adv-x="1599" d="M133 540Q133 726 221 926T507 1270T972 1413Q1250 1413 1405 1257T1560 850Q1560 655 1463 454T1174 115T717 -22Q421 -22 277 146T133 540ZM345 531Q345 385 440 268T726 150Q910 150 1050 259T1267 539T1345 864Q1345 1019 1243 1131T963 1244Q788 1244 638 1132T416 853T345 531ZM706 1483L951 1789H1213L1310 1483H1173L1051 1642L844 1483H706Z"  />
<glyph unicode="&#xD5;" horiz-adv-x="1599" d="M133 540Q133 726 221 926T507 1270T972 1413Q1250 1413 1405 1257T1560 850Q1560 655 1463 454T1174 115T717 -22Q421 -22 277 146T133 540ZM345 531Q345 385 440 268T726 150Q910 150 1050 259T1267 539T1345 864Q1345 1019 1243 1131T963 1244Q788 1244 638 1132T416 853T345 531ZM1257 1765H1370Q1371 1740 1371 1723Q1371 1614 1323 1547T1193 1480Q1124 1480 976 1573Q926 1605 897 1605Q829 1605 825 1495H709Q709 1638 765 1702T900 1766Q958 1766 1075 1696Q1166 1641 1192 1641Q1254 1641 1257 1765Z"  />
<glyph unicode="&#xD6;" horiz-adv-x="1599" d="M133 540Q133 726 221 926T507 1270T972 1413Q1250 1413 1405 1257T1560 850Q1560 655 1463 454T1174 115T717 -22Q421 -22 277 146T133 540ZM345 531Q345 385 440 268T726 150Q910 150 1050 259T1267 539T1345 864Q1345 1019 1243 1131T963 1244Q788 1244 638 1132T416 853T345 531ZM1121 1611Q1121 1658 1154 1691T1233 1724Q1281 1724 1313 1691T1345 1612Q1345 1566 1313 1533T1233 1499Q1187 1499 1154 1532T1121 1611ZM705 1612Q705 1656 736 1690T817 1724Q864 1724 896 1691T929 1612Q929 1565 896 1532T817 1499Q769 1499 737 1532T705 1612Z"  />
<glyph unicode="&#xD7;" horiz-adv-x="1366" d="M222 301L618 697L222 1093L333 1204L729 808L1125 1204L1236 1093L840 697L1236 301L1125 190L729 586L333 190L222 301Z"  />
<glyph unicode="&#xD8;" horiz-adv-x="1599" d="M1420 1241Q1560 1090 1560 849Q1560 656 1464 455T1175 116T718 -22Q515 -22 373 64L290 -27L193 64L273 152Q133 305 133 550Q133 741 230 942T517 1278T970 1413Q1178 1413 1320 1325L1403 1418L1500 1332L1420 1241ZM411 306L1190 1179Q1098 1244 961 1244Q697 1244 521 1019T345 542Q345 404 411 306ZM1281 1085L503 212Q594 150 727 150Q909 150 1049 258T1267 539T1345 863Q1345 983 1281 1085Z"  />
<glyph unicode="&#xD9;" horiz-adv-x="1300" d="M274 1391H722L683 1228H562L395 515Q361 371 361 326Q361 238 427 188T588 138Q696 138 761 181T862 302T934 532L1097 1228H975L1013 1391H1454L1416 1228H1299L1132 515Q1082 303 1024 199T851 36T576 -22Q366 -22 264 70T162 304Q162 382 199 538L360 1228H236L274 1391ZM1056 1516H916L536 1802H893L1056 1516Z"  />
<glyph unicode="&#xDA;" horiz-adv-x="1300" d="M274 1391H722L683 1228H562L395 515Q361 371 361 326Q361 238 427 188T588 138Q696 138 761 181T862 302T934 532L1097 1228H975L1013 1391H1454L1416 1228H1299L1132 515Q1082 303 1024 199T851 36T576 -22Q366 -22 264 70T162 304Q162 382 199 538L360 1228H236L274 1391ZM751 1516L916 1802H1273L891 1516H751Z"  />
<glyph unicode="&#xDB;" horiz-adv-x="1300" d="M274 1391H722L683 1228H562L395 515Q361 371 361 326Q361 238 427 188T588 138Q696 138 761 181T862 302T934 532L1097 1228H975L1013 1391H1454L1416 1228H1299L1132 515Q1082 303 1024 199T851 36T576 -22Q366 -22 264 70T162 304Q162 382 199 538L360 1228H236L274 1391ZM557 1483L802 1789H1064L1161 1483H1024L902 1642L695 1483H557Z"  />
<glyph unicode="&#xDC;" horiz-adv-x="1300" d="M274 1391H722L683 1228H562L395 515Q361 371 361 326Q361 238 427 188T588 138Q696 138 761 181T862 302T934 532L1097 1228H975L1013 1391H1454L1416 1228H1299L1132 515Q1082 303 1024 199T851 36T576 -22Q366 -22 264 70T162 304Q162 382 199 538L360 1228H236L274 1391ZM996 1611Q996 1658 1029 1691T1108 1724Q1156 1724 1188 1691T1220 1612Q1220 1566 1188 1533T1108 1499Q1062 1499 1029 1532T996 1611ZM580 1612Q580 1656 611 1690T692 1724Q739 1724 771 1691T804 1612Q804 1565 771 1532T692 1499Q644 1499 612 1532T580 1612Z"  />
<glyph unicode="&#xDD;" horiz-adv-x="1174" d="M488 626L279 1228H134L172 1391H631L592 1228H462L624 769L1049 1228H881L920 1391H1400L1362 1228H1246L690 626L581 163H722L684 0H207L246 163H379L488 626ZM707 1516L872 1802H1229L847 1516H707Z"  />
<glyph unicode="&#xDE;" horiz-adv-x="1110" d="M129 163L379 1228H245L283 1391H755L717 1228H581L557 1126H595Q733 1126 805 1115T953 1055T1071 923T1115 739Q1115 590 1037 470T829 308T478 266H355L331 163H490L455 0H-37L1 163H129ZM393 427H502Q651 427 728 450T860 551T914 743Q914 828 873 881T775 949T601 963H519L393 427Z"  />
<glyph unicode="&#xDF;" horiz-adv-x="1260" d="M310 163H431L392 0H-29L9 163H126L310 948Q350 1121 401 1209T550 1347T782 1398Q969 1398 1077 1304T1186 1071Q1186 970 1125 884T948 760Q1169 667 1169 430Q1169 243 1034 114T695 -16Q607 -16 511 20L553 169Q605 147 684 147Q826 147 905 238T985 448Q985 563 908 627T711 691H687L720 830Q855 830 927 897T1000 1063Q1000 1152 936 1207T769 1263Q689 1263 633 1229T552 1143T499 968L310 163Z"  />
<glyph unicode="&#xE0;" horiz-adv-x="1087" d="M846 163H967L932 0H637L668 135Q529 -16 355 -16Q242 -16 153 61T63 266Q63 412 181 507T473 603Q608 603 743 532L768 640Q781 696 781 720Q781 783 731 816T609 850Q467 850 371 712L219 781Q278 872 392 933T641 995Q793 995 877 929T961 758Q961 693 939 593L846 163ZM714 400L671 420Q571 464 487 464Q377 464 310 408T243 272Q243 205 289 167T412 128Q530 128 678 255L714 400ZM899 1125H759L379 1411H736L899 1125Z"  />
<glyph unicode="&#xE1;" horiz-adv-x="1087" d="M846 163H967L932 0H637L668 135Q529 -16 355 -16Q242 -16 153 61T63 266Q63 412 181 507T473 603Q608 603 743 532L768 640Q781 696 781 720Q781 783 731 816T609 850Q467 850 371 712L219 781Q278 872 392 933T641 995Q793 995 877 929T961 758Q961 693 939 593L846 163ZM714 400L671 420Q571 464 487 464Q377 464 310 408T243 272Q243 205 289 167T412 128Q530 128 678 255L714 400ZM587 1125L752 1411H1109L727 1125H587Z"  />
<glyph unicode="&#xE2;" horiz-adv-x="1087" d="M846 163H967L932 0H637L668 135Q529 -16 355 -16Q242 -16 153 61T63 266Q63 412 181 507T473 603Q608 603 743 532L768 640Q781 696 781 720Q781 783 731 816T609 850Q467 850 371 712L219 781Q278 872 392 933T641 995Q793 995 877 929T961 758Q961 693 939 593L846 163ZM714 400L671 420Q571 464 487 464Q377 464 310 408T243 272Q243 205 289 167T412 128Q530 128 678 255L714 400ZM378 1105L623 1411H885L982 1105H845L723 1264L516 1105H378Z"  />
<glyph unicode="&#xE3;" horiz-adv-x="1087" d="M846 163H967L932 0H637L668 135Q529 -16 355 -16Q242 -16 153 61T63 266Q63 412 181 507T473 603Q608 603 743 532L768 640Q781 696 781 720Q781 783 731 816T609 850Q467 850 371 712L219 781Q278 872 392 933T641 995Q793 995 877 929T961 758Q961 693 939 593L846 163ZM714 400L671 420Q571 464 487 464Q377 464 310 408T243 272Q243 205 289 167T412 128Q530 128 678 255L714 400ZM907 1397H1020Q1021 1372 1021 1355Q1021 1246 973 1179T843 1112Q774 1112 626 1205Q576 1237 547 1237Q479 1237 475 1127H359Q359 1270 415 1334T550 1398Q608 1398 725 1328Q816 1273 842 1273Q904 1273 907 1397Z"  />
<glyph unicode="&#xE4;" horiz-adv-x="1087" d="M846 163H967L932 0H637L668 135Q529 -16 355 -16Q242 -16 153 61T63 266Q63 412 181 507T473 603Q608 603 743 532L768 640Q781 696 781 720Q781 783 731 816T609 850Q467 850 371 712L219 781Q278 872 392 933T641 995Q793 995 877 929T961 758Q961 693 939 593L846 163ZM714 400L671 420Q571 464 487 464Q377 464 310 408T243 272Q243 205 289 167T412 128Q530 128 678 255L714 400ZM811 1254Q811 1301 844 1334T923 1367Q971 1367 1003 1334T1035 1255Q1035 1209 1003 1176T923 1142Q877 1142 844 1175T811 1254ZM395 1255Q395 1299 426 1333T507 1367Q554 1367 586 1334T619 1255Q619 1208 586 1175T507 1142Q459 1142 427 1175T395 1255Z"  />
<glyph unicode="&#xE5;" horiz-adv-x="1087" d="M846 163H967L932 0H637L668 135Q529 -16 355 -16Q242 -16 153 61T63 266Q63 412 181 507T473 603Q608 603 743 532L768 640Q781 696 781 720Q781 783 731 816T609 850Q467 850 371 712L219 781Q278 872 392 933T641 995Q793 995 877 929T961 758Q961 693 939 593L846 163ZM714 400L671 420Q571 464 487 464Q377 464 310 408T243 272Q243 205 289 167T412 128Q530 128 678 255L714 400ZM541 1254Q541 1336 599 1395T740 1454Q822 1454 880 1396T939 1255Q939 1172 881 1114T740 1056Q658 1056 600 1114T541 1254ZM619 1254Q619 1205 655 1170T740 1134Q789 1134 825 1169T861 1255Q861 1305 826 1340T740 1375Q688 1375 654 1339T619 1254Z"  />
<glyph unicode="&#xE6;" horiz-adv-x="1772" d="M1683 443H918Q915 403 915 373Q915 273 980 202T1159 130Q1312 130 1408 268L1595 184Q1446 -28 1163 -28Q884 -28 780 184Q702 92 592 32T377 -28Q238 -28 153 58T67 265Q67 405 186 504T488 604Q614 604 759 533L780 635L787 659Q799 704 799 727Q799 783 751 817T623 852Q469 852 380 715L226 780Q373 995 659 995Q862 995 939 872Q1083 995 1273 995Q1477 995 1587 873T1698 576Q1698 509 1683 443ZM1512 578Q1514 612 1514 629Q1514 716 1453 780T1284 844Q1169 844 1084 770T959 578H1512ZM728 400Q611 469 497 469Q397 469 323 411T248 260Q248 186 297 149T411 112Q532 112 692 244L728 400Z"  />
<glyph unicode="&#xE7;" horiz-adv-x="1024" d="M456 -27L425 -97Q493 -104 530 -143T568 -238Q568 -331 479 -387T248 -443Q182 -443 93 -429L126 -342Q169 -347 208 -347Q295 -347 341 -322T388 -254Q388 -223 363 -205T305 -187H280L359 -14Q228 18 145 124T62 373Q62 610 221 802T598 995Q762 995 866 886L886 968H1046L977 677H817Q801 758 740 801T601 844Q461 844 359 709T257 394Q257 273 320 199T500 124Q649 124 767 293L900 196Q815 83 699 25T456 -27Z"  />
<glyph unicode="&#xE8;" horiz-adv-x="1130" d="M1044 440H284Q277 411 277 385Q277 265 346 198T519 131Q664 131 765 269L954 188Q897 93 777 33T521 -28Q312 -28 196 93T80 403Q80 554 156 689T361 909T641 995Q825 995 941 875T1058 560Q1058 497 1044 440ZM873 576Q876 607 876 626Q876 706 813 771T644 837Q537 837 451 767T320 576H873ZM925 1125H785L405 1411H762L925 1125Z"  />
<glyph unicode="&#xE9;" horiz-adv-x="1130" d="M1044 440H284Q277 411 277 385Q277 265 346 198T519 131Q664 131 765 269L954 188Q897 93 777 33T521 -28Q312 -28 196 93T80 403Q80 554 156 689T361 909T641 995Q825 995 941 875T1058 560Q1058 497 1044 440ZM873 576Q876 607 876 626Q876 706 813 771T644 837Q537 837 451 767T320 576H873ZM531 1125L696 1411H1053L671 1125H531Z"  />
<glyph unicode="&#xEA;" horiz-adv-x="1130" d="M1044 440H284Q277 411 277 385Q277 265 346 198T519 131Q664 131 765 269L954 188Q897 93 777 33T521 -28Q312 -28 196 93T80 403Q80 554 156 689T361 909T641 995Q825 995 941 875T1058 560Q1058 497 1044 440ZM873 576Q876 607 876 626Q876 706 813 771T644 837Q537 837 451 767T320 576H873ZM387 1105L632 1411H894L991 1105H854L732 1264L525 1105H387Z"  />
<glyph unicode="&#xEB;" horiz-adv-x="1130" d="M1044 440H284Q277 411 277 385Q277 265 346 198T519 131Q664 131 765 269L954 188Q897 93 777 33T521 -28Q312 -28 196 93T80 403Q80 554 156 689T361 909T641 995Q825 995 941 875T1058 560Q1058 497 1044 440ZM873 576Q876 607 876 626Q876 706 813 771T644 837Q537 837 451 767T320 576H873ZM820 1254Q820 1301 853 1334T932 1367Q980 1367 1012 1334T1044 1255Q1044 1209 1012 1176T932 1142Q886 1142 853 1175T820 1254ZM404 1255Q404 1299 435 1333T516 1367Q563 1367 595 1334T628 1255Q628 1208 595 1175T516 1142Q468 1142 436 1175T404 1255Z"  />
<glyph unicode="&#xEC;" horiz-adv-x="575" d="M139 163L290 805H157L195 968H509L320 163H461L423 0H-6L32 163H139ZM618 1125H478L98 1411H455L618 1125Z"  />
<glyph unicode="&#xED;" horiz-adv-x="575" d="M139 163L290 805H157L195 968H509L320 163H461L423 0H-6L32 163H139ZM254 1125L419 1411H776L394 1125H254Z"  />
<glyph unicode="&#xEE;" horiz-adv-x="575" d="M139 163L290 805H157L195 968H509L320 163H461L423 0H-6L32 163H139ZM111 1105L356 1411H618L715 1105H578L456 1264L249 1105H111Z"  />
<glyph unicode="&#xEF;" horiz-adv-x="575" d="M139 163L290 805H157L195 968H509L320 163H461L423 0H-6L32 163H139ZM540 1254Q540 1301 573 1334T652 1367Q700 1367 732 1334T764 1255Q764 1209 732 1176T652 1142Q606 1142 573 1175T540 1254ZM124 1255Q124 1299 155 1333T236 1367Q283 1367 315 1334T348 1255Q348 1208 315 1175T236 1142Q188 1142 156 1175T124 1255Z"  />
<glyph unicode="&#xF0;" horiz-adv-x="1173" d="M839 1318L1040 1391L1072 1309L892 1245Q1094 944 1094 654Q1094 383 934 178T494 -28Q308 -28 193 88T77 385Q77 642 248 818T654 995Q762 995 865 927Q823 1056 740 1191L441 1085L411 1163L692 1265Q644 1332 592 1391H775Q803 1364 839 1318ZM629 825Q477 825 376 698T274 399Q274 275 342 209T519 142Q692 142 791 277T890 565Q890 683 823 754T629 825Z"  />
<glyph unicode="&#xF1;" horiz-adv-x="1130" d="M187 968H495L469 855Q650 983 784 983Q891 983 948 913T1006 763Q1006 696 979 581L881 163H1024L985 0H662L801 593Q823 688 823 712Q823 756 794 784T723 813Q612 813 429 685L306 163H451L413 0H-28L10 163H125L276 805H149L187 968ZM934 1397H1047Q1048 1372 1048 1355Q1048 1246 1000 1179T870 1112Q801 1112 653 1205Q603 1237 574 1237Q506 1237 502 1127H386Q386 1270 442 1334T577 1398Q635 1398 752 1328Q843 1273 869 1273Q931 1273 934 1397Z"  />
<glyph unicode="&#xF2;" horiz-adv-x="1153" d="M70 390Q70 539 140 676T349 904T663 995Q865 995 974 877T1083 579Q1083 437 1014 288T800 56T495 -28Q309 -28 190 82T70 390ZM272 408Q272 146 515 146Q685 146 788 276T891 578Q891 688 821 754T634 821Q470 821 371 695T272 408ZM905 1125H765L385 1411H742L905 1125Z"  />
<glyph unicode="&#xF3;" horiz-adv-x="1153" d="M70 390Q70 539 140 676T349 904T663 995Q865 995 974 877T1083 579Q1083 437 1014 288T800 56T495 -28Q309 -28 190 82T70 390ZM272 408Q272 146 515 146Q685 146 788 276T891 578Q891 688 821 754T634 821Q470 821 371 695T272 408ZM572 1125L737 1411H1094L712 1125H572Z"  />
<glyph unicode="&#xF4;" horiz-adv-x="1153" d="M70 390Q70 539 140 676T349 904T663 995Q865 995 974 877T1083 579Q1083 437 1014 288T800 56T495 -28Q309 -28 190 82T70 390ZM272 408Q272 146 515 146Q685 146 788 276T891 578Q891 688 821 754T634 821Q470 821 371 695T272 408ZM398 1105L643 1411H905L1002 1105H865L743 1264L536 1105H398Z"  />
<glyph unicode="&#xF5;" horiz-adv-x="1153" d="M70 390Q70 539 140 676T349 904T663 995Q865 995 974 877T1083 579Q1083 437 1014 288T800 56T495 -28Q309 -28 190 82T70 390ZM272 408Q272 146 515 146Q685 146 788 276T891 578Q891 688 821 754T634 821Q470 821 371 695T272 408ZM941 1397H1054Q1055 1372 1055 1355Q1055 1246 1007 1179T877 1112Q808 1112 660 1205Q610 1237 581 1237Q513 1237 509 1127H393Q393 1270 449 1334T584 1398Q642 1398 759 1328Q850 1273 876 1273Q938 1273 941 1397Z"  />
<glyph unicode="&#xF6;" horiz-adv-x="1153" d="M70 390Q70 539 140 676T349 904T663 995Q865 995 974 877T1083 579Q1083 437 1014 288T800 56T495 -28Q309 -28 190 82T70 390ZM272 408Q272 146 515 146Q685 146 788 276T891 578Q891 688 821 754T634 821Q470 821 371 695T272 408ZM841 1254Q841 1301 874 1334T953 1367Q1001 1367 1033 1334T1065 1255Q1065 1209 1033 1176T953 1142Q907 1142 874 1175T841 1254ZM425 1255Q425 1299 456 1333T537 1367Q584 1367 616 1334T649 1255Q649 1208 616 1175T537 1142Q489 1142 457 1175T425 1255Z"  />
<glyph unicode="&#xF7;" horiz-adv-x="1366" d="M729 1214Q769 1214 798 1186T827 1116Q827 1075 798 1047T729 1018Q689 1018 660 1046T631 1116Q631 1157 660 1185T729 1214ZM181 776H1277V619H181V776ZM729 376Q768 376 797 349T827 279Q827 238 798 210T729 181Q689 181 660 209T631 279Q631 320 660 348T729 376Z"  />
<glyph unicode="&#xF8;" horiz-adv-x="1153" d="M976 875Q1083 760 1083 579Q1083 437 1014 288T800 56T495 -28Q349 -28 241 42L160 -50L96 5L176 96Q70 204 70 389Q70 632 239 813T661 995Q809 995 911 930L990 1020L1054 968L976 875ZM308 246L782 784Q718 821 634 821Q474 821 373 697T272 400Q272 304 308 246ZM846 727L368 185Q430 146 516 146Q685 146 788 276T892 577Q892 664 846 727Z"  />
<glyph unicode="&#xF9;" horiz-adv-x="1130" d="M859 163H981L943 0H639L666 112Q487 -16 348 -16Q244 -16 183 52T122 198Q122 257 155 396L250 805H130L169 968H470L346 443Q309 284 309 247Q309 204 338 177T412 150Q518 150 708 291L828 805H684L722 968H1047L859 163ZM876 1125H736L356 1411H713L876 1125Z"  />
<glyph unicode="&#xFA;" horiz-adv-x="1130" d="M859 163H981L943 0H639L666 112Q487 -16 348 -16Q244 -16 183 52T122 198Q122 257 155 396L250 805H130L169 968H470L346 443Q309 284 309 247Q309 204 338 177T412 150Q518 150 708 291L828 805H684L722 968H1047L859 163ZM570 1125L735 1411H1092L710 1125H570Z"  />
<glyph unicode="&#xFB;" horiz-adv-x="1130" d="M859 163H981L943 0H639L666 112Q487 -16 348 -16Q244 -16 183 52T122 198Q122 257 155 396L250 805H130L169 968H470L346 443Q309 284 309 247Q309 204 338 177T412 150Q518 150 708 291L828 805H684L722 968H1047L859 163ZM399 1105L644 1411H906L1003 1105H866L744 1264L537 1105H399Z"  />
<glyph unicode="&#xFC;" horiz-adv-x="1130" d="M859 163H981L943 0H639L666 112Q487 -16 348 -16Q244 -16 183 52T122 198Q122 257 155 396L250 805H130L169 968H470L346 443Q309 284 309 247Q309 204 338 177T412 150Q518 150 708 291L828 805H684L722 968H1047L859 163ZM797 1254Q797 1301 830 1334T909 1367Q957 1367 989 1334T1021 1255Q1021 1209 989 1176T909 1142Q863 1142 830 1175T797 1254ZM381 1255Q381 1299 412 1333T493 1367Q540 1367 572 1334T605 1255Q605 1208 572 1175T493 1142Q445 1142 413 1175T381 1255Z"  />
<glyph unicode="&#xFD;" horiz-adv-x="1044" d="M81 -274L273 6L228 805H117L156 968H536L498 805H397L431 237L824 805H691L729 968H1125L1087 805H996L146 -437H-141L-103 -274H81ZM549 1125L714 1411H1071L689 1125H549Z"  />
<glyph unicode="&#xFE;" horiz-adv-x="1237" d="M252 1391H575L445 845Q593 983 771 983Q933 983 1046 862T1159 548Q1159 317 1004 145T624 -28Q409 -28 279 140L182 -274H334L295 -437H-153L-115 -274H1L353 1228H214L252 1391ZM345 391Q345 268 416 199T598 130Q762 130 867 257T972 553Q972 679 901 748T717 818Q555 818 450 680T345 391Z"  />
<glyph unicode="&#xFF;" horiz-adv-x="1044" d="M81 -274L273 6L228 805H117L156 968H536L498 805H397L431 237L824 805H691L729 968H1125L1087 805H996L146 -437H-141L-103 -274H81ZM775 1254Q775 1301 808 1334T887 1367Q935 1367 967 1334T999 1255Q999 1209 967 1176T887 1142Q841 1142 808 1175T775 1254ZM359 1255Q359 1299 390 1333T471 1367Q518 1367 550 1334T583 1255Q583 1208 550 1175T471 1142Q423 1142 391 1175T359 1255Z"  />
<glyph unicode="&#x131;" horiz-adv-x="575" d="M139 163L290 805H157L195 968H509L320 163H461L423 0H-6L32 163H139Z"  />
<glyph unicode="&#x152;" horiz-adv-x="2048" d="M1785 427H1953L1850 0H933Q667 0 507 47T243 233T139 567Q139 716 206 874T383 1143T626 1308T877 1376T1241 1391H2159L2061 972H1896L1953 1228H1443L1343 798H1791L1753 635H1305L1194 163H1723L1785 427ZM1241 1228H1152Q960 1228 838 1202T610 1097T430 873T355 568Q355 368 480 266T884 163H992L1241 1228Z"  />
<glyph unicode="&#x153;" horiz-adv-x="1898" d="M1815 444H1052Q1046 399 1046 368Q1046 273 1112 202T1286 130Q1424 130 1538 270L1726 190Q1568 -28 1291 -28Q1175 -28 1076 20T924 149Q742 -28 502 -28Q300 -28 184 90T67 394Q67 537 142 679T356 908T658 995Q906 995 1022 825Q1172 995 1409 995Q1620 995 1724 867T1828 557Q1828 496 1815 444ZM1643 579Q1645 624 1645 627Q1645 711 1584 778T1412 846Q1192 846 1088 579H1643ZM263 412Q263 291 330 216T523 140Q692 140 792 276T893 577Q893 679 830 751T649 823Q479 823 371 690T263 412Z"  />
<glyph unicode="&#x160;" horiz-adv-x="1067" d="M0 0L89 382H258L229 257Q335 137 491 137Q599 137 672 199T745 352Q745 431 696 489T504 644Q353 747 294 835T234 1041Q234 1208 350 1310T649 1413Q829 1413 943 1296L964 1391H1132L1044 1014H876L901 1120Q862 1181 791 1219T643 1257Q546 1257 481 1204T416 1063Q416 998 458 942T622 803Q748 719 804 669T896 546T931 382Q931 199 802 89T469 -22Q305 -22 186 74L169 0H0ZM1095 1789L850 1483H588L491 1789H628L750 1630L957 1789H1095Z"  />
<glyph unicode="&#x161;" horiz-adv-x="874" d="M20 270H184Q184 202 244 165T401 128Q490 128 538 164T587 252Q587 301 545 337T397 415Q290 457 235 490T144 581T108 704Q108 816 201 899T457 983Q609 983 707 899L727 968H888L825 699H663Q661 773 596 804T454 835Q374 835 329 803T283 723Q283 684 310 659T413 604Q629 521 698 446T767 265Q767 139 670 62T383 -16Q207 -16 134 63L120 0H-44L20 270ZM926 1411L681 1105H419L322 1411H459L581 1252L788 1411H926Z"  />
<glyph unicode="&#x178;" horiz-adv-x="1174" d="M488 626L279 1228H134L172 1391H631L592 1228H462L624 769L1049 1228H881L920 1391H1400L1362 1228H1246L690 626L581 163H722L684 0H207L246 163H379L488 626ZM927 1611Q927 1658 960 1691T1039 1724Q1087 1724 1119 1691T1151 1612Q1151 1566 1119 1533T1039 1499Q993 1499 960 1532T927 1611ZM511 1612Q511 1656 542 1690T623 1724Q670 1724 702 1691T735 1612Q735 1565 702 1532T623 1499Q575 1499 543 1532T511 1612Z"  />
<glyph unicode="&#x17D;" horiz-adv-x="1153" d="M-18 0L21 163L926 1228H465L405 972H239L337 1391H1215L1177 1228L269 163H790L856 443H1021L917 0H-18ZM1138 1789L893 1483H631L534 1789H671L793 1630L1000 1789H1138Z"  />
<glyph unicode="&#x17E;" horiz-adv-x="854" d="M-53 0L-15 163L650 825H320L272 623H117L197 968H900L862 802L197 147H561L610 355H764L680 0H-53ZM940 1411L695 1105H433L336 1411H473L595 1252L802 1411H940Z"  />
<glyph unicode="&#x192;" horiz-adv-x="1130" d="M-1 -405L41 -250Q140 -272 193 -272Q246 -272 276 -244T327 -120L553 922H353L383 1062H584L615 1195Q642 1316 673 1371T765 1459T909 1492Q1000 1492 1126 1454L1084 1301Q984 1325 931 1325Q868 1325 842 1294T792 1165L768 1062H972L941 922H736L494 -170Q461 -317 398 -374T228 -431Q128 -431 -1 -405Z"  />
<glyph unicode="&#x237;" horiz-adv-x="575" d="M200 968H514L319 134Q257 -130 219 -223T101 -371T-98 -425Q-148 -425 -192 -413L-157 -264L-139 -266Q-122 -267 -114 -267Q-51 -267 0 -226T72 -119T143 155L295 805H162L200 968Z"  />
<glyph unicode="&#x2C6;" horiz-adv-x="682" d="M175 1105L420 1411H682L779 1105H642L520 1264L313 1105H175Z"  />
<glyph unicode="&#x2DC;" horiz-adv-x="682" d="M736 1397H849Q850 1372 850 1355Q850 1246 802 1179T672 1112Q603 1112 455 1205Q405 1237 376 1237Q308 1237 304 1127H188Q188 1270 244 1334T379 1398Q437 1398 554 1328Q645 1273 671 1273Q733 1273 736 1397Z"  />
<glyph unicode="&#x2013;" horiz-adv-x="1024" d="M-11 585H1037V440H-11V585Z"  />
<glyph unicode="&#x2014;" horiz-adv-x="2048" d="M-1 585H2071V440H-1V585Z"  />
<glyph unicode="&#x2018;" horiz-adv-x="575" d="M478 878H237L285 1083Q319 1227 393 1304T610 1391L590 1305Q443 1288 404 1113H533L478 878Z"  />
<glyph unicode="&#x2019;" horiz-adv-x="575" d="M357 1391H598L550 1185Q516 1041 442 964T225 878L245 968Q393 985 431 1156H301L357 1391Z"  />
<glyph unicode="&#x201A;" horiz-adv-x="575" d="M109 235H350L302 30Q268 -114 194 -191T-23 -278L-3 -188Q145 -171 183 0H53L109 235Z"  />
<glyph unicode="&#x201C;" horiz-adv-x="1004" d="M464 878H223L271 1083Q305 1227 379 1304T596 1391L576 1305Q429 1288 390 1113H519L464 878ZM911 878H669L718 1083Q751 1227 825 1304T1042 1391L1022 1305Q875 1288 836 1113H966L911 878Z"  />
<glyph unicode="&#x201D;" horiz-adv-x="1004" d="M353 1391H594L546 1185Q512 1041 438 964T221 878L241 968Q389 985 427 1156H297L353 1391ZM799 1391H1040L992 1185Q958 1041 884 964T667 878L687 968Q836 985 874 1156H744L799 1391Z"  />
<glyph unicode="&#x201E;" horiz-adv-x="1004" d="M105 235H346L298 30Q264 -114 190 -191T-27 -278L-7 -192Q141 -173 179 0H49L105 235ZM551 235H792L744 30Q711 -114 637 -191T419 -278L440 -192Q587 -173 626 0H496L551 235Z"  />
<glyph unicode="&#x2020;" horiz-adv-x="1004" d="M1084 960L1042 779H834Q757 829 630 833Q610 731 610 655Q610 570 630 515L343 -437H245L422 515Q505 614 561 833Q404 833 292 779H100L142 960H334Q421 899 577 899Q595 977 595 1062Q595 1139 577 1180L630 1413H834L780 1180Q683 1066 645 899Q780 901 875 960H1084Z"  />
<glyph unicode="&#x2021;" horiz-adv-x="1004" d="M1053 968L1011 790H813Q746 845 624 849Q603 756 603 671Q603 586 624 494Q501 346 451 130Q580 134 670 183H869L826 0H624Q556 65 441 65H436Q424 2 424 -59Q424 -127 442 -192L386 -437H190L248 -192Q324 -99 372 65Q245 59 147 0H-48L-5 183H190Q276 131 386 130Q404 188 404 309Q404 393 379 494Q504 640 554 849Q416 844 332 790H137L179 968H372Q440 918 569 913Q583 986 583 1052Q583 1106 569 1180L624 1413H819L764 1180Q672 1047 635 913Q779 921 855 968H1053Z"  />
<glyph unicode="&#x2022;" horiz-adv-x="725" d="M410 946Q511 946 586 875T661 695Q661 592 587 519T410 445Q306 445 233 518T159 695Q159 799 233 872T410 946Z"  />
<glyph unicode="&#x2026;" horiz-adv-x="2048" d="M111 0L166 235H408L352 0H111ZM794 0L849 235H1090L1035 0H794ZM1476 0L1532 235H1773L1717 0H1476Z"  />
<glyph unicode="&#x2030;" horiz-adv-x="2218" d="M32 957Q32 1130 132 1272T407 1415Q535 1415 599 1339T663 1129Q663 952 565 815T294 677Q173 677 103 749T32 957ZM182 953Q182 871 219 832T308 792Q398 792 458 906T519 1155Q519 1214 489 1257T395 1300Q308 1300 245 1186T182 953ZM-21 0L1407 1391H1540L112 0H-21ZM852 258Q852 428 951 570T1229 713Q1354 713 1418 638T1483 429Q1483 253 1385 116T1113 -21Q984 -21 918 56T852 258ZM1002 254Q1002 172 1039 132T1128 92Q1222 92 1280 211T1339 455Q1339 517 1307 558T1215 600Q1115 600 1059 474T1002 254ZM1644 258Q1644 428 1743 570T2021 713Q2141 713 2208 641T2275 429Q2275 253 2177 116T1906 -21Q1776 -21 1710 56T1644 258ZM1795 254Q1795 172 1832 132T1920 92Q2014 92 2072 211T2131 455Q2131 517 2100 558T2007 600Q1920 600 1858 486T1795 254Z"  />
<glyph unicode="&#x2039;" horiz-adv-x="532" d="M54 519L408 968H611L233 485L383 8H216L54 519Z"  />
<glyph unicode="&#x203A;" horiz-adv-x="532" d="M482 457L128 8H-75L303 491L153 968H320L482 457Z"  />
<glyph unicode="&#x20AC;" horiz-adv-x="1087" d="M1253 1391L1194 1028H1063Q1055 1146 986 1207T803 1268Q677 1268 571 1172T399 899H862L840 758H360Q347 690 344 635H823L801 494H342Q357 324 433 225T618 125Q724 125 798 179T948 346L1061 252Q978 113 872 45T608 -23Q423 -23 306 115T166 494H61L84 635H164Q172 716 180 758H76L98 899H215Q297 1140 457 1277T815 1415Q1002 1415 1096 1296L1116 1391H1253Z"  />
<glyph unicode="&#x2122;" horiz-adv-x="2048" d="M610 577V1270H346V1391H1012V1270H746V577H610ZM1103 577V1391H1303L1509 740L1708 1391H1904V577H1780V1260L1570 577H1447L1228 1270V577H1103Z"  />

</font>
</defs>
</svg>
