<?xml  version="1.0" encoding="UTF-8"?>
<!DOCTYPE svg PUBLIC "-//W3C//DTD SVG 1.0//EN" "http://www.w3.org/TR/2001/REC-SVG-20010904/DTD/svg10.dtd" >
<svg xmlns="http://www.w3.org/2000/svg" >
<metadata>
<version>1.0</version>
<id><![CDATA[Rockwell W01]]></id>
<vendor>Monotype Imaging Inc.</vendor>
<credits>
<name>Fonts.com WebFonts</name>
<URL>http://webfonts.fonts.com</URL>
<role>Home of the Web fonts</role>
</credits>
<license>
<URL>http://webfonts.fonts.com/Legal</URL>
</license>
<copyright><![CDATA[Digitized data copyright Agfa Monotype Corporation 2001. All rights reserved. Rockwell¨ is a trademark of The Monotype Corporation which may be registered in certain jurisdictions.]]></copyright>
<trademark><![CDATA[Rockwell¨ is a trademark of The Monotype Corporation which may be registered in certain jurisdictions.]]></trademark>
<licensee>
<name></name>
</licensee>
</metadata>
<defs >
<font horiz-adv-x="1138" id="59c05ddc-99f9-44db-82ce-cb7f503b5110">
<font-face font-family="" panose-1="2 6 6 3 3 4 5 2 1 3" ascent="2189" descent="-677" units-per-em="2048" alphabetic="0">
</font-face>
<missing-glyph horiz-adv-x="2048" d="M256 0V1536H1792V0H256ZM384 128H1664V1408H384V128Z"  />

<glyph unicode="&#xA;" />
<glyph unicode="&#xD;" horiz-adv-x="512" />
<glyph unicode=" " horiz-adv-x="512" />
<glyph unicode="!" horiz-adv-x="598" d="M349 377H247L197 968V1391H399V968L349 377ZM176 0V246H422V0H176Z"  />
<glyph unicode="&quot;" horiz-adv-x="831" d="M209 829L154 1125Q132 1246 132 1290Q132 1413 229 1413Q273 1413 302 1384T332 1306Q332 1264 306 1123L252 829H209ZM575 829L521 1120Q497 1248 497 1291Q497 1413 599 1413Q644 1413 671 1383T699 1307Q699 1220 680 1121L623 829H575Z"  />
<glyph unicode="#" horiz-adv-x="1366" d="M552 1019H948L1029 1410H1176L1095 1019H1280V872H1064L991 519H1280V372H960L879 -19H732L813 372H417L336 -19H189L270 372H85V519H301L374 872H85V1019H405L486 1410H633L552 1019ZM521 872L448 519H844L917 872H521Z"  />
<glyph unicode="$" horiz-adv-x="1110" d="M471 -20Q285 -12 174 105T63 392Q63 401 64 420H246Q261 170 471 142V602Q90 677 90 988Q90 1154 191 1260T471 1381V1444H622V1381Q754 1368 857 1279T961 965V941H785Q785 1069 747 1131T622 1214V770Q862 725 943 632T1024 395Q1024 213 919 107T622 -20V-175H471V-20ZM471 804V1222Q290 1190 290 1017Q290 853 471 804ZM622 570V144Q832 183 832 367Q832 442 791 493T622 570Z"  />
<glyph unicode="%" horiz-adv-x="1985" d="M164 1040Q164 1207 239 1310T461 1413Q598 1413 678 1316T758 1040Q758 870 682 769T461 668Q324 668 244 764T164 1040ZM308 1041Q308 764 461 764Q613 764 613 1040Q613 1317 461 1317Q308 1317 308 1041ZM367 0L1471 1391H1613L517 0H367ZM1226 351Q1226 531 1306 627T1522 723Q1671 723 1745 620T1819 351Q1819 171 1739 75T1523 -22Q1386 -22 1306 74T1226 351ZM1370 351Q1370 74 1522 74Q1675 74 1675 350Q1675 627 1523 627Q1370 627 1370 351Z"  />
<glyph unicode="&amp;" horiz-adv-x="1386" d="M1055 736H1340V566H1193Q1139 373 1055 268L1128 174H1340V0H1023L931 122Q750 -22 561 -22Q345 -22 204 112T63 447Q63 725 380 864Q285 985 285 1107Q285 1241 386 1327T623 1413Q763 1413 859 1328T956 1115Q956 1004 888 933T664 798L947 415Q1023 548 1055 736ZM564 930Q684 980 727 1024T771 1121Q771 1170 734 1209T627 1249Q564 1249 522 1211T480 1112Q480 1058 552 948L564 930ZM486 736Q270 640 270 456Q270 334 361 243T582 151Q715 151 824 262L486 736Z"  />
<glyph unicode="&apos;" horiz-adv-x="362" d="M158 828L104 1124Q81 1248 81 1284Q81 1413 178 1413Q226 1413 254 1382T282 1307Q282 1267 256 1123L202 828H158Z"  />
<glyph unicode="(" horiz-adv-x="768" d="M711 1416V1261Q603 1204 516 1083T399 827T369 485Q369 251 407 112T527 -127T711 -289V-445Q503 -360 335 -122T166 487Q166 816 313 1063T711 1416Z"  />
<glyph unicode=")" horiz-adv-x="768" d="M57 1416Q299 1308 450 1070T602 486Q602 152 462 -80T57 -445V-289Q181 -214 261 -99T370 148T399 485Q399 701 368 836T247 1089T57 1261V1416Z"  />
<glyph unicode="*" horiz-adv-x="1067" d="M622 1413V1244Q562 1121 560 997Q694 1045 775 1133L942 1186L997 1009L833 954Q800 960 772 960Q664 960 588 938Q683 819 775 780L876 640L728 533L622 674Q609 800 532 905Q455 800 442 674L336 533L188 640L289 780Q381 819 476 938Q400 960 292 960Q265 960 231 954L67 1009L122 1186L289 1133Q370 1045 504 997Q502 1121 442 1244V1413H622Z"  />
<glyph unicode="+" horiz-adv-x="1366" d="M135 774H605V1243H761V774H1231V617H761V148H605V617H135V774Z"  />
<glyph unicode="&#x2c;" horiz-adv-x="598" d="M176 0V246H422V32Q422 -77 405 -137T333 -235T176 -277V-173Q296 -155 296 -24Q296 -16 295 0H176Z"  />
<glyph unicode="-" horiz-adv-x="725" d="M63 575H663V385H63V575Z"  />
<glyph unicode="." horiz-adv-x="598" d="M176 0V246H422V0H176Z"  />
<glyph unicode="/" horiz-adv-x="897" d="M720 1419H886L176 -22H10L720 1419Z"  />
<glyph unicode="0" horiz-adv-x="1110" d="M72 695Q72 1039 201 1226T555 1413Q787 1413 912 1219T1037 695Q1037 353 908 166T555 -22Q321 -22 197 173T72 695ZM276 695Q276 397 348 269T555 140Q690 140 762 269T834 695Q834 997 761 1124T555 1251Q405 1251 341 1107T276 695Z"  />
<glyph unicode="1" horiz-adv-x="1110" d="M485 169V1222H295V1389H675V169H856V0H295V169H485Z"  />
<glyph unicode="2" horiz-adv-x="1110" d="M984 497L971 0H82Q82 144 133 275T278 504T564 742Q685 831 728 890T771 1029Q771 1126 710 1187T542 1249Q417 1249 359 1179T301 949Q301 909 303 873H118Q117 909 117 932Q117 1158 224 1285T538 1413Q747 1413 858 1304T970 1036Q970 903 897 809T618 570Q418 428 356 339T283 181H807L815 497H984Z"  />
<glyph unicode="3" horiz-adv-x="1110" d="M419 640V812Q565 812 631 829T735 896T772 1024Q772 1117 718 1184T556 1251Q438 1251 384 1181T325 970H132Q132 1210 250 1311T541 1413Q750 1413 856 1310T962 1047Q962 929 902 848T765 733Q1025 656 1025 401Q1025 189 883 84T548 -22Q303 -22 186 109T68 471H252Q257 311 339 227T559 142Q684 142 755 211T827 387Q827 498 743 569T475 641Q451 641 419 640Z"  />
<glyph unicode="4" horiz-adv-x="1110" d="M617 374H149Q125 467 60 531L639 1402H800V542H1022V374H800V169H927V0H469V169H617V374ZM617 542V1090L252 542H617Z"  />
<glyph unicode="5" horiz-adv-x="1110" d="M73 444H253Q269 304 344 221T544 138Q669 138 745 224T821 445Q821 588 747 663T563 739Q398 739 284 572Q220 635 139 673L196 1389H938V1020H766V1210H340L309 803Q436 906 592 906Q790 906 904 774T1019 447Q1019 241 894 110T542 -22Q332 -22 210 97T73 444Z"  />
<glyph unicode="6" horiz-adv-x="1110" d="M986 980H817Q802 1099 734 1174T567 1249Q434 1249 360 1111T283 731Q425 885 610 885Q769 885 882 768T996 453Q996 257 884 118T578 -22Q361 -22 231 156T100 687Q100 1022 226 1217T589 1413Q775 1413 877 1291T986 980ZM293 521Q338 143 569 143Q687 143 753 230T819 438Q819 557 757 630T588 703Q439 703 293 521Z"  />
<glyph unicode="7" horiz-adv-x="1110" d="M223 0V169H408Q423 438 533 732T772 1210H293V1023H121V1389H990V1247Q854 1084 732 753T610 169H772V0H223Z"  />
<glyph unicode="8" horiz-adv-x="1110" d="M315 727Q111 846 111 1048Q111 1225 238 1319T543 1413Q753 1413 875 1315T997 1048Q997 848 793 727Q1040 630 1040 383Q1040 199 912 89T565 -22Q320 -22 194 88T68 383Q68 630 315 727ZM299 1030Q299 920 369 863T560 805Q663 805 736 860T809 1030Q809 1248 548 1248Q435 1248 367 1192T299 1030ZM270 391Q270 281 346 211T554 140Q679 140 758 208T838 392Q838 503 764 573T548 643Q426 643 348 576T270 391Z"  />
<glyph unicode="9" horiz-adv-x="1110" d="M104 411H273Q288 292 357 217T523 142Q657 142 731 281T807 660Q666 506 481 506Q316 506 205 625T94 938Q94 1134 206 1273T513 1413Q730 1413 860 1235T990 704Q990 369 865 174T501 -22Q316 -22 213 100T104 411ZM797 870Q754 1248 521 1248Q406 1248 339 1163T271 953Q271 840 330 764T503 688Q651 688 797 870Z"  />
<glyph unicode=":" horiz-adv-x="598" d="M176 722V968H422V722H176ZM176 0V246H422V0H176Z"  />
<glyph unicode=";" horiz-adv-x="598" d="M176 722V968H422V722H176ZM176 0V246H422V32Q422 -77 405 -137T333 -235T176 -277V-173Q296 -155 296 -24Q296 -16 295 0H176Z"  />
<glyph unicode="&lt;" horiz-adv-x="1366" d="M1231 165L135 625V766L1231 1226V1056L349 695L1231 335V165Z"  />
<glyph unicode="=" horiz-adv-x="1366" d="M135 1009H1231V852H135V1009ZM135 539H1231V382H135V539Z"  />
<glyph unicode="&gt;" horiz-adv-x="1366" d="M135 1226L1231 766V625L135 165V335L1017 695L135 1056V1226Z"  />
<glyph unicode="?" horiz-adv-x="961" d="M486 375H383L359 817Q406 805 453 805Q584 805 642 871T700 1028Q700 1134 638 1192T479 1251Q362 1251 306 1184T249 1017Q249 996 250 968H63Q62 995 62 1014Q62 1219 183 1316T473 1413Q675 1413 786 1305T897 1019Q897 848 792 746T543 644Q532 644 511 645L486 375ZM311 0V246H556V0H311Z"  />
<glyph unicode="@" horiz-adv-x="2068" d="M1164 138Q1019 -28 857 -28Q710 -28 603 95T495 420Q495 657 654 857T1014 1058Q1204 1058 1316 875L1350 1030H1529L1385 358Q1355 219 1355 203Q1355 174 1377 156T1423 137Q1476 137 1573 204T1741 406T1811 691Q1811 965 1605 1143T1096 1322Q726 1322 494 1072T262 462Q262 90 492 -109T1123 -308Q1358 -308 1542 -229T1827 -6H2008Q1925 -178 1698 -317T1126 -456Q642 -456 378 -211T114 443Q114 853 374 1160T1105 1467Q1489 1467 1724 1240T1959 687Q1959 410 1771 191T1356 -29Q1256 -29 1214 12T1164 138ZM680 403Q680 278 743 199T893 120Q1030 120 1144 272T1259 624Q1259 757 1193 833T1027 910Q875 910 778 743T680 403Z"  />
<glyph unicode="A" horiz-adv-x="1430" d="M970 489H470L363 174H532V0H-16V174H152L532 1234H363V1391H1074V1234H901L1290 174H1446V0H901V174H1074L970 489ZM918 652L733 1234H714L522 652H918Z"  />
<glyph unicode="B" horiz-adv-x="1194" d="M217 174V1217H46V1391H509Q700 1391 795 1368T964 1252T1037 1032Q1037 935 994 857T866 739Q982 699 1044 607T1107 395Q1107 292 1061 208T937 78T769 16T519 0H46V174H217ZM427 812H558Q708 812 767 864T827 1019Q827 1217 558 1217H427V812ZM427 174H506Q661 174 733 189T850 262T896 410Q896 492 853 547T741 621T547 640H427V174Z"  />
<glyph unicode="C" horiz-adv-x="1556" d="M1277 566L1458 465Q1397 233 1212 106T785 -22Q469 -22 278 183T87 690Q87 1021 279 1217T780 1413Q1053 1413 1239 1264V1391H1419V944H1239Q1179 1080 1054 1154T791 1229Q583 1229 450 1079T316 700Q316 465 459 316T798 167Q959 167 1091 270T1277 566Z"  />
<glyph unicode="D" horiz-adv-x="1493" d="M215 174V1217H26V1391H564Q787 1391 907 1368T1141 1264T1321 1042T1389 719Q1389 513 1324 361T1154 134T903 30T532 0H26V174H215ZM425 174H535Q719 174 826 197T1008 275T1128 443T1174 707Q1174 888 1099 1014T906 1178T544 1217H425V174Z"  />
<glyph unicode="E" horiz-adv-x="1280" d="M236 174V1217H56V1391H1212V972H1040V1217H446V803H963V629H446V174H1040V427H1212V0H56V174H236Z"  />
<glyph unicode="F" horiz-adv-x="1130" d="M213 174V1217H37V1391H1116V972H944V1217H423V805H872V631H423V174H601V0H37V174H213Z"  />
<glyph unicode="G" horiz-adv-x="1642" d="M1038 671H1544Q1545 644 1545 623Q1545 330 1353 154T846 -22Q469 -22 284 192T99 700Q99 1007 288 1210T801 1413Q1092 1413 1289 1236V1391H1466V934H1289Q1239 1049 1112 1138T820 1228Q592 1228 460 1074T328 703Q328 454 478 308T841 162Q1007 162 1137 254T1289 497H1038V671Z"  />
<glyph unicode="H" horiz-adv-x="1450" d="M213 174V1217H55V1391H587V1217H423V819H1028V1217H865V1391H1397V1217H1238V174H1397V0H865V174H1028V645H423V174H587V0H55V174H213Z"  />
<glyph unicode="I" horiz-adv-x="641" d="M215 174V1217H64V1391H576V1217H425V174H576V0H64V174H215Z"  />
<glyph unicode="J" horiz-adv-x="641" d="M-72 -413V-218Q6 -238 78 -238Q168 -238 197 -189T227 10V1217H49V1391H615V1217H437V0Q437 -157 414 -238T301 -378T88 -436Q3 -436 -72 -413Z"  />
<glyph unicode="K" horiz-adv-x="1280" d="M211 174V1217H37V1391H600V1217H421V174H581V0H37V174H211ZM428 734L874 1217H715V1391H1260V1217H1112L684 734L1124 174H1273V0H708V174H858L428 734Z"  />
<glyph unicode="L" horiz-adv-x="1067" d="M209 174V1217H29V1391H598V1217H427V174H853V647H1049V0H29V174H209Z"  />
<glyph unicode="M" horiz-adv-x="1792" d="M217 174V1217H50V1391H526L892 438L1262 1391H1743V1217H1575V174H1743V0H1219V174H1385V1217L905 -14H864L389 1217V174H542V0H50V174H217Z"  />
<glyph unicode="N" horiz-adv-x="1473" d="M209 174V1217H10V1391H485L1095 310V1217H898V1391H1469V1217H1264V-14H1048L381 1173V174H580V0H10V174H209Z"  />
<glyph unicode="O" horiz-adv-x="1642" d="M102 702Q102 1005 300 1209T816 1413Q1137 1413 1339 1209T1541 698Q1541 385 1336 182T813 -22Q611 -22 442 74T187 343T102 702ZM331 701Q331 472 465 317T817 162Q1033 162 1172 320T1311 699Q1311 921 1170 1074T814 1228Q601 1228 466 1077T331 701Z"  />
<glyph unicode="P" horiz-adv-x="1174" d="M216 174V1217H41V1391H538Q757 1391 866 1360T1048 1220T1122 961Q1122 842 1074 748T954 608T793 548T522 532H426V174H606V0H41V174H216ZM426 700H546Q751 700 830 758T909 965Q909 1059 867 1121T763 1200T556 1217H426V700Z"  />
<glyph unicode="Q" horiz-adv-x="1642" d="M916 -15L957 -33Q1120 -100 1208 -100Q1236 -100 1281 -91L1207 -263Q1177 -268 1152 -268Q1053 -268 879 -184Q729 -112 643 -112Q554 -112 500 -161L441 -76Q500 -12 595 8Q427 61 311 178T148 431T102 701Q102 996 297 1204T816 1413Q1140 1413 1340 1210T1540 698Q1540 534 1477 386T1261 119T916 -15ZM331 701Q331 472 465 317T817 162Q1033 162 1172 320T1311 699Q1311 921 1170 1074T814 1228Q601 1228 466 1077T331 701Z"  />
<glyph unicode="R" horiz-adv-x="1237" d="M217 174V1217H26V1391H591Q768 1391 872 1364T1044 1248T1112 1027Q1112 751 825 680L1071 174H1241V0H940L623 650H427V174H605V0H26V174H217ZM427 824H591Q710 824 766 839T859 902T895 1030Q895 1098 859 1145T769 1204T605 1217H427V824Z"  />
<glyph unicode="S" horiz-adv-x="1087" d="M71 0V505H245V382Q370 155 572 155Q675 155 746 218T817 383Q817 482 759 525T540 612Q353 662 263 706T120 833T66 1029Q66 1204 182 1308T475 1413Q642 1413 785 1305V1398H955V976H785V1073Q678 1234 490 1234Q376 1234 315 1182T254 1056Q254 1000 285 958T364 895T553 839Q737 791 820 750T963 611T1023 388Q1023 210 898 94T587 -22Q397 -22 245 115V0H71Z"  />
<glyph unicode="T" horiz-adv-x="1174" d="M483 174V1217H196V862H24V1391H1151V862H979V1217H693V174H874V0H305V174H483Z"  />
<glyph unicode="U" horiz-adv-x="1386" d="M409 1217V521Q409 359 425 297T508 192T678 148Q802 148 868 185T955 286T977 511V1217H816V1391H1360V1217H1186V490Q1186 343 1174 277T1106 138T951 22T708 -22Q550 -22 445 18T287 127T217 272T199 511V1217H27V1391H574V1217H409Z"  />
<glyph unicode="V" horiz-adv-x="1450" d="M635 -14L168 1217H-4V1391H545V1217H384L738 283L1083 1217H921V1391H1455V1217H1286L828 -14H635Z"  />
<glyph unicode="W" horiz-adv-x="2048" d="M521 -14L167 1217H0V1391H532V1217H365L628 307L881 1217H715V1391H1354V1217H1191L1445 307L1703 1217H1538V1391H2049V1217H1885L1538 -14H1339L1026 1086L715 -14H521Z"  />
<glyph unicode="X" horiz-adv-x="1343" d="M207 174L561 701L207 1217H28V1391H588V1217H431L672 864L915 1217H754V1391H1288V1217H1114L771 718L1144 174H1325V0H754V174H915L660 552L406 174H575V0H21V174H207Z"  />
<glyph unicode="Y" horiz-adv-x="1323" d="M563 174V633L149 1217H-21V1391H551V1217H376L683 788L963 1217H788V1391H1343V1217H1159L773 633V174H963V0H376V174H563Z"  />
<glyph unicode="Z" horiz-adv-x="1153" d="M51 0V174L796 1217H257V972H85V1391H1062V1237L304 174H913V443H1085V0H51Z"  />
<glyph unicode="[" horiz-adv-x="768" d="M709 1391V1252H405V-278H709V-417H215V1391H709Z"  />
<glyph unicode="\" horiz-adv-x="897" d="M176 1419L886 -22H720L10 1419H176Z"  />
<glyph unicode="]" horiz-adv-x="768" d="M59 1391H553V-417H59V-278H363V1252H59V1391Z"  />
<glyph unicode="^" horiz-adv-x="961" d="M239 590H54L407 1391H552L907 590H726L479 1187L239 590Z"  />
<glyph unicode="_" horiz-adv-x="1024" d="M-12 -154H1036V-256H-12V-154Z"  />
<glyph unicode="`" horiz-adv-x="682" d="M528 1096H400L111 1413H387L528 1096Z"  />
<glyph unicode="a" horiz-adv-x="1087" d="M1061 169V0H729V118Q591 -16 421 -16Q289 -16 192 70T94 290Q94 425 197 514T447 603Q583 603 710 521V617Q710 691 696 731T631 803T496 835Q353 835 289 721L107 769Q228 995 525 995Q634 995 713 966T832 890T884 789T898 617V169H1061ZM710 360Q587 456 461 456Q382 456 329 410T276 291Q276 223 322 177T449 131Q587 131 710 247V360Z"  />
<glyph unicode="b" horiz-adv-x="1323" d="M54 0V169H226V1222H54V1391H412V831Q555 995 763 995Q963 995 1098 858T1234 495Q1234 279 1102 132T762 -16Q646 -16 550 34T412 145V0H54ZM418 482Q418 331 510 243T724 154Q851 154 943 248T1035 500Q1035 653 944 737T729 822Q608 822 513 735T418 482Z"  />
<glyph unicode="c" horiz-adv-x="1067" d="M990 968V602H820Q807 707 735 763T566 819Q438 819 358 729T278 491Q278 354 354 250T574 145Q774 145 864 335L1021 261Q891 -28 566 -28Q336 -28 204 129T72 491Q72 710 216 852T548 995Q709 995 820 900V968H990Z"  />
<glyph unicode="d" horiz-adv-x="1280" d="M1275 169V0H911V142Q769 -16 565 -16Q376 -16 233 113T90 480Q90 719 237 857T569 995Q765 995 911 839V1222H725V1391H1101V169H1275ZM293 485Q293 325 383 239T600 153Q722 153 816 243T911 494Q911 655 815 737T598 819Q469 819 381 723T293 485Z"  />
<glyph unicode="e" horiz-adv-x="1174" d="M1098 436H284Q302 302 390 219T615 136Q814 136 930 296L1098 222Q1016 95 885 34T611 -28Q389 -28 232 110T74 484Q74 707 227 851T580 995Q775 995 933 855T1098 436ZM902 574Q882 676 796 758T585 841Q471 841 390 767T291 574H902Z"  />
<glyph unicode="f" horiz-adv-x="598" d="M197 169V799H56V967H197V1107Q197 1284 272 1351T449 1419Q669 1419 704 1196L535 1170Q525 1263 462 1263Q419 1263 403 1234T387 1107V967H553V799H387V169H571V0H56V169H197Z"  />
<glyph unicode="g" horiz-adv-x="1280" d="M1257 968V799H1083V78Q1083 -68 1068 -138T996 -282T823 -406T566 -456Q352 -456 184 -327L308 -189Q434 -287 582 -287Q664 -287 734 -256T838 -179T883 -94T893 43V131Q848 74 752 23T542 -28Q334 -28 203 116T72 470Q72 700 216 841T551 983Q743 983 893 830V968H1257ZM274 474Q274 327 359 234T578 141Q708 141 802 234T896 475Q896 624 802 714T584 805Q460 805 367 716T274 474Z"  />
<glyph unicode="h" horiz-adv-x="1174" d="M217 169V1222H42V1391H407V857Q578 995 732 995Q828 995 890 955T974 850T997 658V169H1162V0H807V592Q807 702 800 739T762 800T687 824Q577 824 407 699V169H575V0H42V169H217Z"  />
<glyph unicode="i" horiz-adv-x="598" d="M190 1297Q190 1343 222 1377T305 1411Q352 1411 386 1378T420 1297Q420 1249 386 1216T305 1182Q257 1182 224 1216T190 1297ZM217 169V799H66V968H407V169H556V0H66V169H217Z"  />
<glyph unicode="j" horiz-adv-x="598" d="M202 1297Q202 1344 236 1377T317 1411Q365 1411 398 1378T432 1297Q432 1249 398 1216T317 1182Q268 1182 235 1216T202 1297ZM-38 -416V-244Q10 -250 54 -250Q129 -250 166 -227T216 -160T229 113V799H77V968H419V144Q419 -105 403 -203T308 -363T74 -426Q15 -426 -38 -416Z"  />
<glyph unicode="k" horiz-adv-x="1174" d="M224 169V1222H50V1391H414V522L776 811H615V968H1150V811H1002L639 509L980 169H1150V0H901L414 487V169H581V0H50V169H224Z"  />
<glyph unicode="l" horiz-adv-x="598" d="M213 169V1222H41V1391H403V169H551V0H41V169H213Z"  />
<glyph unicode="m" horiz-adv-x="1772" d="M227 169V799H66V968H417V846Q589 983 754 983Q920 983 983 832Q1172 983 1335 983Q1429 983 1489 942T1571 837T1592 649V169H1761V0H1402V615Q1402 699 1395 733T1357 790T1283 813Q1161 813 1006 688V169H1172V0H816V633Q816 728 789 770T695 813Q587 813 417 688V169H587V0H54V169H227Z"  />
<glyph unicode="n" horiz-adv-x="1174" d="M415 968V851Q598 983 749 983Q843 983 904 939T985 830T1004 641V169H1167V0H814V633Q814 743 781 776T700 810Q574 810 415 687V169H582V0H55V169H225V799H55V968H415Z"  />
<glyph unicode="o" horiz-adv-x="1174" d="M78 484Q78 708 226 851T587 995Q796 995 946 854T1096 484Q1096 256 947 114T587 -28Q371 -28 225 116T78 484ZM279 484Q279 341 368 250T587 158Q718 158 806 250T895 484Q895 626 805 718T587 810Q453 810 366 716T279 484Z"  />
<glyph unicode="p" horiz-adv-x="1280" d="M191 -265V799H28V968H381V816Q523 983 725 983Q929 983 1062 843T1196 479Q1196 244 1051 108T721 -28Q529 -28 381 120V-265H569V-434H14V-265H191ZM378 470Q378 390 411 317T516 195T685 145Q821 145 909 236T998 486Q998 641 906 728T695 815Q569 815 474 721T378 470Z"  />
<glyph unicode="q" horiz-adv-x="1260" d="M1079 -265H1256V-434H701V-265H889V122Q745 -28 546 -28Q365 -28 220 107T74 481Q74 707 209 845T545 983Q747 983 889 816V968H1242V799H1079V-265ZM892 470Q892 626 797 720T575 815Q453 815 363 726T272 483Q272 342 353 244T583 145Q732 145 812 245T892 470Z"  />
<glyph unicode="r" horiz-adv-x="854" d="M240 169V799H45V968H392V750Q424 835 481 891T601 965T775 983H825V791H787Q642 791 571 762T465 657T430 382V169H641V0H45V169H240Z"  />
<glyph unicode="s" horiz-adv-x="938" d="M84 0V332H254V300Q263 232 327 188T480 144Q572 144 627 176T682 265Q682 320 637 346T456 394Q256 428 171 503T85 699Q85 820 178 901T423 983Q560 983 659 927V968H828V647H659V706Q582 825 435 825Q360 825 312 793T263 706Q263 651 307 631T499 587Q640 565 712 536T831 438T879 278Q879 143 776 64T507 -16Q352 -16 254 54V0H84Z"  />
<glyph unicode="t" horiz-adv-x="618" d="M62 799V968H188V1117L378 1291V968H557V799H378V329Q378 216 390 190T453 163Q506 163 557 183V10Q484 -16 411 -16Q324 -16 270 22T202 119T188 319V799H62Z"  />
<glyph unicode="u" horiz-adv-x="1153" d="M1133 169V0H776V111Q609 -16 456 -16Q359 -16 296 26T211 136T190 354V799H53V968H380V378Q380 271 386 234T421 173T494 149Q626 149 776 275V799H605V968H966V169H1133Z"  />
<glyph unicode="v" horiz-adv-x="1110" d="M483 -16L167 799H-4V968H483V799H357L565 250L774 799H640V968H1113V799H964L655 -16H483Z"  />
<glyph unicode="w" horiz-adv-x="1579" d="M374 -16L115 799H-3V968H405V799H278L463 215L648 799H542V968H1010V799H904L1089 215L1275 799H1142V968H1579V799H1440L1180 -16H1001L779 684L553 -16H374Z"  />
<glyph unicode="x" horiz-adv-x="1130" d="M569 385L381 169H505V0H36V169H179L470 498L192 799H61V968H516V799H395L569 612L737 799H638V968H1095V799H936L671 498L973 169H1095V0H638V169H772L569 385Z"  />
<glyph unicode="y" horiz-adv-x="1153" d="M496 17L178 799H17V968H496V799H380L589 263L794 799H666V968H1135V799H991L512 -434H191V-268H380L496 17Z"  />
<glyph unicode="z" horiz-adv-x="918" d="M33 0V158L640 811H242V625H80V968H866V799L257 158H700V356H866V0H33Z"  />
<glyph unicode="{" horiz-adv-x="682" d="M58 556Q130 558 178 592T245 691T265 924Q265 1139 289 1223T381 1349T581 1391H637V1242H606Q506 1242 470 1209T434 1049Q434 827 424 738T369 586T225 478Q330 438 382 349T434 55Q434 -133 439 -183T477 -259T606 -285H637V-434H581Q483 -434 427 -415T330 -344T277 -214T265 33Q265 201 246 266T178 365T58 401V556Z"  />
<glyph unicode="|" horiz-adv-x="1079" d="M461 1419H618V-456H461V1419Z"  />
<glyph unicode="}" horiz-adv-x="682" d="M624 401Q552 399 504 365T437 266T417 33Q417 -182 393 -266T301 -392T101 -434H45V-286H76Q176 -286 212 -253T248 -93Q248 130 258 219T313 370T457 478Q352 518 300 608T248 901Q248 1089 242 1139T204 1216T76 1242H45V1391H101Q199 1391 255 1372T352 1301T405 1171T417 924Q417 756 436 691T504 592T624 556V401Z"  />
<glyph unicode="~" horiz-adv-x="1194" d="M1145 666Q990 538 852 538Q791 538 733 556T540 637Q413 696 347 696Q212 696 49 556V725Q206 853 354 853Q447 853 647 759Q783 696 851 696Q984 696 1145 835V666Z"  />
<glyph unicode="&#xA0;" horiz-adv-x="512" />
<glyph unicode="&#xA1;" horiz-adv-x="598" d="M176 977H422V732H176V977ZM349 604L399 8V-410H197V8L247 604H349Z"  />
<glyph unicode="&#xA2;" horiz-adv-x="1067" d="M347 23Q222 91 152 218T82 491Q82 705 224 850T553 995Q623 995 686 973L843 1421H932L763 947Q800 927 830 900V973H1000V602H843Q821 730 706 788L483 161Q527 145 581 145Q784 145 874 335L1031 261Q901 -28 574 -28Q492 -28 423 -8L268 -442H181L347 23ZM410 202L628 814Q600 819 575 819Q446 819 367 728T288 491Q288 303 410 202Z"  />
<glyph unicode="&#xA3;" horiz-adv-x="1110" d="M572 597Q585 528 585 463Q585 365 554 260Q716 178 777 178Q934 178 950 353H1071Q1066 153 983 66T773 -22Q647 -22 481 100Q386 -22 262 -22Q184 -22 126 27T68 161Q68 252 130 305T273 358Q338 358 420 322Q422 350 422 364Q422 460 372 597H67V758H311Q232 957 232 1086Q232 1249 341 1331T600 1413Q758 1413 867 1326T977 1056Q977 1044 976 1021H785L787 1075Q787 1139 747 1196T609 1253Q427 1253 427 1092Q427 1010 524 758H773V597H572ZM382 175Q298 238 245 238Q214 238 191 218T167 162Q167 86 250 86Q323 86 382 175Z"  />
<glyph unicode="&#xA4;" horiz-adv-x="1366" d="M183 1089L287 1196L419 1065Q533 1152 681 1152Q824 1152 947 1065L1078 1196L1182 1089L1052 959Q1138 834 1138 691Q1138 549 1052 432L1182 303L1078 198L947 327Q822 239 678 239Q536 239 419 327L289 198L183 303L314 432Q228 564 228 702Q228 839 314 959L183 1089ZM683 1002Q557 1002 467 913T376 695Q376 568 466 478T683 388Q810 388 900 478T991 695Q991 823 901 912T683 1002Z"  />
<glyph unicode="&#xA5;" horiz-adv-x="1323" d="M875 788H1246V671H798L773 633V462H1246V345H773V174H963V0H376V174H563V345H76V462H563V633L537 671H76V788H454L149 1217H-21V1391H551V1217H376L683 788L963 1217H788V1391H1343V1217H1159L875 788Z"  />
<glyph unicode="&#xA6;" horiz-adv-x="1079" d="M461 1419H618V640H461V1419ZM461 322H618V-456H461V322Z"  />
<glyph unicode="&#xA7;" horiz-adv-x="981" d="M871 1050H683Q677 1158 612 1203T463 1249Q388 1249 333 1210T277 1102Q277 1033 336 989T557 887Q759 815 845 742T931 544Q931 365 734 251Q900 156 900 -17Q900 -157 796 -257T509 -358Q345 -358 234 -271T117 14H303Q306 -84 364 -135T513 -186Q608 -186 658 -143T709 -38Q709 23 651 68T420 174Q279 224 209 263T95 370T50 517Q50 691 253 804Q87 901 87 1078Q87 1228 196 1320T473 1413Q666 1413 768 1317T871 1068V1050ZM370 744Q230 668 230 568Q230 513 269 473T610 314Q757 385 757 496Q757 556 707 594T502 690Q429 718 370 744Z"  />
<glyph unicode="&#xA8;" horiz-adv-x="682" d="M49 1255Q49 1300 81 1333T160 1366Q206 1366 238 1334T271 1255Q271 1208 239 1176T160 1144Q115 1144 82 1176T49 1255ZM411 1255Q411 1299 442 1332T522 1366Q568 1366 600 1333T633 1255Q633 1209 601 1177T522 1144Q475 1144 443 1176T411 1255Z"  />
<glyph unicode="&#xA9;" horiz-adv-x="1516" d="M758 1413Q948 1413 1126 1317T1408 1040T1512 658Q1512 346 1292 125T758 -97Q445 -97 224 124T3 658Q3 861 106 1039T386 1315T758 1413ZM758 1287Q600 1287 451 1207T215 976T128 658Q128 398 312 214T758 29Q1019 29 1203 213T1387 658Q1387 919 1202 1103T758 1287ZM1000 535L1123 499Q1095 375 996 301T761 226Q635 226 544 283T408 437T363 656Q363 852 470 966T767 1081Q900 1081 989 1017T1108 845L989 816Q928 970 763 970Q636 970 568 880T499 653Q499 506 568 425T752 343Q837 343 908 393T1000 535Z"  />
<glyph unicode="&#xAA;" horiz-adv-x="705" d="M676 917V816H461V886Q372 806 261 806Q179 806 114 856T48 990Q48 1075 117 1126T279 1178Q365 1178 448 1128V1186Q448 1250 418 1283T310 1317Q217 1317 175 1248L56 1277Q135 1413 326 1413Q419 1413 476 1385T552 1315T571 1186V917H676ZM448 1032Q369 1089 289 1089Q233 1089 200 1061T166 990Q166 953 194 924T280 894Q368 894 448 963V1032Z"  />
<glyph unicode="&#xAB;" horiz-adv-x="981" d="M33 484L330 968H530L238 484L530 0H330L33 484ZM461 484L758 968H958L666 484L958 0H758L461 484Z"  />
<glyph unicode="&#xAC;" horiz-adv-x="1366" d="M135 1009H1231V382H1074V852H135V1009Z"  />
<glyph unicode="&#xAD;" horiz-adv-x="725" d="M63 575H663V385H63V575Z"  />
<glyph unicode="&#xAE;" horiz-adv-x="1516" d="M758 1413Q948 1413 1126 1317T1408 1040T1512 658Q1512 346 1292 125T758 -97Q445 -97 224 124T3 658Q3 861 106 1039T386 1315T758 1413ZM758 1287Q600 1287 451 1207T215 976T128 658Q128 398 312 214T758 29Q1019 29 1203 213T1387 658Q1387 919 1202 1103T758 1287ZM427 241V1052H706Q827 1052 893 1036T1006 963T1053 832Q1053 746 990 679T821 603Q896 582 1010 399L1109 241H949L877 369Q795 513 752 549T635 585H558V241H427ZM558 697H717Q914 697 914 821Q914 887 867 914T707 942H558V697Z"  />
<glyph unicode="&#xAF;" horiz-adv-x="1024" d="M-12 1647H1036V1545H-12V1647Z"  />
<glyph unicode="&#xB0;" horiz-adv-x="811" d="M406 1413Q548 1413 650 1312T752 1067Q752 925 651 823T406 721Q262 721 161 822T60 1067Q60 1210 161 1311T406 1413ZM406 1283Q318 1283 255 1220T191 1068Q191 979 254 916T406 853Q495 853 558 916T621 1068Q621 1159 557 1221T406 1283Z"  />
<glyph unicode="&#xB1;" horiz-adv-x="1366" d="M135 943H605V1413H761V943H1231V786H761V317H605V786H135V943ZM135 135H1231V-22H135V135Z"  />
<glyph unicode="&#xB2;" horiz-adv-x="682" d="M606 946L598 679H49Q49 796 111 880T341 1071Q416 1118 436 1146T456 1210Q456 1316 331 1316Q261 1316 232 1282T202 1167Q202 1148 204 1124H70V1160Q70 1413 335 1413Q456 1413 526 1357T597 1214Q597 1145 553 1096T381 969Q212 866 194 785H479V946H606Z"  />
<glyph unicode="&#xB3;" horiz-adv-x="682" d="M248 1005V1106Q378 1106 417 1127T456 1208Q456 1252 428 1284T341 1317Q217 1317 216 1174H78Q78 1413 337 1413Q461 1413 526 1357T592 1216Q592 1117 496 1058Q630 1011 630 887Q630 788 548 728T331 668Q41 668 41 933H173Q179 765 342 765Q411 765 450 797T489 884Q489 1006 289 1006Q276 1006 248 1005Z"  />
<glyph unicode="&#xB4;" horiz-adv-x="682" d="M156 1096L297 1413H573L284 1096H156Z"  />
<glyph unicode="&#xB5;" horiz-adv-x="1130" d="M993 968V0H832V126Q743 -25 563 -25Q408 -25 313 107V-434H135V968H313V612Q313 421 327 337T404 196T558 138Q649 138 716 193T799 328T816 609V968H993Z"  />
<glyph unicode="&#xB6;" horiz-adv-x="1110" d="M404 -434V563Q219 571 110 683T0 973Q0 1151 115 1271T473 1391H1106V1218H962V-434H795V1218H572V-434H404Z"  />
<glyph unicode="&#xB7;" horiz-adv-x="682" d="M465 695Q465 740 496 773T576 806Q622 806 654 774T687 695Q687 650 655 618T576 585Q531 585 498 617T465 695Z"  />
<glyph unicode="&#xB8;" horiz-adv-x="682" d="M422 21L401 -97Q543 -132 543 -260Q543 -357 463 -407T241 -457H169V-346Q275 -346 313 -328T352 -270Q352 -212 256 -212L297 21H422Z"  />
<glyph unicode="&#xB9;" horiz-adv-x="682" d="M267 778V1302H155V1400H404V778H510V679H155V778H267Z"  />
<glyph unicode="&#xBA;" horiz-adv-x="768" d="M53 1106Q53 1243 150 1328T384 1413Q521 1413 618 1328T715 1106Q715 969 618 884T384 799Q246 799 150 885T53 1106ZM184 1106Q184 1020 242 965T384 910Q467 910 525 965T584 1106Q584 1194 525 1247T384 1301Q302 1301 243 1248T184 1106Z"  />
<glyph unicode="&#xBB;" horiz-adv-x="981" d="M520 484L223 0H23L316 484L23 968H223L520 484ZM948 484L651 0H451L744 484L451 968H651L948 484Z"  />
<glyph unicode="&#xBC;" horiz-adv-x="1985" d="M267 778V1302H155V1400H404V778H510V679H155V778H267ZM250 0L1353 1389H1474L373 0H250ZM1291 190H1016Q1002 244 961 277L1308 728H1423V290H1554V190H1423V99H1498V0H1203V99H1291V190ZM1291 290V531L1105 290H1291Z"  />
<glyph unicode="&#xBD;" horiz-adv-x="1985" d="M252 778V1302H140V1400H389V778H495V679H140V778H252ZM199 0L1302 1389H1423L322 0H199ZM1581 266L1573 0H1025Q1025 117 1087 201T1317 392Q1390 438 1411 466T1432 531Q1432 637 1306 637Q1233 637 1206 600T1178 489Q1178 472 1180 445H1046Q1045 467 1045 483Q1045 614 1119 673T1311 733Q1432 733 1502 677T1573 535Q1573 466 1529 417T1357 290Q1188 187 1170 105H1455V266H1581Z"  />
<glyph unicode="&#xBE;" horiz-adv-x="1985" d="M332 1005V1106Q462 1106 501 1127T540 1208Q540 1252 512 1284T425 1317Q301 1317 300 1174H162Q162 1413 421 1413Q545 1413 610 1357T676 1216Q676 1117 580 1058Q714 1011 714 887Q714 788 632 728T415 668Q125 668 125 933H257Q263 765 426 765Q495 765 534 797T573 884Q573 1006 373 1006Q360 1006 332 1005ZM332 0L1435 1389H1556L452 0H332ZM1445 190H1170Q1156 244 1115 277L1462 728H1577V290H1708V190H1577V99H1652V0H1357V99H1445V190ZM1445 290V531L1259 290H1445Z"  />
<glyph unicode="&#xBF;" horiz-adv-x="961" d="M664 977V732H418V977H664ZM489 602H592L616 160Q569 172 521 172Q391 172 333 106T275 -50Q275 -158 337 -216T496 -274Q614 -274 670 -206T726 -36Q726 -14 725 14H912Q913 -14 913 -34Q913 -239 792 -337T502 -436Q298 -436 188 -328T78 -42Q78 129 183 231T432 333Q443 333 464 332L489 602Z"  />
<glyph unicode="&#xC0;" horiz-adv-x="1430" d="M970 489H470L363 174H532V0H-16V174H152L532 1234H363V1391H1074V1234H901L1290 174H1446V0H901V174H1074L970 489ZM918 652L733 1234H714L522 652H918ZM851 1473H723L434 1790H710L851 1473Z"  />
<glyph unicode="&#xC1;" horiz-adv-x="1430" d="M970 489H470L363 174H532V0H-16V174H152L532 1234H363V1391H1074V1234H901L1290 174H1446V0H901V174H1074L970 489ZM918 652L733 1234H714L522 652H918ZM579 1473L720 1790H996L707 1473H579Z"  />
<glyph unicode="&#xC2;" horiz-adv-x="1430" d="M970 489H470L363 174H532V0H-16V174H152L532 1234H363V1391H1074V1234H901L1290 174H1446V0H901V174H1074L970 489ZM918 652L733 1234H714L522 652H918ZM715 1650L550 1476H415L583 1788H850L1023 1476H882L715 1650Z"  />
<glyph unicode="&#xC3;" horiz-adv-x="1430" d="M970 489H470L363 174H532V0H-16V174H152L532 1234H363V1391H1074V1234H901L1290 174H1446V0H901V174H1074L970 489ZM918 652L733 1234H714L522 652H918ZM939 1768H1051Q1047 1614 993 1552T868 1490Q797 1490 687 1557Q590 1615 560 1615Q529 1615 516 1591T503 1505H388Q389 1649 442 1711T570 1773Q630 1773 754 1701Q840 1650 868 1650Q935 1650 939 1768Z"  />
<glyph unicode="&#xC4;" horiz-adv-x="1430" d="M970 489H470L363 174H532V0H-16V174H152L532 1234H363V1391H1074V1234H901L1290 174H1446V0H901V174H1074L970 489ZM918 652L733 1234H714L522 652H918ZM427 1617Q427 1662 459 1695T538 1728Q584 1728 616 1696T649 1617Q649 1570 617 1538T538 1506Q493 1506 460 1538T427 1617ZM789 1617Q789 1661 820 1694T900 1728Q946 1728 978 1695T1011 1617Q1011 1571 979 1539T900 1506Q853 1506 821 1538T789 1617Z"  />
<glyph unicode="&#xC5;" horiz-adv-x="1430" d="M634 1391Q498 1449 498 1593Q498 1682 561 1746T715 1810Q806 1810 869 1746T932 1593Q932 1449 796 1391H1074V1234H901L1290 174H1446V0H901V174H1074L970 489H470L363 174H532V0H-16V174H152L532 1234H363V1391H634ZM594 1592Q594 1544 629 1508T715 1472Q765 1472 800 1507T836 1592Q836 1642 801 1677T715 1713Q665 1713 630 1678T594 1592ZM918 652L733 1234H714L522 652H918Z"  />
<glyph unicode="&#xC6;" horiz-adv-x="1921" d="M853 634H460L221 174H372V0H-121V174H13L551 1217H331V1391H1837V972H1665V1217H1063V808H1585V634H1063V174H1665V428H1837V0H630V174H853V634ZM853 808V1217H762L547 808H853Z"  />
<glyph unicode="&#xC7;" horiz-adv-x="1556" d="M733 -20Q430 2 259 204T87 689Q87 1020 279 1216T780 1413Q1053 1413 1239 1264V1391H1419V944H1239Q1179 1080 1054 1154T791 1229Q583 1229 450 1079T316 700Q316 463 459 315T798 167Q953 167 1088 268T1277 566L1458 465Q1404 258 1246 131T858 -19L844 -97Q985 -132 985 -260Q985 -341 917 -399T684 -457H612V-346Q720 -346 757 -327T795 -270Q795 -212 699 -212L733 -20Z"  />
<glyph unicode="&#xC8;" horiz-adv-x="1280" d="M236 174V1217H56V1391H1212V972H1040V1217H446V803H963V629H446V174H1040V427H1212V0H56V174H236ZM782 1473H654L365 1790H641L782 1473Z"  />
<glyph unicode="&#xC9;" horiz-adv-x="1280" d="M236 174V1217H56V1391H1212V972H1040V1217H446V803H963V629H446V174H1040V427H1212V0H56V174H236ZM510 1473L651 1790H927L638 1473H510Z"  />
<glyph unicode="&#xCA;" horiz-adv-x="1280" d="M236 174V1217H56V1391H1212V972H1040V1217H446V803H963V629H446V174H1040V427H1212V0H56V174H236ZM630 1650L465 1476H330L498 1788H765L938 1476H797L630 1650Z"  />
<glyph unicode="&#xCB;" horiz-adv-x="1280" d="M236 174V1217H56V1391H1212V972H1040V1217H446V803H963V629H446V174H1040V427H1212V0H56V174H236ZM342 1617Q342 1662 374 1695T453 1728Q499 1728 531 1696T564 1617Q564 1570 532 1538T453 1506Q408 1506 375 1538T342 1617ZM704 1617Q704 1661 735 1694T815 1728Q861 1728 893 1695T926 1617Q926 1571 894 1539T815 1506Q768 1506 736 1538T704 1617Z"  />
<glyph unicode="&#xCC;" horiz-adv-x="641" d="M215 174V1217H64V1391H576V1217H425V174H576V0H64V174H215ZM483 1473H355L66 1790H342L483 1473Z"  />
<glyph unicode="&#xCD;" horiz-adv-x="641" d="M215 174V1217H64V1391H576V1217H425V174H576V0H64V174H215ZM178 1473L319 1790H595L306 1473H178Z"  />
<glyph unicode="&#xCE;" horiz-adv-x="641" d="M215 174V1217H64V1391H576V1217H425V174H576V0H64V174H215ZM317 1650L152 1476H17L185 1788H452L625 1476H484L317 1650Z"  />
<glyph unicode="&#xCF;" horiz-adv-x="641" d="M215 174V1217H64V1391H576V1217H425V174H576V0H64V174H215ZM29 1617Q29 1662 61 1695T140 1728Q186 1728 218 1696T251 1617Q251 1570 219 1538T140 1506Q95 1506 62 1538T29 1617ZM391 1617Q391 1661 422 1694T502 1728Q548 1728 580 1695T613 1617Q613 1571 581 1539T502 1506Q455 1506 423 1538T391 1617Z"  />
<glyph unicode="&#xD0;" horiz-adv-x="1493" d="M216 621H8V770H216V1217H27V1391H565Q788 1391 908 1368T1142 1264T1322 1042T1390 719Q1390 513 1325 361T1154 134T903 30T533 0H27V174H216V621ZM426 621V174H535Q720 174 827 197T1009 275T1129 443T1175 707Q1175 888 1100 1014T907 1178T544 1217H426V770H743V621H426Z"  />
<glyph unicode="&#xD1;" horiz-adv-x="1473" d="M209 174V1217H10V1391H485L1095 310V1217H898V1391H1469V1217H1264V-14H1048L381 1173V174H580V0H10V174H209ZM959 1768H1071Q1067 1614 1013 1552T888 1490Q817 1490 707 1557Q610 1615 580 1615Q549 1615 536 1591T523 1505H408Q409 1649 462 1711T590 1773Q650 1773 774 1701Q860 1650 888 1650Q955 1650 959 1768Z"  />
<glyph unicode="&#xD2;" horiz-adv-x="1642" d="M102 702Q102 1005 300 1209T816 1413Q1137 1413 1339 1209T1541 698Q1541 385 1336 182T813 -22Q611 -22 442 74T187 343T102 702ZM331 701Q331 472 465 317T817 162Q1033 162 1172 320T1311 699Q1311 921 1170 1074T814 1228Q601 1228 466 1077T331 701ZM921 1473H793L504 1790H780L921 1473Z"  />
<glyph unicode="&#xD3;" horiz-adv-x="1642" d="M102 702Q102 1005 300 1209T816 1413Q1137 1413 1339 1209T1541 698Q1541 385 1336 182T813 -22Q611 -22 442 74T187 343T102 702ZM331 701Q331 472 465 317T817 162Q1033 162 1172 320T1311 699Q1311 921 1170 1074T814 1228Q601 1228 466 1077T331 701ZM721 1473L862 1790H1138L849 1473H721Z"  />
<glyph unicode="&#xD4;" horiz-adv-x="1642" d="M102 702Q102 1005 300 1209T816 1413Q1137 1413 1339 1209T1541 698Q1541 385 1336 182T813 -22Q611 -22 442 74T187 343T102 702ZM331 701Q331 472 465 317T817 162Q1033 162 1172 320T1311 699Q1311 921 1170 1074T814 1228Q601 1228 466 1077T331 701ZM818 1650L653 1476H518L686 1788H953L1126 1476H985L818 1650Z"  />
<glyph unicode="&#xD5;" horiz-adv-x="1642" d="M102 702Q102 1005 300 1209T816 1413Q1137 1413 1339 1209T1541 698Q1541 385 1336 182T813 -22Q611 -22 442 74T187 343T102 702ZM331 701Q331 472 465 317T817 162Q1033 162 1172 320T1311 699Q1311 921 1170 1074T814 1228Q601 1228 466 1077T331 701ZM1041 1768H1153Q1149 1614 1095 1552T970 1490Q899 1490 789 1557Q692 1615 662 1615Q631 1615 618 1591T605 1505H490Q491 1649 544 1711T672 1773Q732 1773 856 1701Q942 1650 970 1650Q1037 1650 1041 1768Z"  />
<glyph unicode="&#xD6;" horiz-adv-x="1642" d="M102 702Q102 1005 300 1209T816 1413Q1137 1413 1339 1209T1541 698Q1541 385 1336 182T813 -22Q611 -22 442 74T187 343T102 702ZM331 701Q331 472 465 317T817 162Q1033 162 1172 320T1311 699Q1311 921 1170 1074T814 1228Q601 1228 466 1077T331 701ZM529 1617Q529 1662 561 1695T640 1728Q686 1728 718 1696T751 1617Q751 1570 719 1538T640 1506Q595 1506 562 1538T529 1617ZM891 1617Q891 1661 922 1694T1002 1728Q1048 1728 1080 1695T1113 1617Q1113 1571 1081 1539T1002 1506Q955 1506 923 1538T891 1617Z"  />
<glyph unicode="&#xD7;" horiz-adv-x="1366" d="M176 300L572 695L176 1091L287 1202L683 806L1079 1202L1190 1091L794 695L1190 300L1079 189L683 585L287 189L176 300Z"  />
<glyph unicode="&#xD8;" horiz-adv-x="1642" d="M1354 1194Q1541 996 1541 696Q1541 385 1335 182T817 -22Q573 -22 390 107L277 -20L175 66L289 195Q102 402 102 707Q102 1002 300 1207T815 1413Q1068 1413 1252 1282L1365 1410L1467 1322L1354 1194ZM433 357L1114 1126Q982 1228 815 1228Q601 1228 466 1077T331 702Q331 506 433 357ZM1207 1029L526 261Q652 162 818 162Q1032 162 1171 321T1311 698Q1311 886 1207 1029Z"  />
<glyph unicode="&#xD9;" horiz-adv-x="1386" d="M409 1217V521Q409 359 425 297T508 192T678 148Q802 148 868 185T955 286T977 511V1217H816V1391H1360V1217H1186V490Q1186 343 1174 277T1106 138T951 22T708 -22Q550 -22 445 18T287 127T217 272T199 511V1217H27V1391H574V1217H409ZM805 1473H677L388 1790H664L805 1473Z"  />
<glyph unicode="&#xDA;" horiz-adv-x="1386" d="M409 1217V521Q409 359 425 297T508 192T678 148Q802 148 868 185T955 286T977 511V1217H816V1391H1360V1217H1186V490Q1186 343 1174 277T1106 138T951 22T708 -22Q550 -22 445 18T287 127T217 272T199 511V1217H27V1391H574V1217H409ZM581 1473L722 1790H998L709 1473H581Z"  />
<glyph unicode="&#xDB;" horiz-adv-x="1386" d="M409 1217V521Q409 359 425 297T508 192T678 148Q802 148 868 185T955 286T977 511V1217H816V1391H1360V1217H1186V490Q1186 343 1174 277T1106 138T951 22T708 -22Q550 -22 445 18T287 127T217 272T199 511V1217H27V1391H574V1217H409ZM690 1650L525 1476H390L558 1788H825L998 1476H857L690 1650Z"  />
<glyph unicode="&#xDC;" horiz-adv-x="1386" d="M409 1217V521Q409 359 425 297T508 192T678 148Q802 148 868 185T955 286T977 511V1217H816V1391H1360V1217H1186V490Q1186 343 1174 277T1106 138T951 22T708 -22Q550 -22 445 18T287 127T217 272T199 511V1217H27V1391H574V1217H409ZM402 1617Q402 1662 434 1695T513 1728Q559 1728 591 1696T624 1617Q624 1570 592 1538T513 1506Q468 1506 435 1538T402 1617ZM764 1617Q764 1661 795 1694T875 1728Q921 1728 953 1695T986 1617Q986 1571 954 1539T875 1506Q828 1506 796 1538T764 1617Z"  />
<glyph unicode="&#xDD;" horiz-adv-x="1323" d="M563 174V633L149 1217H-21V1391H551V1217H376L683 788L963 1217H788V1391H1343V1217H1159L773 633V174H963V0H376V174H563ZM579 1473L720 1790H996L707 1473H579Z"  />
<glyph unicode="&#xDE;" horiz-adv-x="1174" d="M216 174V1217H41V1391H606V1217H426V1125H538Q757 1125 866 1094T1048 954T1122 695Q1122 576 1074 482T954 342T793 282T522 266H426V174H606V0H41V174H216ZM426 434H546Q751 434 830 492T909 699Q909 793 867 855T763 934T556 951H426V434Z"  />
<glyph unicode="&#xDF;" horiz-adv-x="1323" d="M418 169H568V0H56V169H228V840Q228 1054 262 1163T410 1345T685 1419Q863 1419 983 1329T1103 1078Q1103 888 924 799Q1073 768 1151 659T1230 402Q1230 213 1127 99T851 -16Q756 -16 678 22V182Q740 147 805 147Q907 147 968 217T1030 404Q1030 508 982 576T864 670T678 698V855Q784 855 844 913T905 1059Q905 1146 845 1199T687 1253Q582 1253 521 1210T439 1087T418 840V169Z"  />
<glyph unicode="&#xE0;" horiz-adv-x="1087" d="M1061 169V0H729V118Q591 -16 421 -16Q289 -16 192 70T94 290Q94 425 197 514T447 603Q583 603 710 521V617Q710 691 696 731T631 803T496 835Q353 835 289 721L107 769Q228 995 525 995Q634 995 713 966T832 890T884 789T898 617V169H1061ZM710 360Q587 456 461 456Q382 456 329 410T276 291Q276 223 322 177T449 131Q587 131 710 247V360ZM708 1096H580L291 1413H567L708 1096Z"  />
<glyph unicode="&#xE1;" horiz-adv-x="1087" d="M1061 169V0H729V118Q591 -16 421 -16Q289 -16 192 70T94 290Q94 425 197 514T447 603Q583 603 710 521V617Q710 691 696 731T631 803T496 835Q353 835 289 721L107 769Q228 995 525 995Q634 995 713 966T832 890T884 789T898 617V169H1061ZM710 360Q587 456 461 456Q382 456 329 410T276 291Q276 223 322 177T449 131Q587 131 710 247V360ZM356 1096L497 1413H773L484 1096H356Z"  />
<glyph unicode="&#xE2;" horiz-adv-x="1087" d="M1061 169V0H729V118Q591 -16 421 -16Q289 -16 192 70T94 290Q94 425 197 514T447 603Q583 603 710 521V617Q710 691 696 731T631 803T496 835Q353 835 289 721L107 769Q228 995 525 995Q634 995 713 966T832 890T884 789T898 617V169H1061ZM710 360Q587 456 461 456Q382 456 329 410T276 291Q276 223 322 177T449 131Q587 131 710 247V360ZM522 1273L357 1099H222L390 1411H657L830 1099H689L522 1273Z"  />
<glyph unicode="&#xE3;" horiz-adv-x="1087" d="M1061 169V0H729V118Q591 -16 421 -16Q289 -16 192 70T94 290Q94 425 197 514T447 603Q583 603 710 521V617Q710 691 696 731T631 803T496 835Q353 835 289 721L107 769Q228 995 525 995Q634 995 713 966T832 890T884 789T898 617V169H1061ZM710 360Q587 456 461 456Q382 456 329 410T276 291Q276 223 322 177T449 131Q587 131 710 247V360ZM746 1391H858Q854 1237 800 1175T675 1113Q604 1113 494 1180Q397 1238 367 1238Q336 1238 323 1214T310 1128H195Q196 1272 249 1334T377 1396Q437 1396 561 1324Q647 1273 675 1273Q742 1273 746 1391Z"  />
<glyph unicode="&#xE4;" horiz-adv-x="1087" d="M1061 169V0H729V118Q591 -16 421 -16Q289 -16 192 70T94 290Q94 425 197 514T447 603Q583 603 710 521V617Q710 691 696 731T631 803T496 835Q353 835 289 721L107 769Q228 995 525 995Q634 995 713 966T832 890T884 789T898 617V169H1061ZM710 360Q587 456 461 456Q382 456 329 410T276 291Q276 223 322 177T449 131Q587 131 710 247V360ZM229 1255Q229 1300 261 1333T340 1366Q386 1366 418 1334T451 1255Q451 1208 419 1176T340 1144Q295 1144 262 1176T229 1255ZM591 1255Q591 1299 622 1332T702 1366Q748 1366 780 1333T813 1255Q813 1209 781 1177T702 1144Q655 1144 623 1176T591 1255Z"  />
<glyph unicode="&#xE5;" horiz-adv-x="1087" d="M1061 169V0H729V118Q591 -16 421 -16Q289 -16 192 70T94 290Q94 425 197 514T447 603Q583 603 710 521V617Q710 691 696 731T631 803T496 835Q353 835 289 721L107 769Q228 995 525 995Q634 995 713 966T832 890T884 789T898 617V169H1061ZM710 360Q587 456 461 456Q382 456 329 410T276 291Q276 223 322 177T449 131Q587 131 710 247V360ZM322 1255Q322 1334 379 1394T521 1454Q604 1454 662 1396T720 1255Q720 1173 662 1115T521 1056Q436 1056 379 1115T322 1255ZM400 1255Q400 1206 435 1170T521 1134Q571 1134 606 1169T642 1255Q642 1304 607 1339T521 1375Q469 1375 435 1339T400 1255Z"  />
<glyph unicode="&#xE6;" horiz-adv-x="1812" d="M1725 435H939Q948 300 1042 218T1259 136Q1345 136 1426 179T1556 290L1725 215Q1661 104 1534 38T1264 -28Q993 -28 832 180Q780 103 672 38T437 -28Q291 -28 188 54T85 278Q85 428 202 512T463 597Q602 597 745 516V616Q745 698 728 738T659 806T523 835Q352 835 280 717L96 768Q226 995 543 995Q781 995 888 845Q1023 995 1231 995Q1443 995 1582 837T1725 435ZM1518 579Q1496 699 1414 763T1227 828Q1123 828 1042 760T938 579H1518ZM745 347Q624 442 492 442Q403 442 348 396T292 277Q292 209 346 168T472 127Q628 127 745 250V347Z"  />
<glyph unicode="&#xE7;" horiz-adv-x="1067" d="M597 -27L584 -97Q726 -132 726 -260Q726 -340 657 -398T424 -457H352V-346Q458 -346 497 -328T536 -270Q536 -212 439 -212L474 -21Q294 7 183 155T72 491Q72 710 216 852T548 995Q709 995 820 900V968H990V602H820Q807 707 735 763T566 819Q438 819 358 729T278 491Q278 354 354 250T574 145Q774 145 864 335L1021 261Q899 -9 597 -27Z"  />
<glyph unicode="&#xE8;" horiz-adv-x="1174" d="M1098 436H284Q302 302 390 219T615 136Q814 136 930 296L1098 222Q1016 95 885 34T611 -28Q389 -28 232 110T74 484Q74 707 227 851T580 995Q775 995 933 855T1098 436ZM902 574Q882 676 796 758T585 841Q471 841 390 767T291 574H902ZM740 1096H612L323 1413H599L740 1096Z"  />
<glyph unicode="&#xE9;" horiz-adv-x="1174" d="M1098 436H284Q302 302 390 219T615 136Q814 136 930 296L1098 222Q1016 95 885 34T611 -28Q389 -28 232 110T74 484Q74 707 227 851T580 995Q775 995 933 855T1098 436ZM902 574Q882 676 796 758T585 841Q471 841 390 767T291 574H902ZM438 1096L579 1413H855L566 1096H438Z"  />
<glyph unicode="&#xEA;" horiz-adv-x="1174" d="M1098 436H284Q302 302 390 219T615 136Q814 136 930 296L1098 222Q1016 95 885 34T611 -28Q389 -28 232 110T74 484Q74 707 227 851T580 995Q775 995 933 855T1098 436ZM902 574Q882 676 796 758T585 841Q471 841 390 767T291 574H902ZM582 1273L417 1099H282L450 1411H717L890 1099H749L582 1273Z"  />
<glyph unicode="&#xEB;" horiz-adv-x="1174" d="M1098 436H284Q302 302 390 219T615 136Q814 136 930 296L1098 222Q1016 95 885 34T611 -28Q389 -28 232 110T74 484Q74 707 227 851T580 995Q775 995 933 855T1098 436ZM902 574Q882 676 796 758T585 841Q471 841 390 767T291 574H902ZM294 1255Q294 1300 326 1333T405 1366Q451 1366 483 1334T516 1255Q516 1208 484 1176T405 1144Q360 1144 327 1176T294 1255ZM656 1255Q656 1299 687 1332T767 1366Q813 1366 845 1333T878 1255Q878 1209 846 1177T767 1144Q720 1144 688 1176T656 1255Z"  />
<glyph unicode="&#xEC;" horiz-adv-x="598" d="M217 169V799H66V968H407V169H556V0H66V169H217ZM442 1096H314L25 1413H301L442 1096Z"  />
<glyph unicode="&#xED;" horiz-adv-x="598" d="M217 169V799H66V968H407V169H556V0H66V169H217ZM146 1096L287 1413H563L274 1096H146Z"  />
<glyph unicode="&#xEE;" horiz-adv-x="598" d="M217 169V799H66V968H407V169H556V0H66V169H217ZM297 1273L132 1099H-3L165 1411H432L605 1099H464L297 1273Z"  />
<glyph unicode="&#xEF;" horiz-adv-x="598" d="M217 169V799H66V968H407V169H556V0H66V169H217ZM9 1255Q9 1300 41 1333T120 1366Q166 1366 198 1334T231 1255Q231 1208 199 1176T120 1144Q75 1144 42 1176T9 1255ZM371 1255Q371 1299 402 1332T482 1366Q528 1366 560 1333T593 1255Q593 1209 561 1177T482 1144Q435 1144 403 1176T371 1255Z"  />
<glyph unicode="&#xF0;" horiz-adv-x="1174" d="M704 1317L882 1391L915 1312L767 1251Q1094 885 1094 533Q1094 290 951 131T579 -28Q351 -28 215 129T79 487Q79 621 140 734T307 921T551 995Q695 995 814 906Q728 1064 617 1188L304 1057L271 1136L555 1255Q501 1311 412 1391H616Q665 1354 704 1317ZM581 813Q457 813 368 723T279 479Q279 343 362 249T582 155Q714 155 803 254T892 490Q892 598 840 674T712 782T581 813Z"  />
<glyph unicode="&#xF1;" horiz-adv-x="1174" d="M415 968V851Q598 983 749 983Q843 983 904 939T985 830T1004 641V169H1167V0H814V633Q814 743 781 776T700 810Q574 810 415 687V169H582V0H55V169H225V799H55V968H415ZM831 1391H943Q939 1237 885 1175T760 1113Q689 1113 579 1180Q482 1238 452 1238Q421 1238 408 1214T395 1128H280Q281 1272 334 1334T462 1396Q522 1396 646 1324Q732 1273 760 1273Q827 1273 831 1391Z"  />
<glyph unicode="&#xF2;" horiz-adv-x="1174" d="M78 484Q78 708 226 851T587 995Q796 995 946 854T1096 484Q1096 256 947 114T587 -28Q371 -28 225 116T78 484ZM279 484Q279 341 368 250T587 158Q718 158 806 250T895 484Q895 626 805 718T587 810Q453 810 366 716T279 484ZM723 1096H595L306 1413H582L723 1096Z"  />
<glyph unicode="&#xF3;" horiz-adv-x="1174" d="M78 484Q78 708 226 851T587 995Q796 995 946 854T1096 484Q1096 256 947 114T587 -28Q371 -28 225 116T78 484ZM279 484Q279 341 368 250T587 158Q718 158 806 250T895 484Q895 626 805 718T587 810Q453 810 366 716T279 484ZM451 1096L592 1413H868L579 1096H451Z"  />
<glyph unicode="&#xF4;" horiz-adv-x="1174" d="M78 484Q78 708 226 851T587 995Q796 995 946 854T1096 484Q1096 256 947 114T587 -28Q371 -28 225 116T78 484ZM279 484Q279 341 368 250T587 158Q718 158 806 250T895 484Q895 626 805 718T587 810Q453 810 366 716T279 484ZM583 1273L418 1099H283L451 1411H718L891 1099H750L583 1273Z"  />
<glyph unicode="&#xF5;" horiz-adv-x="1174" d="M78 484Q78 708 226 851T587 995Q796 995 946 854T1096 484Q1096 256 947 114T587 -28Q371 -28 225 116T78 484ZM279 484Q279 341 368 250T587 158Q718 158 806 250T895 484Q895 626 805 718T587 810Q453 810 366 716T279 484ZM807 1391H919Q915 1237 861 1175T736 1113Q665 1113 555 1180Q458 1238 428 1238Q397 1238 384 1214T371 1128H256Q257 1272 310 1334T438 1396Q498 1396 622 1324Q708 1273 736 1273Q803 1273 807 1391Z"  />
<glyph unicode="&#xF6;" horiz-adv-x="1174" d="M78 484Q78 708 226 851T587 995Q796 995 946 854T1096 484Q1096 256 947 114T587 -28Q371 -28 225 116T78 484ZM279 484Q279 341 368 250T587 158Q718 158 806 250T895 484Q895 626 805 718T587 810Q453 810 366 716T279 484ZM295 1255Q295 1300 327 1333T406 1366Q452 1366 484 1334T517 1255Q517 1208 485 1176T406 1144Q361 1144 328 1176T295 1255ZM657 1255Q657 1299 688 1332T768 1366Q814 1366 846 1333T879 1255Q879 1209 847 1177T768 1144Q721 1144 689 1176T657 1255Z"  />
<glyph unicode="&#xF7;" horiz-adv-x="1366" d="M683 1212Q723 1212 752 1184T781 1114Q781 1073 752 1045T683 1017Q643 1017 614 1045T585 1114Q585 1157 614 1184T683 1212ZM135 774H1231V617H135V774ZM683 374Q723 374 752 346T781 277Q781 236 752 208T683 179Q643 179 614 207T585 277Q585 318 614 346T683 374Z"  />
<glyph unicode="&#xF8;" horiz-adv-x="1174" d="M220 120Q78 266 78 485Q78 708 227 851T586 995Q755 995 887 902L984 1016L1050 958L954 845Q1096 701 1096 483Q1096 259 947 116T589 -28Q422 -28 289 63L192 -51L123 7L220 120ZM349 271L761 755Q681 810 587 810Q459 810 369 718T279 485Q279 360 349 271ZM826 694L415 211Q493 158 588 158Q711 158 803 247T895 483Q895 608 826 694Z"  />
<glyph unicode="&#xF9;" horiz-adv-x="1153" d="M1133 169V0H776V111Q609 -16 456 -16Q359 -16 296 26T211 136T190 354V799H53V968H380V378Q380 271 386 234T421 173T494 149Q626 149 776 275V799H605V968H966V169H1133ZM739 1096H611L322 1413H598L739 1096Z"  />
<glyph unicode="&#xFA;" horiz-adv-x="1153" d="M1133 169V0H776V111Q609 -16 456 -16Q359 -16 296 26T211 136T190 354V799H53V968H380V378Q380 271 386 234T421 173T494 149Q626 149 776 275V799H605V968H966V169H1133ZM433 1096L574 1413H850L561 1096H433Z"  />
<glyph unicode="&#xFB;" horiz-adv-x="1153" d="M1133 169V0H776V111Q609 -16 456 -16Q359 -16 296 26T211 136T190 354V799H53V968H380V378Q380 271 386 234T421 173T494 149Q626 149 776 275V799H605V968H966V169H1133ZM589 1273L424 1099H289L457 1411H724L897 1099H756L589 1273Z"  />
<glyph unicode="&#xFC;" horiz-adv-x="1153" d="M1133 169V0H776V111Q609 -16 456 -16Q359 -16 296 26T211 136T190 354V799H53V968H380V378Q380 271 386 234T421 173T494 149Q626 149 776 275V799H605V968H966V169H1133ZM301 1255Q301 1300 333 1333T412 1366Q458 1366 490 1334T523 1255Q523 1208 491 1176T412 1144Q367 1144 334 1176T301 1255ZM663 1255Q663 1299 694 1332T774 1366Q820 1366 852 1333T885 1255Q885 1209 853 1177T774 1144Q727 1144 695 1176T663 1255Z"  />
<glyph unicode="&#xFD;" horiz-adv-x="1153" d="M496 17L178 799H17V968H496V799H380L589 263L794 799H666V968H1135V799H991L512 -434H191V-268H380L496 17ZM462 1096L603 1413H879L590 1096H462Z"  />
<glyph unicode="&#xFE;" horiz-adv-x="1280" d="M191 -265V1222H28V1391H381V816Q523 983 725 983Q929 983 1062 843T1196 479Q1196 244 1051 108T721 -28Q529 -28 381 120V-265H569V-434H14V-265H191ZM378 470Q378 390 411 317T516 195T685 145Q821 145 909 236T998 486Q998 641 906 728T695 815Q569 815 474 721T378 470Z"  />
<glyph unicode="&#xFF;" horiz-adv-x="1153" d="M496 17L178 799H17V968H496V799H380L589 263L794 799H666V968H1135V799H991L512 -434H191V-268H380L496 17ZM296 1255Q296 1300 328 1333T407 1366Q453 1366 485 1334T518 1255Q518 1208 486 1176T407 1144Q362 1144 329 1176T296 1255ZM658 1255Q658 1299 689 1332T769 1366Q815 1366 847 1333T880 1255Q880 1209 848 1177T769 1144Q722 1144 690 1176T658 1255Z"  />
<glyph unicode="&#x131;" horiz-adv-x="598" d="M217 169V799H66V968H407V169H556V0H66V169H217Z"  />
<glyph unicode="&#x152;" horiz-adv-x="2091" d="M1256 1217V808H1771V634H1256V174H1852V425H2023V0H969Q722 0 613 18T373 122T163 360T82 682Q82 860 155 1012T338 1245T573 1359T921 1391H2023V972H1852V1217H1256ZM1046 1217H864Q722 1217 637 1197T470 1116T340 946T291 696Q291 513 367 390T566 221T890 174H1046V1217Z"  />
<glyph unicode="&#x153;" horiz-adv-x="1942" d="M1862 435H1062Q1068 315 1155 227T1377 139Q1565 139 1695 298L1862 226Q1780 92 1647 32T1380 -28Q1117 -28 963 169Q824 -28 579 -28Q369 -28 221 115T73 485Q73 630 141 746T331 929T573 995Q805 995 963 799Q1107 995 1351 995Q1564 995 1713 837T1862 435ZM1648 579Q1626 693 1540 759T1346 826Q1243 826 1166 762T1067 579H1648ZM279 481Q279 337 365 247T578 156Q708 156 790 250T873 487Q873 645 776 724T573 803Q448 803 364 712T279 481Z"  />
<glyph unicode="&#x160;" horiz-adv-x="1087" d="M71 0V505H245V382Q370 155 572 155Q675 155 746 218T817 383Q817 482 759 525T540 612Q353 662 263 706T120 833T66 1029Q66 1204 182 1308T475 1413Q642 1413 785 1305V1398H955V976H785V1073Q678 1234 490 1234Q376 1234 315 1182T254 1056Q254 1000 285 958T364 895T553 839Q737 791 820 750T963 611T1023 388Q1023 210 898 94T587 -22Q397 -22 245 115V0H71ZM525 1613L691 1788H825L657 1476H391L217 1788H358L525 1613Z"  />
<glyph unicode="&#x161;" horiz-adv-x="938" d="M84 0V332H254V300Q263 232 327 188T480 144Q572 144 627 176T682 265Q682 320 637 346T456 394Q256 428 171 503T85 699Q85 820 178 901T423 983Q560 983 659 927V968H828V647H659V706Q582 825 435 825Q360 825 312 793T263 706Q263 651 307 631T499 587Q640 565 712 536T831 438T879 278Q879 143 776 64T507 -16Q352 -16 254 54V0H84ZM485 1236L651 1411H785L617 1099H351L177 1411H318L485 1236Z"  />
<glyph unicode="&#x178;" horiz-adv-x="1323" d="M563 174V633L149 1217H-21V1391H551V1217H376L683 788L963 1217H788V1391H1343V1217H1159L773 633V174H963V0H376V174H563ZM369 1617Q369 1662 401 1695T480 1728Q526 1728 558 1696T591 1617Q591 1570 559 1538T480 1506Q435 1506 402 1538T369 1617ZM731 1617Q731 1661 762 1694T842 1728Q888 1728 920 1695T953 1617Q953 1571 921 1539T842 1506Q795 1506 763 1538T731 1617Z"  />
<glyph unicode="&#x17D;" horiz-adv-x="1153" d="M51 0V174L796 1217H257V972H85V1391H1062V1237L304 174H913V443H1085V0H51ZM573 1613L739 1788H873L705 1476H439L265 1788H406L573 1613Z"  />
<glyph unicode="&#x17E;" horiz-adv-x="918" d="M33 0V158L640 811H242V625H80V968H866V799L257 158H700V356H866V0H33ZM454 1236L620 1411H754L586 1099H320L146 1411H287L454 1236Z"  />
<glyph unicode="&#x192;" horiz-adv-x="1130" d="M46 -405L81 -250Q181 -272 233 -272Q286 -272 315 -244T361 -120L538 922H337L361 1062H562L586 1195Q609 1318 638 1373T726 1460T866 1492Q950 1492 1085 1454L1050 1301Q950 1325 896 1325Q832 1325 808 1293T765 1165L746 1062H950L925 922H721L530 -170Q504 -317 443 -374T276 -431Q176 -431 46 -405Z"  />
<glyph unicode="&#x237;" horiz-adv-x="598" d="M-38 -416V-244Q10 -250 54 -250Q129 -250 166 -227T216 -160T229 113V799H77V968H419V144Q419 -105 403 -203T308 -363T74 -426Q15 -426 -38 -416Z"  />
<glyph unicode="&#x2C6;" horiz-adv-x="682" d="M337 1273L172 1099H37L205 1411H472L645 1099H504L337 1273Z"  />
<glyph unicode="&#x2DC;" horiz-adv-x="682" d="M561 1391H673Q669 1237 615 1175T490 1113Q419 1113 309 1180Q212 1238 182 1238Q151 1238 138 1214T125 1128H10Q11 1272 64 1334T192 1396Q252 1396 376 1324Q462 1273 490 1273Q557 1273 561 1391Z"  />
<glyph unicode="&#x2013;" horiz-adv-x="1024" d="M-12 601H1036V424H-12V601Z"  />
<glyph unicode="&#x2014;" horiz-adv-x="2048" d="M-12 601H2060V424H-12V601Z"  />
<glyph unicode="&#x2018;" horiz-adv-x="598" d="M422 1114V868H176V1082Q176 1191 193 1251T265 1349T422 1391V1287Q302 1269 302 1138V1114H422Z"  />
<glyph unicode="&#x2019;" horiz-adv-x="598" d="M176 1145V1391H422V1178Q422 1068 405 1008T333 910T176 868V973Q296 991 296 1121Q296 1129 295 1145H176Z"  />
<glyph unicode="&#x201A;" horiz-adv-x="598" d="M176 0V246H422V32Q422 -77 405 -137T333 -235T176 -277V-173Q296 -155 296 -24Q296 -16 295 0H176Z"  />
<glyph unicode="&#x201C;" horiz-adv-x="1067" d="M410 1114V868H164V1082Q164 1191 181 1251T253 1349T410 1391V1287Q290 1269 290 1138V1114H410ZM904 1114V868H659V1082Q659 1191 675 1251T747 1349T904 1391V1287Q784 1269 784 1138Q784 1130 785 1114H904Z"  />
<glyph unicode="&#x201D;" horiz-adv-x="1067" d="M163 1145V1391H409V1178Q409 1068 392 1008T320 910T163 868V973Q283 991 283 1121Q283 1129 282 1145H163ZM658 1145V1391H903V1178Q903 1068 886 1008T814 910T658 868V973Q778 991 778 1121Q778 1129 777 1145H658Z"  />
<glyph unicode="&#x201E;" horiz-adv-x="1067" d="M163 0V246H409V32Q409 -77 392 -137T320 -235T163 -277V-173Q283 -155 283 -24Q283 -16 282 0H163ZM658 0V246H903V32Q903 -77 886 -137T814 -235T658 -277V-173Q778 -155 778 -24Q778 -16 777 0H658Z"  />
<glyph unicode="&#x2020;" horiz-adv-x="1067" d="M431 1413H641V1183Q575 1065 572 907Q735 910 832 968H1020V776H832Q735 834 589 834H572Q572 660 641 551V310L572 -445H496L431 310V551Q494 665 496 834Q343 833 240 776H47V968H240Q353 907 496 907Q496 1093 431 1183V1413Z"  />
<glyph unicode="&#x2021;" horiz-adv-x="1067" d="M429 1413H639V1185Q577 1077 570 941Q728 950 808 999H986V813H808Q707 865 570 868Q584 669 669 494Q580 312 570 112Q724 117 808 169H986V-15H808Q730 30 570 39Q583 -104 639 -197V-434H429V-197Q479 -108 495 39Q365 39 265 -15H80V169H265Q339 124 495 112Q484 332 405 494Q480 646 495 868Q359 865 265 813H80V999H265Q356 948 495 941Q487 1094 429 1185V1413Z"  />
<glyph unicode="&#x2022;" horiz-adv-x="725" d="M364 946Q465 946 540 875T615 695Q615 592 541 519T364 445Q260 445 187 518T113 695Q113 799 187 872T364 946Z"  />
<glyph unicode="&#x2026;" horiz-adv-x="2048" d="M219 0V246H465V0H219ZM902 0V246H1147V0H902ZM1584 0V246H1830V0H1584Z"  />
<glyph unicode="&#x2030;" horiz-adv-x="2218" d="M56 1040Q56 1207 131 1310T353 1413Q490 1413 570 1316T650 1040Q650 870 574 769T353 668Q216 668 136 764T56 1040ZM200 1041Q200 764 353 764Q505 764 505 1040Q505 1317 353 1317Q200 1317 200 1041ZM120 0L1223 1391H1365L270 0H120ZM823 351Q823 531 903 627T1120 723Q1257 723 1337 626T1417 351Q1417 171 1337 75T1120 -22Q974 -22 899 80T823 351ZM968 351Q968 74 1120 74Q1273 74 1273 350Q1273 627 1120 627Q968 627 968 351ZM1571 351Q1571 531 1651 627T1868 723Q2005 723 2085 626T2165 351Q2165 171 2085 75T1868 -22Q1722 -22 1647 80T1571 351ZM1716 351Q1716 74 1868 74Q2021 74 2021 350Q2021 627 1868 627Q1716 627 1716 351Z"  />
<glyph unicode="&#x2039;" horiz-adv-x="598" d="M55 484L358 968H552L260 484L552 0H358L55 484Z"  />
<glyph unicode="&#x203A;" horiz-adv-x="598" d="M542 484L239 0H45L337 484L45 968H239L542 484Z"  />
<glyph unicode="&#x20AC;" horiz-adv-x="1110" d="M352 764L350 700L352 635H721V483H367Q416 145 670 145Q753 145 815 218T905 410L1087 330Q1055 173 945 75T655 -23Q220 -23 156 483H25V635H143V694Q143 753 145 764H25V915H156Q214 1413 651 1413Q797 1413 868 1317V1403H1049V989H868Q854 1110 796 1179T649 1249Q514 1249 449 1164T362 915H721V764H352Z"  />
<glyph unicode="&#x2122;" horiz-adv-x="2048" d="M494 577V1270H230V1391H896V1270H630V577H494ZM987 577V1391H1187L1393 740L1592 1391H1788V577H1664V1260L1454 577H1331L1112 1270V577H987Z"  />

</font>
</defs>
</svg>
