<?xml  version="1.0" encoding="UTF-8"?>
<!DOCTYPE svg PUBLIC "-//W3C//DTD SVG 1.0//EN" "http://www.w3.org/TR/2001/REC-SVG-20010904/DTD/svg10.dtd" >
<svg xmlns="http://www.w3.org/2000/svg" >
<metadata>
<version>1.0</version>
<id><![CDATA[Rockwell W01 Bold Italic]]></id>
<vendor>Monotype Imaging Inc.</vendor>
<credits>
<name>Fonts.com WebFonts</name>
<URL>http://webfonts.fonts.com</URL>
<role>Home of the Web fonts</role>
</credits>
<license>
<URL>http://webfonts.fonts.com/Legal</URL>
</license>
<copyright><![CDATA[Digitized data copyright The Monotype Corporation 1991-1995. All rights reserved. Rockwell¨ is a trademark of The Monotype Corporation which may be registered in certain jurisdictions.]]></copyright>
<trademark><![CDATA[Rockwell¨ is a trademark of The Monotype Corporation which may be registered in certain jurisdictions.]]></trademark>
<licensee>
<name></name>
</licensee>
</metadata>
<defs >
<font horiz-adv-x="1174" id="298a903d-4a78-456b-bbcc-f4f6c36611f5">
<font-face font-family="" panose-1="2 6 8 3 3 4 5 9 1 3" ascent="1500" descent="-548" units-per-em="2048" alphabetic="0">
</font-face>
<missing-glyph horiz-adv-x="2048" d="M256 0V1536H1792V0H256ZM384 128H1664V1408H384V128Z"  />

<glyph unicode="&#xA;" />
<glyph unicode="&#xD;" horiz-adv-x="512" />
<glyph unicode=" " horiz-adv-x="512" />
<glyph unicode="!" horiz-adv-x="682" d="M301 485L348 1010L436 1391H725L637 1010L438 485H301ZM104 0L176 313H489L418 0H104Z"  />
<glyph unicode="&quot;" horiz-adv-x="1131" d="M892 749H844L848 1132Q850 1282 915 1348T1059 1415Q1107 1415 1137 1386T1168 1310Q1168 1257 1100 1132L892 749ZM409 749H361L366 1132Q367 1282 432 1348T577 1415Q622 1415 654 1387T686 1310Q686 1257 618 1132L409 749Z"  />
<glyph unicode="#" horiz-adv-x="1368" d="M240 -27L318 345H163V561H364L421 836H163V1052H467L545 1424H761L682 1052H1011L1090 1424H1305L1227 1052H1383V836H1182L1124 561H1383V345H1079L1001 -27H785L863 345H534L456 -27H240ZM579 561H908L966 836H637L579 561Z"  />
<glyph unicode="$" horiz-adv-x="1024" d="M336 -190L379 0Q241 31 166 123T90 340Q90 374 96 410H325Q322 385 322 363Q322 230 424 188L516 596Q272 755 272 981Q272 1139 386 1247T694 1366L711 1432H837L819 1356Q1096 1294 1096 1067Q1096 1010 1077 944H860Q874 991 874 1028Q874 1120 776 1167L688 786Q834 695 904 603T975 395Q975 220 852 96T502 -20L463 -190H336ZM579 870L653 1184Q504 1148 504 1024Q504 945 579 870ZM627 518L547 174Q625 184 677 240T729 362Q729 452 627 518Z"  />
<glyph unicode="%" horiz-adv-x="1898" d="M535 684Q402 684 328 759T254 969Q254 1155 365 1281T641 1407Q771 1407 844 1333T918 1128Q918 941 807 813T535 684ZM692 1202Q692 1278 633 1278Q567 1278 523 1135T479 905Q479 813 541 813Q606 813 649 956T692 1202ZM279 0L1612 1391H1792L459 0H279ZM1421 -27Q1289 -27 1215 48T1141 258Q1141 445 1252 570T1528 696Q1658 696 1731 623T1804 418Q1804 231 1693 102T1421 -27ZM1579 492Q1579 567 1520 567Q1454 567 1410 424T1366 195Q1366 102 1427 102Q1493 102 1536 245T1579 492Z"  />
<glyph unicode="&amp;" horiz-adv-x="1516" d="M1440 217L1389 0H1122L1032 139Q807 -25 571 -25Q365 -25 238 102T111 397Q111 714 539 899Q479 1005 479 1096Q479 1228 591 1320T868 1413Q1010 1413 1102 1338T1194 1147Q1194 953 905 817L1087 537Q1144 629 1225 842H1573L1522 625H1389Q1310 431 1225 328L1298 217H1440ZM793 995Q977 1062 977 1151Q977 1191 947 1217T870 1243Q818 1243 784 1210T750 1124Q750 1068 793 995ZM903 322L651 715Q403 603 403 426Q403 331 466 265T618 199Q747 199 903 322Z"  />
<glyph unicode="&apos;" horiz-adv-x="576" d="M373 749H325L330 1132Q331 1282 396 1348T541 1415Q586 1415 618 1387T650 1310Q650 1257 582 1132L373 749Z"  />
<glyph unicode="(" horiz-adv-x="705" d="M535 -248L489 -440Q135 -227 135 250Q135 616 347 973T918 1417L874 1227Q662 1130 537 757T412 82Q412 -141 535 -248Z"  />
<glyph unicode=")" horiz-adv-x="705" d="M221 1225L266 1417Q621 1204 621 727Q621 361 409 4T-162 -440L-119 -250Q94 -153 219 220T344 895Q344 1118 221 1225Z"  />
<glyph unicode="*" horiz-adv-x="1153" d="M1026 475L801 385L731 547Q737 571 737 600Q737 677 692 803Q582 692 557 588L430 475L266 655L395 768Q500 780 633 877Q475 952 381 946L229 1040L362 1251L512 1159Q540 1078 680 969Q690 1063 690 1113Q690 1184 672 1239L709 1403L946 1346L907 1184Q813 1090 778 946Q979 987 1026 1040L1196 1057L1217 811L1053 791Q972 842 786 842Q858 698 958 637L1026 475Z"  />
<glyph unicode="+" horiz-adv-x="1368" d="M211 823H649V1261H897V823H1335V574H897V136H649V574H211V823Z"  />
<glyph unicode="&#x2c;" horiz-adv-x="682" d="M123 0L195 313H508L436 0Q357 -353 43 -367L76 -225Q227 -193 268 0H123Z"  />
<glyph unicode="-" horiz-adv-x="705" d="M123 356L182 612H664L604 356H123Z"  />
<glyph unicode="." horiz-adv-x="682" d="M123 0L195 313H508L436 0H123Z"  />
<glyph unicode="/" horiz-adv-x="1040" d="M1009 1416H1300L216 -17H-75L1009 1416Z"  />
<glyph unicode="0" horiz-adv-x="1110" d="M520 -23Q356 -23 260 108T164 467Q164 647 242 887T457 1270T768 1413Q931 1413 1028 1286T1126 944Q1126 604 957 291T520 -23ZM432 334Q432 186 539 186Q606 186 667 286T794 674T860 1063Q860 1129 832 1166T754 1204Q685 1204 624 1100T497 703T432 334Z"  />
<glyph unicode="1" horiz-adv-x="1110" d="M176 0L223 207H383L608 1184H449L498 1391H954L680 207H829L782 0H176Z"  />
<glyph unicode="2" horiz-adv-x="1110" d="M987 459L881 0H84L102 100Q126 230 210 368T515 703T780 975T825 1114Q825 1152 797 1178T725 1204Q561 1204 489 887H227Q348 1413 766 1413Q927 1413 1023 1327T1120 1098Q1120 968 1052 875T788 633Q562 462 478 371T358 207H711L770 459H987Z"  />
<glyph unicode="3" horiz-adv-x="1110" d="M127 453H385Q374 404 374 362Q374 279 412 233T516 186Q606 186 659 278T713 463Q713 621 522 621H497L547 829Q725 836 784 925T844 1108Q844 1149 814 1176T739 1204Q602 1204 559 1010H297Q385 1413 749 1413Q923 1413 1025 1323T1128 1079Q1128 941 1043 842T803 719V715Q1009 631 1009 412Q1009 232 872 105T538 -23Q343 -23 231 77T119 355Q119 402 127 453Z"  />
<glyph unicode="4" horiz-adv-x="1110" d="M328 0L371 186H502L547 381H137L119 612L795 1415H1063L866 561H1077L1034 381H823L778 186H909L866 0H328ZM590 561L702 1071L281 561H590Z"  />
<glyph unicode="5" horiz-adv-x="1110" d="M146 434H408Q392 375 392 327Q392 186 509 186Q617 186 683 322T750 565Q750 623 717 660T636 698Q544 698 486 616L286 741L472 1391H1183L1107 1061H908L920 1184H628L546 877Q623 904 696 904Q846 904 944 796T1043 522Q1043 293 889 135T509 -23Q334 -23 237 71T139 337Q139 383 146 434Z"  />
<glyph unicode="6" horiz-adv-x="1110" d="M1165 995H924Q934 1037 934 1071Q934 1198 811 1198Q721 1198 654 1106T528 827Q618 874 709 874Q853 874 944 770T1036 500Q1036 289 891 133T551 -23Q375 -23 272 97T168 424Q168 734 344 1073T823 1413Q972 1413 1072 1324T1172 1076Q1172 1037 1165 995ZM625 664Q567 664 523 631T468 572T444 481T430 354Q430 280 465 238T559 195Q638 195 701 287T764 498Q764 571 725 617T625 664Z"  />
<glyph unicode="7" horiz-adv-x="1110" d="M143 0L190 207H338Q480 708 909 1184H496L455 1014H238L326 1391H1217L1169 1182Q1019 1008 873 727T659 207H797L750 0H143Z"  />
<glyph unicode="8" horiz-adv-x="1110" d="M455 752Q326 855 326 1001Q326 1162 449 1287T772 1413Q937 1413 1039 1318T1141 1067Q1141 942 1071 840T870 702Q1020 593 1020 430Q1020 245 877 111T535 -23Q363 -23 250 71T137 332Q137 639 455 752ZM766 1204Q679 1204 632 1104T584 907Q584 815 678 815Q766 815 816 907T866 1114Q866 1155 839 1179T766 1204ZM631 631Q535 631 481 523T426 305Q426 186 539 186Q631 186 687 286T743 510Q743 564 713 597T631 631Z"  />
<glyph unicode="9" horiz-adv-x="1110" d="M127 395H368Q358 354 358 320Q358 193 481 193Q571 193 638 285T764 563Q675 516 584 516Q439 516 348 621T256 891Q256 1102 401 1257T741 1413Q918 1413 1021 1293T1124 967Q1124 656 948 317T469 -23Q320 -23 221 66T121 315Q121 353 127 395ZM668 727Q725 727 770 760T824 819T848 909T862 1036Q862 1110 828 1153T733 1196Q654 1196 591 1104T528 893Q528 819 567 773T668 727Z"  />
<glyph unicode=":" horiz-adv-x="682" d="M276 655L348 969H662L590 655H276ZM123 0L195 313H508L436 0H123Z"  />
<glyph unicode=";" horiz-adv-x="682" d="M276 655L348 969H662L590 655H276ZM123 0L195 313H508L436 0Q357 -353 43 -367L76 -225Q227 -193 268 0H123Z"  />
<glyph unicode="&lt;" horiz-adv-x="1368" d="M1335 120L211 586V811L1335 1277V1012L557 699L1335 385V120Z"  />
<glyph unicode="=" horiz-adv-x="1368" d="M211 1064H1335V816H211V1064ZM211 581H1335V333H211V581Z"  />
<glyph unicode="&gt;" horiz-adv-x="1368" d="M211 1277L1335 811V586L211 120V385L989 699L211 1012V1277Z"  />
<glyph unicode="?" horiz-adv-x="1110" d="M475 475L508 831Q663 823 761 889T860 1055Q860 1125 812 1169T686 1214Q532 1214 485 1059H195Q325 1409 731 1409Q930 1409 1043 1312T1157 1055Q1157 887 1029 764T674 627L608 475H475ZM281 0L352 313H666L594 0H281Z"  />
<glyph unicode="@" horiz-adv-x="2005" d="M2081 18Q1856 -426 1174 -426Q683 -426 418 -180T152 483Q152 899 420 1195T1180 1491Q1554 1491 1791 1276T2028 729Q2028 431 1836 216T1366 0Q1209 0 1184 117Q1072 0 915 0Q735 0 632 120T528 442Q528 662 678 872T1067 1083Q1245 1083 1333 948L1358 1059H1622L1458 287Q1455 272 1455 259Q1455 205 1497 205Q1581 205 1714 358T1847 737Q1847 975 1670 1143T1167 1311Q789 1311 568 1076T346 483Q346 135 567 -55T1194 -246Q1656 -246 1868 18H2081ZM786 426Q786 309 835 246T971 182Q1104 182 1191 340T1278 670Q1278 775 1228 839T1098 903Q955 903 871 751T786 426Z"  />
<glyph unicode="A" horiz-adv-x="1323" d="M-76 0L-25 217H109L635 1174H500L549 1391H1354L1305 1174H1186L1227 217H1370L1319 0H739L791 217H920V451H498L381 217H510L459 0H-76ZM911 649L895 1186H881L602 649H911Z"  />
<glyph unicode="B" horiz-adv-x="1366" d="M63 217H201L422 1174H285L334 1391H965Q1175 1391 1284 1298T1393 1051Q1393 783 1077 717Q1290 592 1290 397Q1290 215 1145 108T817 0H12L63 217ZM696 825H825Q1049 825 1049 1044Q1049 1180 901 1180H778L696 825ZM553 207H719Q830 207 890 283T950 463Q950 538 902 583T770 629H651L553 207Z"  />
<glyph unicode="C" horiz-adv-x="1579" d="M1307 481L1530 317Q1399 155 1220 69T846 -18Q552 -18 360 156T168 596Q168 925 445 1169T1102 1413Q1356 1413 1485 1257L1516 1391H1739L1634 938H1411Q1374 1167 1098 1167Q875 1167 706 991T537 582Q537 432 628 336T862 240Q1104 240 1307 481Z"  />
<glyph unicode="D" horiz-adv-x="1556" d="M-16 0L35 217H203L422 1174H254L305 1391H879Q1206 1391 1377 1225T1548 778Q1548 437 1336 219T782 0H-16ZM555 217H766Q966 217 1076 415T1186 844Q1186 991 1097 1082T858 1174H774L555 217Z"  />
<glyph unicode="E" horiz-adv-x="1300" d="M18 0L70 217H201L422 1174H291L340 1391H1477L1374 948H1114L1165 1174H772L692 817H1018L967 600H641L553 217H954L1006 436H1257L1155 0H18Z"  />
<glyph unicode="F" horiz-adv-x="1194" d="M-35 0L16 217H203L422 1174H217L268 1391H1462L1358 940H1100L1153 1174H774L694 817H983L932 600H643L555 217H745L694 0H-35Z"  />
<glyph unicode="G" horiz-adv-x="1665" d="M1503 1391H1726L1624 944H1401Q1398 1048 1312 1112T1100 1176Q873 1176 704 994T535 565Q535 421 625 329T858 236Q1137 236 1194 432H975L1024 649H1667Q1621 344 1388 163T825 -18Q522 -18 344 165T166 606Q166 931 439 1172T1085 1413Q1324 1413 1477 1274L1503 1391Z"  />
<glyph unicode="H" horiz-adv-x="1516" d="M18 0L70 217H199L420 1174H289L340 1391H944L893 1174H752L674 836H1075L1153 1174H1024L1075 1391H1642L1591 1174H1485L1266 217H1407L1356 0H752L801 217H934L1024 618H623L532 217H674L623 0H18Z"  />
<glyph unicode="I" horiz-adv-x="811" d="M-18 0L31 217H207L428 1174H231L281 1391H983L934 1174H782L561 217H762L711 0H-18Z"  />
<glyph unicode="J" horiz-adv-x="768" d="M1012 1391L961 1174H807L569 145Q496 -176 342 -303T-26 -430Q-133 -430 -244 -397L-178 -166Q-125 -175 -82 -175Q44 -175 115 -85T244 258L455 1174H272L324 1391H1012Z"  />
<glyph unicode="K" horiz-adv-x="1450" d="M14 0L66 217H203L422 1174H285L336 1391H956L907 1174H776L555 217H686L635 0H14ZM805 0L856 217H987L686 729L1227 1174H1079L1130 1391H1739L1688 1174H1567L1028 729L1335 217H1466L1417 0H805Z"  />
<glyph unicode="L" horiz-adv-x="1237" d="M20 0L70 217H201L422 1174H256L307 1391H956L905 1174H774L555 217H944L1042 645H1309L1159 0H20Z"  />
<glyph unicode="M" horiz-adv-x="2091" d="M12 0L63 217H201L422 1174H283L334 1391H950L1069 555L1581 1391H2220L2169 1174H2062L1843 217H1987L1935 0H1329L1378 217H1509L1731 1174H1704L987 0H838L678 1174H643L422 217H553L504 0H12Z"  />
<glyph unicode="N" horiz-adv-x="1622" d="M20 0L72 217H203L422 1174H291L342 1391H860L1178 428L1348 1174H1217L1268 1391H1769L1718 1174H1587L1315 -12H1010L647 1108L444 217H590L539 0H20Z"  />
<glyph unicode="O" horiz-adv-x="1686" d="M782 -18Q519 -18 346 146T172 559Q172 899 429 1158T1059 1417Q1347 1417 1517 1250T1688 838Q1688 481 1425 232T782 -18ZM1319 874Q1319 1005 1237 1088T1024 1171Q811 1171 676 968T541 535Q541 391 619 309T836 227Q1061 227 1190 438T1319 874Z"  />
<glyph unicode="P" horiz-adv-x="1323" d="M23 0L72 217H203L424 1174H268L319 1391H915Q1165 1391 1294 1284T1423 979Q1423 775 1282 642T825 508H623L555 217H723L674 0H23ZM672 725H791Q922 725 993 803T1065 1001Q1065 1174 870 1174H776L672 725Z"  />
<glyph unicode="Q" horiz-adv-x="1686" d="M1253 -150L1186 -352Q1078 -361 996 -331T800 -233T621 -164Q513 -164 406 -250L369 -94Q463 -10 588 -2V2Q390 62 281 210T172 555Q172 906 435 1161T1061 1417Q1352 1417 1520 1247T1688 838Q1688 511 1454 256T807 -14V-18Q1026 -122 1089 -137T1202 -152Q1227 -152 1253 -150ZM1319 874Q1319 1005 1237 1088T1024 1171Q811 1171 676 968T541 535Q541 391 619 309T836 227Q1061 227 1190 438T1319 874Z"  />
<glyph unicode="R" horiz-adv-x="1430" d="M16 0L68 217H205L426 1174H289L338 1391H1061Q1251 1391 1357 1281T1464 1014Q1464 879 1382 769T1145 639L1264 217H1403L1352 0H997L844 618H649L557 217H690L637 0H16ZM690 797H840Q1104 797 1104 1016Q1104 1090 1059 1132T938 1174H778L690 797Z"  />
<glyph unicode="S" horiz-adv-x="1044" d="M23 0L123 432H354Q346 402 346 374Q346 307 392 264T502 221Q579 221 630 271T682 397Q682 447 652 502T487 678T312 878T272 1032Q272 1179 373 1290T659 1401Q833 1401 932 1292L954 1391H1176L1090 1024H868Q871 1038 871 1052Q871 1105 828 1139T715 1174Q654 1174 618 1146T582 1075Q582 1040 606 1000T766 841T949 624T997 426Q997 229 871 102T551 -25Q389 -25 279 104L254 0H23Z"  />
<glyph unicode="T" horiz-adv-x="1409" d="M297 0L348 217H508L727 1174H508L434 848H211L336 1391H1573L1448 848H1225L1300 1174H1081L862 217H1022L971 0H297Z"  />
<glyph unicode="U" horiz-adv-x="1450" d="M325 1174L374 1391H978L929 1174H786L624 481Q613 433 613 393Q613 221 804 221Q911 221 979 297T1087 547L1232 1174H1101L1150 1391H1628L1578 1174H1472L1310 473Q1252 223 1112 100T731 -23Q545 -23 405 67T264 363Q264 442 286 539L432 1174H325Z"  />
<glyph unicode="V" horiz-adv-x="1323" d="M420 -10L289 1174H147L199 1391H791L739 1174H616L684 420L1120 1174H997L1049 1391H1581L1532 1174H1401L709 -10H420Z"  />
<glyph unicode="W" horiz-adv-x="1835" d="M616 -10H340L266 1174H129L178 1391H750L700 1174H575L614 485L997 1174H858L907 1391H1409L1358 1174H1233L1274 485L1657 1174H1518L1567 1391H2111L2062 1174H1935L1276 -10H997L961 608L616 -10Z"  />
<glyph unicode="X" horiz-adv-x="1386" d="M412 209H537L489 0H-74L-25 217H94L584 752L350 1174H215L266 1391H868L821 1182H702L860 889L1112 1182H997L1047 1391H1608L1559 1174H1430L981 668L1229 217H1368L1319 0H709L758 209H889L702 532L412 209Z"  />
<glyph unicode="Y" horiz-adv-x="1280" d="M258 0L309 217H440L528 600L293 1174H156L207 1391H784L733 1174H621L762 788L1090 1174H975L1026 1391H1585L1536 1174H1405L885 600L795 217H938L885 0H258Z"  />
<glyph unicode="Z" horiz-adv-x="1237" d="M8 0L59 217L934 1184H547L496 965H283L381 1391H1409L1366 1204L473 207H918L973 438H1190L1087 0H8Z"  />
<glyph unicode="[" horiz-adv-x="788" d="M61 -414L479 1391H1012L969 1202H733L403 -225H639L594 -414H61Z"  />
<glyph unicode="\" horiz-adv-x="1040" d="M514 1416L936 -17H688L265 1416H514Z"  />
<glyph unicode="]" horiz-adv-x="788" d="M801 1391L383 -414H-150L-106 -225H129L459 1202H223L268 1391H801Z"  />
<glyph unicode="^" horiz-adv-x="1194" d="M205 592L582 1391H803L1169 592H885L688 1081L492 592H205Z"  />
<glyph unicode="_" horiz-adv-x="1024" d="M-13 -154H1035V-256H-13V-154Z"  />
<glyph unicode="`" horiz-adv-x="682" d="M535 1071L156 1432H512L696 1071H535Z"  />
<glyph unicode="a" d="M1135 207L1075 0H629L647 78Q506 -12 385 -12Q259 -12 177 64T94 256Q94 415 224 513T586 612Q638 612 764 584L780 664Q783 676 783 687Q783 739 735 771T614 803Q517 803 387 737L240 883Q446 993 659 993Q857 993 967 914T1078 697Q1078 655 1067 608L973 207H1135ZM688 258L725 418Q653 438 578 438Q485 438 427 394T369 283Q369 237 402 206T483 174Q579 174 688 258Z"  />
<glyph unicode="b" horiz-adv-x="1237" d="M-14 0L35 207H141L367 1184H236L283 1391H711L588 864L592 860Q710 993 868 993Q1017 993 1112 888T1208 616Q1208 360 1057 174T700 -12Q534 -12 424 150L389 0H-14ZM647 217Q747 217 824 326T901 582Q901 664 861 715T756 766Q641 766 567 650T492 393Q492 314 534 266T647 217Z"  />
<glyph unicode="c" horiz-adv-x="1087" d="M809 354L1022 250Q854 -29 557 -29Q356 -29 235 89T113 401Q113 639 279 809T678 979Q807 979 911 905L926 969H1143L1059 606H842Q831 745 682 745Q572 745 496 645T420 395Q420 313 466 261T586 209Q720 209 809 354Z"  />
<glyph unicode="d" horiz-adv-x="1237" d="M1180 207L1133 0H705L733 119L729 123Q602 -14 442 -14Q293 -14 201 95T109 383Q109 632 260 812T616 993Q790 993 895 829L977 1184H829L879 1391H1321L1049 207H1180ZM412 391Q412 313 454 267T571 221Q678 221 754 341T831 569Q831 657 784 709T662 762Q562 762 487 652T412 391Z"  />
<glyph unicode="e" horiz-adv-x="1130" d="M782 289L1001 190Q855 -29 565 -29Q363 -29 243 85T123 391Q123 636 284 814T682 993Q866 993 989 877T1112 562Q1112 496 1098 424H410Q404 391 404 361Q404 269 453 217T584 164Q709 164 782 289ZM446 582H829Q833 604 833 626Q833 704 787 751T672 799Q518 799 446 582Z"  />
<glyph unicode="f" horiz-adv-x="682" d="M590 207L543 0H16L63 207H162L291 762H143L190 969H338Q431 1407 780 1407Q905 1407 1020 1331L940 1133Q879 1190 813 1190Q742 1190 703 1141T635 969H760L713 762H588L459 207H590Z"  />
<glyph unicode="g" horiz-adv-x="1237" d="M-37 -360L53 -145Q238 -229 371 -229Q643 -229 700 0L727 106L723 111Q600 -8 463 -8Q305 -8 209 102T113 393Q113 627 265 803T618 979Q791 979 887 809L924 969H1333L1286 762H1180L1010 31Q897 -455 406 -455Q148 -455 -37 -360ZM414 395Q414 316 456 268T575 219Q688 219 755 326T823 571Q823 647 781 697T668 748Q558 748 486 633T414 395Z"  />
<glyph unicode="h" horiz-adv-x="1237" d="M10 0L57 207H164L389 1184H258L307 1391H735L608 844Q714 914 787 947T940 981Q1041 981 1099 918T1157 746Q1157 697 1145 643L1042 207H1174L1126 0H698L842 621Q847 643 847 663Q847 745 780 745Q698 745 559 635L461 207H590L543 0H10Z"  />
<glyph unicode="i" horiz-adv-x="682" d="M563 1092Q496 1092 449 1140T401 1255Q401 1323 448 1370T563 1417Q631 1417 679 1370T727 1255Q727 1188 679 1140T563 1092ZM180 207L309 762H178L225 969H653L477 207H608L561 0H27L74 207H180Z"  />
<glyph unicode="j" horiz-adv-x="662" d="M610 1092Q543 1092 496 1140T449 1255Q449 1323 496 1370T610 1417Q678 1417 726 1370T774 1255Q774 1188 726 1140T610 1092ZM356 762H225L272 969H700L479 10Q425 -221 319 -321T20 -422Q-55 -422 -115 -403L-66 -186Q-41 -189 -20 -189Q63 -189 109 -149T188 35L356 762Z"  />
<glyph unicode="k" d="M8 0L55 207H162L387 1184H252L301 1391H733L528 508L872 809H711L748 969H1247L1217 782H1128L836 522L1006 207H1128L1079 0H797L528 504L457 197H563L518 0H8Z"  />
<glyph unicode="l" horiz-adv-x="682" d="M20 0L68 207H174L399 1184H262L309 1391H743L471 207H602L555 0H20Z"  />
<glyph unicode="m" horiz-adv-x="1985" d="M-18 0L29 207H168L297 762H123L170 969H641L610 834Q842 981 985 981Q1176 981 1235 807Q1505 981 1657 981Q1767 981 1842 915T1918 740Q1918 703 1909 664L1804 207H1956L1909 0H1460L1595 575Q1603 608 1603 636Q1603 743 1505 743Q1406 743 1233 618L1135 207H1286L1239 0H791L924 575Q932 612 932 641Q932 743 834 743Q717 743 561 618L465 207H616L569 0H-18Z"  />
<glyph unicode="n" horiz-adv-x="1237" d="M6 0L53 207H160L289 762H143L190 969H633L604 848Q742 933 805 957T938 981Q1036 981 1098 919T1161 753Q1161 712 1151 668L1044 207H1176L1128 0H700L842 612Q849 642 849 665Q849 748 778 748Q705 748 557 641L457 207H580L532 0H6Z"  />
<glyph unicode="o" d="M537 -29Q350 -29 234 83T117 375Q117 635 289 814T713 993Q909 993 1022 869T1135 569Q1135 320 964 146T537 -29ZM686 776Q563 776 491 645T418 365Q418 284 456 236T559 188Q680 188 757 319T834 598Q834 679 794 727T686 776Z"  />
<glyph unicode="p" horiz-adv-x="1237" d="M-104 -440L-55 -233H82L311 762H174L221 969H655L625 842L629 838Q767 981 922 981Q1068 981 1159 872T1251 586Q1251 330 1103 151T745 -29Q564 -29 463 131L379 -233H539L489 -440H-104ZM797 748Q697 748 615 636T532 383Q532 305 578 253T694 201Q799 201 873 309T948 571Q948 652 907 700T797 748Z"  />
<glyph unicode="q" horiz-adv-x="1237" d="M1335 969L1286 762H1180L950 -233H1073L1026 -440H455L502 -233H653L733 104L729 109Q606 -29 444 -29Q301 -29 206 79T111 350Q111 609 259 794T625 979Q785 979 897 821L932 969H1335ZM563 203Q677 203 753 316T829 567Q829 652 786 702T674 752Q557 752 485 637T412 387Q412 300 452 252T563 203Z"  />
<glyph unicode="r" horiz-adv-x="854" d="M10 0L57 207H174L303 762H172L219 969H612L547 688L551 684Q706 910 765 944T890 978Q928 978 977 969L918 711Q870 721 828 721Q588 721 518 414L471 207H623L575 0H10Z"  />
<glyph unicode="s" horiz-adv-x="1004" d="M16 0L94 334H285Q318 170 512 170Q700 170 700 274Q700 310 672 336T476 400T250 519T190 676Q190 807 302 893T588 979Q722 979 813 918L825 969H1034L969 686H770Q737 799 592 799Q524 799 483 773T442 705Q442 677 468 657T654 599T878 486T942 311Q942 172 822 81T512 -10Q344 -10 240 55L227 0H16Z"  />
<glyph unicode="t" horiz-adv-x="682" d="M657 254L604 31Q476 -29 354 -29Q260 -29 203 25T145 168Q145 233 162 303L268 762H154L201 969H315L348 1110L702 1356L612 969H743L696 762H565L461 313Q453 279 453 258Q453 207 514 207Q572 207 657 254Z"  />
<glyph unicode="u" horiz-adv-x="1237" d="M1165 207L1116 0H688L719 127Q516 -10 369 -10Q286 -10 225 49T164 188Q164 259 188 365L281 762H150L199 969H627L481 344Q475 319 475 298Q475 223 537 223Q574 223 641 255T766 336L864 762H733L782 969H1210L1034 207H1165Z"  />
<glyph unicode="v" horiz-adv-x="1044" d="M317 -12L184 762H78L125 969H633L584 762H467L520 301L786 762H670L717 969H1229L1182 762H1051L584 -12H317Z"  />
<glyph unicode="w" horiz-adv-x="1556" d="M299 -12L166 762H49L96 969H586L541 770H424L506 317L809 969H1016L1126 317L1337 770H1214L1260 969H1718L1671 762H1565L1194 -12H932L831 543L569 -12H299Z"  />
<glyph unicode="x" horiz-adv-x="1024" d="M-35 0L14 207H131L412 498L258 762H141L190 969H496L618 715L831 969H1118L1071 762H969L725 506L901 207H1018L971 0H657L520 287L272 0H-35Z"  />
<glyph unicode="y" horiz-adv-x="1153" d="M31 -440L78 -233H240L354 -31L207 762H100L150 969H657L608 762H492L551 307L813 762H696L743 969H1249L1202 762H1071L375 -440H31Z"  />
<glyph unicode="z" horiz-adv-x="981" d="M-25 0L18 188L649 780H410L381 655H184L256 969H1055L1012 780L381 188H674L711 352H911L831 0H-25Z"  />
<glyph unicode="{" horiz-adv-x="788" d="M150 362V592Q264 592 316 658T369 883V1008Q369 1242 466 1316T745 1391H834V1155Q673 1155 649 1119T625 874Q625 707 585 623T442 477Q544 415 584 331T625 80Q625 -128 649 -164T834 -201V-436H745Q563 -436 466 -362T369 -53V72Q369 230 317 296T150 362Z"  />
<glyph unicode="|" horiz-adv-x="1251" d="M591 1416H840V-456H591V1416Z"  />
<glyph unicode="}" horiz-adv-x="788" d="M819 592V362Q704 362 652 296T600 72V-53Q600 -287 503 -361T223 -436H135V-201Q296 -201 320 -165T344 80Q344 247 384 331T526 477Q425 539 385 623T344 874Q344 1083 320 1119T135 1155V1391H223Q406 1391 503 1317T600 1008V883Q600 724 652 658T819 592Z"  />
<glyph unicode="~" horiz-adv-x="1194" d="M1248 637Q1086 495 929 495Q859 495 793 520T635 591Q502 656 433 656Q283 656 124 505V760Q288 902 452 902Q550 902 722 817Q875 741 951 741Q1086 741 1248 893V637Z"  />
<glyph unicode="&#xA0;" horiz-adv-x="1024" />
<glyph unicode="&#xA1;" horiz-adv-x="682" d="M649 969L578 655H264L336 969H649ZM453 483L406 -41L317 -422H29L117 -41L315 483H453Z"  />
<glyph unicode="&#xA2;" horiz-adv-x="1087" d="M391 -377H260L393 0Q258 40 186 146T113 401Q113 623 271 801T664 980Q703 980 743 975L874 1339H1008L856 940Q888 929 911 905L926 969H1143L1059 604H850Q845 680 776 715L596 203Q721 216 813 350L1022 246Q863 -31 566 -31Q540 -31 514 -29L391 -377ZM487 240L666 741Q552 734 486 633T420 395Q420 303 487 240Z"  />
<glyph unicode="&#xA3;" horiz-adv-x="1044" d="M883 365H1047Q1015 183 913 79T676 -25Q563 -25 477 80Q382 -18 281 -18Q196 -18 144 34T92 170Q92 263 157 328T315 393Q377 393 442 365Q448 453 426 584H160L205 776H393Q376 874 376 959Q376 1177 487 1296T793 1415Q954 1415 1047 1341T1140 1139Q1140 1086 1122 1026H885Q901 1068 901 1110Q901 1227 797 1227Q651 1227 651 987Q651 907 670 776H944L899 584H670Q655 377 598 279Q671 221 741 221Q840 221 883 365ZM393 186Q337 262 289 262Q252 262 228 239T203 180Q203 148 226 127T285 106Q350 106 393 186Z"  />
<glyph unicode="&#xA4;" horiz-adv-x="1366" d="M274 936L137 1075L307 1247L444 1106Q555 1174 680 1174Q803 1174 922 1106L1059 1247L1229 1075L1092 936Q1155 820 1155 696Q1155 568 1092 463L1229 326L1059 156L922 291Q800 223 676 223Q551 223 444 291L307 156L137 326L274 463Q209 581 209 707Q209 830 274 936ZM918 698Q918 795 849 864T682 934Q586 934 516 865T446 698Q446 602 516 533T682 463Q780 463 849 532T918 698Z"  />
<glyph unicode="&#xA5;" horiz-adv-x="1280" d="M672 1032H969L1090 1174H975L1026 1391H1585L1536 1174H1405L1276 1032H1485L1452 893H1151L899 616H1378L1346 477H856L795 217H938L885 0H258L309 217H440L500 477H84L119 616H522L408 893H119L152 1032H350L293 1174H156L207 1391H784L733 1174H621L672 1032ZM887 893H694L754 741L887 893Z"  />
<glyph unicode="&#xA6;" horiz-adv-x="1251" d="M591 1416H840V636H591V1416ZM591 325H840V-456H591V325Z"  />
<glyph unicode="&#xA7;" horiz-adv-x="1044" d="M45 -111L283 -53Q279 -141 332 -193T465 -246Q528 -246 570 -212T612 -129Q612 -90 578 -45T374 122T150 328T94 494Q94 604 171 701T389 854Q289 957 289 1092Q289 1236 400 1324T696 1413Q1081 1413 1116 1087L874 1044Q880 1123 832 1171T698 1219Q630 1219 591 1185T551 1092Q551 1053 586 1009T791 849T1016 652T1071 492Q1071 264 776 125Q877 22 877 -111Q877 -255 763 -347T469 -440Q284 -440 171 -354T45 -111ZM451 389L653 229Q733 259 776 312T819 422Q819 510 688 608L502 748Q346 672 346 557Q346 471 451 389Z"  />
<glyph unicode="&#xA8;" horiz-adv-x="682" d="M631 1251Q631 1311 674 1354T776 1397Q836 1397 879 1354T922 1251Q922 1192 879 1149T776 1106Q717 1106 674 1149T631 1251ZM135 1251Q135 1311 178 1354T281 1397Q340 1397 383 1354T426 1251Q426 1192 383 1149T281 1106Q221 1106 178 1149T135 1251Z"  />
<glyph unicode="&#xA9;" horiz-adv-x="1516" d="M78 729Q78 1045 302 1270T844 1495Q1160 1495 1385 1270T1610 729Q1610 413 1385 188T844 -37Q527 -37 303 188T78 729ZM1458 731Q1458 985 1278 1164T844 1343Q590 1343 410 1164T229 731Q229 477 409 296T844 115Q1097 115 1277 296T1458 731ZM1028 616L1190 561Q1108 303 854 303Q678 303 573 418T467 725Q467 923 572 1039T856 1155Q1104 1155 1190 911L1028 872Q976 1012 850 1012Q752 1012 698 938T643 729Q643 594 695 519T842 444Q979 444 1028 616Z"  />
<glyph unicode="&#xAA;" horiz-adv-x="768" d="M852 944L815 821H524L535 868Q446 813 360 813Q280 813 227 858T174 973Q174 1069 259 1128T485 1188Q540 1188 606 1169Q614 1198 614 1220Q614 1303 510 1303Q446 1303 362 1262L268 1350Q400 1415 539 1415Q668 1415 740 1368T812 1235Q812 1208 805 1178L750 944H852ZM561 973L582 1071Q530 1083 487 1083Q429 1083 391 1056T352 989Q352 962 373 943T426 924Q487 924 561 973Z"  />
<glyph unicode="&#xAB;" horiz-adv-x="1087" d="M221 0L86 489L403 969H713L365 449L489 0H221ZM723 0L588 489L905 969H1214L866 449L991 0H723Z"  />
<glyph unicode="&#xAC;" horiz-adv-x="1368" d="M211 1064H1335V333H1087V816H211V1064Z"  />
<glyph unicode="&#xAD;" horiz-adv-x="705" d="M122 356L183 613H665L604 356H122Z"  />
<glyph unicode="&#xAE;" horiz-adv-x="1516" d="M78 729Q78 1045 302 1270T844 1495Q1160 1495 1385 1270T1610 729Q1610 413 1385 188T844 -37Q527 -37 303 188T78 729ZM1458 731Q1458 985 1278 1164T844 1343Q590 1343 410 1164T229 731Q229 477 409 296T844 115Q1097 115 1277 296T1458 731ZM1206 319H1001Q924 480 877 549T796 636T694 653H664V319H498V1133H897Q1022 1133 1089 1070T1157 905Q1157 813 1099 752T936 678V674Q990 658 1035 599T1206 319ZM664 782H809Q983 782 983 895Q983 1006 813 1006H664V782Z"  />
<glyph unicode="&#xAF;" horiz-adv-x="1024" d="M229 1647H1277V1545H229V1647Z"  />
<glyph unicode="&#xB0;" horiz-adv-x="811" d="M535 1413Q677 1413 779 1312T881 1069Q881 927 779 825T535 723Q393 723 292 825T190 1069Q190 1211 291 1312T535 1413ZM535 854Q623 854 686 917T750 1069Q750 1157 687 1219T535 1282Q446 1282 384 1220T322 1069Q322 980 384 917T535 854Z"  />
<glyph unicode="&#xB1;" horiz-adv-x="1368" d="M211 1007H649V1445H897V1007H1335V759H897V321H649V759H211V1007ZM211 200H1335V-48H211V200Z"  />
<glyph unicode="&#xB2;" horiz-adv-x="682" d="M719 928L653 680H162Q166 762 218 851T410 1045T574 1186T600 1255Q600 1296 555 1296Q465 1296 424 1133H244Q316 1415 575 1415Q678 1415 738 1369T799 1245Q799 1195 765 1145T571 989T346 801H535L563 928H719Z"  />
<glyph unicode="&#xB3;" horiz-adv-x="682" d="M188 926H366Q358 895 358 870Q358 791 430 791Q472 791 503 830T534 926Q534 997 434 997H405L434 1116Q606 1116 606 1251Q606 1296 557 1296Q489 1296 463 1196H285Q335 1415 563 1415Q672 1415 736 1367T801 1237Q801 1093 627 1051Q731 991 731 899Q731 805 647 739T440 672Q324 672 253 725T182 871Q182 897 188 926Z"  />
<glyph unicode="&#xB4;" horiz-adv-x="682" d="M475 1071H313L498 1432H854L475 1071Z"  />
<glyph unicode="&#xB5;" horiz-adv-x="1260" d="M256 969H543L438 446Q431 408 431 375Q431 288 479 241T596 193Q770 193 829 475L934 969H1217L1014 0H756L778 94L774 98Q667 -25 559 -25Q436 -25 358 113L244 -440H-43L256 969Z"  />
<glyph unicode="&#xB6;" horiz-adv-x="1130" d="M721 -434H483V569Q294 584 192 691T90 973Q90 1165 206 1278T528 1391H1221V1130H1108V-434H870V1130H721V-434Z"  />
<glyph unicode="&#xB7;" horiz-adv-x="682" d="M844 840Q903 840 946 798T989 696Q989 636 946 594T844 551Q784 551 742 593T699 695Q699 755 741 797T844 840Z"  />
<glyph unicode="&#xB8;" horiz-adv-x="682" d="M221 18H360L326 -82Q483 -105 483 -233Q483 -329 390 -387T141 -446Q56 -446 -63 -428L-25 -336Q29 -348 92 -348Q229 -348 229 -264Q229 -210 143 -199L221 18Z"  />
<glyph unicode="&#xB9;" horiz-adv-x="682" d="M213 680L240 799H338L471 1284H379L406 1403H705L541 799H625L598 680H213Z"  />
<glyph unicode="&#xBA;" horiz-adv-x="768" d="M483 805Q362 805 287 872T211 1044Q211 1200 323 1307T598 1415Q719 1415 795 1345T872 1163Q872 1012 760 909T483 805ZM580 1284Q509 1284 458 1213T406 1040Q406 932 500 932Q569 932 624 1006T680 1178Q680 1226 653 1255T580 1284Z"  />
<glyph unicode="&#xBB;" horiz-adv-x="1087" d="M958 969L1094 479L776 0H467L815 520L690 969H958ZM457 969L592 479L274 0H-35L313 520L188 969H457Z"  />
<glyph unicode="&#xBC;" horiz-adv-x="1898" d="M174 680L201 799H299L432 1284H340L367 1403H666L502 799H586L559 680H174ZM145 0L1479 1391H1661L328 0H145ZM1124 0L1149 109H1235L1253 195H1010L999 319L1403 735H1583L1460 299H1587L1563 195H1436L1417 109H1489L1462 0H1124ZM1278 299L1333 516L1122 299H1278Z"  />
<glyph unicode="&#xBD;" horiz-adv-x="1898" d="M174 680L201 799H299L432 1284H340L367 1403H666L502 799H586L559 680H174ZM145 0L1479 1391H1661L328 0H145ZM1591 248L1526 0H1034Q1038 82 1090 171T1282 365T1447 506T1473 575Q1473 616 1427 616Q1338 616 1296 453H1116Q1189 735 1448 735Q1550 735 1610 689T1671 565Q1671 515 1637 465T1444 309T1219 121H1407L1436 248H1591Z"  />
<glyph unicode="&#xBE;" horiz-adv-x="1898" d="M188 926H366Q358 895 358 870Q358 791 430 791Q472 791 503 830T534 926Q534 997 434 997H405L434 1116Q606 1116 606 1251Q606 1296 557 1296Q489 1296 463 1196H285Q335 1415 563 1415Q672 1415 736 1367T801 1237Q801 1093 627 1051Q731 991 731 899Q731 805 647 739T440 672Q324 672 253 725T182 871Q182 897 188 926ZM188 0L1522 1391H1704L371 0H188ZM1167 0L1192 109H1278L1296 195H1053L1042 319L1446 735H1626L1503 299H1630L1605 195H1479L1460 109H1532L1505 0H1167ZM1321 299L1376 516L1165 299H1321Z"  />
<glyph unicode="&#xBF;" horiz-adv-x="1110" d="M928 969L856 655H543L614 969H928ZM733 494L700 137Q546 146 447 80T348 -86Q348 -156 397 -201T522 -246Q676 -246 723 -90H1014Q884 -440 477 -440Q278 -440 165 -343T51 -86Q51 82 179 205T535 342L600 494H733Z"  />
<glyph unicode="&#xC0;" horiz-adv-x="1323" d="M-76 0L-25 217H109L635 1174H500L549 1391H1354L1305 1174H1186L1227 217H1370L1319 0H739L791 217H920V451H498L381 217H510L459 0H-76ZM911 649L895 1186H881L602 649H911ZM965 1495L586 1856H942L1126 1495H965Z"  />
<glyph unicode="&#xC1;" horiz-adv-x="1323" d="M-76 0L-25 217H109L635 1174H500L549 1391H1354L1305 1174H1186L1227 217H1370L1319 0H739L791 217H920V451H498L381 217H510L459 0H-76ZM911 649L895 1186H881L602 649H911ZM930 1495H768L953 1856H1309L930 1495Z"  />
<glyph unicode="&#xC2;" horiz-adv-x="1323" d="M-76 0L-25 217H109L635 1174H500L549 1391H1354L1305 1174H1186L1227 217H1370L1319 0H739L791 217H920V451H498L381 217H510L459 0H-76ZM911 649L895 1186H881L602 649H911ZM518 1487L865 1860H1145L1293 1487H1170L992 1716L652 1487H518Z"  />
<glyph unicode="&#xC3;" horiz-adv-x="1323" d="M-76 0L-25 217H109L635 1174H500L549 1391H1354L1305 1174H1186L1227 217H1370L1319 0H739L791 217H920V451H498L381 217H510L459 0H-76ZM911 649L895 1186H881L602 649H911ZM1221 1833H1366Q1373 1688 1304 1599T1131 1509Q1076 1509 968 1565T813 1622Q736 1622 736 1507H586Q586 1665 655 1748T817 1831Q878 1831 989 1776T1135 1720Q1212 1720 1221 1833Z"  />
<glyph unicode="&#xC4;" horiz-adv-x="1323" d="M-76 0L-25 217H109L635 1174H500L549 1391H1354L1305 1174H1186L1227 217H1370L1319 0H739L791 217H920V451H498L381 217H510L459 0H-76ZM911 649L895 1186H881L602 649H911ZM1086 1675Q1086 1735 1129 1778T1231 1821Q1291 1821 1334 1778T1377 1675Q1377 1616 1334 1573T1231 1530Q1172 1530 1129 1573T1086 1675ZM590 1675Q590 1735 633 1778T736 1821Q795 1821 838 1778T881 1675Q881 1616 838 1573T736 1530Q676 1530 633 1573T590 1675Z"  />
<glyph unicode="&#xC5;" horiz-adv-x="1323" d="M818 1391Q743 1427 700 1496T657 1647Q657 1763 740 1846T940 1930Q1058 1930 1140 1847T1223 1647Q1223 1472 1062 1391H1332L1281 1173H1139L1225 218H1368L1317 0H737L789 218H919V450H497L381 218H510L458 0H-76L-24 218H110L635 1173H497L550 1391H818ZM940 1810Q873 1810 825 1762T777 1646Q777 1580 825 1532T940 1484Q1007 1484 1055 1532T1103 1647Q1103 1714 1056 1762T940 1810ZM910 650L893 1188H879L602 650H910Z"  />
<glyph unicode="&#xC6;" horiz-adv-x="1898" d="M-98 0L-47 217H45L659 1174H520L571 1391H2075L1972 946H1747L1798 1174H1374L1288 797H1614L1567 596H1241L1155 217H1587L1636 436H1853L1753 0H608L659 217H807L893 596H555L322 217H453L403 0H-98ZM940 797L1049 1217H928L678 797H940Z"  />
<glyph unicode="&#xC7;" horiz-adv-x="1579" d="M614 -199L684 -2Q445 45 307 209T168 596Q168 925 445 1169T1102 1413Q1356 1413 1485 1257L1516 1391H1739L1634 938H1411Q1374 1167 1098 1167Q875 1167 706 991T537 582Q537 432 628 336T862 240Q1104 240 1307 481L1530 317Q1399 155 1220 69T846 -18H819L797 -82Q954 -105 954 -233Q954 -329 861 -387T612 -446Q527 -446 408 -428L446 -336Q500 -348 563 -348Q700 -348 700 -264Q700 -210 614 -199Z"  />
<glyph unicode="&#xC8;" horiz-adv-x="1300" d="M18 0L70 217H201L422 1174H291L340 1391H1477L1374 948H1114L1165 1174H772L692 817H1018L967 600H641L553 217H954L1006 436H1257L1155 0H18ZM978 1495L599 1856H955L1139 1495H978Z"  />
<glyph unicode="&#xC9;" horiz-adv-x="1300" d="M18 0L70 217H201L422 1174H291L340 1391H1477L1374 948H1114L1165 1174H772L692 817H1018L967 600H641L553 217H954L1006 436H1257L1155 0H18ZM918 1495H756L941 1856H1297L918 1495Z"  />
<glyph unicode="&#xCA;" horiz-adv-x="1300" d="M18 0L70 217H201L422 1174H291L340 1391H1477L1374 948H1114L1165 1174H772L692 817H1018L967 600H641L553 217H954L1006 436H1257L1155 0H18ZM506 1487L853 1860H1133L1281 1487H1158L980 1716L640 1487H506Z"  />
<glyph unicode="&#xCB;" horiz-adv-x="1300" d="M18 0L70 217H201L422 1174H291L340 1391H1477L1374 948H1114L1165 1174H772L692 817H1018L967 600H641L553 217H954L1006 436H1257L1155 0H18ZM1074 1675Q1074 1735 1117 1778T1219 1821Q1279 1821 1322 1778T1365 1675Q1365 1616 1322 1573T1219 1530Q1160 1530 1117 1573T1074 1675ZM578 1675Q578 1735 621 1778T724 1821Q783 1821 826 1778T869 1675Q869 1616 826 1573T724 1530Q664 1530 621 1573T578 1675Z"  />
<glyph unicode="&#xCC;" horiz-adv-x="811" d="M-18 0L31 217H207L428 1174H231L281 1391H983L934 1174H782L561 217H762L711 0H-18ZM652 1495L273 1856H629L813 1495H652Z"  />
<glyph unicode="&#xCD;" horiz-adv-x="811" d="M-18 0L31 217H207L428 1174H231L281 1391H983L934 1174H782L561 217H762L711 0H-18ZM674 1495H512L697 1856H1053L674 1495Z"  />
<glyph unicode="&#xCE;" horiz-adv-x="811" d="M-18 0L31 217H207L428 1174H231L281 1391H983L934 1174H782L561 217H762L711 0H-18ZM262 1487L609 1860H889L1037 1487H914L736 1716L396 1487H262Z"  />
<glyph unicode="&#xCF;" horiz-adv-x="811" d="M-18 0L31 217H207L428 1174H231L281 1391H983L934 1174H782L561 217H762L711 0H-18ZM830 1675Q830 1735 873 1778T975 1821Q1035 1821 1078 1778T1121 1675Q1121 1616 1078 1573T975 1530Q916 1530 873 1573T830 1675ZM334 1675Q334 1735 377 1778T480 1821Q539 1821 582 1778T625 1675Q625 1616 582 1573T480 1530Q420 1530 377 1573T334 1675Z"  />
<glyph unicode="&#xD0;" horiz-adv-x="1556" d="M-16 0L35 217H203L291 600H90L139 817H340L422 1174H254L305 1391H879Q1206 1391 1377 1225T1548 778Q1548 437 1336 219T782 0H-16ZM555 217H766Q966 217 1076 415T1186 844Q1186 991 1097 1082T858 1174H774L692 817H950L901 600H643L555 217Z"  />
<glyph unicode="&#xD1;" horiz-adv-x="1622" d="M20 0L72 217H203L422 1174H291L342 1391H860L1178 428L1348 1174H1217L1268 1391H1769L1718 1174H1587L1315 -12H1010L647 1108L444 217H590L539 0H20ZM1371 1833H1516Q1523 1688 1454 1599T1281 1509Q1226 1509 1118 1565T963 1622Q886 1622 886 1507H736Q736 1665 805 1748T967 1831Q1028 1831 1139 1776T1285 1720Q1362 1720 1371 1833Z"  />
<glyph unicode="&#xD2;" horiz-adv-x="1686" d="M782 -18Q519 -18 346 146T172 559Q172 899 429 1158T1059 1417Q1347 1417 1517 1250T1688 838Q1688 481 1425 232T782 -18ZM1319 874Q1319 1005 1237 1088T1024 1171Q811 1171 676 968T541 535Q541 391 619 309T836 227Q1061 227 1190 438T1319 874ZM1170 1495L791 1856H1147L1331 1495H1170Z"  />
<glyph unicode="&#xD3;" horiz-adv-x="1686" d="M782 -18Q519 -18 346 146T172 559Q172 899 429 1158T1059 1417Q1347 1417 1517 1250T1688 838Q1688 481 1425 232T782 -18ZM1319 874Q1319 1005 1237 1088T1024 1171Q811 1171 676 968T541 535Q541 391 619 309T836 227Q1061 227 1190 438T1319 874ZM1110 1495H948L1133 1856H1489L1110 1495Z"  />
<glyph unicode="&#xD4;" horiz-adv-x="1686" d="M782 -18Q519 -18 346 146T172 559Q172 899 429 1158T1059 1417Q1347 1417 1517 1250T1688 838Q1688 481 1425 232T782 -18ZM1319 874Q1319 1005 1237 1088T1024 1171Q811 1171 676 968T541 535Q541 391 619 309T836 227Q1061 227 1190 438T1319 874ZM698 1487L1045 1860H1325L1473 1487H1350L1172 1716L832 1487H698Z"  />
<glyph unicode="&#xD5;" horiz-adv-x="1686" d="M782 -18Q519 -18 346 146T172 559Q172 899 429 1158T1059 1417Q1347 1417 1517 1250T1688 838Q1688 481 1425 232T782 -18ZM1319 874Q1319 1005 1237 1088T1024 1171Q811 1171 676 968T541 535Q541 391 619 309T836 227Q1061 227 1190 438T1319 874ZM1401 1833H1546Q1553 1688 1484 1599T1311 1509Q1256 1509 1148 1565T993 1622Q916 1622 916 1507H766Q766 1665 835 1748T997 1831Q1058 1831 1169 1776T1315 1720Q1392 1720 1401 1833Z"  />
<glyph unicode="&#xD6;" horiz-adv-x="1686" d="M782 -18Q519 -18 346 146T172 559Q172 899 429 1158T1059 1417Q1347 1417 1517 1250T1688 838Q1688 481 1425 232T782 -18ZM1319 874Q1319 1005 1237 1088T1024 1171Q811 1171 676 968T541 535Q541 391 619 309T836 227Q1061 227 1190 438T1319 874ZM1266 1675Q1266 1735 1309 1778T1411 1821Q1471 1821 1514 1778T1557 1675Q1557 1616 1514 1573T1411 1530Q1352 1530 1309 1573T1266 1675ZM770 1675Q770 1735 813 1778T916 1821Q975 1821 1018 1778T1061 1675Q1061 1616 1018 1573T916 1530Q856 1530 813 1573T770 1675Z"  />
<glyph unicode="&#xD7;" horiz-adv-x="1368" d="M414 1233L773 874L1132 1233L1308 1058L949 699L1308 339L1132 164L773 523L414 164L238 339L597 699L238 1058L414 1233Z"  />
<glyph unicode="&#xD8;" horiz-adv-x="1686" d="M1405 1339L1497 1446L1606 1356L1516 1255Q1688 1080 1688 842Q1688 483 1425 233T782 -18Q722 -18 672 -11T569 17T461 61L332 -86L229 0L350 141Q172 305 172 559Q172 898 427 1157T1065 1417Q1265 1417 1405 1339ZM569 389L1208 1116Q1129 1172 1023 1172Q817 1172 680 972T542 543Q542 452 569 389ZM1294 1006L653 279Q727 226 830 226Q1058 226 1188 435T1319 863Q1319 945 1294 1006Z"  />
<glyph unicode="&#xD9;" horiz-adv-x="1450" d="M325 1174L374 1391H978L929 1174H786L624 481Q613 433 613 393Q613 221 804 221Q911 221 979 297T1087 547L1232 1174H1101L1150 1391H1628L1578 1174H1472L1310 473Q1252 223 1112 100T731 -23Q545 -23 405 67T264 363Q264 442 286 539L432 1174H325ZM991 1495L612 1856H968L1152 1495H991Z"  />
<glyph unicode="&#xDA;" horiz-adv-x="1450" d="M325 1174L374 1391H978L929 1174H786L624 481Q613 433 613 393Q613 221 804 221Q911 221 979 297T1087 547L1232 1174H1101L1150 1391H1628L1578 1174H1472L1310 473Q1252 223 1112 100T731 -23Q545 -23 405 67T264 363Q264 442 286 539L432 1174H325ZM1013 1495H851L1036 1856H1392L1013 1495Z"  />
<glyph unicode="&#xDB;" horiz-adv-x="1450" d="M325 1174L374 1391H978L929 1174H786L624 481Q613 433 613 393Q613 221 804 221Q911 221 979 297T1087 547L1232 1174H1101L1150 1391H1628L1578 1174H1472L1310 473Q1252 223 1112 100T731 -23Q545 -23 405 67T264 363Q264 442 286 539L432 1174H325ZM602 1487L949 1860H1229L1377 1487H1254L1076 1716L736 1487H602Z"  />
<glyph unicode="&#xDC;" horiz-adv-x="1450" d="M325 1174L374 1391H978L929 1174H786L624 481Q613 433 613 393Q613 221 804 221Q911 221 979 297T1087 547L1232 1174H1101L1150 1391H1628L1578 1174H1472L1310 473Q1252 223 1112 100T731 -23Q545 -23 405 67T264 363Q264 442 286 539L432 1174H325ZM1169 1675Q1169 1735 1212 1778T1314 1821Q1374 1821 1417 1778T1460 1675Q1460 1616 1417 1573T1314 1530Q1255 1530 1212 1573T1169 1675ZM673 1675Q673 1735 716 1778T819 1821Q878 1821 921 1778T964 1675Q964 1616 921 1573T819 1530Q759 1530 716 1573T673 1675Z"  />
<glyph unicode="&#xDD;" horiz-adv-x="1280" d="M258 0L309 217H440L528 600L293 1174H156L207 1391H784L733 1174H621L762 788L1090 1174H975L1026 1391H1585L1536 1174H1405L885 600L795 217H938L885 0H258ZM907 1495H745L930 1856H1286L907 1495Z"  />
<glyph unicode="&#xDE;" horiz-adv-x="1323" d="M23 0L72 217H203L424 1174H268L319 1391H995L944 1174H776L762 1108H858Q1364 1108 1364 754Q1364 545 1222 414T768 283H569L555 217H723L674 0H23ZM614 483H735Q865 483 933 561T1001 758Q1001 907 811 907H715L614 483Z"  />
<glyph unicode="&#xDF;" horiz-adv-x="1260" d="M12 0L59 207H166L356 1030Q403 1233 522 1322T854 1411Q1072 1411 1186 1329T1300 1098Q1300 982 1218 894T987 776V772Q1229 700 1229 449Q1229 257 1099 123T784 -12Q708 -12 608 23L655 223Q704 205 739 205Q828 205 883 297T938 504Q938 581 896 631T784 681Q767 681 750 678L799 887Q902 887 957 937T1012 1061Q1012 1128 965 1172T846 1217Q697 1217 659 1055L463 207H547L500 0H12Z"  />
<glyph unicode="&#xE0;" d="M1135 207L1075 0H629L647 78Q506 -12 385 -12Q259 -12 177 64T94 256Q94 415 224 513T586 612Q638 612 764 584L780 664Q783 676 783 687Q783 739 735 771T614 803Q517 803 387 737L240 883Q446 993 659 993Q857 993 967 914T1078 697Q1078 655 1067 608L973 207H1135ZM688 258L725 418Q653 438 578 438Q485 438 427 394T369 283Q369 237 402 206T483 174Q579 174 688 258ZM781 1071L402 1432H758L942 1071H781Z"  />
<glyph unicode="&#xE1;" d="M1135 207L1075 0H629L647 78Q506 -12 385 -12Q259 -12 177 64T94 256Q94 415 224 513T586 612Q638 612 764 584L780 664Q783 676 783 687Q783 739 735 771T614 803Q517 803 387 737L240 883Q446 993 659 993Q857 993 967 914T1078 697Q1078 655 1067 608L973 207H1135ZM688 258L725 418Q653 438 578 438Q485 438 427 394T369 283Q369 237 402 206T483 174Q579 174 688 258ZM721 1071H559L744 1432H1100L721 1071Z"  />
<glyph unicode="&#xE2;" d="M1135 207L1075 0H629L647 78Q506 -12 385 -12Q259 -12 177 64T94 256Q94 415 224 513T586 612Q638 612 764 584L780 664Q783 676 783 687Q783 739 735 771T614 803Q517 803 387 737L240 883Q446 993 659 993Q857 993 967 914T1078 697Q1078 655 1067 608L973 207H1135ZM688 258L725 418Q653 438 578 438Q485 438 427 394T369 283Q369 237 402 206T483 174Q579 174 688 258ZM309 1063L656 1436H936L1084 1063H961L783 1292L443 1063H309Z"  />
<glyph unicode="&#xE3;" d="M1135 207L1075 0H629L647 78Q506 -12 385 -12Q259 -12 177 64T94 256Q94 415 224 513T586 612Q638 612 764 584L780 664Q783 676 783 687Q783 739 735 771T614 803Q517 803 387 737L240 883Q446 993 659 993Q857 993 967 914T1078 697Q1078 655 1067 608L973 207H1135ZM688 258L725 418Q653 438 578 438Q485 438 427 394T369 283Q369 237 402 206T483 174Q579 174 688 258ZM1012 1409H1157Q1164 1264 1095 1175T922 1085Q867 1085 759 1141T604 1198Q527 1198 527 1083H377Q377 1241 446 1324T608 1407Q669 1407 780 1352T926 1296Q1003 1296 1012 1409Z"  />
<glyph unicode="&#xE4;" d="M1135 207L1075 0H629L647 78Q506 -12 385 -12Q259 -12 177 64T94 256Q94 415 224 513T586 612Q638 612 764 584L780 664Q783 676 783 687Q783 739 735 771T614 803Q517 803 387 737L240 883Q446 993 659 993Q857 993 967 914T1078 697Q1078 655 1067 608L973 207H1135ZM688 258L725 418Q653 438 578 438Q485 438 427 394T369 283Q369 237 402 206T483 174Q579 174 688 258ZM877 1251Q877 1311 920 1354T1022 1397Q1082 1397 1125 1354T1168 1251Q1168 1192 1125 1149T1022 1106Q963 1106 920 1149T877 1251ZM381 1251Q381 1311 424 1354T527 1397Q586 1397 629 1354T672 1251Q672 1192 629 1149T527 1106Q467 1106 424 1149T381 1251Z"  />
<glyph unicode="&#xE5;" d="M1135 207L1075 0H629L647 78Q506 -12 385 -12Q259 -12 177 64T94 256Q94 415 224 513T586 612Q638 612 764 584L780 664Q783 676 783 687Q783 739 735 771T614 803Q517 803 387 737L240 883Q446 993 659 993Q857 993 967 914T1078 697Q1078 655 1067 608L973 207H1135ZM688 258L725 418Q653 438 578 438Q485 438 427 394T369 283Q369 237 402 206T483 174Q579 174 688 258ZM559 1268Q559 1355 621 1417T770 1479Q857 1479 919 1417T981 1268Q981 1181 919 1119T770 1057Q683 1057 621 1119T559 1268ZM885 1268Q885 1315 852 1348T770 1382Q723 1382 690 1349T656 1268Q656 1220 689 1187T770 1153Q818 1153 851 1186T885 1268Z"  />
<glyph unicode="&#xE6;" horiz-adv-x="1729" d="M1391 291L1608 190Q1436 -29 1163 -29Q917 -29 791 154Q569 -29 367 -29Q240 -29 160 49T80 252Q80 410 209 514T537 618Q638 618 745 590L762 662Q765 676 765 689Q765 742 715 774T592 807Q483 807 369 743L221 891Q416 993 635 993Q881 993 981 891Q1124 993 1284 993Q1466 993 1590 873T1714 566Q1714 497 1696 424H1014Q1005 387 1005 353Q1005 268 1058 216T1194 164Q1321 164 1391 291ZM1047 582H1434Q1439 609 1439 635Q1439 710 1393 754T1278 799Q1202 799 1139 742T1047 582ZM664 233L707 424Q627 444 571 444Q476 444 416 396T356 270Q356 221 388 191T471 160Q583 160 664 233Z"  />
<glyph unicode="&#xE7;" horiz-adv-x="1087" d="M369 -199L434 -14Q281 20 197 131T113 401Q113 639 279 809T678 979Q807 979 911 905L926 969H1143L1059 606H842Q831 745 682 745Q572 745 496 645T420 395Q420 313 466 261T586 209Q720 209 809 354L1022 250Q857 -21 569 -29L551 -82Q709 -105 709 -233Q709 -329 616 -387T367 -446Q281 -446 162 -428L201 -336Q255 -348 317 -348Q455 -348 455 -264Q455 -210 369 -199Z"  />
<glyph unicode="&#xE8;" horiz-adv-x="1130" d="M782 289L1001 190Q855 -29 565 -29Q363 -29 243 85T123 391Q123 636 284 814T682 993Q866 993 989 877T1112 562Q1112 496 1098 424H410Q404 391 404 361Q404 269 453 217T584 164Q709 164 782 289ZM446 582H829Q833 604 833 626Q833 704 787 751T672 799Q518 799 446 582ZM761 1071L382 1432H738L922 1071H761Z"  />
<glyph unicode="&#xE9;" horiz-adv-x="1130" d="M782 289L1001 190Q855 -29 565 -29Q363 -29 243 85T123 391Q123 636 284 814T682 993Q866 993 989 877T1112 562Q1112 496 1098 424H410Q404 391 404 361Q404 269 453 217T584 164Q709 164 782 289ZM446 582H829Q833 604 833 626Q833 704 787 751T672 799Q518 799 446 582ZM701 1071H539L724 1432H1080L701 1071Z"  />
<glyph unicode="&#xEA;" horiz-adv-x="1130" d="M782 289L1001 190Q855 -29 565 -29Q363 -29 243 85T123 391Q123 636 284 814T682 993Q866 993 989 877T1112 562Q1112 496 1098 424H410Q404 391 404 361Q404 269 453 217T584 164Q709 164 782 289ZM446 582H829Q833 604 833 626Q833 704 787 751T672 799Q518 799 446 582ZM289 1063L636 1436H916L1064 1063H941L763 1292L423 1063H289Z"  />
<glyph unicode="&#xEB;" horiz-adv-x="1130" d="M782 289L1001 190Q855 -29 565 -29Q363 -29 243 85T123 391Q123 636 284 814T682 993Q866 993 989 877T1112 562Q1112 496 1098 424H410Q404 391 404 361Q404 269 453 217T584 164Q709 164 782 289ZM446 582H829Q833 604 833 626Q833 704 787 751T672 799Q518 799 446 582ZM856 1251Q856 1311 899 1354T1001 1397Q1061 1397 1104 1354T1147 1251Q1147 1192 1104 1149T1001 1106Q942 1106 899 1149T856 1251ZM360 1251Q360 1311 403 1354T506 1397Q565 1397 608 1354T651 1251Q651 1192 608 1149T506 1106Q446 1106 403 1149T360 1251Z"  />
<glyph unicode="&#xEC;" horiz-adv-x="682" d="M27 0L74 207H180L309 762H178L225 969H653L477 207H608L561 0H27ZM413 1071L34 1432H390L574 1071H413Z"  />
<glyph unicode="&#xED;" horiz-adv-x="682" d="M27 0L74 207H180L309 762H178L225 969H653L477 207H608L561 0H27ZM475 1071H313L498 1432H854L475 1071Z"  />
<glyph unicode="&#xEE;" horiz-adv-x="682" d="M27 0L74 207H180L309 762H178L225 969H653L477 207H608L561 0H27ZM63 1063L410 1436H690L838 1063H715L537 1292L197 1063H63Z"  />
<glyph unicode="&#xEF;" horiz-adv-x="682" d="M27 0L74 207H180L309 762H178L225 969H653L477 207H608L561 0H27ZM631 1251Q631 1311 674 1354T776 1397Q836 1397 879 1354T922 1251Q922 1192 879 1149T776 1106Q717 1106 674 1149T631 1251ZM135 1251Q135 1311 178 1354T281 1397Q340 1397 383 1354T426 1251Q426 1192 383 1149T281 1106Q221 1106 178 1149T135 1251Z"  />
<glyph unicode="&#xF0;" horiz-adv-x="1300" d="M1231 1311L1012 1225Q1108 1100 1157 948T1206 668Q1206 397 1040 187T582 -23Q400 -23 284 95T168 393Q168 638 343 815T743 993Q833 993 905 940L909 944Q875 1032 786 1137L565 1051L444 1153L686 1247Q627 1303 582 1327L801 1413Q862 1377 909 1335L1110 1413L1231 1311ZM737 780Q614 780 542 644T469 362Q469 286 509 242T614 197Q736 197 810 332T885 606Q885 683 844 731T737 780Z"  />
<glyph unicode="&#xF1;" horiz-adv-x="1237" d="M6 0L53 207H160L289 762H143L190 969H633L604 848Q742 933 805 957T938 981Q1036 981 1098 919T1161 753Q1161 712 1151 668L1044 207H1176L1128 0H700L842 612Q849 642 849 665Q849 748 778 748Q705 748 557 641L457 207H580L532 0H6ZM1045 1409H1190Q1197 1264 1128 1175T955 1085Q900 1085 792 1141T637 1198Q560 1198 560 1083H410Q410 1241 479 1324T641 1407Q702 1407 813 1352T959 1296Q1036 1296 1045 1409Z"  />
<glyph unicode="&#xF2;" d="M537 -29Q350 -29 234 83T117 375Q117 635 289 814T713 993Q909 993 1022 869T1135 569Q1135 320 964 146T537 -29ZM686 776Q563 776 491 645T418 365Q418 284 456 236T559 188Q680 188 757 319T834 598Q834 679 794 727T686 776ZM781 1071L402 1432H758L942 1071H781Z"  />
<glyph unicode="&#xF3;" d="M537 -29Q350 -29 234 83T117 375Q117 635 289 814T713 993Q909 993 1022 869T1135 569Q1135 320 964 146T537 -29ZM686 776Q563 776 491 645T418 365Q418 284 456 236T559 188Q680 188 757 319T834 598Q834 679 794 727T686 776ZM721 1071H559L744 1432H1100L721 1071Z"  />
<glyph unicode="&#xF4;" d="M537 -29Q350 -29 234 83T117 375Q117 635 289 814T713 993Q909 993 1022 869T1135 569Q1135 320 964 146T537 -29ZM686 776Q563 776 491 645T418 365Q418 284 456 236T559 188Q680 188 757 319T834 598Q834 679 794 727T686 776ZM309 1063L656 1436H936L1084 1063H961L783 1292L443 1063H309Z"  />
<glyph unicode="&#xF5;" d="M537 -29Q350 -29 234 83T117 375Q117 635 289 814T713 993Q909 993 1022 869T1135 569Q1135 320 964 146T537 -29ZM686 776Q563 776 491 645T418 365Q418 284 456 236T559 188Q680 188 757 319T834 598Q834 679 794 727T686 776ZM1012 1409H1157Q1164 1264 1095 1175T922 1085Q867 1085 759 1141T604 1198Q527 1198 527 1083H377Q377 1241 446 1324T608 1407Q669 1407 780 1352T926 1296Q1003 1296 1012 1409Z"  />
<glyph unicode="&#xF6;" d="M537 -29Q350 -29 234 83T117 375Q117 635 289 814T713 993Q909 993 1022 869T1135 569Q1135 320 964 146T537 -29ZM686 776Q563 776 491 645T418 365Q418 284 456 236T559 188Q680 188 757 319T834 598Q834 679 794 727T686 776ZM877 1251Q877 1311 920 1354T1022 1397Q1082 1397 1125 1354T1168 1251Q1168 1192 1125 1149T1022 1106Q963 1106 920 1149T877 1251ZM381 1251Q381 1311 424 1354T527 1397Q586 1397 629 1354T672 1251Q672 1192 629 1149T527 1106Q467 1106 424 1149T381 1251Z"  />
<glyph unicode="&#xF7;" horiz-adv-x="1368" d="M919 1117Q919 1057 876 1015T773 972Q714 972 671 1014T628 1117Q628 1178 671 1220T773 1263Q833 1263 876 1221T919 1117ZM211 816H1335V581H211V816ZM919 280Q919 219 876 177T773 134Q713 134 671 176T628 280Q628 340 671 383T773 426Q833 426 876 383T919 280Z"  />
<glyph unicode="&#xF8;" d="M123 -12L219 102Q117 213 117 385Q117 639 290 816T713 993Q844 993 936 938L1036 1055L1128 973L1030 858Q1135 732 1135 571Q1135 332 967 152T539 -29Q405 -29 319 25L219 -96L123 -12ZM418 332L772 745Q730 776 679 776Q556 776 481 627T418 332ZM834 629L479 213Q512 189 558 189Q666 189 750 309T834 629Z"  />
<glyph unicode="&#xF9;" horiz-adv-x="1237" d="M1165 207L1116 0H688L719 127Q516 -10 369 -10Q286 -10 225 49T164 188Q164 259 188 365L281 762H150L199 969H627L481 344Q475 319 475 298Q475 223 537 223Q574 223 641 255T766 336L864 762H733L782 969H1210L1034 207H1165ZM732 1071L353 1432H709L893 1071H732Z"  />
<glyph unicode="&#xFA;" horiz-adv-x="1237" d="M1165 207L1116 0H688L719 127Q516 -10 369 -10Q286 -10 225 49T164 188Q164 259 188 365L281 762H150L199 969H627L481 344Q475 319 475 298Q475 223 537 223Q574 223 641 255T766 336L864 762H733L782 969H1210L1034 207H1165ZM754 1071H592L777 1432H1133L754 1071Z"  />
<glyph unicode="&#xFB;" horiz-adv-x="1237" d="M1165 207L1116 0H688L719 127Q516 -10 369 -10Q286 -10 225 49T164 188Q164 259 188 365L281 762H150L199 969H627L481 344Q475 319 475 298Q475 223 537 223Q574 223 641 255T766 336L864 762H733L782 969H1210L1034 207H1165ZM342 1063L689 1436H969L1117 1063H994L816 1292L476 1063H342Z"  />
<glyph unicode="&#xFC;" horiz-adv-x="1237" d="M1165 207L1116 0H688L719 127Q516 -10 369 -10Q286 -10 225 49T164 188Q164 259 188 365L281 762H150L199 969H627L481 344Q475 319 475 298Q475 223 537 223Q574 223 641 255T766 336L864 762H733L782 969H1210L1034 207H1165ZM910 1251Q910 1311 953 1354T1055 1397Q1115 1397 1158 1354T1201 1251Q1201 1192 1158 1149T1055 1106Q996 1106 953 1149T910 1251ZM414 1251Q414 1311 457 1354T560 1397Q619 1397 662 1354T705 1251Q705 1192 662 1149T560 1106Q500 1106 457 1149T414 1251Z"  />
<glyph unicode="&#xFD;" horiz-adv-x="1153" d="M31 -440L78 -233H240L354 -31L207 762H100L150 969H657L608 762H492L551 307L813 762H696L743 969H1249L1202 762H1071L375 -440H31ZM711 1071H549L734 1432H1090L711 1071Z"  />
<glyph unicode="&#xFE;" horiz-adv-x="1237" d="M-104 -440L-57 -233H80L408 1184H270L317 1391H752L625 842L629 838Q764 981 920 981Q1066 981 1156 872T1247 586Q1247 330 1099 151T741 -29Q562 -29 461 131L377 -233H535L487 -440H-104ZM795 748Q695 748 613 635T530 381Q530 304 576 253T690 201Q802 201 874 314T946 571Q946 652 905 700T795 748Z"  />
<glyph unicode="&#xFF;" horiz-adv-x="1153" d="M31 -440L78 -233H240L354 -31L207 762H100L150 969H657L608 762H492L551 307L813 762H696L743 969H1249L1202 762H1071L375 -440H31ZM867 1251Q867 1311 910 1354T1012 1397Q1072 1397 1115 1354T1158 1251Q1158 1192 1115 1149T1012 1106Q953 1106 910 1149T867 1251ZM371 1251Q371 1311 414 1354T517 1397Q576 1397 619 1354T662 1251Q662 1192 619 1149T517 1106Q457 1106 414 1149T371 1251Z"  />
<glyph unicode="&#x131;" horiz-adv-x="682" d="M27 0L74 207H180L309 762H178L225 969H653L477 207H608L561 0H27Z"  />
<glyph unicode="&#x152;" horiz-adv-x="2048" d="M1794 438H2017L1915 0H735Q480 0 330 154T180 537Q180 876 418 1133T1018 1391H2224L2122 950H1901L1952 1174H1554L1473 817H1800L1751 600H1423L1335 217H1745L1794 438ZM1202 1174H1092Q764 1174 654 925T543 504Q543 362 632 286T884 210Q931 210 983 217L1202 1174Z"  />
<glyph unicode="&#x153;" horiz-adv-x="2028" d="M1681 293L1909 188Q1757 -29 1456 -29Q1193 -29 1028 160Q923 61 827 16T594 -29Q379 -29 251 94T123 422Q123 663 302 828T745 993Q983 993 1106 827Q1335 997 1546 997Q1744 997 1875 875T2006 546Q2006 487 1995 424H1204Q1202 408 1202 392Q1202 293 1272 229T1442 164Q1573 164 1681 293ZM1747 582Q1754 681 1693 742T1534 803Q1437 803 1359 744T1247 582H1747ZM729 776Q582 776 500 642T418 391Q418 300 474 244T623 188Q763 188 845 311T928 588Q928 669 872 722T729 776Z"  />
<glyph unicode="&#x160;" horiz-adv-x="1044" d="M23 0L123 432H354Q346 402 346 374Q346 307 392 264T502 221Q579 221 630 271T682 397Q682 447 652 502T487 678T312 878T272 1032Q272 1179 373 1290T659 1401Q833 1401 932 1292L954 1391H1176L1090 1024H868Q871 1038 871 1052Q871 1105 828 1139T715 1174Q654 1174 618 1146T582 1075Q582 1040 606 1000T766 841T949 624T997 426Q997 229 871 102T551 -25Q389 -25 279 104L254 0H23ZM1324 1864L978 1491H697L549 1864H672L851 1634L1190 1864H1324Z"  />
<glyph unicode="&#x161;" horiz-adv-x="1004" d="M16 0L94 334H285Q318 170 512 170Q700 170 700 274Q700 310 672 336T476 400T250 519T190 676Q190 807 302 893T588 979Q722 979 813 918L825 969H1034L969 686H770Q737 799 592 799Q524 799 483 773T442 705Q442 677 468 657T654 599T878 486T942 311Q942 172 822 81T512 -10Q344 -10 240 55L227 0H16ZM1170 1440L824 1067H543L395 1440H518L697 1210L1036 1440H1170Z"  />
<glyph unicode="&#x178;" horiz-adv-x="1280" d="M258 0L309 217H440L528 600L293 1174H156L207 1391H784L733 1174H621L762 788L1090 1174H975L1026 1391H1585L1536 1174H1405L885 600L795 217H938L885 0H258ZM1063 1675Q1063 1735 1106 1778T1208 1821Q1268 1821 1311 1778T1354 1675Q1354 1616 1311 1573T1208 1530Q1149 1530 1106 1573T1063 1675ZM567 1675Q567 1735 610 1778T713 1821Q772 1821 815 1778T858 1675Q858 1616 815 1573T713 1530Q653 1530 610 1573T567 1675Z"  />
<glyph unicode="&#x17D;" horiz-adv-x="1237" d="M8 0L59 217L934 1184H547L496 965H283L381 1391H1409L1366 1204L473 207H918L973 438H1190L1087 0H8ZM1420 1864L1074 1491H793L645 1864H768L947 1634L1286 1864H1420Z"  />
<glyph unicode="&#x17E;" horiz-adv-x="981" d="M-25 0L18 188L649 780H410L381 655H184L256 969H1055L1012 780L381 188H674L711 352H911L831 0H-25ZM1158 1440L812 1067H531L383 1440H506L685 1210L1024 1440H1158Z"  />
<glyph unicode="&#x192;" horiz-adv-x="1130" d="M274 850L313 1057H512L553 1253Q576 1376 650 1431T866 1487Q1003 1487 1139 1446L1087 1219Q994 1247 930 1247Q838 1247 819 1165L795 1057H1001L967 850H762L586 -152Q560 -298 487 -364T260 -430Q107 -430 -20 -391L39 -170Q134 -193 209 -193Q299 -193 317 -84L477 850H274Z"  />
<glyph unicode="&#x237;" horiz-adv-x="662" d="M356 762H225L272 969H700L479 10Q425 -221 319 -321T20 -422Q-55 -422 -115 -403L-66 -186Q-41 -189 -20 -189Q63 -189 109 -149T188 35L356 762Z"  />
<glyph unicode="&#x2C6;" horiz-adv-x="682" d="M63 1063L410 1436H690L838 1063H715L537 1292L197 1063H63Z"  />
<glyph unicode="&#x2DC;" horiz-adv-x="682" d="M766 1409H911Q918 1264 849 1175T676 1085Q621 1085 513 1141T358 1198Q281 1198 281 1083H131Q131 1241 200 1324T362 1407Q423 1407 534 1352T680 1296Q757 1296 766 1409Z"  />
<glyph unicode="&#x2013;" horiz-adv-x="1024" d="M31 637H1079V387H31V637Z"  />
<glyph unicode="&#x2014;" horiz-adv-x="2048" d="M31 637H2103V387H31V637Z"  />
<glyph unicode="&#x2018;" horiz-adv-x="682" d="M643 1024L571 711H258L330 1024Q409 1377 723 1391L690 1249Q539 1217 498 1024H643Z"  />
<glyph unicode="&#x2019;" horiz-adv-x="682" d="M377 1077L449 1391H762L690 1077Q611 724 297 711L330 852Q481 885 522 1077H377Z"  />
<glyph unicode="&#x201A;" horiz-adv-x="682" d="M123 0L195 313H508L436 0Q357 -353 43 -367L76 -225Q227 -193 268 0H123Z"  />
<glyph unicode="&#x201C;" horiz-adv-x="1217" d="M1188 1024L1116 711H803L874 1024Q954 1377 1268 1391L1235 1249Q1084 1217 1042 1024H1188ZM668 1024L596 711H283L354 1024Q433 1377 748 1391L715 1249Q564 1217 522 1024H668Z"  />
<glyph unicode="&#x201D;" horiz-adv-x="1217" d="M885 1077L956 1391H1270L1198 1077Q1119 724 805 711L838 852Q989 885 1030 1077H885ZM362 1077L434 1391H748L676 1077Q597 724 283 711L315 852Q466 885 508 1077H362Z"  />
<glyph unicode="&#x201E;" horiz-adv-x="1217" d="M647 0L719 313H1032L961 0Q882 -353 567 -367L600 -225Q751 -193 793 0H647ZM127 0L199 313H512L440 0Q361 -353 47 -367L80 -225Q231 -193 272 0H127Z"  />
<glyph unicode="&#x2020;" horiz-adv-x="981" d="M262 -416L360 279L416 520Q502 599 539 780Q325 780 260 723H72L125 956H313Q380 908 567 901Q590 1033 590 1086Q590 1145 569 1184L616 1391H877L829 1184Q741 1081 696 901Q747 897 796 903T885 925L963 956H1143L1090 723H909Q832 779 670 780Q650 716 650 650Q650 576 676 520L616 262L393 -416H262Z"  />
<glyph unicode="&#x2021;" horiz-adv-x="1004" d="M219 -420L268 -207Q359 -107 395 37Q256 37 166 -20H-18L37 213H217Q296 156 422 156Q439 255 439 317Q439 409 393 483Q506 566 573 811Q430 824 326 754H137L193 987H379Q455 929 600 930Q616 1021 616 1068Q616 1134 590 1184L637 1391H895L848 1184Q761 1095 721 930Q881 941 950 987H1133L1077 754H897Q830 805 692 811Q673 736 673 669Q673 563 721 483Q606 401 543 156Q687 145 795 213H981L926 -20H743Q669 37 514 37Q495 -21 495 -78Q495 -150 526 -207L477 -420H219Z"  />
<glyph unicode="&#x2022;" horiz-adv-x="725" d="M164 698Q164 816 247 899T449 983Q566 983 650 900T735 698Q735 581 651 497T449 412Q331 412 248 496T164 698Z"  />
<glyph unicode="&#x2026;" horiz-adv-x="2048" d="M856 336H1192V0H856V336ZM1538 336H1874V0H1538V336ZM174 336H510V0H174V336Z"  />
<glyph unicode="&#x2030;" horiz-adv-x="2390" d="M371 684Q238 684 164 759T90 969Q90 1155 202 1281T477 1407Q607 1407 680 1333T754 1128Q754 941 643 813T371 684ZM528 1202Q528 1278 469 1278Q403 1278 359 1135T315 905Q315 813 377 813Q442 813 485 956T528 1202ZM117 0L1450 1391H1630L297 0H117ZM2093 -27Q1961 -27 1887 48T1812 258Q1812 445 1924 570T2200 696Q2329 696 2402 623T2476 418Q2476 231 2365 102T2093 -27ZM2251 492Q2251 567 2191 567Q2126 567 2082 424T2038 195Q2038 102 2099 102Q2165 102 2208 245T2251 492ZM1284 -27Q1152 -27 1078 48T1004 258Q1004 445 1115 570T1391 696Q1520 696 1593 623T1667 418Q1667 231 1556 102T1284 -27ZM1442 492Q1442 567 1382 567Q1317 567 1273 424T1229 195Q1229 102 1290 102Q1356 102 1399 245T1442 492Z"  />
<glyph unicode="&#x2039;" horiz-adv-x="532" d="M199 0L63 489L381 969H690L342 449L467 0H199Z"  />
<glyph unicode="&#x203A;" horiz-adv-x="532" d="M412 969L547 479L229 0H-80L268 520L143 969H412Z"  />
<glyph unicode="&#x20AC;" horiz-adv-x="1110" d="M1272 1391L1204 979H1044Q991 1204 813 1204Q615 1204 506 909H897L862 760H465Q451 688 449 629H838L803 479H453Q483 186 655 186Q812 186 946 420L1124 297Q1036 140 912 59T645 -23Q453 -23 336 106T195 479H66L102 629H188Q191 695 201 760H92L129 909H233Q314 1154 463 1283T815 1413Q894 1413 967 1378T1083 1284L1106 1391H1272Z"  />
<glyph unicode="&#x2122;" horiz-adv-x="2048" d="M401 573V1249H147V1391H813V1249H567V573H401ZM909 573V1391H1169L1321 827L1468 1391H1729V573H1571V1229L1393 573H1241L1067 1225V573H909Z"  />

</font>
</defs>
</svg>
