<?xml  version="1.0" encoding="UTF-8"?>
<!DOCTYPE svg PUBLIC "-//W3C//DTD SVG 1.0//EN" "http://www.w3.org/TR/2001/REC-SVG-20010904/DTD/svg10.dtd" >
<svg xmlns="http://www.w3.org/2000/svg" >
<metadata>
<version>1.0</version>
<id><![CDATA[Rockwell W01 Bold Condensed]]></id>
<vendor>Monotype Imaging Inc.</vendor>
<credits>
<name>Fonts.com WebFonts</name>
<URL>http://webfonts.fonts.com</URL>
<role>Home of the Web fonts</role>
</credits>
<license>
<URL>http://webfonts.fonts.com/Legal</URL>
</license>
<copyright><![CDATA[Digitized data copyright The Monotype Corporation 1991-1995. All rights reserved. Rockwell¨ is a trademark of The Monotype Corporation which may be registered in certain jurisdictions.]]></copyright>
<trademark><![CDATA[Rockwell¨ is a trademark of The Monotype Corporation which may be registered in certain jurisdictions.]]></trademark>
<licensee>
<name></name>
</licensee>
</metadata>
<defs >
<font horiz-adv-x="985" id="984fd618-379b-4681-9807-305f99bf6fd2">
<font-face font-family="" panose-1="2 6 9 2 2 1 5 2 4 3" ascent="1927" descent="-459" units-per-em="2048" alphabetic="0">
</font-face>
<missing-glyph horiz-adv-x="0" />

<glyph unicode="&#xA;" />
<glyph unicode="&#xD;" horiz-adv-x="0" />
<glyph unicode=" " horiz-adv-x="682" />
<glyph unicode="!" horiz-adv-x="598" d="M238 481L147 1026V1438H453V1026L362 481H238ZM139 0V319H459V0H139Z"  />
<glyph unicode="&quot;" horiz-adv-x="971" d="M98 1438H387V1180L293 854H193L98 1180V1438ZM584 1438H872V1180L778 854H678L584 1180V1438Z"  />
<glyph unicode="#" horiz-adv-x="1368" d="M248 373H80V563H287L350 864H80V1055H391L471 1438H662L582 1055H934L1014 1438H1204L1124 1055H1290V864H1083L1020 563H1290V373H981L901 -6H711L791 373H438L358 -6H168L248 373ZM541 864L477 563H829L893 864H541Z"  />
<glyph unicode="$" horiz-adv-x="961" d="M442 -193V-20Q79 6 61 416H317Q325 192 442 188V606Q266 739 185 847T104 1085Q104 1225 193 1318T442 1430V1468H551V1430Q861 1399 881 1051H651Q647 1192 551 1225V874Q738 730 819 610T901 348Q901 200 807 97T551 -20V-193H442ZM442 965V1225Q354 1201 354 1120Q354 1037 442 965ZM551 508V188Q597 197 624 232T651 315Q651 417 551 508Z"  />
<glyph unicode="%" horiz-adv-x="1237" d="M258 -16L825 1454H979L412 -16H258ZM260 659Q135 659 82 755T29 1057Q29 1268 84 1361T260 1454Q380 1454 434 1358T489 1057Q489 850 434 755T260 659ZM301 938V1174Q301 1257 293 1281T260 1305Q235 1305 226 1281T217 1171V940Q217 856 225 833T258 809Q285 809 293 831T301 938ZM981 -16Q856 -16 803 79T750 381Q750 577 801 677T981 778Q1101 778 1155 682T1210 381Q1210 174 1155 79T981 -16ZM1022 262V498Q1022 582 1014 605T981 629Q956 629 947 605T938 496V264Q938 180 946 157T979 133Q1006 133 1014 155T1022 262Z"  />
<glyph unicode="&amp;" horiz-adv-x="1217" d="M823 0L764 102Q615 -23 459 -23Q281 -23 167 101T53 420Q53 670 303 870Q225 1016 225 1143Q225 1274 326 1367T569 1460Q707 1460 798 1378T889 1171Q889 989 666 834L823 573Q881 720 905 889H1149V674H1085Q1052 516 958 346L1036 215H1149V0H823ZM545 1036Q653 1107 653 1192Q653 1227 630 1252T575 1278Q539 1278 513 1253T487 1190Q487 1114 545 1036ZM643 307L426 674Q346 606 346 522Q346 422 400 328T528 233Q597 233 643 307Z"  />
<glyph unicode="&apos;" horiz-adv-x="487" d="M100 1438H389V1180L295 854H195L100 1180V1438Z"  />
<glyph unicode="(" horiz-adv-x="575" d="M522 1456V1264Q452 1192 420 1020T387 502Q387 156 419 -17T522 -260V-455Q303 -344 190 -89T76 502Q76 839 194 1096T522 1456Z"  />
<glyph unicode=")" horiz-adv-x="575" d="M53 -455V-262Q123 -191 155 -18T188 500Q188 846 156 1019T53 1262V1456Q272 1345 386 1091T500 500Q500 162 382 -95T53 -455Z"  />
<glyph unicode="*" horiz-adv-x="1067" d="M377 563L176 707L274 840Q364 860 461 969Q404 989 348 989Q284 989 231 969L76 1020L152 1247L309 1194Q361 1114 492 1055Q483 1183 414 1270V1438H651V1270Q584 1182 575 1055Q704 1112 758 1194L915 1247L991 1020L836 969Q783 989 719 989Q663 989 606 969Q703 860 793 840L891 707L690 563L596 696Q596 821 532 911Q510 879 494 839T475 773T471 696L377 563Z"  />
<glyph unicode="+" horiz-adv-x="1366" d="M127 784H575V1233H791V784H1239V569H791V121H575V569H127V784Z"  />
<glyph unicode="&#x2c;" horiz-adv-x="598" d="M139 -383V-223Q293 -209 293 0H139V319H459V10Q459 -365 139 -383Z"  />
<glyph unicode="-" horiz-adv-x="682" d="M78 385V627H606V385H78Z"  />
<glyph unicode="." horiz-adv-x="598" d="M139 0V319H459V0H139Z"  />
<glyph unicode="/" horiz-adv-x="1194" d="M850 1438H1083L342 -29H111L850 1438Z"  />
<glyph unicode="0" horiz-adv-x="874" d="M436 -29Q257 -29 164 128T70 711Q70 1141 160 1297T438 1454Q634 1454 720 1277T807 711Q807 306 718 139T436 -29ZM344 985V422Q344 299 365 243T438 186Q491 186 511 252T532 502V879Q532 1097 515 1168T438 1239Q384 1239 364 1181T344 985Z"  />
<glyph unicode="1" horiz-adv-x="874" d="M172 0V215H287V1104Q237 1083 172 1073V1282Q340 1316 469 1454H586V215H698V0H172Z"  />
<glyph unicode="2" horiz-adv-x="874" d="M793 0H51Q51 179 85 300T169 502T302 680Q394 790 437 873T481 1081Q481 1245 391 1245Q293 1245 293 1071Q293 1020 299 973L49 987Q47 998 47 1057Q47 1238 145 1346T410 1454Q578 1454 682 1348T786 1065Q786 954 749 867T658 718T515 572Q401 465 346 386T289 199H578V418H793V0Z"  />
<glyph unicode="3" horiz-adv-x="874" d="M53 414L305 436Q305 311 311 267T338 197T397 172Q454 172 475 227T496 426Q496 518 482 569T439 638T352 657V872Q404 872 425 878T462 906T485 964T492 1061Q492 1164 471 1208T399 1253Q344 1253 325 1200T305 1032L70 1059Q91 1454 422 1454Q587 1454 684 1357T782 1071Q782 956 742 886T614 770Q801 664 801 397Q801 202 701 87T430 -29Q245 -29 149 72T53 414Z"  />
<glyph unicode="4" horiz-adv-x="874" d="M346 0V215H449V410H88Q79 485 45 569L463 1454H717V584H801V410H717V215H801V0H346ZM449 584Q449 927 469 1085H442Q367 829 244 584H449Z"  />
<glyph unicode="5" horiz-adv-x="874" d="M49 356L293 385Q296 278 318 226T389 174Q441 174 462 234T483 475Q483 628 465 678T391 729Q310 729 301 604L102 715L137 1438H719V1151H532L528 1239H328L311 874Q395 954 502 954Q641 954 714 837T788 494Q788 -29 401 -29Q78 -29 49 356Z"  />
<glyph unicode="6" horiz-adv-x="874" d="M786 1106L516 1085Q514 1172 497 1212T438 1253Q395 1253 378 1208T360 1053V850Q424 899 506 899Q650 899 730 784T811 461Q811 224 716 98T442 -29Q272 -29 192 70T91 329T70 760Q70 1157 157 1305T438 1454Q585 1454 679 1362T786 1106ZM360 649V340Q360 246 375 208T438 170Q484 170 501 220T518 422Q518 588 500 640T434 692Q391 692 360 649Z"  />
<glyph unicode="7" horiz-adv-x="874" d="M158 0V215H262Q276 750 537 1237H242V1044H49V1438H786V1272Q700 1111 634 838T565 215H676V0H158Z"  />
<glyph unicode="8" horiz-adv-x="874" d="M598 768Q714 714 767 626T821 393Q821 200 724 86T438 -29Q252 -29 153 83T53 389Q53 538 106 626T274 768Q74 859 74 1083Q74 1249 175 1351T438 1454Q599 1454 700 1351T801 1083Q801 858 598 768ZM543 1047Q543 1167 519 1216T434 1266Q377 1266 355 1215T332 1040Q332 939 355 895T434 850Q493 850 518 897T543 1047ZM541 428Q541 566 517 625T436 684Q379 684 357 625T334 428Q334 275 354 218T438 160Q498 160 519 221T541 428Z"  />
<glyph unicode="9" horiz-adv-x="874" d="M86 319L356 340Q359 253 376 213T434 172Q482 172 498 225T514 440V575Q449 526 367 526Q223 526 143 640T63 965Q63 1215 164 1334T432 1454Q631 1454 718 1300T805 782V600Q805 286 720 129T434 -29Q288 -29 193 63T86 319ZM514 776V1075Q514 1175 497 1215T436 1255Q386 1255 370 1203T354 1004Q354 839 372 786T440 733Q480 733 514 776Z"  />
<glyph unicode=":" horiz-adv-x="598" d="M139 684V1004H459V684H139ZM139 0V319H459V0H139Z"  />
<glyph unicode=";" horiz-adv-x="598" d="M139 684V1004H459V684H139ZM139 -383V-223Q293 -209 293 0H139V319H459V10Q459 -365 139 -383Z"  />
<glyph unicode="&lt;" horiz-adv-x="1366" d="M1239 115L127 580V772L1239 1237V1004L420 676L1239 348V115Z"  />
<glyph unicode="=" horiz-adv-x="1366" d="M127 1024H1239V809H127V1024ZM127 547H1239V332H127V547Z"  />
<glyph unicode="&gt;" horiz-adv-x="1366" d="M127 115V348L946 676L127 1004V1237L1239 772V580L127 115Z"  />
<glyph unicode="?" horiz-adv-x="831" d="M330 483L303 819Q341 809 369 809Q435 809 464 859T494 1020Q494 1148 474 1204T399 1260Q317 1260 317 1114V1016H41Q41 1232 139 1346T406 1460Q578 1460 685 1341T793 1028Q793 867 718 753T508 639L498 483H330ZM258 0V319H578V0H258Z"  />
<glyph unicode="@" horiz-adv-x="1997" d="M1397 1034L1270 242Q1267 223 1267 210Q1267 170 1303 170Q1402 170 1506 306T1610 662Q1610 917 1456 1075T1053 1233Q759 1233 573 1029T387 500Q387 186 567 -7T1038 -201Q1308 -201 1542 -14H1753Q1631 -172 1438 -260T1038 -348Q703 -348 472 -121T240 489Q240 873 457 1126T1051 1380Q1376 1380 1566 1174T1757 659Q1757 464 1680 314T1475 82T1241 0Q1114 0 1085 117Q1020 55 971 28T848 0Q698 0 609 115T520 426Q520 673 644 869T950 1065Q1093 1065 1182 920L1198 1034H1397ZM979 909Q864 909 797 739T729 369Q729 268 771 207T881 145Q990 145 1056 327T1122 707Q1122 802 1083 855T979 909Z"  />
<glyph unicode="A" horiz-adv-x="1130" d="M10 0V215H106L260 1223H168V1438H963V1223H866L1030 215H1120V0H629V215H719L684 483H449L416 215H504V0H10ZM473 662H659L584 1260H545L473 662Z"  />
<glyph unicode="B" horiz-adv-x="1110" d="M47 0V215H150V1223H47V1438H545Q761 1438 884 1342T1008 1061Q1008 833 809 762Q1034 663 1034 422Q1034 223 900 112T522 0H47ZM492 1233V834Q605 834 635 879T666 1026Q666 1114 647 1159T593 1218T492 1233ZM492 637V215Q564 215 602 227T660 284T680 424Q680 518 659 564T600 623T492 637Z"  />
<glyph unicode="C" horiz-adv-x="1004" d="M690 508L952 430Q929 216 818 97T545 -23Q335 -23 205 176T74 739Q74 1076 188 1268T471 1460Q588 1460 676 1339H680V1438H909V952H680Q662 1219 551 1219Q477 1219 463 1112T449 741Q449 419 470 319T567 219Q626 219 653 289T690 508Z"  />
<glyph unicode="D" horiz-adv-x="1130" d="M47 0V215H150V1223H47V1438H545Q772 1438 911 1244T1051 717Q1051 396 922 198T545 0H47ZM492 1223V215Q565 215 606 252T667 399T688 725Q688 942 664 1050T600 1190T492 1223Z"  />
<glyph unicode="E" horiz-adv-x="1087" d="M47 0V215H172V1223H47V1438H1018V981H762V1223H514V842H705V627H514V215H762V469H1018V0H47Z"  />
<glyph unicode="F" horiz-adv-x="1087" d="M51 0V215H176V1223H51V1438H1034V981H778V1223H518V842H711V627H518V215H655V0H51Z"  />
<glyph unicode="G" horiz-adv-x="1087" d="M698 457H602V672H1038Q1038 473 1011 353T922 146T772 19T571 -23Q340 -23 207 167T74 711Q74 1067 182 1263T485 1460Q616 1460 709 1331H713V1438H942V948H713Q710 1084 672 1151T569 1219Q492 1219 471 1131T449 752Q449 522 459 411T496 259T573 219Q695 219 698 457Z"  />
<glyph unicode="H" horiz-adv-x="1217" d="M47 0V215H156V1223H47V1438H555V1223H498V862H715V1223H657V1438H1167V1223H1057V215H1167V0H657V215H715V647H498V215H555V0H47Z"  />
<glyph unicode="I" horiz-adv-x="725" d="M49 0V215H188V1223H49V1438H678V1223H530V215H678V0H49Z"  />
<glyph unicode="J" horiz-adv-x="682" d="M8 -438V-190Q24 -195 45 -195Q170 -195 170 -25V1223H43V1438H639V1223H512V-37Q512 -228 418 -343T147 -459Q74 -459 8 -438Z"  />
<glyph unicode="K" horiz-adv-x="1153" d="M47 0V215H152V1223H47V1438H582V1223H494V215H563V0H47ZM664 0V215H735L528 754L772 1223H682V1438H1102V1223H1016L823 856L1073 215H1161V0H664Z"  />
<glyph unicode="L" horiz-adv-x="1067" d="M51 0V215H178V1223H51V1438H678V1223H520V215H762V641H1018V0H51Z"  />
<glyph unicode="M" horiz-adv-x="1493" d="M66 0V215H164V1223H66V1438H625L713 872H737L825 1438H1425V1223H1331V215H1425V0H913V215H989V1245H967L737 0H625L391 1245H365V215H440V0H66Z"  />
<glyph unicode="N" horiz-adv-x="1130" d="M66 0V215H156V1223H66V1438H479Q642 1061 768 578H786Q772 895 772 942V1223H688V1438H1065V1223H987V-12H721L611 276Q538 464 481 631T371 983H352Q371 734 371 496V215H449V0H66Z"  />
<glyph unicode="O" horiz-adv-x="1130" d="M565 -23Q343 -23 209 178T74 719Q74 1057 207 1258T565 1460Q788 1460 922 1259T1057 719Q1057 380 923 179T565 -23ZM565 219Q614 219 638 256T672 398T682 719Q682 935 672 1039T638 1181T565 1219Q517 1219 493 1182T459 1040T449 719Q449 503 458 399T492 257T565 219Z"  />
<glyph unicode="P" horiz-adv-x="1110" d="M47 0V215H147V1223H47V1438H510Q764 1438 905 1316T1047 977Q1047 528 489 528V215H610V0H47ZM489 1223V748Q603 748 643 811T684 987Q684 1223 489 1223Z"  />
<glyph unicode="Q" horiz-adv-x="1110" d="M346 -229L262 -86Q351 -20 446 -10V-6Q266 41 165 236T63 719Q63 1058 198 1259T555 1460Q777 1460 912 1259T1047 719Q1047 419 938 222T635 -12V-16Q681 -27 763 -74Q827 -112 878 -131T1006 -150L967 -360Q881 -360 818 -343T661 -263Q589 -214 549 -202T473 -190Q413 -190 346 -229ZM555 219Q606 219 629 254T662 392T672 719Q672 934 662 1039T627 1181T555 1219Q506 1219 482 1182T448 1040T438 719Q438 495 447 392T480 254T555 219Z"  />
<glyph unicode="R" horiz-adv-x="1110" d="M74 0V215H162V1223H74V1438H608Q806 1438 922 1319T1038 1016Q1038 917 1006 851T897 727L1008 215H1067V0H752L616 631H504V215H592V0H74ZM504 1233V838Q629 838 662 886T696 1042Q696 1134 665 1183T504 1233Z"  />
<glyph unicode="S" horiz-adv-x="897" d="M74 0V467H289Q289 303 324 254T416 205Q467 205 495 243T524 348Q524 402 492 461T331 640Q157 800 109 903T61 1106Q61 1257 145 1353T358 1450Q422 1450 470 1431T584 1348V1438H799V1004H584Q584 1141 552 1188T461 1235Q418 1235 393 1206T367 1128Q367 1068 396 1023T514 903Q712 733 773 619T834 375Q834 208 742 98T510 -12Q388 -12 289 90V0H74Z"  />
<glyph unicode="T" horiz-adv-x="1087" d="M256 0V215H373V1223H252V907H37V1438H1051V907H836V1223H715V215H831V0H256Z"  />
<glyph unicode="U" horiz-adv-x="1067" d="M35 1223V1438H547V1223H487V346Q487 193 590 193Q702 193 702 360V1223H641V1438H1032V1223H918V352Q918 184 816 81T547 -23Q351 -23 248 77T145 373V1223H35Z"  />
<glyph unicode="V" horiz-adv-x="1153" d="M434 -23L117 1223H14V1438H539V1223H434L598 537L760 1223H639V1438H1137V1223H1038L709 -23H434Z"  />
<glyph unicode="W" horiz-adv-x="1516" d="M373 -23L94 1223H18V1438H483V1223H406L541 633L659 1223H588V1438H983V1223H903L1040 618L1165 1223H1083V1438H1497V1223H1423L1157 -23H903L760 606L629 -23H373Z"  />
<glyph unicode="X" horiz-adv-x="1194" d="M39 0V215H123L428 684L123 1223H39V1438H588V1223H489L635 965L780 1223H686V1438H1139V1223H1030L758 748L1063 215H1157V0H588V215H694L551 469L385 215H489V0H39Z"  />
<glyph unicode="Y" horiz-adv-x="1174" d="M291 0V215H410V547L125 1223H27V1438H578V1223H449L625 793L809 1223H678V1438H1145V1223H1044L752 547V215H864V0H291Z"  />
<glyph unicode="Z" horiz-adv-x="961" d="M51 0V215L549 1223H297V983H82V1438H901V1223L406 215H694V473H909V0H51Z"  />
<glyph unicode="[" horiz-adv-x="618" d="M150 1438H575V1255H449V-242H575V-424H150V1438Z"  />
<glyph unicode="\" horiz-adv-x="1194" d="M344 1438L1083 -29H852L111 1438H344Z"  />
<glyph unicode="]" horiz-adv-x="618" d="M469 1438V-424H43V-242H170V1255H43V1438H469Z"  />
<glyph unicode="^" horiz-adv-x="1196" d="M121 662L487 1460H711L1077 662H793L600 1151L406 662H121Z"  />
<glyph unicode="_" horiz-adv-x="1024" d="M1036 -256H-12V-154H1036V-256Z"  />
<glyph unicode="`" horiz-adv-x="682" d="M561 1094H385L-20 1473H367L561 1094Z"  />
<glyph unicode="a" horiz-adv-x="1004" d="M952 0H559V78Q468 -14 352 -14Q235 -14 157 78T78 311Q78 455 163 550T379 645Q470 645 559 584V690Q559 771 539 804T465 838Q394 838 367 760L98 815Q217 1032 502 1032Q668 1032 763 955T858 729V215H952V0ZM559 258V410Q521 457 473 457Q429 457 403 421T377 324Q377 265 401 233T469 201Q522 201 559 258Z"  />
<glyph unicode="b" horiz-adv-x="981" d="M37 0V215H135V1223H37V1438H434V913H438Q504 1020 627 1020Q758 1020 836 894T915 528Q915 266 840 126T625 -14Q515 -14 434 80V0H37ZM434 573V369Q434 284 452 243T518 201Q573 201 588 264T604 502Q604 659 587 719T516 780Q469 780 452 733T434 573Z"  />
<glyph unicode="c" horiz-adv-x="897" d="M596 397L827 311Q770 -29 465 -29Q281 -29 176 115T70 512Q70 740 161 880T401 1020Q543 1020 592 895H596V1004H811V598H596Q589 707 562 759T479 811Q421 811 401 743T381 512Q381 335 400 261T492 186Q542 186 565 237T596 397Z"  />
<glyph unicode="d" horiz-adv-x="981" d="M944 0H547V80Q466 -14 356 -14Q217 -14 142 126T66 528Q66 784 149 902T354 1020Q476 1020 543 913H547V1223H451V1438H846V215H944V0ZM547 369V573Q547 686 530 733T465 780Q413 780 395 724T377 502Q377 328 392 265T463 201Q507 201 527 239T547 369Z"  />
<glyph unicode="e" horiz-adv-x="874" d="M557 313L805 221Q759 101 664 36T444 -29Q66 -29 66 514Q66 770 167 901T453 1032Q613 1032 716 909T819 551V457H362Q362 290 381 238T455 186Q501 186 524 217T557 313ZM362 606H520V655Q520 827 442 827Q396 827 379 775T362 606Z"  />
<glyph unicode="f" horiz-adv-x="618" d="M82 0V215H160V788H84V1004H160V1090Q160 1265 263 1362T526 1460Q618 1460 694 1423T807 1319L569 1210Q557 1255 514 1255Q483 1255 471 1233T459 1159V1004H569V788H459V215H573V0H82Z"  />
<glyph unicode="g" horiz-adv-x="1004" d="M100 -389L223 -184Q328 -229 414 -229Q557 -229 557 -76V106H553Q486 -16 356 -16Q226 -16 154 114T82 498Q82 738 154 879T358 1020Q467 1020 553 872H557V1004H961V788H858V-12Q858 -216 745 -337T430 -459Q282 -459 100 -389ZM557 348V616Q557 780 475 780Q391 780 391 608V387Q391 199 473 199Q557 199 557 348Z"  />
<glyph unicode="h" horiz-adv-x="1067" d="M31 0V215H141V1223H31V1438H440V942Q552 1032 657 1032Q784 1032 855 943T926 692V215H1026V0H627V666Q627 740 608 771T543 803Q499 803 440 760V215H528V0H31Z"  />
<glyph unicode="i" horiz-adv-x="618" d="M498 1286Q498 1214 447 1163T324 1112Q252 1112 201 1163T150 1286Q150 1358 201 1409T324 1460Q395 1460 446 1409T498 1286ZM63 0V215H172V788H63V1004H471V215H567V0H63Z"  />
<glyph unicode="j" horiz-adv-x="598" d="M485 1286Q485 1214 434 1163T311 1112Q239 1112 188 1163T137 1286Q137 1358 188 1409T311 1460Q383 1460 434 1409T485 1286ZM0 -455V-217Q72 -217 102 -203T147 -151T162 -43V788H47V1004H461V-41Q461 -258 358 -358T88 -459Q69 -459 0 -455Z"  />
<glyph unicode="k" horiz-adv-x="961" d="M47 0V215H139V1223H47V1438H438V215H498V0H47ZM680 0L449 506V530L618 807H547V1004H909V788H848L713 571L879 215H922V0H680Z"  />
<glyph unicode="l" horiz-adv-x="575" d="M25 0V215H137V1223H25V1438H436V215H535V0H25Z"  />
<glyph unicode="m" horiz-adv-x="1579" d="M53 0V215H154V788H53V1004H453V897H459Q558 1020 678 1020Q818 1020 895 885Q971 955 1032 987T1161 1020Q1280 1020 1351 927T1423 664V215H1530V0H1124V629Q1124 715 1104 753T1036 791Q988 791 938 739V215H1022V0H639V629Q639 716 619 753T553 791Q500 791 453 739V215H537V0H53Z"  />
<glyph unicode="n" horiz-adv-x="1087" d="M53 0V215H164V788H53V1004H463V897H471Q538 1020 688 1020Q804 1020 875 934T946 696V215H1047V0H647V647Q647 727 629 759T563 791Q538 791 520 782T463 743V215H549V0H53Z"  />
<glyph unicode="o" horiz-adv-x="981" d="M492 -29Q306 -29 187 119T68 502Q68 735 186 883T492 1032Q676 1032 794 884T913 502Q913 268 795 120T492 -29ZM492 803Q432 803 406 730T379 502Q379 347 405 274T492 201Q602 201 602 502Q602 803 492 803Z"  />
<glyph unicode="p" horiz-adv-x="981" d="M37 -459V-244H135V788H37V1004H434V889H438Q484 1020 621 1020Q761 1020 836 888T911 506Q911 253 836 119T623 -16Q518 -16 434 78V-244H571V-459H37ZM434 385Q434 285 453 242T518 199Q575 199 587 267T600 508Q600 661 582 720T516 780Q434 780 434 602V385Z"  />
<glyph unicode="q" horiz-adv-x="981" d="M944 -459H410V-244H547V78Q463 -16 358 -16Q220 -16 145 118T70 506Q70 756 145 888T360 1020Q497 1020 543 889H547V1004H944V788H846V-244H944V-459ZM547 385V602Q547 780 465 780Q416 780 399 718T381 508Q381 336 393 268T463 199Q509 199 528 242T547 385Z"  />
<glyph unicode="r" horiz-adv-x="705" d="M53 0V215H160V788H53V1004H459V803H463Q483 885 514 933T583 1001T684 1020V684Q459 684 459 387V215H578V0H53Z"  />
<glyph unicode="s" horiz-adv-x="748" d="M70 0V272H285Q294 164 371 164Q401 164 418 183T436 233Q436 261 415 291T301 383Q145 489 100 571T55 739Q55 865 119 942T289 1020Q381 1020 446 938H451V1004H666V743H451Q436 848 367 848Q336 848 318 829T299 778Q299 748 322 717T440 623Q518 573 568 531T654 421T690 262Q690 136 626 60T457 -16Q392 -16 363 -1T307 46Q295 60 289 66H285V0H70Z"  />
<glyph unicode="t" horiz-adv-x="618" d="M555 227V4Q461 -29 373 -29Q135 -29 135 258V788H45V1004H135V1130L434 1364V1004H555V788H434V340Q434 273 451 245T510 217Q531 217 555 227Z"  />
<glyph unicode="u" horiz-adv-x="1067" d="M920 1004V215H1030V0H621V80Q506 -16 395 -16Q279 -16 208 70T137 307V788H37V1004H436V356Q436 276 454 245T520 213Q546 213 563 221T621 260V788H535V1004H920Z"  />
<glyph unicode="v" horiz-adv-x="897" d="M338 -14L92 788H14V1004H426V788H369L477 336L578 788H524V1004H883V788H805L588 -14H338Z"  />
<glyph unicode="w" horiz-adv-x="1260" d="M264 -14L74 788H12V1004H414V788H348L434 358L557 1004H786L911 358L989 788H930V1004H1247V788H1186L1010 -14H758L641 440L518 -14H264Z"  />
<glyph unicode="x" horiz-adv-x="811" d="M29 0V215H92L236 477L88 788H29V1004H313L414 715L526 1004H754V788H692L551 530L715 215H780V0H481L377 309H373L266 0H29Z"  />
<glyph unicode="y" horiz-adv-x="918" d="M207 -455V-240H348L391 -55L96 788H25V1004H434V788H367L502 397H506L600 788H535V1004H893V788H813L504 -455H207Z"  />
<glyph unicode="z" horiz-adv-x="831" d="M45 0V197L485 827H262V684H72V1004H780V811L340 176H596V328H786V0H45Z"  />
<glyph unicode="{" horiz-adv-x="797" d="M651 -221V-459Q524 -459 456 -435T348 -353T294 -207T279 16Q279 184 251 265T145 377V625Q223 655 251 736T279 985Q279 1121 294 1209T349 1355T458 1436T651 1460V1223Q572 1212 552 1174T532 1001Q532 765 484 648T330 502V498Q436 469 484 353T532 0Q532 -135 552 -173T651 -221Z"  />
<glyph unicode="|" horiz-adv-x="1204" d="M494 1438H711V-264H494V1438Z"  />
<glyph unicode="}" horiz-adv-x="797" d="M145 -221Q225 -211 244 -173T264 0Q264 236 312 352T467 498V502Q360 530 312 647T264 1001Q264 1136 245 1174T145 1223V1460Q273 1460 341 1436T448 1354T503 1208T518 985Q518 817 546 736T651 625V377Q574 346 546 265T518 16Q518 -119 503 -207T448 -353T339 -435T145 -459V-221Z"  />
<glyph unicode="~" horiz-adv-x="1343" d="M1227 895V672Q1059 532 926 532Q854 532 796 553T627 627Q487 694 420 694Q277 694 117 547V770Q276 907 432 907Q533 907 696 827Q864 748 934 748Q1063 748 1227 895Z"  />
<glyph unicode="&#xA0;" horiz-adv-x="682" />
<glyph unicode="&#xA1;" horiz-adv-x="598" d="M459 1004V684H139V1004H459ZM360 522L451 -23V-434H145V-23L236 522H360Z"  />
<glyph unicode="&#xA2;" horiz-adv-x="897" d="M365 -201V-18Q221 24 146 164T70 512Q70 722 148 858T365 1016V1208H510V993Q569 958 592 891H596V1004H811V598H596Q589 707 562 759T479 811Q421 811 401 743T381 512Q381 335 400 261T492 186Q542 186 565 237T596 397L827 311Q776 -3 510 -27V-201H365Z"  />
<glyph unicode="&#xA3;" horiz-adv-x="1087" d="M1030 428Q1033 341 1033 325Q1033 -29 778 -29Q629 -29 504 119Q408 -29 268 -29Q172 -29 109 39T45 213Q45 310 100 371T244 432Q322 432 393 373Q384 470 334 651H123V866H289Q268 961 268 1055Q268 1254 363 1357T643 1460Q1006 1460 1012 1094L735 1085Q735 1188 716 1231T643 1274Q557 1274 557 1161Q557 1097 592 866H803V651H629Q639 590 639 514Q639 383 592 260Q669 197 727 197Q776 197 795 241T815 389V428H1030ZM379 223Q318 291 260 291Q222 291 199 267T176 201Q176 157 199 131T262 104Q353 104 379 223Z"  />
<glyph unicode="&#xA4;" horiz-adv-x="1366" d="M158 1059L299 1202L434 1067Q540 1141 680 1141Q820 1141 932 1067L1067 1202L1208 1059L1073 924Q1149 800 1149 672Q1149 538 1073 426L1208 295L1067 154L932 285Q814 209 678 209Q543 209 434 285L299 154L158 295L293 426Q217 550 217 682Q217 815 293 924L158 1059ZM950 676Q950 786 872 864T682 942Q572 942 494 864T416 676Q416 565 494 487T682 408Q792 408 871 487T950 676Z"  />
<glyph unicode="&#xA5;" horiz-adv-x="1174" d="M752 367V215H864V0H291V215H410V367H29V512H410V547L379 623H29V768H317L125 1223H27V1438H578V1223H449L625 793L809 1223H678V1438H1145V1223H1044L848 768H1143V623H784L752 547V512H1143V367H752Z"  />
<glyph unicode="&#xA6;" horiz-adv-x="1204" d="M489 1438H707V707H489V1438ZM489 465H707V-264H489V465Z"  />
<glyph unicode="&#xA7;" horiz-adv-x="874" d="M111 -147H344Q344 -272 455 -272Q502 -272 531 -243T561 -168Q561 -135 532 -94T381 50Q180 218 122 322T63 524Q63 710 233 852Q154 925 118 991T82 1149Q82 1293 175 1376T430 1460Q763 1460 766 1141H535Q535 1274 422 1274Q374 1274 344 1246T313 1176Q313 1132 345 1083T509 927Q605 850 665 791T768 649T811 467Q811 285 641 143Q793 0 793 -154Q793 -296 699 -377T440 -459Q294 -459 203 -387T111 -147ZM498 262Q582 340 582 428Q582 559 373 729Q293 648 293 565Q293 502 341 436T498 262Z"  />
<glyph unicode="&#xA8;" horiz-adv-x="682" d="M-2 1290Q-2 1344 36 1381T129 1419Q183 1419 220 1382T258 1290Q258 1236 220 1198T129 1159Q76 1159 37 1198T-2 1290ZM426 1290Q426 1343 464 1381T557 1419Q611 1419 648 1382T686 1290Q686 1236 648 1198T557 1159Q504 1159 465 1198T426 1290Z"  />
<glyph unicode="&#xA9;" horiz-adv-x="1511" d="M-10 715Q-10 920 92 1098T372 1378T756 1481Q1072 1481 1297 1256T1522 715Q1522 398 1297 174T756 -51Q439 -51 215 173T-10 715ZM141 715Q141 461 321 281T756 100Q1009 100 1189 280T1370 715Q1370 970 1191 1149T756 1329Q502 1329 322 1149T141 715ZM940 602L1102 547Q1020 289 766 289Q592 289 487 404T381 711Q381 909 485 1025T768 1141Q1016 1141 1102 897L940 858Q888 997 762 997Q664 997 610 923T555 715Q555 583 607 508T748 432Q894 432 940 602Z"  />
<glyph unicode="&#xAA;" horiz-adv-x="662" d="M625 842H369V891Q308 836 233 836Q157 836 106 891T55 1030Q55 1118 110 1173T252 1229Q311 1229 369 1192V1257Q369 1305 356 1324T307 1343Q259 1343 244 1296L70 1329Q146 1460 332 1460Q439 1460 500 1415T561 1286V969H625V842ZM369 997V1087Q342 1114 313 1114Q252 1114 252 1038Q252 963 309 963Q344 963 369 997Z"  />
<glyph unicode="&#xAB;" horiz-adv-x="1087" d="M313 0L39 502L313 1004H573L301 502L573 0H313ZM797 0L522 502L797 1004H1057L784 502L1057 0H797Z"  />
<glyph unicode="&#xAC;" horiz-adv-x="1366" d="M127 1034H1239V332H1024V819H127V1034Z"  />
<glyph unicode="&#xAD;" horiz-adv-x="682" d="M78 385V627H606V385H78Z"  />
<glyph unicode="&#xAE;" horiz-adv-x="1511" d="M-10 715Q-10 920 92 1098T372 1378T756 1481Q1072 1481 1297 1256T1522 715Q1522 398 1297 174T756 -51Q439 -51 215 173T-10 715ZM141 715Q141 461 321 281T756 100Q1009 100 1189 280T1370 715Q1370 970 1191 1149T756 1329Q502 1329 322 1149T141 715ZM410 305V1118H803Q925 1118 997 1059T1069 891Q1069 800 1011 739T848 664V659Q901 647 940 594T1118 305H913Q818 496 788 543T716 615T618 639H575V305H410ZM575 768H745Q813 768 854 798T895 881Q895 989 725 989H575V768Z"  />
<glyph unicode="&#xAF;" horiz-adv-x="1024" d="M1036 1592H-12V1694H1036V1592Z"  />
<glyph unicode="&#xB0;" horiz-adv-x="819" d="M737 1126Q737 992 641 896T410 799Q275 799 179 895T82 1126Q82 1262 178 1358T410 1454Q544 1454 640 1358T737 1126ZM563 1126Q563 1189 518 1234T410 1280Q347 1280 302 1235T256 1126Q256 1063 301 1018T410 973Q472 973 517 1018T563 1126Z"  />
<glyph unicode="&#xB1;" horiz-adv-x="1368" d="M127 995H575V1413H791V995H1239V780H791V362H575V780H127V995ZM127 215H1239V0H127V215Z"  />
<glyph unicode="&#xB2;" horiz-adv-x="512" d="M477 676H14Q14 793 41 871T166 1052Q235 1125 251 1166T268 1247Q268 1309 225 1309Q182 1309 182 1239Q182 1218 188 1171L14 1180Q12 1197 12 1225Q12 1332 72 1393T240 1454Q344 1454 408 1395T473 1239Q473 1180 444 1121T306 970Q188 871 180 813H324V926H477V676Z"  />
<glyph unicode="&#xB3;" horiz-adv-x="512" d="M16 922L193 936Q193 842 200 821T236 799Q265 799 272 823T279 915Q279 958 271 979T249 1006T193 1012V1157Q239 1157 251 1160T270 1180T276 1235Q276 1315 233 1315Q208 1315 201 1295T193 1200L25 1217Q36 1454 248 1454Q352 1454 413 1397T475 1243Q475 1143 397 1085Q483 1014 483 895Q483 787 420 723T250 659Q135 659 76 716T16 922Z"  />
<glyph unicode="&#xB4;" horiz-adv-x="682" d="M150 1094L344 1473H731L326 1094H150Z"  />
<glyph unicode="&#xB5;" horiz-adv-x="1251" d="M236 -459V1004H535V344Q535 223 610 223Q664 223 719 283V1004H1018V0H723V82H719Q674 -12 588 -12Q550 -12 530 8V-459H236Z"  />
<glyph unicode="&#xB6;" horiz-adv-x="1139" d="M639 -459H397V614Q208 629 106 736T4 1020V1026Q4 1206 119 1322T436 1438H1135V1176H1022V-459H780V1176H639V-459Z"  />
<glyph unicode="&#xB7;" horiz-adv-x="598" d="M139 580V899H459V580H139Z"  />
<glyph unicode="&#xB8;" horiz-adv-x="682" d="M160 -340L170 -225Q275 -225 300 -204T326 -152Q326 -98 233 -84Q261 -48 279 0Q485 -13 485 -168Q485 -252 424 -300T256 -348Q197 -348 160 -340Z"  />
<glyph unicode="&#xB9;" horiz-adv-x="512" d="M90 676V823H158V1235Q125 1225 90 1221V1364Q196 1381 274 1454H358V823H424V676H90Z"  />
<glyph unicode="&#xBA;" horiz-adv-x="641" d="M319 825Q199 825 122 914T45 1143Q45 1283 121 1371T319 1460Q440 1460 517 1372T594 1143Q594 1003 517 914T319 825ZM393 1143Q393 1246 375 1283T319 1321Q279 1321 263 1278T246 1143Q246 965 319 965Q361 965 377 1005T393 1143Z"  />
<glyph unicode="&#xBB;" horiz-adv-x="1087" d="M772 0H514L784 502L514 1004H772L1049 502L772 0ZM289 0H31L301 502L31 1004H289L565 502L289 0Z"  />
<glyph unicode="&#xBC;" horiz-adv-x="1237" d="M90 676V823H158V1235Q125 1225 90 1221V1364Q196 1381 274 1454H358V823H424V676H90ZM283 -16L850 1454H1002L437 -16H283ZM913 1V148H973V210H764Q757 261 733 312L989 779H1155V337H1204V210H1155V148H1204V1H913ZM891 337H973Q975 464 981 531L977 536Q940 426 891 337Z"  />
<glyph unicode="&#xBD;" horiz-adv-x="1237" d="M90 676V823H158V1235Q125 1225 90 1221V1364Q196 1381 274 1454H358V823H424V676H90ZM258 -16L825 1454H977L412 -16H258ZM1202 1H739Q739 118 766 196T891 377Q960 450 976 491T993 572Q993 634 950 634Q907 634 907 564Q907 543 913 496L739 505Q737 522 737 550Q737 657 797 718T965 779Q1069 779 1133 720T1198 564Q1198 505 1169 446T1031 295Q913 196 905 138H1049V251H1202V1Z"  />
<glyph unicode="&#xBE;" horiz-adv-x="1237" d="M16 922L193 936Q193 842 200 821T236 799Q265 799 272 823T279 915Q279 958 271 979T249 1006T193 1012V1157Q239 1157 251 1160T270 1180T276 1235Q276 1315 233 1315Q208 1315 201 1295T193 1200L25 1217Q36 1454 248 1454Q352 1454 413 1397T475 1243Q475 1143 397 1085Q483 1014 483 895Q483 787 420 723T250 659Q135 659 76 716T16 922ZM283 -16L850 1454H1002L437 -16H283ZM913 1V148H973V210H764Q757 261 733 312L989 779H1155V337H1204V210H1155V148H1204V1H913ZM891 337H973Q975 464 981 531L977 536Q940 426 891 337Z"  />
<glyph unicode="&#xBF;" horiz-adv-x="831" d="M573 1004V684H254V1004H573ZM502 520L528 184Q491 195 463 195Q396 195 367 145T338 -16Q338 -144 358 -200T432 -256Q514 -256 514 -111V-12H791Q791 -232 691 -344T426 -457Q253 -457 146 -338T39 -25Q39 136 113 250T324 365L334 520H502Z"  />
<glyph unicode="&#xC0;" horiz-adv-x="1130" d="M10 0V215H106L260 1223H168V1438H963V1223H866L1030 215H1120V0H629V215H719L684 483H449L416 215H504V0H10ZM473 662H659L584 1260H545L473 662ZM786 1520H610L205 1899H592L786 1520Z"  />
<glyph unicode="&#xC1;" horiz-adv-x="1130" d="M10 0V215H106L260 1223H168V1438H963V1223H866L1030 215H1120V0H629V215H719L684 483H449L416 215H504V0H10ZM473 662H659L584 1260H545L473 662ZM375 1520L569 1899H956L551 1520H375Z"  />
<glyph unicode="&#xC2;" horiz-adv-x="1130" d="M10 0V215H106L260 1223H168V1438H963V1223H866L1030 215H1120V0H629V215H719L684 483H449L416 215H504V0H10ZM473 662H659L584 1260H545L473 662ZM236 1511L421 1899H713L898 1511H707L568 1708L427 1511H236Z"  />
<glyph unicode="&#xC3;" horiz-adv-x="1130" d="M10 0V215H106L260 1223H168V1438H963V1223H866L1030 215H1120V0H629V215H719L684 483H449L416 215H504V0H10ZM473 662H659L584 1260H545L473 662ZM362 1573H223Q231 1692 293 1765T438 1839Q485 1839 586 1799Q671 1765 704 1765Q747 1765 766 1841H909Q897 1720 836 1648T694 1575Q638 1575 528 1620Q455 1651 430 1651Q379 1651 362 1573Z"  />
<glyph unicode="&#xC4;" horiz-adv-x="1130" d="M10 0V215H106L260 1223H168V1438H963V1223H866L1030 215H1120V0H629V215H719L684 483H449L416 215H504V0H10ZM473 662H659L584 1260H545L473 662ZM223 1716Q223 1770 261 1807T354 1845Q408 1845 445 1808T483 1716Q483 1662 445 1624T354 1585Q301 1585 262 1624T223 1716ZM651 1716Q651 1769 689 1807T782 1845Q836 1845 873 1808T911 1716Q911 1662 873 1624T782 1585Q729 1585 690 1624T651 1716Z"  />
<glyph unicode="&#xC5;" horiz-adv-x="1130" d="M10 0V215H106L260 1223H168V1438H963V1223H866L1030 215H1120V0H629V215H719L684 483H449L416 215H504V0H10ZM473 662H659L584 1260H545L473 662ZM358 1720Q358 1806 419 1866T567 1927Q653 1927 713 1867T774 1720Q774 1634 713 1573T567 1511Q481 1511 420 1573T358 1720ZM669 1720Q669 1763 639 1793T565 1823Q522 1823 493 1793T463 1720Q463 1677 492 1647T565 1616Q608 1616 638 1647T669 1720Z"  />
<glyph unicode="&#xC6;" horiz-adv-x="1450" d="M16 0V215H88L264 1223H197V1438H1366V983H1110V1223H922V842H1079V627H922V215H1110V469H1366V0H510V215H580V627H387L317 215H412V0H16ZM420 817H580V1249H494L420 817Z"  />
<glyph unicode="&#xC7;" horiz-adv-x="1004" d="M322 -340L332 -225Q436 -225 461 -204T487 -152Q487 -98 395 -84Q416 -59 438 -6Q266 44 170 238T74 739Q74 1076 188 1268T471 1460Q588 1460 676 1339H680V1438H909V952H680Q662 1219 551 1219Q477 1219 463 1112T449 741Q449 419 470 319T567 219Q626 219 653 289T690 508L952 430Q929 217 818 97T547 -23V-27Q647 -59 647 -168Q647 -252 586 -300T418 -348Q359 -348 322 -340Z"  />
<glyph unicode="&#xC8;" horiz-adv-x="1087" d="M47 0V215H172V1223H47V1438H1018V981H762V1223H514V842H705V627H514V215H762V469H1018V0H47ZM763 1520H587L182 1899H569L763 1520Z"  />
<glyph unicode="&#xC9;" horiz-adv-x="1087" d="M47 0V215H172V1223H47V1438H1018V981H762V1223H514V842H705V627H514V215H762V469H1018V0H47ZM352 1520L546 1899H933L528 1520H352Z"  />
<glyph unicode="&#xCA;" horiz-adv-x="1087" d="M47 0V215H172V1223H47V1438H1018V981H762V1223H514V842H705V627H514V215H762V469H1018V0H47ZM213 1511L398 1899H690L875 1511H684L545 1708L404 1511H213Z"  />
<glyph unicode="&#xCB;" horiz-adv-x="1087" d="M47 0V215H172V1223H47V1438H1018V981H762V1223H514V842H705V627H514V215H762V469H1018V0H47ZM201 1716Q201 1770 239 1807T332 1845Q386 1845 423 1808T461 1716Q461 1662 423 1624T332 1585Q279 1585 240 1624T201 1716ZM629 1716Q629 1769 667 1807T760 1845Q814 1845 851 1808T889 1716Q889 1662 851 1624T760 1585Q707 1585 668 1624T629 1716Z"  />
<glyph unicode="&#xCC;" horiz-adv-x="725" d="M49 0V215H188V1223H49V1438H678V1223H530V215H678V0H49ZM583 1520H407L2 1899H389L583 1520Z"  />
<glyph unicode="&#xCD;" horiz-adv-x="725" d="M49 0V215H188V1223H49V1438H678V1223H530V215H678V0H49ZM172 1520L366 1899H753L348 1520H172Z"  />
<glyph unicode="&#xCE;" horiz-adv-x="725" d="M49 0V215H188V1223H49V1438H678V1223H530V215H678V0H49ZM33 1511L218 1899H510L695 1511H504L365 1708L224 1511H33Z"  />
<glyph unicode="&#xCF;" horiz-adv-x="725" d="M49 0V215H188V1223H49V1438H678V1223H530V215H678V0H49ZM20 1716Q20 1770 58 1807T151 1845Q205 1845 242 1808T280 1716Q280 1662 242 1624T151 1585Q98 1585 59 1624T20 1716ZM448 1716Q448 1769 486 1807T579 1845Q633 1845 670 1808T708 1716Q708 1662 670 1624T579 1585Q526 1585 487 1624T448 1716Z"  />
<glyph unicode="&#xD0;" horiz-adv-x="1130" d="M47 0V215H150V610H47V825H150V1223H47V1438H545Q772 1438 911 1244T1051 717Q1051 396 922 198T545 0H47ZM492 215Q565 215 606 252T667 399T688 725Q688 942 664 1050T600 1190T492 1223V825H575V610H492V215Z"  />
<glyph unicode="&#xD1;" horiz-adv-x="1130" d="M66 0V215H156V1223H66V1438H479Q642 1061 768 578H786Q772 895 772 942V1223H688V1438H1065V1223H987V-12H721L611 276Q538 464 481 631T371 983H352Q371 734 371 496V215H449V0H66ZM362 1573H223Q231 1692 293 1765T438 1839Q485 1839 586 1799Q671 1765 704 1765Q747 1765 766 1841H909Q897 1720 836 1648T694 1575Q638 1575 528 1620Q455 1651 430 1651Q379 1651 362 1573Z"  />
<glyph unicode="&#xD2;" horiz-adv-x="1130" d="M565 -23Q343 -23 209 178T74 719Q74 1057 207 1258T565 1460Q788 1460 922 1259T1057 719Q1057 380 923 179T565 -23ZM565 219Q614 219 638 256T672 398T682 719Q682 935 672 1039T638 1181T565 1219Q517 1219 493 1182T459 1040T449 719Q449 503 458 399T492 257T565 219ZM786 1520H610L205 1899H592L786 1520Z"  />
<glyph unicode="&#xD3;" horiz-adv-x="1130" d="M565 -23Q343 -23 209 178T74 719Q74 1057 207 1258T565 1460Q788 1460 922 1259T1057 719Q1057 380 923 179T565 -23ZM565 219Q614 219 638 256T672 398T682 719Q682 935 672 1039T638 1181T565 1219Q517 1219 493 1182T459 1040T449 719Q449 503 458 399T492 257T565 219ZM375 1520L569 1899H956L551 1520H375Z"  />
<glyph unicode="&#xD4;" horiz-adv-x="1130" d="M565 -23Q343 -23 209 178T74 719Q74 1057 207 1258T565 1460Q788 1460 922 1259T1057 719Q1057 380 923 179T565 -23ZM565 219Q614 219 638 256T672 398T682 719Q682 935 672 1039T638 1181T565 1219Q517 1219 493 1182T459 1040T449 719Q449 503 458 399T492 257T565 219ZM236 1511L421 1899H713L898 1511H707L568 1708L427 1511H236Z"  />
<glyph unicode="&#xD5;" horiz-adv-x="1130" d="M565 -23Q343 -23 209 178T74 719Q74 1057 207 1258T565 1460Q788 1460 922 1259T1057 719Q1057 380 923 179T565 -23ZM565 219Q614 219 638 256T672 398T682 719Q682 935 672 1039T638 1181T565 1219Q517 1219 493 1182T459 1040T449 719Q449 503 458 399T492 257T565 219ZM362 1573H223Q231 1692 293 1765T438 1839Q485 1839 586 1799Q671 1765 704 1765Q747 1765 766 1841H909Q897 1720 836 1648T694 1575Q638 1575 528 1620Q455 1651 430 1651Q379 1651 362 1573Z"  />
<glyph unicode="&#xD6;" horiz-adv-x="1130" d="M565 -23Q343 -23 209 178T74 719Q74 1057 207 1258T565 1460Q788 1460 922 1259T1057 719Q1057 380 923 179T565 -23ZM565 219Q614 219 638 256T672 398T682 719Q682 935 672 1039T638 1181T565 1219Q517 1219 493 1182T459 1040T449 719Q449 503 458 399T492 257T565 219ZM223 1716Q223 1770 261 1807T354 1845Q408 1845 445 1808T483 1716Q483 1662 445 1624T354 1585Q301 1585 262 1624T223 1716ZM651 1716Q651 1769 689 1807T782 1845Q836 1845 873 1808T911 1716Q911 1662 873 1624T782 1585Q729 1585 690 1624T651 1716Z"  />
<glyph unicode="&#xD7;" horiz-adv-x="1366" d="M309 1200L680 829L1051 1200L1206 1049L834 676L1204 305L1053 154L682 524L309 152L158 303L530 676L158 1049L309 1200Z"  />
<glyph unicode="&#xD8;" horiz-adv-x="1130" d="M174 233Q74 437 74 719Q74 1057 207 1258T565 1460Q717 1460 838 1358L907 1460L1057 1370L952 1208Q1057 1005 1057 719Q1057 380 923 179T565 -23Q415 -23 291 82L229 -29L74 61L174 233ZM453 700L668 1069Q659 1146 636 1182T565 1219Q517 1219 493 1182T459 1040T449 719V700H453ZM678 745L461 371Q469 294 490 257T565 219Q637 219 659 315T682 719V745H678Z"  />
<glyph unicode="&#xD9;" horiz-adv-x="1067" d="M35 1223V1438H547V1223H487V346Q487 193 590 193Q702 193 702 360V1223H641V1438H1032V1223H918V352Q918 184 816 81T547 -23Q351 -23 248 77T145 373V1223H35ZM753 1520H577L172 1899H559L753 1520Z"  />
<glyph unicode="&#xDA;" horiz-adv-x="1067" d="M35 1223V1438H547V1223H487V346Q487 193 590 193Q702 193 702 360V1223H641V1438H1032V1223H918V352Q918 184 816 81T547 -23Q351 -23 248 77T145 373V1223H35ZM342 1520L536 1899H923L518 1520H342Z"  />
<glyph unicode="&#xDB;" horiz-adv-x="1067" d="M35 1223V1438H547V1223H487V346Q487 193 590 193Q702 193 702 360V1223H641V1438H1032V1223H918V352Q918 184 816 81T547 -23Q351 -23 248 77T145 373V1223H35ZM203 1511L388 1899H680L865 1511H674L535 1708L394 1511H203Z"  />
<glyph unicode="&#xDC;" horiz-adv-x="1067" d="M35 1223V1438H547V1223H487V346Q487 193 590 193Q702 193 702 360V1223H641V1438H1032V1223H918V352Q918 184 816 81T547 -23Q351 -23 248 77T145 373V1223H35ZM190 1716Q190 1770 228 1807T321 1845Q375 1845 412 1808T450 1716Q450 1662 412 1624T321 1585Q268 1585 229 1624T190 1716ZM618 1716Q618 1769 656 1807T749 1845Q803 1845 840 1808T878 1716Q878 1662 840 1624T749 1585Q696 1585 657 1624T618 1716Z"  />
<glyph unicode="&#xDD;" horiz-adv-x="1174" d="M291 0V215H410V547L125 1223H27V1438H578V1223H449L625 793L809 1223H678V1438H1145V1223H1044L752 547V215H864V0H291ZM395 1520L589 1899H976L571 1520H395Z"  />
<glyph unicode="&#xDE;" horiz-adv-x="1110" d="M147 1249H47V1438H590V1249H489V1171H530Q760 1171 903 1051T1047 711Q1047 553 985 459T832 323T671 274T489 266V188H590V0H47V188H147V1249ZM489 956V481Q594 481 639 539T684 721Q684 956 489 956Z"  />
<glyph unicode="&#xDF;" horiz-adv-x="981" d="M25 0V215H139V1022Q139 1460 522 1460Q707 1460 803 1376T899 1130Q899 901 739 844Q833 799 875 707T918 444Q918 208 856 97T653 -14Q598 -14 535 10V227Q578 231 592 261T606 473Q606 579 584 621T500 664V926Q549 926 568 966T588 1104Q588 1180 571 1212T512 1245Q472 1245 455 1216T438 1120V215H471V0H25Z"  />
<glyph unicode="&#xE0;" horiz-adv-x="1004" d="M952 0H559V78Q468 -14 352 -14Q235 -14 157 78T78 311Q78 455 163 550T379 645Q470 645 559 584V690Q559 771 539 804T465 838Q394 838 367 760L98 815Q217 1032 502 1032Q668 1032 763 955T858 729V215H952V0ZM559 258V410Q521 457 473 457Q429 457 403 421T377 324Q377 265 401 233T469 201Q522 201 559 258ZM722 1094H546L141 1473H528L722 1094Z"  />
<glyph unicode="&#xE1;" horiz-adv-x="1004" d="M952 0H559V78Q468 -14 352 -14Q235 -14 157 78T78 311Q78 455 163 550T379 645Q470 645 559 584V690Q559 771 539 804T465 838Q394 838 367 760L98 815Q217 1032 502 1032Q668 1032 763 955T858 729V215H952V0ZM559 258V410Q521 457 473 457Q429 457 403 421T377 324Q377 265 401 233T469 201Q522 201 559 258ZM311 1094L505 1473H892L487 1094H311Z"  />
<glyph unicode="&#xE2;" horiz-adv-x="1004" d="M952 0H559V78Q468 -14 352 -14Q235 -14 157 78T78 311Q78 455 163 550T379 645Q470 645 559 584V690Q559 771 539 804T465 838Q394 838 367 760L98 815Q217 1032 502 1032Q668 1032 763 955T858 729V215H952V0ZM559 258V410Q521 457 473 457Q429 457 403 421T377 324Q377 265 401 233T469 201Q522 201 559 258ZM172 1085L357 1473H649L834 1085H643L504 1282L363 1085H172Z"  />
<glyph unicode="&#xE3;" horiz-adv-x="1004" d="M952 0H559V78Q468 -14 352 -14Q235 -14 157 78T78 311Q78 455 163 550T379 645Q470 645 559 584V690Q559 771 539 804T465 838Q394 838 367 760L98 815Q217 1032 502 1032Q668 1032 763 955T858 729V215H952V0ZM559 258V410Q521 457 473 457Q429 457 403 421T377 324Q377 265 401 233T469 201Q522 201 559 258ZM299 1147H160Q168 1266 230 1339T375 1413Q422 1413 523 1373Q608 1339 641 1339Q684 1339 703 1415H846Q834 1294 773 1222T631 1149Q575 1149 465 1194Q392 1225 367 1225Q316 1225 299 1147Z"  />
<glyph unicode="&#xE4;" horiz-adv-x="1004" d="M952 0H559V78Q468 -14 352 -14Q235 -14 157 78T78 311Q78 455 163 550T379 645Q470 645 559 584V690Q559 771 539 804T465 838Q394 838 367 760L98 815Q217 1032 502 1032Q668 1032 763 955T858 729V215H952V0ZM559 258V410Q521 457 473 457Q429 457 403 421T377 324Q377 265 401 233T469 201Q522 201 559 258ZM160 1290Q160 1344 198 1381T291 1419Q345 1419 382 1382T420 1290Q420 1236 382 1198T291 1159Q238 1159 199 1198T160 1290ZM588 1290Q588 1343 626 1381T719 1419Q773 1419 810 1382T848 1290Q848 1236 810 1198T719 1159Q666 1159 627 1198T588 1290Z"  />
<glyph unicode="&#xE5;" horiz-adv-x="1004" d="M952 0H559V78Q468 -14 352 -14Q235 -14 157 78T78 311Q78 455 163 550T379 645Q470 645 559 584V690Q559 771 539 804T465 838Q394 838 367 760L98 815Q217 1032 502 1032Q668 1032 763 955T858 729V215H952V0ZM559 258V410Q521 457 473 457Q429 457 403 421T377 324Q377 265 401 233T469 201Q522 201 559 258ZM295 1294Q295 1380 356 1440T504 1501Q590 1501 650 1441T711 1294Q711 1208 650 1147T504 1085Q418 1085 357 1147T295 1294ZM606 1294Q606 1337 576 1367T502 1397Q459 1397 430 1367T400 1294Q400 1251 429 1221T502 1190Q545 1190 575 1221T606 1294Z"  />
<glyph unicode="&#xE6;" horiz-adv-x="1386" d="M1059 313L1307 221Q1207 -29 944 -29Q741 -29 649 133Q501 -29 362 -29Q240 -29 163 62T86 299Q86 454 169 546T391 639Q481 639 563 575V711Q563 779 541 808T467 838Q396 838 373 756L104 809Q220 1032 504 1032Q630 1032 743 973Q840 1032 946 1032Q1019 1032 1087 1007T1213 915T1296 743T1323 457H862Q862 277 883 232T954 186Q1003 186 1025 216T1059 313ZM862 606H1024Q1024 741 1009 784T946 827Q898 827 880 785T862 606ZM563 238V408Q519 451 477 451Q430 451 404 418T377 326Q377 262 403 224T473 186Q514 186 563 238Z"  />
<glyph unicode="&#xE7;" horiz-adv-x="897" d="M268 -340L279 -225Q383 -225 408 -204T434 -152Q434 -98 342 -84Q362 -60 379 -20Q230 15 150 154T70 512Q70 740 161 880T401 1020Q543 1020 592 895H596V1004H811V598H596Q589 707 562 759T479 811Q421 811 401 743T381 512Q381 335 400 261T492 186Q542 186 565 237T596 397L827 311Q772 -13 504 -27V-31Q594 -60 594 -168Q594 -252 533 -300T365 -348Q305 -348 268 -340Z"  />
<glyph unicode="&#xE8;" horiz-adv-x="874" d="M557 313L805 221Q759 101 664 36T444 -29Q66 -29 66 514Q66 770 167 901T453 1032Q613 1032 716 909T819 551V457H362Q362 290 381 238T455 186Q501 186 524 217T557 313ZM362 606H520V655Q520 827 442 827Q396 827 379 775T362 606ZM657 1094H481L76 1473H463L657 1094Z"  />
<glyph unicode="&#xE9;" horiz-adv-x="874" d="M557 313L805 221Q759 101 664 36T444 -29Q66 -29 66 514Q66 770 167 901T453 1032Q613 1032 716 909T819 551V457H362Q362 290 381 238T455 186Q501 186 524 217T557 313ZM362 606H520V655Q520 827 442 827Q396 827 379 775T362 606ZM246 1094L440 1473H827L422 1094H246Z"  />
<glyph unicode="&#xEA;" horiz-adv-x="874" d="M557 313L805 221Q759 101 664 36T444 -29Q66 -29 66 514Q66 770 167 901T453 1032Q613 1032 716 909T819 551V457H362Q362 290 381 238T455 186Q501 186 524 217T557 313ZM362 606H520V655Q520 827 442 827Q396 827 379 775T362 606ZM106 1085L291 1473H583L768 1085H577L438 1282L297 1085H106Z"  />
<glyph unicode="&#xEB;" horiz-adv-x="874" d="M557 313L805 221Q759 101 664 36T444 -29Q66 -29 66 514Q66 770 167 901T453 1032Q613 1032 716 909T819 551V457H362Q362 290 381 238T455 186Q501 186 524 217T557 313ZM362 606H520V655Q520 827 442 827Q396 827 379 775T362 606ZM109 1290Q109 1344 147 1381T240 1419Q294 1419 331 1382T369 1290Q369 1236 331 1198T240 1159Q187 1159 148 1198T109 1290ZM537 1290Q537 1343 575 1381T668 1419Q722 1419 759 1382T797 1290Q797 1236 759 1198T668 1159Q615 1159 576 1198T537 1290Z"  />
<glyph unicode="&#xEC;" horiz-adv-x="618" d="M63 0V215H172V788H63V1004H471V215H567V0H63ZM531 1094H355L-50 1473H337L531 1094Z"  />
<glyph unicode="&#xED;" horiz-adv-x="618" d="M63 0V215H172V788H63V1004H471V215H567V0H63ZM120 1094L314 1473H701L296 1094H120Z"  />
<glyph unicode="&#xEE;" horiz-adv-x="618" d="M63 0V215H172V788H63V1004H471V215H567V0H63ZM-19 1085L166 1473H458L643 1085H452L313 1282L172 1085H-19Z"  />
<glyph unicode="&#xEF;" horiz-adv-x="618" d="M63 0V215H172V788H63V1004H471V215H567V0H63ZM-32 1290Q-32 1344 6 1381T99 1419Q153 1419 190 1382T228 1290Q228 1236 190 1198T99 1159Q46 1159 7 1198T-32 1290ZM396 1290Q396 1343 434 1381T527 1419Q581 1419 618 1382T656 1290Q656 1236 618 1198T527 1159Q474 1159 435 1198T396 1290Z"  />
<glyph unicode="&#xF0;" horiz-adv-x="981" d="M213 1184L424 1284Q362 1353 283 1397L438 1460Q524 1428 604 1370L793 1460L881 1382L690 1290Q913 1070 913 594Q913 287 798 129T485 -29Q308 -29 188 117T68 483Q68 721 175 876T434 1032Q526 1032 580 987L584 991Q550 1119 494 1196L303 1104L213 1184ZM492 803Q432 803 406 730T379 502Q379 347 405 274T492 201Q602 201 602 502Q602 803 492 803Z"  />
<glyph unicode="&#xF1;" horiz-adv-x="1087" d="M53 0V215H164V788H53V1004H463V897H471Q538 1020 688 1020Q804 1020 875 934T946 696V215H1047V0H647V647Q647 727 629 759T563 791Q538 791 520 782T463 743V215H549V0H53ZM340 1147H201Q209 1266 271 1339T416 1413Q463 1413 564 1373Q649 1339 682 1339Q725 1339 744 1415H887Q875 1294 814 1222T672 1149Q616 1149 506 1194Q433 1225 408 1225Q357 1225 340 1147Z"  />
<glyph unicode="&#xF2;" horiz-adv-x="981" d="M492 -29Q306 -29 187 119T68 502Q68 735 186 883T492 1032Q676 1032 794 884T913 502Q913 268 795 120T492 -29ZM492 803Q432 803 406 730T379 502Q379 347 405 274T492 201Q602 201 602 502Q602 803 492 803ZM710 1094H534L129 1473H516L710 1094Z"  />
<glyph unicode="&#xF3;" horiz-adv-x="981" d="M492 -29Q306 -29 187 119T68 502Q68 735 186 883T492 1032Q676 1032 794 884T913 502Q913 268 795 120T492 -29ZM492 803Q432 803 406 730T379 502Q379 347 405 274T492 201Q602 201 602 502Q602 803 492 803ZM299 1094L493 1473H880L475 1094H299Z"  />
<glyph unicode="&#xF4;" horiz-adv-x="981" d="M492 -29Q306 -29 187 119T68 502Q68 735 186 883T492 1032Q676 1032 794 884T913 502Q913 268 795 120T492 -29ZM492 803Q432 803 406 730T379 502Q379 347 405 274T492 201Q602 201 602 502Q602 803 492 803ZM160 1085L345 1473H637L822 1085H631L492 1282L351 1085H160Z"  />
<glyph unicode="&#xF5;" horiz-adv-x="981" d="M492 -29Q306 -29 187 119T68 502Q68 735 186 883T492 1032Q676 1032 794 884T913 502Q913 268 795 120T492 -29ZM492 803Q432 803 406 730T379 502Q379 347 405 274T492 201Q602 201 602 502Q602 803 492 803ZM286 1147H147Q155 1266 217 1339T362 1413Q409 1413 510 1373Q595 1339 628 1339Q671 1339 690 1415H833Q821 1294 760 1222T618 1149Q562 1149 452 1194Q379 1225 354 1225Q303 1225 286 1147Z"  />
<glyph unicode="&#xF6;" horiz-adv-x="981" d="M492 -29Q306 -29 187 119T68 502Q68 735 186 883T492 1032Q676 1032 794 884T913 502Q913 268 795 120T492 -29ZM492 803Q432 803 406 730T379 502Q379 347 405 274T492 201Q602 201 602 502Q602 803 492 803ZM150 1290Q150 1344 188 1381T281 1419Q335 1419 372 1382T410 1290Q410 1236 372 1198T281 1159Q228 1159 189 1198T150 1290ZM578 1290Q578 1343 616 1381T709 1419Q763 1419 800 1382T838 1290Q838 1236 800 1198T709 1159Q656 1159 617 1198T578 1290Z"  />
<glyph unicode="&#xF7;" horiz-adv-x="1368" d="M553 1090Q553 1143 590 1181T682 1219Q735 1219 773 1181T811 1090Q811 1036 774 999T682 961Q628 961 591 998T553 1090ZM127 784H1239V569H127V784ZM553 264Q553 318 590 355T682 393Q735 393 773 356T811 264Q811 211 773 173T682 135Q628 135 591 173T553 264Z"  />
<glyph unicode="&#xF8;" horiz-adv-x="981" d="M154 168Q117 217 93 312T68 502Q68 735 186 883T492 1032Q635 1032 733 946L791 1032L913 948L831 831Q913 694 913 502Q913 268 795 120T492 -29Q354 -29 252 53L188 -29L70 59L154 168ZM383 471L573 731Q549 803 492 803Q432 803 406 730T379 502V471H383ZM598 524L410 264Q435 201 492 201Q602 201 602 502V524H598Z"  />
<glyph unicode="&#xF9;" horiz-adv-x="1067" d="M920 1004V215H1030V0H621V80Q506 -16 395 -16Q279 -16 208 70T137 307V788H37V1004H436V356Q436 276 454 245T520 213Q546 213 563 221T621 260V788H535V1004H920ZM753 1094H577L172 1473H559L753 1094Z"  />
<glyph unicode="&#xFA;" horiz-adv-x="1067" d="M920 1004V215H1030V0H621V80Q506 -16 395 -16Q279 -16 208 70T137 307V788H37V1004H436V356Q436 276 454 245T520 213Q546 213 563 221T621 260V788H535V1004H920ZM342 1094L536 1473H923L518 1094H342Z"  />
<glyph unicode="&#xFB;" horiz-adv-x="1067" d="M920 1004V215H1030V0H621V80Q506 -16 395 -16Q279 -16 208 70T137 307V788H37V1004H436V356Q436 276 454 245T520 213Q546 213 563 221T621 260V788H535V1004H920ZM203 1085L388 1473H680L865 1085H674L535 1282L394 1085H203Z"  />
<glyph unicode="&#xFC;" horiz-adv-x="1067" d="M920 1004V215H1030V0H621V80Q506 -16 395 -16Q279 -16 208 70T137 307V788H37V1004H436V356Q436 276 454 245T520 213Q546 213 563 221T621 260V788H535V1004H920ZM190 1290Q190 1344 228 1381T321 1419Q375 1419 412 1382T450 1290Q450 1236 412 1198T321 1159Q268 1159 229 1198T190 1290ZM618 1290Q618 1343 656 1381T749 1419Q803 1419 840 1382T878 1290Q878 1236 840 1198T749 1159Q696 1159 657 1198T618 1290Z"  />
<glyph unicode="&#xFD;" horiz-adv-x="918" d="M207 -455V-240H348L391 -55L96 788H25V1004H434V788H367L502 397H506L600 788H535V1004H893V788H813L504 -455H207ZM268 1094L462 1473H849L444 1094H268Z"  />
<glyph unicode="&#xFE;" horiz-adv-x="981" d="M37 -459V-244H135V1223H37V1438H434V903H438Q504 1020 618 1020Q759 1020 835 888T911 506Q911 253 836 119T623 -16Q518 -16 434 78V-244H571V-459H37ZM434 602V385Q434 285 453 242T518 199Q575 199 587 267T600 508Q600 661 582 720T516 780Q434 780 434 602Z"  />
<glyph unicode="&#xFF;" horiz-adv-x="918" d="M207 -455V-240H348L391 -55L96 788H25V1004H434V788H367L502 397H506L600 788H535V1004H893V788H813L504 -455H207ZM117 1290Q117 1344 155 1381T248 1419Q302 1419 339 1382T377 1290Q377 1236 339 1198T248 1159Q195 1159 156 1198T117 1290ZM545 1290Q545 1343 583 1381T676 1419Q730 1419 767 1382T805 1290Q805 1236 767 1198T676 1159Q623 1159 584 1198T545 1290Z"  />
<glyph unicode="&#x131;" horiz-adv-x="618" d="M63 0V215H172V788H63V1004H471V215H567V0H63Z"  />
<glyph unicode="&#x152;" horiz-adv-x="1493" d="M1417 0H670Q383 0 229 179T74 682Q74 1438 674 1438H1417V979H1161V1223H975V842H1130V627H975V215H1161V471H1417V0ZM633 215V1223Q528 1208 489 1119T449 741Q449 542 460 441T510 284T633 215Z"  />
<glyph unicode="&#x153;" horiz-adv-x="1366" d="M1036 311L1280 215Q1182 -29 922 -29Q780 -29 690 51Q591 -29 469 -29Q284 -29 174 115T63 506Q63 745 174 888T467 1032Q602 1032 698 950Q796 1032 928 1032Q1010 1032 1079 1003T1200 906T1274 735T1296 457H840V350Q840 256 860 221T932 186Q973 186 996 215T1036 311ZM838 606H999Q999 728 985 777T922 827Q870 827 854 782T838 606ZM457 803Q409 803 392 736T375 475Q375 331 392 266T461 201Q508 201 525 262T543 514Q543 671 526 737T457 803Z"  />
<glyph unicode="&#x160;" horiz-adv-x="897" d="M74 0V467H289Q289 303 324 254T416 205Q467 205 495 243T524 348Q524 402 492 461T331 640Q157 800 109 903T61 1106Q61 1257 145 1353T358 1450Q422 1450 470 1431T584 1348V1438H799V1004H584Q584 1141 552 1188T461 1235Q418 1235 393 1206T367 1128Q367 1068 396 1023T514 903Q712 733 773 619T834 375Q834 208 742 98T510 -12Q388 -12 289 90V0H74ZM781 1899L596 1511H304L119 1899H310L449 1702L590 1899H781Z"  />
<glyph unicode="&#x161;" horiz-adv-x="748" d="M70 0V272H285Q294 164 371 164Q401 164 418 183T436 233Q436 261 415 291T301 383Q145 489 100 571T55 739Q55 865 119 942T289 1020Q381 1020 446 938H451V1004H666V743H451Q436 848 367 848Q336 848 318 829T299 778Q299 748 322 717T440 623Q518 573 568 531T654 421T690 262Q690 136 626 60T457 -16Q392 -16 363 -1T307 46Q295 60 289 66H285V0H70ZM705 1473L520 1085H228L43 1473H234L373 1276L514 1473H705Z"  />
<glyph unicode="&#x178;" horiz-adv-x="1174" d="M291 0V215H410V547L125 1223H27V1438H578V1223H449L625 793L809 1223H678V1438H1145V1223H1044L752 547V215H864V0H291ZM244 1716Q244 1770 282 1807T375 1845Q429 1845 466 1808T504 1716Q504 1662 466 1624T375 1585Q322 1585 283 1624T244 1716ZM672 1716Q672 1769 710 1807T803 1845Q857 1845 894 1808T932 1716Q932 1662 894 1624T803 1585Q750 1585 711 1624T672 1716Z"  />
<glyph unicode="&#x17D;" horiz-adv-x="961" d="M51 0V215L549 1223H297V983H82V1438H901V1223L406 215H694V473H909V0H51ZM812 1899L627 1511H335L150 1899H341L480 1702L621 1899H812Z"  />
<glyph unicode="&#x17E;" horiz-adv-x="831" d="M45 0V197L485 827H262V684H72V1004H780V811L340 176H596V328H786V0H45ZM748 1473L563 1085H271L86 1473H277L416 1276L557 1473H748Z"  />
<glyph unicode="&#x192;" horiz-adv-x="1139" d="M905 1004L862 694H729L590 -152Q565 -297 509 -378T375 -459H158L195 -188Q271 -188 303 -159T352 -29L473 694H352L395 1004H518Q554 1214 575 1286T642 1409T762 1460H979L942 1196Q872 1196 857 1194T827 1176T804 1133T774 1004H905Z"  />
<glyph unicode="&#x2C6;" horiz-adv-x="682" d="M10 1085L195 1473H487L672 1085H481L342 1282L201 1085H10Z"  />
<glyph unicode="&#x2C7;" horiz-adv-x="682" d="M672 1473L487 1085H195L10 1473H201L340 1276L481 1473H672Z"  />
<glyph unicode="&#x2DA;" horiz-adv-x="682" d="M133 1294Q133 1380 194 1440T342 1501Q428 1501 488 1441T549 1294Q549 1208 488 1147T342 1085Q256 1085 195 1147T133 1294ZM444 1294Q444 1337 414 1367T340 1397Q297 1397 268 1367T238 1294Q238 1251 267 1221T340 1190Q383 1190 413 1221T444 1294Z"  />
<glyph unicode="&#x2DC;" horiz-adv-x="682" d="M137 1147H-2Q6 1266 68 1339T213 1413Q260 1413 361 1373Q446 1339 479 1339Q522 1339 541 1415H684Q672 1294 611 1222T469 1149Q413 1149 303 1194Q230 1225 205 1225Q154 1225 137 1147Z"  />
<glyph unicode="&#x2013;" horiz-adv-x="1024" d="M-12 604H1036V420H-12V604Z"  />
<glyph unicode="&#x2014;" horiz-adv-x="2048" d="M-12 604H2060V420H-12V604Z"  />
<glyph unicode="&#x2018;" horiz-adv-x="598" d="M459 1438V1278Q305 1264 305 1055H459V735H139V1044Q139 1420 459 1438Z"  />
<glyph unicode="&#x2019;" horiz-adv-x="598" d="M139 735V895Q293 909 293 1118H139V1438H459V1128Q459 753 139 735Z"  />
<glyph unicode="&#x201A;" horiz-adv-x="598" d="M139 -383V-223Q293 -209 293 0H139V319H459V10Q459 -365 139 -383Z"  />
<glyph unicode="&#x201C;" horiz-adv-x="1067" d="M932 1438V1278Q778 1264 778 1055H932V735H612V1044Q612 1420 932 1438ZM455 1438V1278Q301 1264 301 1055H455V735H135V1044Q135 1420 455 1438Z"  />
<glyph unicode="&#x201D;" horiz-adv-x="1067" d="M612 735V895Q766 909 766 1118H612V1438H932V1128Q932 753 612 735ZM135 735V895Q289 909 289 1118H135V1438H455V1128Q455 753 135 735Z"  />
<glyph unicode="&#x201E;" horiz-adv-x="1067" d="M612 -383V-223Q766 -209 766 0H612V319H932V10Q932 -365 612 -383ZM135 -383V-223Q289 -209 289 0H135V319H455V10Q455 -365 135 -383Z"  />
<glyph unicode="&#x2020;" horiz-adv-x="874" d="M371 -459L299 311V582Q381 655 383 840H375Q291 840 266 764H61V1016H266Q291 944 383 942Q383 1047 364 1103T299 1196V1438H578V1196Q530 1158 511 1102T492 942Q583 944 608 1016H815V764H608Q584 840 500 840H492Q493 654 578 582V311L504 -459H371Z"  />
<glyph unicode="&#x2021;" horiz-adv-x="874" d="M301 -459V-217Q352 -180 369 -125T387 33Q326 32 300 17T264 -41H61V217H264Q283 142 387 137Q387 279 368 350T301 487Q387 588 387 840Q285 840 264 762H61V1016H264Q281 944 387 942Q387 1141 301 1194V1438H575V1194Q529 1163 508 1107T487 942Q594 944 610 1016H815V762H610Q590 840 487 840Q487 587 575 487Q525 421 506 350T487 137Q592 141 610 217H815V-41H610Q600 2 575 17T487 33Q487 -75 507 -129T575 -217V-459H301Z"  />
<glyph unicode="&#x2022;" horiz-adv-x="717" d="M74 678Q74 796 158 879T360 963Q478 963 561 880T645 678Q645 559 562 475T360 391Q243 391 159 475T74 678Z"  />
<glyph unicode="&#x2026;" horiz-adv-x="2048" d="M864 0V319H1184V0H864ZM1546 0V319H1866V0H1546ZM182 0V319H502V0H182Z"  />
<glyph unicode="&#x2030;" horiz-adv-x="1749" d="M256 -16L823 1454H977L410 -16H256ZM260 659Q135 659 82 755T29 1057Q29 1268 84 1361T260 1454Q380 1454 434 1358T489 1057Q489 850 434 755T260 659ZM301 938V1174Q301 1257 293 1281T260 1305Q235 1305 226 1281T217 1171V940Q217 856 225 833T258 809Q285 809 293 831T301 938ZM1493 -16Q1368 -16 1315 79T1262 381Q1262 593 1317 685T1493 778Q1613 778 1667 682T1722 381Q1722 181 1669 83T1493 -16ZM1534 262V498Q1534 582 1526 605T1493 629Q1468 629 1459 605T1450 496V264Q1450 180 1458 157T1491 133Q1518 133 1526 155T1534 262ZM977 -16Q852 -16 799 79T745 381Q745 593 801 685T977 778Q1097 778 1151 682T1206 381Q1206 181 1153 83T977 -16ZM1018 262V498Q1018 582 1010 605T977 629Q952 629 943 605T934 496V264Q934 180 942 157T975 133Q1002 133 1010 155T1018 262Z"  />
<glyph unicode="&#x2039;" horiz-adv-x="598" d="M309 0L35 502L309 1004H569L297 502L569 0H309Z"  />
<glyph unicode="&#x203A;" horiz-adv-x="598" d="M287 0H29L299 502L29 1004H287L563 502L287 0Z"  />
<glyph unicode="&#x20AC;" horiz-adv-x="874" d="M823 397Q805 189 718 80T485 -29Q414 -29 353 2T243 100T161 268T113 512H25V657H102V739V768H25V913H109Q120 1051 148 1153T218 1322T311 1421T422 1454Q448 1454 471 1451T515 1437T557 1409T600 1360H602V1438H786V1014H600Q591 1126 566 1182T492 1239Q467 1239 450 1223T420 1168T402 1068T393 913H600V768H391V741V657H600V512H395Q398 421 405 359T426 259T459 203T506 186Q555 186 575 245T604 424L823 397H823Z"  />
<glyph unicode="&#x2122;" horiz-adv-x="2048" d="M451 618V1294H197V1438H862V1294H616V618H451ZM958 618V1438H1219L1366 872H1370L1518 1438H1778V618H1620V1272H1616L1442 618H1292L1120 1272H1116V618H958Z"  />
<glyph unicode="&#x2215;" horiz-adv-x="213" d="M-254 -16L313 1454H465L-100 -16H-254Z"  />
<glyph unicode="&#x2219;" horiz-adv-x="598" d="M139 580V899H459V580H139Z"  />
<glyph unicode="&#xF003;" horiz-adv-x="512" d="M197 676V823H257V885H48Q41 936 17 987L273 1454H439V1012H488V885H439V823H488V676H197ZM175 1012H257Q259 1139 265 1206L261 1211Q224 1101 175 1012Z"  />

</font>
</defs>
</svg>
